<svg width="12" height="12" viewBox="0 0 12 12" fill="none" xmlns="http://www.w3.org/2000/svg">
    <path fill-rule="evenodd" clip-rule="evenodd" d="M4.94118 5.47059H3.52941C3.23703 5.47059 3 5.70761 3 6C3 6.29239 3.23703 6.52941 3.52941 6.52941H4.94118C5.23356 6.52941 5.47059 6.76644 5.47059 7.05882V8.47059C5.47059 8.76297 5.70761 9 6 9C6.29239 9 6.52941 8.76297 6.52941 8.47059V7.05882C6.52941 6.76644 6.76644 6.52941 7.05882 6.52941H8.47059C8.76297 6.52941 9 6.29239 9 6C9 5.70761 8.76297 5.47059 8.47059 5.47059H7.05882C6.76644 5.47059 6.52941 5.23356 6.52941 4.94118V3.52941C6.52941 3.23703 6.29239 3 6 3C5.70761 3 5.47059 3.23703 5.47059 3.52941V4.94118C5.47059 5.23356 5.23356 5.47059 4.94118 5.47059Z" fill="#9DA7D8"/>
    <path d="M6 10.9412C8.72894 10.9412 10.9412 8.72894 10.9412 6C10.9412 3.27106 8.72894 1.05882 6 1.05882C3.27106 1.05882 1.05882 3.27106 1.05882 6C1.05882 8.72894 3.27106 10.9412 6 10.9412ZM6 12C2.68629 12 0 9.31371 0 6C0 2.68629 2.68629 0 6 0C9.31371 0 12 2.68629 12 6C12 9.31371 9.31371 12 6 12Z" fill="#9DA7D8"/>
</svg>
