<svg width="14" height="14" viewBox="0 0 14 14" fill="none" xmlns="http://www.w3.org/2000/svg">
<path d="M4.4535 1.66656H1.00016C0.823352 1.66656 0.653782 1.7368 0.528758 1.86182C0.403734 1.98685 0.333496 2.15642 0.333496 2.33323C0.333496 2.51004 0.403734 2.67961 0.528758 2.80463C0.653782 2.92966 0.823352 2.99989 1.00016 2.99989H4.4535C4.59363 3.386 4.84925 3.71959 5.18561 3.95533C5.52196 4.19108 5.92275 4.31754 6.3335 4.31754C6.74424 4.31754 7.14503 4.19108 7.48139 3.95533C7.81774 3.71959 8.07336 3.386 8.2135 2.99989H13.0002C13.177 2.99989 13.3465 2.92966 13.4716 2.80463C13.5966 2.67961 13.6668 2.51004 13.6668 2.33323C13.6668 2.15642 13.5966 1.98685 13.4716 1.86182C13.3465 1.7368 13.177 1.66656 13.0002 1.66656H8.2135C8.07336 1.28046 7.81774 0.946867 7.48139 0.711122C7.14503 0.475376 6.74424 0.348909 6.3335 0.348909C5.92275 0.348909 5.52196 0.475376 5.18561 0.711122C4.84925 0.946867 4.59363 1.28046 4.4535 1.66656ZM7.00016 2.33323C7.00016 2.46508 6.96106 2.59398 6.88781 2.70361C6.81456 2.81324 6.71044 2.89869 6.58862 2.94915C6.4668 2.99961 6.33276 3.01281 6.20344 2.98708C6.07412 2.96136 5.95533 2.89787 5.86209 2.80463C5.76886 2.7114 5.70536 2.59261 5.67964 2.46329C5.65392 2.33397 5.66712 2.19992 5.71758 2.07811C5.76803 1.95629 5.85348 1.85217 5.96312 1.77891C6.07275 1.70566 6.20164 1.66656 6.3335 1.66656C6.51031 1.66656 6.67988 1.7368 6.8049 1.86182C6.92992 1.98685 7.00016 2.15642 7.00016 2.33323ZM8.4535 6.33323L1.00016 6.33323C0.823352 6.33323 0.653782 6.40347 0.528758 6.52849C0.403734 6.65351 0.333496 6.82308 0.333496 6.99989C0.333496 7.17671 0.403734 7.34627 0.528758 7.4713C0.653782 7.59632 0.823352 7.66656 1.00016 7.66656L8.4535 7.66656C8.59363 8.05266 8.84925 8.38625 9.18561 8.622C9.52196 8.85775 9.92275 8.98421 10.3335 8.98421C10.7442 8.98421 11.145 8.85775 11.4814 8.622C11.8177 8.38625 12.0734 8.05266 12.2135 7.66656H13.0002C13.177 7.66656 13.3465 7.59632 13.4716 7.4713C13.5966 7.34627 13.6668 7.17671 13.6668 6.99989C13.6668 6.82308 13.5966 6.65351 13.4716 6.52849C13.3465 6.40347 13.177 6.33323 13.0002 6.33323H12.2135C12.0734 5.94713 11.8177 5.61353 11.4814 5.37779C11.145 5.14204 10.7442 5.01558 10.3335 5.01558C9.92275 5.01558 9.52196 5.14204 9.18561 5.37779C8.84925 5.61353 8.59363 5.94713 8.4535 6.33323ZM11.0002 6.99989C11.0002 7.13175 10.9611 7.26064 10.8878 7.37027C10.8146 7.47991 10.7104 7.56536 10.5886 7.61581C10.4668 7.66627 10.3328 7.67947 10.2034 7.65375C10.0741 7.62803 9.95533 7.56453 9.86209 7.4713C9.76886 7.37806 9.70536 7.25927 9.67964 7.12995C9.65392 7.00063 9.66712 6.86659 9.71758 6.74477C9.76803 6.62295 9.85348 6.51884 9.96312 6.44558C10.0727 6.37233 10.2016 6.33323 10.3335 6.33323C10.5103 6.33323 10.6799 6.40347 10.8049 6.52849C10.9299 6.65351 11.0002 6.82308 11.0002 6.99989ZM3.12016 10.9999H1.00016C0.823352 10.9999 0.653782 11.0701 0.528758 11.1952C0.403734 11.3202 0.333496 11.4898 0.333496 11.6666C0.333496 11.8434 0.403734 12.0129 0.528758 12.138C0.653782 12.263 0.823352 12.3332 1.00016 12.3332H3.12016C3.2603 12.7193 3.51592 13.0529 3.85227 13.2887C4.18863 13.5244 4.58942 13.6509 5.00016 13.6509C5.41091 13.6509 5.8117 13.5244 6.14805 13.2887C6.48441 13.0529 6.74003 12.7193 6.88016 12.3332H13.0002C13.177 12.3332 13.3465 12.263 13.4716 12.138C13.5966 12.0129 13.6668 11.8434 13.6668 11.6666C13.6668 11.4898 13.5966 11.3202 13.4716 11.1952C13.3465 11.0701 13.177 10.9999 13.0002 10.9999H6.88016C6.74003 10.6138 6.48441 10.2802 6.14805 10.0445C5.8117 9.80871 5.41091 9.68224 5.00016 9.68224C4.58942 9.68224 4.18863 9.80871 3.85227 10.0445C3.51592 10.2802 3.2603 10.6138 3.12016 10.9999ZM5.66683 11.6666C5.66683 11.7984 5.62773 11.9273 5.55448 12.0369C5.48122 12.1466 5.3771 12.232 5.25529 12.2825C5.13347 12.3329 4.99942 12.3461 4.8701 12.3204C4.74078 12.2947 4.62199 12.2312 4.52876 12.138C4.43552 12.0447 4.37203 11.9259 4.34631 11.7966C4.32058 11.6673 4.33378 11.5333 4.38424 11.4114C4.4347 11.2896 4.52015 11.1855 4.62978 11.1122C4.73942 11.039 4.86831 10.9999 5.00016 10.9999C5.17697 10.9999 5.34654 11.0701 5.47157 11.1952C5.59659 11.3202 5.66683 11.4898 5.66683 11.6666Z" fill="#A5ABC9"/>
</svg>
