<svg width="12" height="12" viewBox="0 0 12 12" fill="none" xmlns="http://www.w3.org/2000/svg">
    <path d="M12 6.09361C12 6.34946 11.9241 6.59956 11.782 6.81228C11.6399 7.02501 11.4378 7.19081 11.2015 7.28871C10.9651 7.38662 10.705 7.41224 10.4541 7.36233C10.2031 7.31241 9.97265 7.18921 9.79174 7.0083C9.61084 6.8274 9.48764 6.5969 9.43772 6.34598C9.38781 6.09505 9.41343 5.83496 9.51133 5.59859C9.60924 5.36222 9.77504 5.16019 9.98777 5.01805C10.2005 4.87592 10.4506 4.80005 10.7064 4.80005C11.0494 4.80045 11.3782 4.93687 11.6207 5.17937C11.8632 5.42188 11.9996 5.75066 12 6.09361ZM1.29357 4.80005C1.03772 4.80005 0.787626 4.87592 0.5749 5.01805C0.362174 5.16019 0.196374 5.36222 0.0984674 5.59859C0.000560441 5.83496 -0.0250564 6.09505 0.0248561 6.34598C0.0747686 6.5969 0.197969 6.8274 0.378877 7.0083C0.559786 7.18921 0.790277 7.31241 1.0412 7.36233C1.29213 7.41224 1.55222 7.38662 1.78859 7.28871C2.02496 7.19081 2.22699 7.02501 2.36913 6.81228C2.51127 6.59956 2.58713 6.34946 2.58713 6.09361C2.58673 5.75066 2.45031 5.42188 2.20781 5.17937C1.9653 4.93687 1.63652 4.80045 1.29357 4.80005ZM6 4.80005C5.74416 4.80005 5.49406 4.87592 5.28133 5.01805C5.06861 5.16019 4.90281 5.36222 4.8049 5.59859C4.70699 5.83496 4.68138 6.09505 4.73129 6.34598C4.7812 6.5969 4.9044 6.8274 5.08531 7.0083C5.26622 7.18921 5.49671 7.31241 5.74764 7.36233C5.99856 7.41224 6.25866 7.38662 6.49503 7.28871C6.73139 7.19081 6.93342 7.02501 7.07556 6.81228C7.2177 6.59956 7.29357 6.34946 7.29357 6.09361C7.29316 5.75066 7.15674 5.42188 6.91424 5.17937C6.67174 4.93687 6.34295 4.80045 6 4.80005Z" fill="#4A67C6"/>
</svg>
