<svg width="18" height="20" viewBox="0 0 18 20" fill="none" xmlns="http://www.w3.org/2000/svg">
    <path fill-rule="evenodd" clip-rule="evenodd" d="M7.09091 2.38792C4.26781 3.1142 2.18182 5.6759 2.18182 8.727V13.0903C2.18182 13.4923 1.85518 13.8182 1.4553 13.8182C0.651562 13.8182 0 14.471 0 15.2727V16.3647C0 16.565 0.161648 16.7273 0.364563 16.7273H17.09C17.2913 16.7273 17.4545 16.5625 17.4545 16.3647V15.2727C17.4545 14.4694 16.7999 13.8182 15.9992 13.8182C15.598 13.8182 15.2727 13.4948 15.2727 13.0903V8.727C15.2727 5.67711 13.1872 3.11444 10.3636 2.38795V1.63667C10.3636 0.730636 9.63101 0 8.72727 0C7.82537 0 7.09091 0.732764 7.09091 1.63667V2.38792ZM6.18182 17.4545H11.2727C11.2727 18.8604 10.1331 20 8.72727 20C7.32146 20 6.18182 18.8604 6.18182 17.4545Z" fill="#9DA7D8"/>
</svg>
