<svg width="20" height="13" viewBox="0 0 20 13" fill="none" xmlns="http://www.w3.org/2000/svg">
<path d="M13.9791 10.7397C12.8588 11.6578 11.4483 12.1475 10 12.1211C8.55171 12.1475 7.14124 11.6578 6.02089 10.7397C6.43868 8.76863 7.47978 7.61297 8.95216 7.25583C8.39337 7.01472 7.93483 6.58829 7.65387 6.04845C7.3729 5.50861 7.28669 4.88839 7.40979 4.29239C7.53289 3.69639 7.85776 3.16107 8.32961 2.77672C8.80146 2.39237 9.39142 2.18249 10 2.18249C10.6086 2.18249 11.1985 2.39237 11.6704 2.77672C12.1422 3.16107 12.4671 3.69639 12.5902 4.29239C12.7133 4.88839 12.6271 5.50861 12.3461 6.04845C12.0652 6.58829 11.6066 7.01472 11.0478 7.25583C12.5202 7.61297 13.5613 8.76863 13.9791 10.7397ZM4.1341 4.14936C4.58913 3.94911 4.96145 3.59845 5.18858 3.15621C5.41571 2.71398 5.48384 2.20709 5.38152 1.72058C5.2792 1.23407 5.01268 0.797552 4.62665 0.484269C4.24063 0.170986 3.75861 0 3.26146 0C2.7643 0 2.28228 0.170986 1.89626 0.484269C1.51024 0.797552 1.24371 1.23407 1.14139 1.72058C1.03907 2.20709 1.1072 2.71398 1.33433 3.15621C1.56146 3.59845 1.93378 3.94911 2.38881 4.14936C1.18935 4.44586 0.343666 5.39262 0 7.00313C0.919523 7.75238 2.0756 8.15008 3.26146 8.1251C4.44626 8.14986 5.6012 7.75214 6.51954 7.00313C6.17925 5.38251 5.33356 4.44586 4.1341 4.14936ZM17.6112 4.14936C18.0662 3.94911 18.4385 3.59845 18.6657 3.15621C18.8928 2.71398 18.9609 2.20709 18.8586 1.72058C18.7563 1.23407 18.4898 0.797552 18.1037 0.484269C17.7177 0.170986 17.2357 0 16.7385 0C16.2414 0 15.7594 0.170986 15.3733 0.484269C14.9873 0.797552 14.7208 1.23407 14.6185 1.72058C14.5162 2.20709 14.5843 2.71398 14.8114 3.15621C15.0385 3.59845 15.4109 3.94911 15.8659 4.14936C14.6664 4.44586 13.8208 5.39262 13.4805 7.00313C14.3988 7.75214 15.5537 8.14986 16.7385 8.1251C17.9244 8.15008 19.0805 7.75238 20 7.00313C19.6563 5.38251 18.8106 4.44586 17.6112 4.14936Z" fill="#4A67C6"/>
</svg>
