<svg width="20" height="20" viewBox="0 0 20 20" fill="none" xmlns="http://www.w3.org/2000/svg">
<path d="M20 17.7383L14.6741 12.4123C15.5121 11.1465 15.9998 9.63146 15.9998 8.0006C15.9998 3.58159 12.4182 0 7.9999 0C3.58151 0 0 3.58159 0 8.0006C0 12.4184 3.58155 16.0012 7.9999 16.0012C9.6301 16.0012 11.1469 15.5118 12.4115 14.6743L17.7374 20.0003L20 17.7383ZM2.26687 8.00181C2.26687 4.83525 4.834 2.26929 7.9999 2.26929C11.1664 2.26929 13.7335 4.83525 13.7335 8.00181C13.7335 11.1684 11.1664 13.7355 7.9999 13.7355C4.834 13.7355 2.26687 11.1684 2.26687 8.00181Z" fill="#9DA7D8"/>
</svg>
