<svg width="20" height="20" viewBox="0 0 20 20" fill="none" xmlns="http://www.w3.org/2000/svg">
    <path d="M19.7339 7.74227C19.7081 7.67675 19.6739 7.61492 19.6319 7.55837C19.4544 7.33095 19.2253 7.14906 18.9636 7.02775C18.7019 6.90644 18.415 6.8492 18.1267 6.86075H18.0248C17.86 6.8565 17.6993 6.80878 17.5589 6.72243C17.4185 6.63608 17.3034 6.51416 17.2252 6.36902C17.2215 6.36932 17.2177 6.36881 17.2142 6.36751C17.2107 6.36621 17.2074 6.36416 17.2048 6.3615C17.2021 6.35883 17.2001 6.35563 17.1988 6.35209C17.1975 6.34856 17.197 6.34479 17.1973 6.34104C17.0913 6.15714 16.9974 6.00522 16.8894 5.82132C16.8839 5.82003 16.879 5.81699 16.8754 5.81267C16.8718 5.80834 16.8697 5.80296 16.8694 5.79733C16.7817 5.65366 16.733 5.48958 16.7281 5.32131C16.7232 5.15304 16.7622 4.9864 16.8414 4.83786C16.8545 4.82882 16.8657 4.81728 16.8743 4.8039C16.8828 4.79051 16.8887 4.77556 16.8914 4.7599C17.042 4.50417 17.1338 4.21811 17.1601 3.9225C17.1864 3.62688 17.1465 3.32912 17.0433 3.05084C17.0238 2.98257 16.989 2.91966 16.9414 2.86694C16.601 2.54516 16.2434 2.24221 15.87 1.95943C15.82 1.93544 15.764 1.90946 15.6901 1.88147C15.402 1.82229 15.104 1.83142 14.8201 1.90813C14.5361 1.98484 14.2741 2.12701 14.055 2.32323C14.0256 2.3315 13.9997 2.34903 13.981 2.37321C13.8246 2.50648 13.6247 2.57762 13.4193 2.5731C13.2954 2.57088 13.1732 2.5444 13.0595 2.49514C12.8696 2.41393 12.6738 2.34711 12.4738 2.29525C12.3168 2.2393 12.1774 2.14264 12.0699 2.01515C11.9624 1.88766 11.8907 1.73392 11.8622 1.56964C11.8565 1.53477 11.8471 1.5006 11.8342 1.4677C11.7973 1.17336 11.6896 0.892346 11.5204 0.648674C11.3513 0.405002 11.1256 0.205925 10.8627 0.068464C10.8086 0.0373023 10.7473 0.0207688 10.6848 0.0204902C10.2261 -0.00683008 9.76624 -0.00683008 9.30756 0.0204902C9.24507 0.026151 9.18412 0.0430817 9.12766 0.0704629C8.86508 0.21441 8.64022 0.418353 8.4714 0.665677C8.30258 0.913001 8.19458 1.19671 8.15619 1.49369C8.14562 1.50349 8.13756 1.51568 8.1327 1.52925C8.12782 1.54282 8.12629 1.55736 8.12821 1.57164C8.10272 1.7371 8.03215 1.89233 7.92426 2.02033C7.81636 2.14832 7.6753 2.24413 7.51654 2.29725C7.34064 2.34722 7.13475 2.42518 6.93086 2.49714C6.81282 2.52535 6.69232 2.54209 6.57106 2.54711C6.36674 2.54517 6.16897 2.47479 6.00937 2.34722C5.98538 2.31923 5.95939 2.31923 5.93541 2.29325C5.7169 2.09607 5.4549 1.95328 5.17077 1.87652C4.88663 1.79975 4.58838 1.79118 4.3003 1.85149C4.2325 1.8532 4.16801 1.88114 4.1204 1.92945C3.73366 2.19521 3.37411 2.49852 3.04698 2.83495C3.00416 2.89091 2.96981 2.95288 2.94504 3.01885C2.83678 3.29613 2.79416 3.59471 2.82051 3.89121C2.84687 4.18771 2.94148 4.47408 3.09696 4.72792C3.11584 4.75241 3.13256 4.77849 3.14693 4.80588C3.22576 4.95453 3.26462 5.12112 3.25972 5.28931C3.25481 5.45751 3.2063 5.62154 3.11894 5.76535C3.11519 5.76505 3.11142 5.76557 3.10789 5.76687C3.10436 5.76817 3.10115 5.77022 3.09849 5.77288C3.09583 5.77554 3.09377 5.77875 3.09247 5.78228C3.09118 5.78581 3.09066 5.78959 3.09096 5.79334C2.98115 5.95924 2.88361 6.13294 2.79912 6.31305C2.79537 6.31275 2.7916 6.31327 2.78806 6.31457C2.78453 6.31587 2.78132 6.31792 2.77866 6.32058C2.776 6.32324 2.77395 6.32645 2.77265 6.32998C2.77135 6.33351 2.77083 6.33729 2.77113 6.34104C2.69752 6.48984 2.58347 6.6149 2.44206 6.70187C2.30064 6.78884 2.13758 6.83421 1.97157 6.83277H1.86763C1.57957 6.82535 1.29371 6.88484 1.03254 7.00659C0.771362 7.12833 0.541988 7.309 0.36245 7.53439C0.314895 7.58711 0.280025 7.65002 0.260506 7.71829C0.13842 8.195 0.0515663 8.68004 0.000647873 9.16949C-0.00267702 9.23729 0.00681722 9.30511 0.0286326 9.36938C0.122187 9.64095 0.27625 9.88769 0.479178 10.091C0.682106 10.2942 0.928587 10.4487 1.19999 10.5427C1.23473 10.5491 1.26885 10.5584 1.30194 10.5707C1.45764 10.6248 1.59505 10.7215 1.69857 10.8497C1.8021 10.978 1.86759 11.1327 1.88762 11.2963V11.3243C1.9076 11.5263 1.94167 11.7267 1.98956 11.924V11.952C2.01803 12.1166 2.00476 12.2858 1.95099 12.4439C1.89721 12.6021 1.80464 12.7443 1.68173 12.8575C1.65234 12.8657 1.62641 12.8833 1.60777 12.9075C1.38677 13.0858 1.20813 13.3111 1.08472 13.5668C0.96132 13.8226 0.896233 14.1026 0.89416 14.3866C0.900373 14.4555 0.917232 14.5229 0.944133 14.5865C1.169 15.0445 1.42478 15.4866 1.70971 15.9098C1.72134 15.9464 1.74157 15.9796 1.76869 16.0067C1.79582 16.0339 1.82907 16.0541 1.86563 16.0657C2.10746 16.2016 2.37676 16.2813 2.65358 16.2989C2.93039 16.3166 3.20763 16.2717 3.46476 16.1677C3.48275 16.1713 3.50134 16.1706 3.51904 16.1657C3.53674 16.1609 3.55306 16.152 3.5667 16.1397C3.66573 16.1057 3.76983 16.0888 3.87453 16.0897C3.98639 16.0893 4.09742 16.1089 4.20235 16.1477C4.31327 16.1904 4.41706 16.2497 4.51018 16.3236L4.96993 16.7234L4.99792 16.7514C5.12418 16.8566 5.22108 16.9927 5.27922 17.1465C5.33736 17.3002 5.35476 17.4664 5.32974 17.6289C5.31063 17.6594 5.3009 17.6948 5.30175 17.7308C5.24474 18.0044 5.24737 18.2871 5.30946 18.5596C5.37155 18.8321 5.49164 19.088 5.66156 19.31C5.71133 19.3654 5.77277 19.4091 5.84146 19.4379C6.30771 19.6687 6.79675 19.8502 7.30066 19.9796C7.37487 20.0068 7.45633 20.0068 7.53054 19.9796C7.80096 19.9242 8.05569 19.8094 8.27626 19.6435C8.49683 19.4775 8.67773 19.2646 8.80584 19.0201C8.82472 18.9956 8.84144 18.9695 8.85581 18.9422C8.93062 18.792 9.04862 18.6676 9.19465 18.5849C9.34069 18.5023 9.50809 18.4652 9.67536 18.4784H10.315C10.4808 18.4742 10.6446 18.5152 10.789 18.5968C10.9333 18.6785 11.0528 18.7979 11.1346 18.9422C11.1535 18.9666 11.1702 18.9927 11.1845 19.0201C11.3124 19.2648 11.4933 19.4779 11.7139 19.6438C11.9345 19.8098 12.1893 19.9245 12.4598 19.9796H12.5618C12.5898 19.9796 12.6357 19.9796 12.6038 19.9256C13.0987 19.7712 13.5845 19.589 14.059 19.3799C14.1282 19.3521 14.1899 19.3083 14.2389 19.252C14.5127 18.9266 14.6609 18.5139 14.6566 18.0886C14.6563 17.9665 14.6443 17.8447 14.6207 17.7248C14.6244 17.6713 14.6148 17.6178 14.5927 17.5689C14.5722 17.4076 14.5947 17.2436 14.6578 17.0938C14.721 16.9439 14.8227 16.8134 14.9525 16.7154C14.9472 16.7101 14.9442 16.7029 14.9442 16.6954C14.9442 16.6879 14.9472 16.6807 14.9525 16.6754C14.9578 16.6701 14.965 16.6671 14.9725 16.6671C14.98 16.6671 14.9872 16.6701 14.9925 16.6754C15.1566 16.5552 15.3104 16.4215 15.4522 16.2756H15.4802C15.6474 16.1234 15.8658 16.0399 16.0919 16.0417C16.1667 16.0411 16.2414 16.0505 16.3137 16.0697C16.3434 16.0758 16.3722 16.0852 16.3997 16.0977C16.4344 16.104 16.4685 16.1134 16.5016 16.1257C16.6108 16.1662 16.7231 16.1977 16.8375 16.2196C16.9546 16.2432 17.0738 16.2553 17.1933 16.2556C17.5155 16.2585 17.8329 16.1779 18.1148 16.0218L18.2707 15.8658C18.5707 15.4522 18.8272 15.0088 19.0363 14.5426C19.0678 14.4805 19.0848 14.4122 19.0862 14.3427C19.0812 14.0592 19.0147 13.7802 18.8916 13.5249C18.7684 13.2695 18.5913 13.0439 18.3726 12.8635C18.3486 12.8395 18.3226 12.8135 18.2987 12.7855C18.1834 12.6895 18.0947 12.5657 18.0408 12.4258C17.9869 12.2858 17.9697 12.1344 17.9908 11.986V11.956C18.0384 11.7586 18.0724 11.5583 18.0928 11.3563V11.3343C18.1907 10.7426 18.6285 10.5947 18.6804 10.5947C18.7003 10.5987 18.7209 10.5974 18.7401 10.5911C18.7594 10.5848 18.7767 10.5737 18.7904 10.5587C19.0604 10.4663 19.3057 10.3134 19.5076 10.1118C19.7096 9.91022 19.8628 9.66518 19.9557 9.39537C19.9776 9.33109 19.9871 9.26328 19.9837 9.19548C19.9403 8.70506 19.8567 8.21903 19.7339 7.74227ZM9.99519 14.2147C9.18264 14.2215 8.38639 13.9868 7.70734 13.5405C7.02829 13.0942 6.49701 12.4564 6.18085 11.7079C5.86468 10.9593 5.77785 10.1338 5.93137 9.33581C6.08489 8.53787 6.47184 7.80346 7.04318 7.22567C7.61452 6.64787 8.34453 6.2527 9.1407 6.09023C9.93687 5.92776 10.7634 6.0053 11.5154 6.31304C12.2674 6.62078 12.9112 7.14486 13.3651 7.81885C13.819 8.49284 14.0626 9.28641 14.065 10.099C14.07 10.637 13.9685 11.1707 13.7663 11.6693C13.5641 12.1679 13.2652 12.6216 12.8869 13.0042C12.5086 13.3867 12.0584 13.6907 11.562 13.8984C11.0657 14.1062 10.5332 14.2137 9.99519 14.2147Z" fill="#4A67C6"/>
</svg>
