<svg width="14" height="14" viewBox="0 0 14 14" fill="none" xmlns="http://www.w3.org/2000/svg">
<path fill-rule="evenodd" clip-rule="evenodd" d="M0 4C0 1.79086 1.79086 0 4 0H10C12.2091 0 14 1.79086 14 4V10C14 12.2091 12.2091 14 10 14H4C1.79086 14 0 12.2091 0 10V4ZM5.85355 3.14645C6.04882 3.34171 6.04882 3.65829 5.85355 3.85355L3.85355 5.85355C3.65829 6.04882 3.34171 6.04882 3.14645 5.85355L2.14645 4.85355C1.95118 4.65829 1.95118 4.34171 2.14645 4.14645C2.34171 3.95118 2.65829 3.95118 2.85355 4.14645L3.5 4.79289L5.14645 3.14645C5.34171 2.95118 5.65829 2.95118 5.85355 3.14645ZM5.85355 8.35355C6.04882 8.15829 6.04882 7.84171 5.85355 7.64645C5.65829 7.45118 5.34171 7.45118 5.14645 7.64645L3.5 9.29289L2.85355 8.64645C2.65829 8.45118 2.34171 8.45118 2.14645 8.64645C1.95118 8.84171 1.95118 9.15829 2.14645 9.35355L3.14645 10.3536C3.34171 10.5488 3.65829 10.5488 3.85355 10.3536L5.85355 8.35355ZM7 4.5C7 4.22386 7.22386 4 7.5 4H11.5C11.7761 4 12 4.22386 12 4.5C12 4.77614 11.7761 5 11.5 5H7.5C7.22386 5 7 4.77614 7 4.5ZM7.5 8.5C7.22386 8.5 7 8.72386 7 9C7 9.27614 7.22386 9.5 7.5 9.5H11.5C11.7761 9.5 12 9.27614 12 9C12 8.72386 11.7761 8.5 11.5 8.5H7.5Z" fill="#1F2E77"/>
</svg>
