<svg width="12" height="14" viewBox="0 0 12 14" fill="none" xmlns="http://www.w3.org/2000/svg">
    <path d="M11.3333 13.6666H0.666667C0.489856 13.6666 0.320286 13.5963 0.195262 13.4713C0.0702379 13.3463 0 13.1767 0 12.9999V0.999919C0 0.823108 0.0702379 0.653538 0.195262 0.528514C0.320286 0.40349 0.489856 0.333252 0.666667 0.333252H11.3333C11.5101 0.333252 11.6797 0.40349 11.8047 0.528514C11.9298 0.653538 12 0.823108 12 0.999919V12.9999C12 13.1767 11.9298 13.3463 11.8047 13.4713C11.6797 13.5963 11.5101 13.6666 11.3333 13.6666ZM10.6667 12.3333V1.66659H1.33333V12.3333H10.6667ZM3.33333 3.66659H8.66667V4.99992H3.33333V3.66659ZM3.33333 6.33325H8.66667V7.66659H3.33333V6.33325ZM3.33333 8.99992H6.66667V10.3333H3.33333V8.99992Z" fill="#9FA2B1"/>
</svg>
