<svg width="14" height="15" viewBox="0 0 14 15" fill="none" xmlns="http://www.w3.org/2000/svg">
<path d="M12.3886 10.1332L13.1899 10.6139C13.2394 10.6435 13.2803 10.6854 13.3087 10.7355C13.3371 10.7856 13.3521 10.8423 13.3521 10.8999C13.3521 10.9575 13.3371 11.0141 13.3087 11.0643C13.2803 11.1144 13.2394 11.1563 13.1899 11.1859L7.34328 14.6939C7.23959 14.7562 7.12091 14.7891 6.99994 14.7891C6.87898 14.7891 6.7603 14.7562 6.65661 14.6939L0.809944 11.1859C0.760508 11.1563 0.719588 11.1144 0.691175 11.0643C0.662762 11.0141 0.647827 10.9575 0.647827 10.8999C0.647827 10.8423 0.662762 10.7856 0.691175 10.7355C0.719588 10.6854 0.760508 10.6435 0.809944 10.6139L1.61128 10.1332L6.99994 13.3665L12.3886 10.1332ZM12.3886 6.99988L13.1899 7.48055C13.2394 7.51015 13.2803 7.55205 13.3087 7.60217C13.3371 7.6523 13.3521 7.70893 13.3521 7.76655C13.3521 7.82417 13.3371 7.8808 13.3087 7.93093C13.2803 7.98105 13.2394 8.02296 13.1899 8.05255L6.99994 11.7666L0.809944 8.05255C0.760508 8.02296 0.719588 7.98105 0.691175 7.93093C0.662762 7.8808 0.647827 7.82417 0.647827 7.76655C0.647827 7.70893 0.662762 7.6523 0.691175 7.60217C0.719588 7.55205 0.760508 7.51015 0.809944 7.48055L1.61128 6.99988L6.99994 10.2332L12.3886 6.99988ZM7.34261 0.87255L13.1899 4.38055C13.2394 4.41015 13.2803 4.45205 13.3087 4.50217C13.3371 4.5523 13.3521 4.60893 13.3521 4.66655C13.3521 4.72417 13.3371 4.7808 13.3087 4.83093C13.2803 4.88105 13.2394 4.92296 13.1899 4.95255L6.99994 8.66655L0.809944 4.95255C0.760508 4.92296 0.719588 4.88105 0.691175 4.83093C0.662762 4.7808 0.647827 4.72417 0.647827 4.66655C0.647827 4.60893 0.662762 4.5523 0.691175 4.50217C0.719588 4.45205 0.760508 4.41015 0.809944 4.38055L6.65661 0.87255C6.7603 0.810255 6.87898 0.777344 6.99994 0.777344C7.12091 0.777344 7.23959 0.810255 7.34328 0.87255H7.34261ZM6.99994 2.22122L2.92461 4.66655L6.99994 7.11188L11.0753 4.66655L6.99994 2.22122Z" fill="#A5ABC9"/>
</svg>
