<?xml version="1.0" encoding="UTF-8"?>
<svg width="40px" height="40px" viewBox="0 0 40 40" version="1.1" xmlns="http://www.w3.org/2000/svg" xmlns:xlink="http://www.w3.org/1999/xlink">
    <!-- Generator: Sketch 60.1 (88133) - https://sketch.com -->
    <title>01</title>
    <desc>Created with Sketch.</desc>
    <defs>
        <polygon id="path-1" points="2.47678019e-05 0.075876161 39.8003715 0.075876161 39.8003715 39.8761238 2.47678019e-05 39.8761238"></polygon>
        <path d="M19.9000619,0.0759133127 C8.90959752,0.0759133127 0,8.98551084 0,19.9759752 L0,19.9759752 C0,30.9665635 8.90959752,39.876161 19.9000619,39.876161 L19.9000619,39.876161 C30.868483,39.876161 39.7644582,31.0027245 39.8002477,20.0426006 L39.8002477,20.0426006 L39.8002477,19.909226 C39.7644582,8.94934985 30.868483,0.0759133127 19.9000619,0.0759133127 Z" id="path-3"></path>
        <path d="M19.9000619,0.0759133127 C8.90959752,0.0759133127 0,8.98551084 0,19.9759752 L0,19.9759752 C0,30.9665635 8.90959752,39.876161 19.9000619,39.876161 L19.9000619,39.876161 C30.868483,39.876161 39.7644582,31.0027245 39.8002477,20.0426006 L39.8002477,20.0426006 L39.8002477,19.909226" id="path-5"></path>
        <path d="M19.9000619,0.0759133127 C8.90959752,0.0759133127 0,8.98551084 0,19.9759752 L0,19.9759752 C0,30.9665635 8.90959752,39.876161 19.9000619,39.876161 L19.9000619,39.876161 C30.868483,39.876161 39.7644582,31.0027245 39.8002477,20.0426006 L39.8002477,20.0426006 L39.8002477,19.909226 C39.7644582,8.94934985 30.868483,0.0759133127 19.9000619,0.0759133127 Z" id="path-7"></path>
        <path d="M19.9000619,0.0759133127 C8.90959752,0.0759133127 0,8.98551084 0,19.9759752 L0,19.9759752 C0,30.9665635 8.90959752,39.876161 19.9000619,39.876161 L19.9000619,39.876161 C30.868483,39.876161 39.7644582,31.0027245 39.8002477,20.0426006 L39.8002477,20.0426006 L39.8002477,19.909226 C39.7644582,8.94934985 30.868483,0.0759133127 19.9000619,0.0759133127 Z" id="path-9"></path>
    </defs>
    <g id="LORD" stroke="none" stroke-width="1" fill="none" fill-rule="evenodd">
        <g id="page-candidate-to-treat-copy-2" transform="translate(-20.000000, -293.000000)">
            <g id="Group-35" transform="translate(20.000000, 233.000000)">
                <g id="Group-34">
                    <g id="01" transform="translate(0.000000, 60.000000)">
                        <g id="Group-3" transform="translate(0.000000, 0.048050)">
                            <mask id="mask-2" fill="white">
                                <use xlink:href="#path-1"></use>
                            </mask>
                            <g id="Clip-2"></g>
                            <path d="M2.47678019e-05,19.9759381 C2.47678019e-05,8.98547368 8.90962229,0.075876161 19.9000867,0.075876161 C30.8906749,0.075876161 39.8003963,8.98547368 39.8003963,19.9759381 C39.8003963,30.9665263 30.8906749,39.8761238 19.9000867,39.8761238 C8.90962229,39.8761238 2.47678019e-05,30.9665263 2.47678019e-05,19.9759381" id="Fill-1" fill="#4764CC" mask="url(#mask-2)"></path>
                        </g>
                        <g id="Group-16" transform="translate(0.000000, 0.048050)">
                            <g id="Group-6">
                                <mask id="mask-4" fill="white">
                                    <use xlink:href="#path-3"></use>
                                </mask>
                                <g id="Clip-5"></g>
                                <path d="M19.9001238,39.8761734 L7.91609907,26.8195789 C7.91609907,23.9397028 10.2507121,21.6049659 13.1307121,21.6049659 L26.6696594,21.6049659 C29.5495356,21.6049659 31.8841486,23.9397028 31.8841486,26.8195789 L19.9001238,39.8761734 Z" id="Fill-4" fill="#F86E7F" mask="url(#mask-4)"></path>
                            </g>
                            <g id="Group-9">
                                <mask id="mask-6" fill="white">
                                    <use xlink:href="#path-5"></use>
                                </mask>
                                <g id="Clip-8"></g>
                                <path d="M12.1982786,12.3672198 C12.1982786,8.11359752 15.6465759,4.66542415 19.9000743,4.66542415 C24.1538204,4.66542415 27.6019938,8.11359752 27.6019938,12.3672198 C27.6019938,16.6208421 24.1538204,20.0690155 19.9000743,20.0690155 C15.6465759,20.0690155 12.1982786,16.6208421 12.1982786,12.3672198" id="Fill-7" fill="#F9C8CA" mask="url(#mask-6)"></path>
                            </g>
                            <g id="Group-12">
                                <mask id="mask-8" fill="white">
                                    <use xlink:href="#path-7"></use>
                                </mask>
                                <g id="Clip-11"></g>
                                <polygon id="Fill-10" fill="#F9C8CA" mask="url(#mask-8)" points="7.91603715 26.7924087 19.9000619 39.8761238 7.91603715 39.8761238"></polygon>
                            </g>
                            <g id="Group-15">
                                <mask id="mask-10" fill="white">
                                    <use xlink:href="#path-9"></use>
                                </mask>
                                <g id="Clip-14"></g>
                                <polygon id="Fill-13" fill="#F9C8CA" mask="url(#mask-10)" points="31.8842105 26.7924087 19.9001858 39.8761238 31.8842105 39.8761238"></polygon>
                            </g>
                        </g>
                    </g>
                </g>
            </g>
        </g>
    </g>
</svg>