<?xml version="1.0" encoding="UTF-8"?>
<svg width="40px" height="40px" viewBox="0 0 40 40" version="1.1" xmlns="http://www.w3.org/2000/svg" xmlns:xlink="http://www.w3.org/1999/xlink">
    <!-- Generator: Sketch 60.1 (88133) - https://sketch.com -->
    <title>03</title>
    <desc>Created with Sketch.</desc>
    <defs>
        <polygon id="path-1" points="0 0.075876161 39.800322 0.075876161 39.800322 39.8761238 0 39.8761238"></polygon>
        <path d="M19.9001858,0.0759133127 C8.90959752,0.0759133127 0,8.98551084 0,19.9759752 L0,19.9759752 C0,30.9665635 8.90959752,39.876161 19.9001858,39.876161 L19.9001858,39.876161 C30.890774,39.876161 39.8002477,30.9665635 39.8002477,19.9759752 L39.8002477,19.9759752 C39.8002477,8.98551084 30.890774,0.0759133127 19.9001858,0.0759133127 Z" id="path-3"></path>
        <path d="M19.9001858,0.0759133127 C8.90959752,0.0759133127 0,8.98551084 0,19.9759752 L0,19.9759752 C0,30.9665635 8.90959752,39.876161 19.9001858,39.876161 L19.9001858,39.876161 C30.890774,39.876161 39.8002477,30.9665635 39.8002477,19.9759752 L39.8002477,19.9759752" id="path-5"></path>
        <path d="M19.9001858,0.0759133127 C8.90959752,0.0759133127 0,8.98551084 0,19.9759752 L0,19.9759752 C0,30.9665635 8.90959752,39.876161 19.9001858,39.876161 L19.9001858,39.876161 C30.890774,39.876161 39.8002477,30.9665635 39.8002477,19.9759752 L39.8002477,19.9759752 C39.8002477,8.98551084 30.890774,0.0759133127 19.9001858,0.0759133127 Z" id="path-7"></path>
        <path d="M19.9001858,0.0759133127 C8.90959752,0.0759133127 0,8.98551084 0,19.9759752 L0,19.9759752 C0,30.9665635 8.90959752,39.876161 19.9001858,39.876161 L19.9001858,39.876161 C30.890774,39.876161 39.8002477,30.9665635 39.8002477,19.9759752 L39.8002477,19.9759752 C39.8002477,8.98551084 30.890774,0.0759133127 19.9001858,0.0759133127 Z" id="path-9"></path>
    </defs>
    <g id="LORD" stroke="none" stroke-width="1" fill="none" fill-rule="evenodd">
        <g id="page-candidate-to-treat-copy-2" transform="translate(-20.000000, -353.000000)">
            <g id="Group-35" transform="translate(20.000000, 233.000000)">
                <g id="Group-34">
                    <g id="03" transform="translate(0.000000, 120.000000)">
                        <g id="Group-3" transform="translate(0.000000, 0.048050)">
                            <mask id="mask-2" fill="white">
                                <use xlink:href="#path-1"></use>
                            </mask>
                            <g id="Clip-2"></g>
                            <path d="M-4.95356037e-05,19.9759381 C-4.95356037e-05,8.98547368 8.90954799,0.075876161 19.9001362,0.075876161 C30.8907245,0.075876161 39.800322,8.98547368 39.800322,19.9759381 C39.800322,30.9665263 30.8907245,39.8761238 19.9001362,39.8761238 C8.90954799,39.8761238 -4.95356037e-05,30.9665263 -4.95356037e-05,19.9759381" id="Fill-1" fill="#F86E7F" mask="url(#mask-2)"></path>
                        </g>
                        <g id="Group-16" transform="translate(0.000000, 0.048050)">
                            <g id="Group-6">
                                <mask id="mask-4" fill="white">
                                    <use xlink:href="#path-3"></use>
                                </mask>
                                <g id="Clip-5"></g>
                                <path d="M19.9001734,39.8761734 L7.91614861,26.8195789 C7.91614861,23.9397028 10.2507616,21.6049659 13.1307616,21.6049659 L26.6695851,21.6049659 C29.5495851,21.6049659 31.8841981,23.9397028 31.8841981,26.8195789 L19.9001734,39.8761734 Z" id="Fill-4" fill="#F9C8CA" mask="url(#mask-4)"></path>
                            </g>
                            <g id="Group-9">
                                <mask id="mask-6" fill="white">
                                    <use xlink:href="#path-5"></use>
                                </mask>
                                <g id="Clip-8"></g>
                                <path d="M12.1983406,12.3672198 C12.1983406,8.11359752 15.6466378,4.66542415 19.9001362,4.66542415 C24.1537585,4.66542415 27.6020557,8.11359752 27.6020557,12.3672198 C27.6020557,16.6208421 24.1537585,20.0690155 19.9001362,20.0690155 C15.6466378,20.0690155 12.1983406,16.6208421 12.1983406,12.3672198" id="Fill-7" fill="#1F2E77" mask="url(#mask-6)"></path>
                            </g>
                            <g id="Group-12">
                                <mask id="mask-8" fill="white">
                                    <use xlink:href="#path-7"></use>
                                </mask>
                                <g id="Clip-11"></g>
                                <polygon id="Fill-10" fill="#1F2E77" mask="url(#mask-8)" points="7.91609907 26.7924087 19.9001238 39.8761238 7.91609907 39.8761238"></polygon>
                            </g>
                            <g id="Group-15">
                                <mask id="mask-10" fill="white">
                                    <use xlink:href="#path-9"></use>
                                </mask>
                                <g id="Clip-14"></g>
                                <polygon id="Fill-13" fill="#1F2E77" mask="url(#mask-10)" points="31.8842601 26.7924087 19.9002353 39.8761238 31.8842601 39.8761238"></polygon>
                            </g>
                        </g>
                    </g>
                </g>
            </g>
        </g>
    </g>
</svg>