<?xml version="1.0" encoding="UTF-8"?>
<svg width="40px" height="40px" viewBox="0 0 40 40" version="1.1" xmlns="http://www.w3.org/2000/svg" xmlns:xlink="http://www.w3.org/1999/xlink">
    <!-- Generator: Sketch 60.1 (88133) - https://sketch.com -->
    <title>02</title>
    <desc>Created with Sketch.</desc>
    <defs>
        <polygon id="path-1" points="0 0.075876161 39.8003467 0.075876161 39.8003467 39.8761238 0 39.8761238"></polygon>
        <path d="M19.9001858,0.0759133127 C8.90959752,0.0759133127 0,8.98551084 0,19.9759752 L0,19.9759752 C0,30.9665635 8.90959752,39.876161 19.9001858,39.876161 L19.9001858,39.876161 C30.8906502,39.876161 39.8002477,30.9665635 39.8002477,19.9759752 L39.8002477,19.9759752 C39.8002477,8.98551084 30.8906502,0.0759133127 19.9001858,0.0759133127 Z" id="path-3"></path>
        <path d="M19.9001858,0.0759133127 C8.90959752,0.0759133127 0,8.98551084 0,19.9759752 L0,19.9759752 C0,30.9665635 8.90959752,39.876161 19.9001858,39.876161 L19.9001858,39.876161 C30.8906502,39.876161 39.8002477,30.9665635 39.8002477,19.9759752 L39.8002477,19.9759752" id="path-5"></path>
        <path d="M19.9001858,0.0759133127 C8.90959752,0.0759133127 0,8.98551084 0,19.9759752 L0,19.9759752 C0,30.9665635 8.90959752,39.876161 19.9001858,39.876161 L19.9001858,39.876161 C30.8906502,39.876161 39.8002477,30.9665635 39.8002477,19.9759752 L39.8002477,19.9759752 C39.8002477,8.98551084 30.8906502,0.0759133127 19.9001858,0.0759133127 Z" id="path-7"></path>
        <path d="M19.9001858,0.0759133127 C8.90959752,0.0759133127 0,8.98551084 0,19.9759752 L0,19.9759752 C0,30.9665635 8.90959752,39.876161 19.9001858,39.876161 L19.9001858,39.876161 C30.8906502,39.876161 39.8002477,30.9665635 39.8002477,19.9759752 L39.8002477,19.9759752 C39.8002477,8.98551084 30.8906502,0.0759133127 19.9001858,0.0759133127 Z" id="path-9"></path>
    </defs>
    <g id="LORD" stroke="none" stroke-width="1" fill="none" fill-rule="evenodd">
        <g id="page-candidate-to-treat-copy-2" transform="translate(-20.000000, -233.000000)">
            <g id="Group-35" transform="translate(20.000000, 233.000000)">
                <g id="Group-34">
                    <g id="02">
                        <g id="Group-3" transform="translate(0.000000, 0.048050)">
                            <mask id="mask-2" fill="white">
                                <use xlink:href="#path-1"></use>
                            </mask>
                            <g id="Clip-2"></g>
                            <path d="M-2.47678019e-05,19.9759381 C-2.47678019e-05,8.98547368 8.90957276,0.075876161 19.900161,0.075876161 C30.8906254,0.075876161 39.8003467,8.98547368 39.8003467,19.9759381 C39.8003467,30.9665263 30.8906254,39.8761238 19.900161,39.8761238 C8.90957276,39.8761238 -2.47678019e-05,30.9665263 -2.47678019e-05,19.9759381" id="Fill-1" fill="#F9C8CA" mask="url(#mask-2)"></path>
                        </g>
                        <g id="Group-16" transform="translate(0.000000, 0.048050)">
                            <g id="Group-6">
                                <mask id="mask-4" fill="white">
                                    <use xlink:href="#path-3"></use>
                                </mask>
                                <g id="Clip-5"></g>
                                <path d="M19.9002105,39.8761734 L7.91618576,26.8195789 C7.91618576,23.9397028 10.2507988,21.6049659 13.1306749,21.6049659 L26.6696223,21.6049659 C29.5496223,21.6049659 31.8842353,23.9397028 31.8842353,26.8195789 L19.9002105,39.8761734 Z" id="Fill-4" fill="#F86E7F" mask="url(#mask-4)"></path>
                            </g>
                            <g id="Group-9">
                                <mask id="mask-6" fill="white">
                                    <use xlink:href="#path-5"></use>
                                </mask>
                                <g id="Clip-8"></g>
                                <path d="M12.1983653,12.3672198 C12.1983653,8.11359752 15.6465387,4.66542415 19.900161,4.66542415 C24.1537833,4.66542415 27.6020805,8.11359752 27.6020805,12.3672198 C27.6020805,16.6208421 24.1537833,20.0690155 19.900161,20.0690155 C15.6465387,20.0690155 12.1983653,16.6208421 12.1983653,12.3672198" id="Fill-7" fill="#4764CC" mask="url(#mask-6)"></path>
                            </g>
                            <g id="Group-12">
                                <mask id="mask-8" fill="white">
                                    <use xlink:href="#path-7"></use>
                                </mask>
                                <g id="Clip-11"></g>
                                <polygon id="Fill-10" fill="#4764CC" mask="url(#mask-8)" points="7.91612384 26.7924087 19.9001486 39.8761238 7.91612384 39.8761238"></polygon>
                            </g>
                            <g id="Group-15">
                                <mask id="mask-10" fill="white">
                                    <use xlink:href="#path-9"></use>
                                </mask>
                                <g id="Clip-14"></g>
                                <polygon id="Fill-13" fill="#4764CC" mask="url(#mask-10)" points="31.8842848 26.7924087 19.9002601 39.8761238 31.8842848 39.8761238"></polygon>
                            </g>
                        </g>
                    </g>
                </g>
            </g>
        </g>
    </g>
</svg>