<?xml version="1.0" encoding="UTF-8"?>
<svg width="40px" height="40px" viewBox="0 0 40 40" version="1.1" xmlns="http://www.w3.org/2000/svg" xmlns:xlink="http://www.w3.org/1999/xlink">
    <!-- Generator: Sketch 60.1 (88133) - https://sketch.com -->
    <title>04</title>
    <desc>Created with Sketch.</desc>
    <defs>
        <path d="M19.9001858,0.0759133127 C8.90959752,0.0759133127 0.000123839009,8.98551084 0.000123839009,19.9759752 L0.000123839009,19.9759752 C0.000123839009,30.9665635 8.90959752,39.876161 19.9001858,39.876161 L19.9001858,39.876161 C30.890774,39.876161 39.8002477,30.9665635 39.8002477,19.9759752 L39.8002477,19.9759752 C39.8002477,8.98551084 30.890774,0.0759133127 19.9001858,0.0759133127 Z" id="path-1"></path>
        <path d="M19.9001858,0.0759133127 C8.90959752,0.0759133127 0.000123839009,8.98551084 0.000123839009,19.9759752 L0.000123839009,19.9759752 C0.000123839009,30.9665635 8.90959752,39.876161 19.9001858,39.876161 L19.9001858,39.876161 C30.890774,39.876161 39.8002477,30.9665635 39.8002477,19.9759752 L39.8002477,19.9759752" id="path-3"></path>
        <path d="M19.9001858,0.0759133127 C8.90959752,0.0759133127 0.000123839009,8.98551084 0.000123839009,19.9759752 L0.000123839009,19.9759752 C0.000123839009,30.9665635 8.90959752,39.876161 19.9001858,39.876161 L19.9001858,39.876161 C30.890774,39.876161 39.8002477,30.9665635 39.8002477,19.9759752 L39.8002477,19.9759752 C39.8002477,8.98551084 30.890774,0.0759133127 19.9001858,0.0759133127 Z" id="path-5"></path>
        <path d="M19.9001858,0.0759133127 C8.90959752,0.0759133127 0.000123839009,8.98551084 0.000123839009,19.9759752 L0.000123839009,19.9759752 C0.000123839009,30.9665635 8.90959752,39.876161 19.9001858,39.876161 L19.9001858,39.876161 C30.890774,39.876161 39.8002477,30.9665635 39.8002477,19.9759752 L39.8002477,19.9759752 C39.8002477,8.98551084 30.890774,0.0759133127 19.9001858,0.0759133127 Z" id="path-7"></path>
    </defs>
    <g id="LORD" stroke="none" stroke-width="1" fill="none" fill-rule="evenodd">
        <g id="page-candidate-to-treat-copy-2" transform="translate(-20.000000, -413.000000)">
            <g id="Group-35" transform="translate(20.000000, 233.000000)">
                <g id="Group-34">
                    <g id="04" transform="translate(0.000000, 180.000000)">
                        <path d="M6.19195046e-05,20.0239876 C6.19195046e-05,9.03352322 8.9095356,0.123925697 19.9001238,0.123925697 C30.8907121,0.123925697 39.8003096,9.03352322 39.8003096,20.0239876 C39.8003096,31.0145759 30.8907121,39.9241734 19.9001238,39.9241734 C8.9095356,39.9241734 6.19195046e-05,31.0145759 6.19195046e-05,20.0239876" id="Fill-1" fill="#1F2E77"></path>
                        <g id="Group-15" transform="translate(0.000000, 0.048050)">
                            <g id="Group-5">
                                <mask id="mask-2" fill="white">
                                    <use xlink:href="#path-1"></use>
                                </mask>
                                <g id="Clip-4"></g>
                                <path d="M19.900161,39.8761734 L7.91613622,26.8195789 C7.91613622,23.9397028 10.2507492,21.6049659 13.1307492,21.6049659 L26.6695728,21.6049659 C29.5495728,21.6049659 31.8841858,23.9397028 31.8841858,26.8195789 L19.900161,39.8761734 Z" id="Fill-3" fill="#FFFFFF" mask="url(#mask-2)"></path>
                            </g>
                            <g id="Group-8">
                                <mask id="mask-4" fill="white">
                                    <use xlink:href="#path-3"></use>
                                </mask>
                                <g id="Clip-7"></g>
                                <path d="M12.1983158,12.3672198 C12.1983158,8.11359752 15.646613,4.66542415 19.9001115,4.66542415 C24.1537337,4.66542415 27.602031,8.11359752 27.602031,12.3672198 C27.602031,16.6208421 24.1537337,20.0690155 19.9001115,20.0690155 C15.646613,20.0690155 12.1983158,16.6208421 12.1983158,12.3672198" id="Fill-6" fill="#F9C8CA" mask="url(#mask-4)"></path>
                            </g>
                            <g id="Group-11">
                                <mask id="mask-6" fill="white">
                                    <use xlink:href="#path-5"></use>
                                </mask>
                                <g id="Clip-10"></g>
                                <polygon id="Fill-9" fill="#F9C8CA" mask="url(#mask-6)" points="7.9160743 26.7924087 19.9000991 39.8761238 7.9160743 39.8761238"></polygon>
                            </g>
                            <g id="Group-14">
                                <mask id="mask-8" fill="white">
                                    <use xlink:href="#path-7"></use>
                                </mask>
                                <g id="Clip-13"></g>
                                <polygon id="Fill-12" fill="#F9C8CA" mask="url(#mask-8)" points="31.8842477 26.7924087 19.9002229 39.8761238 31.8842477 39.8761238"></polygon>
                            </g>
                        </g>
                    </g>
                </g>
            </g>
        </g>
    </g>
</svg>