<svg width="16" height="16" viewBox="0 0 16 16" fill="none" xmlns="http://www.w3.org/2000/svg">
<rect x="1" y="1" width="14" height="14" rx="7" fill="#4864C9"/>
<path fill-rule="evenodd" clip-rule="evenodd" d="M5 6C5 5.44772 5.44772 5 6 5H10C10.5523 5 11 5.44772 11 6V10C11 10.5523 10.5523 11 10 11H6C5.44772 11 5 10.5523 5 10V6ZM6 6.5C6 6.22386 6.22386 6 6.5 6H9.5C9.77614 6 10 6.22386 10 6.5C10 6.77614 9.77614 7 9.5 7H6.5C6.22386 7 6 6.77614 6 6.5ZM6.5 8C6.22386 8 6 8.22386 6 8.5C6 8.77614 6.22386 9 6.5 9H8.5C8.77614 9 9 8.77614 9 8.5C9 8.22386 8.77614 8 8.5 8H6.5Z" fill="white"/>
<rect x="1" y="1" width="14" height="14" rx="7" stroke="white" stroke-width="2"/>
</svg>
