<svg width="36" height="37" viewBox="0 0 36 37" fill="none" xmlns="http://www.w3.org/2000/svg">
    <rect y="0.5" width="36" height="36" rx="2" fill="#F6F7FC"/>
    <path d="M12 23.1668V14.3001C11.9999 14.1632 12.042 14.0297 12.1205 13.9176C12.1989 13.8055 12.31 13.7202 12.4386 13.6734L18.886 11.3294C18.9363 11.3111 18.9904 11.3052 19.0435 11.3122C19.0966 11.3192 19.1473 11.3389 19.1912 11.3696C19.2351 11.4004 19.2709 11.4413 19.2957 11.4888C19.3204 11.5364 19.3333 11.5892 19.3333 11.6428V14.9448L23.544 16.3481C23.6768 16.3923 23.7923 16.4772 23.8741 16.5908C23.956 16.7043 24 16.8408 24 16.9808V23.1668H25.3333V24.5001H10.6666V23.1668H12ZM13.3333 23.1668H18V13.0701L13.3333 14.7674V23.1668ZM22.6666 23.1668V17.4614L19.3333 16.3501V23.1668H22.6666Z" fill="#B6C1E9"/>
</svg>
