<svg width="22px" height="19px" viewBox="0 0 22 19" version="1.1" xmlns="http://www.w3.org/2000/svg" xmlns:xlink="http://www.w3.org/1999/xlink">
    <g id="Page-1" stroke="none" stroke-width="1" fill="none" fill-rule="evenodd">
        <g id="empty-page" transform="translate(-254.000000, -513.000000)" fill="#dddedf" fill-rule="nonzero">
            <g id="Group" transform="translate(254.000000, 513.000000)">
                <g id="Shape">
                    <g>
                        <g>
                            <g>
                                <g>
                                    <g>
                                        <path fill="#1F2E77" d="M19.0031785,0.400801677 C19.008961,0.431019763 19.0119881,0.462212399 19.0119881,0.494107766 L19.0119881,1.81802011 L21.3360734,1.81802011 C21.3696727,1.81851422 21.4941879,1.82345529 21.6028916,1.91881809 C21.7363007,2.03592164 21.7407476,2.19700077 21.7412417,2.22368259 L21.7412417,14.4597673 C21.7402535,14.6989154 21.7140658,16.035971 20.6265347,17.0884206 C19.5948376,18.0875065 18.3422744,18.1176471 18.0828679,18.1176471 L3.65788577,18.1176471 L3.65689755,18.1176471 C3.42021994,18.1176471 2.0559884,18.094424 1.00057421,16.9826815 C0.0271819133,15.9569138 -0.000488121566,14.724609 5.98619797e-06,14.4597673 L5.98619797e-06,0.40536601 C5.98619797e-06,0.37226079 0.00494706386,0.245769202 0.102780401,0.136077279 C0.219883941,0.004644613 0.378492534,0.000197643106 0.405174353,0.000197643106 L18.5037799,0.000197643106 C18.5084641,6.61738802e-05 18.5131646,0 18.5178803,0 C18.5225961,0 18.5272965,6.61738811e-05 18.5319807,0.000197643106 L18.5982223,0.000197643106 C18.6268805,0.0016799664 18.7840068,0.0110680139 18.899628,0.142994787 C18.9889233,0.244639466 19.0010561,0.359981646 19.0031785,0.400801677 Z M18.0237726,2.80623564 L18.0151751,2.80623564 L18.0151751,1.81802011 L18.0151751,0.988413175 L0.988218078,0.988413175 L0.988221516,14.4597673 C0.987727409,14.7122564 1.03960872,15.5888035 1.71703047,16.3022951 C2.44633353,17.0701386 3.3861265,17.1294315 3.65689755,17.1294315 L18.0828679,17.1294315 C18.3353569,17.1294315 19.2212922,17.0735974 19.9392307,16.3783877 C20.6917568,15.650567 20.752038,14.7241149 20.7530262,14.4572967 L20.7530262,2.80623564 L19.0119881,2.80623564 L19.0119881,14.6344838 C19.0119881,14.9072313 18.7906278,15.1285916 18.5178803,15.1285916 C18.2451328,15.1285916 18.0237726,14.9072313 18.0237726,14.6344838 L18.0237726,2.80623564 Z M8.78099273,2.97976629 C9.06115182,2.97976629 9.28844141,3.20656175 9.28844141,3.48672085 L9.28844141,8.23806112 C9.28844141,8.5182202 9.06115182,8.7455098 8.78099273,8.7455098 L3.48267516,8.7455098 C3.20251605,8.7455098 2.97522648,8.5182202 2.97522648,8.23806112 L2.97522648,3.48672085 C2.97522648,3.20656175 3.20251605,2.97976629 3.48267516,2.97976629 L8.78099273,2.97976629 Z M3.96393612,7.75729425 L8.30022587,7.75729425 L8.30022587,3.96798182 L3.96393612,3.96798182 L3.96393612,7.75729425 Z M15.5491327,3.96798182 L10.7676518,3.96798182 C10.4949043,3.96798182 10.273544,3.74662154 10.273544,3.47387405 C10.273544,3.20112656 10.4949043,2.97976629 10.7676518,2.97976629 L15.5491327,2.97976629 C15.8223742,2.97976629 16.0432404,3.20112656 16.0432404,3.47387405 C16.0432404,3.74662154 15.8223742,3.96798182 15.5491327,3.96798182 Z M15.5491327,6.35674583 L10.7676518,6.35674583 C10.4949043,6.35674583 10.273544,6.13538554 10.273544,5.86263804 C10.273544,5.58989058 10.4949043,5.36853029 10.7676518,5.36853029 L15.5491327,5.36853029 C15.8223742,5.36853029 16.0432404,5.58989058 16.0432404,5.86263804 C16.0432404,6.13538554 15.8223742,6.35674583 15.5491327,6.35674583 Z M15.5491327,8.7455098 L10.7676518,8.7455098 C10.4949043,8.7455098 10.273544,8.52414951 10.273544,8.25140205 C10.273544,7.97865455 10.4949043,7.75729425 10.7676518,7.75729425 L15.5491327,7.75729425 C15.8223742,7.75729425 16.0432404,7.97865455 16.0432404,8.25140205 C16.0432404,8.52414951 15.8223742,8.7455098 15.5491327,8.7455098 Z M15.5491327,11.1342738 L3.46968012,11.1342738 C3.19643853,11.1342738 2.97557236,10.9129135 2.97557236,10.640166 C2.97557236,10.3674185 3.19643853,10.1460583 3.46968012,10.1460583 L15.5491327,10.1460583 C15.8223742,10.1460583 16.0432404,10.3674185 16.0432404,10.640166 C16.0432404,10.9129135 15.8223742,11.1342738 15.5491327,11.1342738 Z M15.5491327,13.5229884 L3.46968012,13.5229884 C3.19643853,13.5229884 2.97557236,13.3016281 2.97557236,13.0288806 C2.97557236,12.7561331 3.19643853,12.5347728 3.46968012,12.5347728 L15.5491327,12.5347728 C15.8223742,12.5347728 16.0432404,12.7561331 16.0432404,13.0288806 C16.0432404,13.3016281 15.8223742,13.5229884 15.5491327,13.5229884 Z"></path>
                                    </g>
                                </g>
                            </g>
                        </g>
                    </g>
                </g>
            </g>
        </g>
    </g>
</svg>
