<svg width="14" height="10" viewBox="0 0 14 10" fill="none" xmlns="http://www.w3.org/2000/svg">
<path d="M7 1.33333C9.41182 1.33333 11.5627 2.75333 12.6127 5C11.5627 7.24667 9.41818 8.66667 7 8.66667C4.58182 8.66667 2.43727 7.24667 1.38727 5C2.43727 2.75333 4.58818 1.33333 7 1.33333ZM7 0C3.81818 0 1.10091 2.07333 0 5C1.10091 7.92667 3.81818 10 7 10C10.1818 10 12.8991 7.92667 14 5C12.8991 2.07333 10.1818 0 7 0ZM7 3.33333C7.87818 3.33333 8.59091 4.08 8.59091 5C8.59091 5.92 7.87818 6.66667 7 6.66667C6.12182 6.66667 5.40909 5.92 5.40909 5C5.40909 4.08 6.12182 3.33333 7 3.33333ZM7 2C5.42182 2 4.13636 3.34667 4.13636 5C4.13636 6.65333 5.42182 8 7 8C8.57818 8 9.86364 6.65333 9.86364 5C9.86364 3.34667 8.57818 2 7 2Z" fill="#F2994A"/>
</svg>
