<svg width="24" height="24" viewBox="0 0 24 24" fill="none" xmlns="http://www.w3.org/2000/svg">
<g clip-path="url(#clip0_153_51)">
<path d="M5.95 16.172L5.95 11C5.95 9.4087 6.58214 7.88258 7.70736 6.75736C8.83258 5.63214 10.3587 5 11.95 5C13.5413 5 15.0674 5.63214 16.1926 6.75736C17.3179 7.88258 17.95 9.4087 17.95 11L17.95 17L19.95 17L19.95 11C19.95 8.87827 19.1071 6.84344 17.6069 5.34315C16.1066 3.84286 14.0717 3 11.95 3C9.82827 3 7.79344 3.84286 6.29315 5.34315C4.79286 6.84344 3.95 8.87827 3.95 11L3.95 16.172L1.414 13.636L-5.26722e-07 15.05L4.95 20L9.9 15.05L8.486 13.636L5.95 16.172Z" fill="#000329"/>
</g>
<defs>
<clipPath id="clip0_153_51">
<rect width="24" height="24" fill="white"/>
</clipPath>
</defs>
</svg>
