<svg width="14" height="12" viewBox="0 0 14 12" fill="none" xmlns="http://www.w3.org/2000/svg">
<path d="M3.96667 8.78133L3.96667 5.33333C3.96667 4.27247 4.38809 3.25505 5.13824 2.50491C5.88838 1.75476 6.9058 1.33333 7.96667 1.33333C9.02753 1.33333 10.0449 1.75476 10.7951 2.50491C11.5452 3.25505 11.9667 4.27247 11.9667 5.33333L11.9667 9.33333L13.3 9.33333L13.3 5.33333C13.3 3.91885 12.7381 2.56229 11.7379 1.5621C10.7377 0.561904 9.38115 4.10063e-07 7.96667 3.48234e-07C6.55218 2.86405e-07 5.19562 0.561903 4.19543 1.5621C3.19524 2.56229 2.63333 3.91885 2.63333 5.33333L2.63333 8.78133L0.942666 7.09067L-3.51148e-07 8.03333L3.3 11.3333L6.6 8.03333L5.65733 7.09067L3.96667 8.78133Z" fill="#EBA91A"/>
</svg>
