<?xml version="1.0" encoding="utf-8"?>
<!DOCTYPE svg PUBLIC "-//W3C//DTD SVG 1.1//EN" "http://www.w3.org/Graphics/SVG/1.1/DTD/svg11.dtd">
<svg version="1.1" xmlns="http://www.w3.org/2000/svg" xmlns:xlink="http://www.w3.org/1999/xlink" x="0px" y="0px" viewBox="0 0 1000 1000" enable-background="new 0 0 1000 1000" xml:space="preserve">
<g>
  <path fill="white" d="M767.5,288.4L386.4,669.5h34.6L247.8,496.3L213.2,531l173.2,173.2l17.3,17.3l17.3-17.3l381.1-381.1L767.5,288.4L767.5,288.4z"/>
  <path fill="#4864C9" fill-rule="nonzero" d="M500,990c270.6,0,490-219.4,490-490c0-270.6-219.4-490-490-490C229.4,10,10,229.4,10,500C10,770.6,229.4,990,500,990L500,990z M500,941C256.4,941,59,743.6,59,500S256.4,59,500,59s441,197.4,441,441S743.6,941,500,941L500,941z"/>
</g>
</svg>