<svg width="14" height="12" viewBox="0 0 14 12" fill="none" xmlns="http://www.w3.org/2000/svg">
<path d="M12.3333 5.99999C12.3333 5.26666 12.9333 4.66666 13.6666 4.66666V1.99999C13.6666 1.26666 13.0666 0.666656 12.3333 0.666656H1.66659C0.933252 0.666656 0.339919 1.26666 0.339919 1.99999V4.66666C1.07325 4.66666 1.66659 5.26666 1.66659 5.99999C1.66659 6.73332 1.07325 7.33332 0.333252 7.33332V9.99999C0.333252 10.7333 0.933252 11.3333 1.66659 11.3333H12.3333C13.0666 11.3333 13.6666 10.7333 13.6666 9.99999V7.33332C12.9333 7.33332 12.3333 6.73332 12.3333 5.99999ZM9.38659 9.19999L6.99992 7.66666L4.61325 9.19999L5.33325 6.45332L3.13992 4.65999L5.96659 4.49332L6.99992 1.86666L8.02659 4.49999L10.8533 4.66666L8.65992 6.45999L9.38659 9.19999Z" fill="#2EA4CC"/>
</svg>
