<?xml version="1.0" encoding="UTF-8" standalone="no"?>
<svg width="16px" height="16px" viewBox="0 0 16 16" version="1.1" xmlns="http://www.w3.org/2000/svg" xmlns:xlink="http://www.w3.org/1999/xlink">
    <!-- Generator: Sketch 47.1 (45422) - http://www.bohemiancoding.com/sketch -->
    <title>sync</title>
    <desc>Created with Sketch.</desc>
    <defs></defs>
    <g id="Page-3" stroke="none" stroke-width="1" fill="none" fill-rule="evenodd">
        <g id="sync" fill="#FFFFFF">
            <path d="M12,12.8025471 C13.3749939,11.6560788 14.25,9.93022373 14.25,8 C14.25,4.54822031 11.4517797,1.75 8,1.75 C7.65962628,1.75 7.3256075,1.7772087 7,1.82956975 L7,0.313920857 C7.32737441,0.271746794 7.66114759,0.25 8,0.25 C12.2802068,0.25 15.75,3.71979319 15.75,8 C15.75,10.8166873 14.2473725,13.2824171 12,14.6393068 L12,12.8025471 Z M9,14.1704303 L9,15.6860791 C8.67262559,15.7282532 8.33885241,15.75 8,15.75 C3.71979319,15.75 0.25,12.2802068 0.25,8 C0.25,5.18331272 1.75262755,2.71758292 4,1.36069322 L4,3.1974529 C2.62500608,4.34392115 1.75,6.06977627 1.75,8 C1.75,11.4517797 4.54822031,14.25 8,14.25 C8.34037372,14.25 8.6743925,14.2227913 9,14.1704303 Z" id="Combined-Shape"></path>
            <path d="M1,1 L5,1 L5,5 L1,1 Z M15,15 L11,15 L11,11 L15,15 Z" id="Combined-Shape"></path>
        </g>
    </g>
</svg>