<svg width="24px" height="30px" viewBox="0 0 24 30" version="1.1" xmlns="http://www.w3.org/2000/svg" xmlns:xlink="http://www.w3.org/1999/xlink">

    <!-- Generator: Sketch 49.3 (51167) - http://www.bohemiancoding.com/sketch -->

    <desc>Created with Sketch.</desc>

    <defs></defs>

    <g id="Page-8" stroke="none" stroke-width="1" fill="none" fill-rule="evenodd" opacity="0.400000006">

        <g id="dashboard-2-notifs" transform="translate(-280.000000, -355.000000)" fill="#2B3D4F" fill-rule="nonzero">

            <g id="Group-6" transform="translate(240.000000, 90.000000)">

                <g id="Group" transform="translate(20.000000, 245.000000)">

                    <path d="M43.782446,26.8839883 L37.8256115,20.2851356 C37.6619281,20.1035314 37.4267626,20 37.1798561,20 L20.8633094,20 C20.3864173,20 20,20.3798414 20,20.8486179 L20,49.1513821 C20,49.6201586 20.3864173,50 20.8633094,50 L43.1366906,50 C43.6135827,50 44,49.6201586 44,49.1513821 L44,27.4471311 C44,27.2397289 43.9223022,27.0391156 43.782446,26.8839883 Z M38.0290072,23.0679234 L41.2546763,26.6409441 L38.0290072,26.6409441 L38.0290072,23.0679234 Z M42.2733813,48.3024248 L21.7266187,48.3024248 L21.7266187,21.6972358 L36.3023885,21.6972358 L36.3023885,27.489562 C36.3023885,27.9583385 36.6888058,28.3381799 37.1656978,28.3381799 L42.2733813,28.3381799 L42.2733813,48.3024248 Z M24.8189928,34.462146 C24.8189928,34.9309225 25.2054101,35.3107639 25.6823022,35.3107639 L38.3176978,35.3107639 C38.7945899,35.3107639 39.1810072,34.9309225 39.1810072,34.462146 C39.1810072,33.9933695 38.7945899,33.6135281 38.3176978,33.6135281 L25.6823022,33.6135281 C25.2054101,33.6135281 24.8189928,33.9933695 24.8189928,34.462146 Z M38.3176978,38.2004775 L25.6823022,38.2004775 C25.2054101,38.2004775 24.8189928,38.5803189 24.8189928,39.0490954 C24.8189928,39.5178719 25.2054101,39.8977133 25.6823022,39.8977133 L38.3176978,39.8977133 C38.7945899,39.8977133 39.1810072,39.5178719 39.1810072,39.0490954 C39.1810072,38.5803189 38.7945899,38.2004775 38.3176978,38.2004775 Z M38.3176978,42.7860691 L25.6823022,42.7860691 C25.2054101,42.7860691 24.8189928,43.1659105 24.8189928,43.634687 C24.8189928,44.1034635 25.2054101,44.4833049 25.6823022,44.4833049 L38.3176978,44.4833049 C38.7945899,44.4833049 39.1810072,44.1034635 39.1810072,43.634687 C39.1810072,43.1659105 38.7945899,42.7860691 38.3176978,42.7860691 Z" id="Shape"></path>

                </g>

            </g>

        </g>

    </g>

</svg>