<?xml version="1.0" encoding="UTF-8" standalone="no"?>
<svg width="16px" height="16px" viewBox="0 0 16 16" version="1.1" xmlns="http://www.w3.org/2000/svg" xmlns:xlink="http://www.w3.org/1999/xlink">
    <!-- Generator: Sketch 47.1 (45422) - http://www.bohemiancoding.com/sketch -->
    <title>trash</title>
    <desc>Created with Sketch.</desc>
    <defs></defs>
    <g id="Page-3" stroke="none" stroke-width="1" fill="none" fill-rule="evenodd">
        <g id="trash" fill="#112E48">
            <path d="M13.75,4.75 L13.75,4.75 L13.75,13.625 C13.75,14.8051544 12.7683422,15.75 11.5714286,15.75 L4.42857143,15.75 C3.23165776,15.75 2.25,14.8051544 2.25,13.625 L2.25,4.75 L1,4.75 L1,3.25 L15,3.25 L15,4.75 L13.75,4.75 Z M12.25,4.75 L3.75,4.75 L3.75,13.625 C3.75,13.9636287 4.04752867,14.25 4.42857143,14.25 L11.5714286,14.25 C11.9524713,14.25 12.25,13.9636287 12.25,13.625 L12.25,4.75 Z M5.75,7 L7.25,7 L7.25,12 L5.75,12 L5.75,7 Z M8.75,7 L10.25,7 L10.25,12 L8.75,12 L8.75,7 Z" id="Combined-Shape"></path>
            <path d="M5.25,4 L5.25,1.75 L10.75,1.75 L10.75,4 L12.25,4 L12.25,2 C12.25,1.03350169 11.4664983,0.25 10.5,0.25 L5.5,0.25 C4.53350169,0.25 3.75,1.03350169 3.75,2 L3.75,4 L5.25,4 Z" id="Combined-Shape" fill-rule="nonzero"></path>
        </g>
    </g>
</svg>