<?xml version="1.0" encoding="UTF-8"?>
<svg width="22px" height="22px" viewBox="0 0 22 22" version="1.1" xmlns="http://www.w3.org/2000/svg" xmlns:xlink="http://www.w3.org/1999/xlink">
    <!-- Generator: Sketch 60.1 (88133) - https://sketch.com -->
    <title>Group 11</title>
    <desc>Created with Sketch.</desc>
    <g id="LORD" stroke="none" stroke-width="1" fill="none" fill-rule="evenodd">
        <g id="page-candidate-to-treat-copy-2" transform="translate(-1184.000000, -19.000000)">
            <g id="header">
                <g id="Group-11" transform="translate(1184.000000, 19.000000)">
                    <path d="M12.9345563,13.9152553 L12.9345563,21.0899806 L8.7374942,21.0899806 L8.7374942,13.9152553 L12.9345563,13.9152553 Z M7.17472529,8.73737485 L7.17472529,12.9345563 L-5.15143483e-14,12.9345563 L-5.15143483e-14,8.73737485 L7.17472529,8.73737485 Z M21.0899806,8.15542425 L21.0899806,12.3524864 L13.9152553,12.3524864 L13.9152553,8.15542425 L21.0899806,8.15542425 Z M12.3526057,0.000119350001 L12.3526057,7.17484464 L8.15542425,7.17484464 L8.15542425,0.000119350001 L12.3526057,0.000119350001 Z" id="Combined-Shape" fill="#F9C8CA"></path>
                    <path d="M16.311672,1.39886555 L19.2795485,4.36662267 L16.9623756,6.68425604 C17.6420778,7.81161129 18.0331048,9.13264153 18.0331048,10.5449903 C18.0331048,11.7411687 17.7526327,12.871827 17.253864,13.8747955 L19.691115,16.3117197 L16.7233579,19.2794769 L14.4057859,16.9623123 C13.278413,17.6419963 11.9573559,18.0330093 10.5449664,18.0330093 C9.34882256,18.0330093 8.21817877,17.7525472 7.21521347,17.2537927 L4.77827276,19.6911628 L1.81039629,16.7234056 L4.12767187,14.4057775 C3.44797436,13.278423 3.05694737,11.9573798 3.05694737,10.5449903 C3.05694737,9.34884643 3.33741947,8.21820264 3.83618525,7.21523734 L1.39893716,4.77820115 L4.36657493,1.81044403 L6.68423217,4.12769574 C7.81158742,3.44799823 9.13261766,3.05697124 10.5449664,3.05697124 C11.7411448,3.05697124 12.8718131,3.33744334 13.8747958,3.83620912 L16.311672,1.39886555 Z M10.5449664,7.23422127 C8.7193888,7.23422127 7.2341974,8.71941267 7.2341974,10.5449903 C7.2341974,12.3705679 8.7193888,13.8557593 10.5449664,13.8557593 C12.370544,13.8557593 13.8558548,12.3705679 13.8558548,10.5449903 C13.8558548,8.71941267 12.370544,7.23422127 10.5449664,7.23422127 Z" id="Combined-Shape" fill="#FFFFFF"></path>
                </g>
            </g>
        </g>
    </g>
</svg>