<svg width="20" height="20" viewBox="0 0 20 20" fill="none" xmlns="http://www.w3.org/2000/svg">
    <path d="M0 2C0 0.895431 0.895431 0 2 0H18C19.1046 0 20 0.895431 20 2V18C20 19.1046 19.1046 20 18 20H2C0.895431 20 0 19.1046 0 18V2Z" fill="#5A5270"/>
    <path d="M15.25 12.5783V14.641C15.2501 14.7887 15.1941 14.9309 15.0934 15.0389C14.9927 15.147 14.8548 15.2128 14.7075 15.2232C14.4526 15.2407 14.2443 15.25 14.0833 15.25C8.92842 15.25 4.75 11.0716 4.75 5.91667C4.75 5.75567 4.75875 5.54742 4.77683 5.2925C4.78717 5.14518 4.85301 5.00726 4.96105 4.90657C5.0691 4.80589 5.21131 4.74993 5.359 4.75H7.42167C7.49402 4.74993 7.56382 4.77675 7.61751 4.82526C7.67119 4.87377 7.70493 4.94051 7.71217 5.0125C7.72558 5.14667 7.73783 5.25342 7.7495 5.3345C7.86543 6.14354 8.103 6.9304 8.45417 7.66842C8.50958 7.78508 8.47342 7.9245 8.36842 7.99917L7.10958 8.89867C7.87926 10.6921 9.30849 12.1213 11.1019 12.891L12.0003 11.6345C12.037 11.5832 12.0905 11.5463 12.1516 11.5305C12.2127 11.5146 12.2774 11.5206 12.3345 11.5476C13.0724 11.8981 13.8591 12.1351 14.6678 12.2505C14.7489 12.2622 14.8557 12.275 14.9887 12.2878C15.0606 12.2952 15.1271 12.329 15.1755 12.3827C15.2239 12.4363 15.2507 12.5061 15.2506 12.5783H15.25Z" fill="white"/>
</svg>
