<svg width="20" height="20" viewBox="0 0 20 20" fill="none" xmlns="http://www.w3.org/2000/svg">
    <path d="M0 2C0 0.895431 0.895431 0 2 0H18C19.1046 0 20 0.895431 20 2V18C20 19.1046 19.1046 20 18 20H2C0.895431 20 0 19.1046 0 18V2Z" fill="#C35CC5"/>
    <path d="M4.74984 4.75H15.2498C15.4045 4.75 15.5529 4.81146 15.6623 4.92085C15.7717 5.03025 15.8332 5.17862 15.8332 5.33333V14.6667C15.8332 14.8214 15.7717 14.9697 15.6623 15.0791C15.5529 15.1885 15.4045 15.25 15.2498 15.25H4.74984C4.59513 15.25 4.44675 15.1885 4.33736 15.0791C4.22796 14.9697 4.1665 14.8214 4.1665 14.6667V5.33333C4.1665 5.17862 4.22796 5.03025 4.33736 4.92085C4.44675 4.81146 4.59513 4.75 4.74984 4.75ZM10.0348 9.81508L6.2945 6.63883L5.53909 7.52783L10.0424 11.3516L14.4647 7.52492L13.7017 6.64233L10.0354 9.81508H10.0348Z" fill="white"/>
</svg>
