<svg width="20" height="20" viewBox="0 0 20 20" fill="none" xmlns="http://www.w3.org/2000/svg">
<rect width="20" height="20" rx="4" fill="#4680D7"/>
<path fill-rule="evenodd" clip-rule="evenodd" d="M14.7641 9.38083C14.7641 11.0994 13.7188 12.5736 12.23 13.2005V11.3212H9.0625V13.216C7.554 12.5981 6.49122 11.1137 6.49122 9.38083C6.49122 7.0933 8.34316 5.23889 10.6276 5.23889C12.9121 5.23889 14.7641 7.0933 14.7641 9.38083ZM17 9.38083C17 12.9049 14.147 15.7617 10.6276 15.7617C9.3145 15.7617 8.09412 15.3639 7.08009 14.6822C7.07135 14.6941 7.06163 14.7054 7.05092 14.7161L4.85741 16.9126C4.74099 17.0291 4.55223 17.0291 4.4358 16.9126L3.08732 15.5623C2.97089 15.4457 2.97089 15.2567 3.08732 15.1401L5.31652 12.9079C4.64598 11.8976 4.25531 10.6849 4.25531 9.38083C4.25531 5.8568 7.1083 3 10.6276 3C14.147 3 17 5.8568 17 9.38083ZM10.6276 10.3137C11.6773 10.3137 12.5282 9.46167 12.5282 8.41065C12.5282 7.35962 11.6773 6.50759 10.6276 6.50759C9.578 6.50759 8.72711 7.35962 8.72711 8.41065C8.72711 9.46167 9.578 10.3137 10.6276 10.3137Z" fill="white"/>
</svg>
