<svg width="20" height="20" viewBox="0 0 20 20" fill="none" xmlns="http://www.w3.org/2000/svg">
<rect width="20" height="20" rx="4" fill="#4680D7"/>
<path d="M9.57893 17C6.64897 16.9283 3.94869 14.6519 3.20414 11.6569C2.22226 7.70727 4.8882 3.71623 8.92914 3.08632C12.7709 2.48746 16.281 5.06471 16.9123 8.94774C17.5246 12.7145 14.8605 16.3906 11.1215 16.9179C10.626 16.9878 10.119 16.9756 9.57893 17ZM8.6652 15.7208C12.6951 16.6503 16.3539 13.2949 15.7946 9.18236C15.3855 6.17355 12.7278 3.9903 9.66339 4.14561C6.70867 4.29536 4.27233 6.77382 4.15714 9.74707C4.04844 12.5528 5.80411 14.908 8.6652 15.7208Z" fill="white"/>
<path d="M11.4802 7.49465C12.0482 7.23951 12.5887 6.99659 13.1566 6.74135C13.1617 6.81918 13.177 6.85953 13.1642 6.88646C12.5952 8.086 12.0459 9.29586 11.4384 10.4756C11.2648 10.8126 10.9732 11.1574 10.6471 11.3345C9.40259 12.0102 8.12192 12.6189 6.80312 13.2785C6.80312 13.1404 6.78714 13.0854 6.80544 13.0467C7.35564 11.8822 7.90798 10.7187 8.46285 9.55641C8.70064 9.05832 9.07546 8.69634 9.56825 8.45174C10.1977 8.13932 10.8247 7.82205 11.4802 7.49465ZM8.07434 12.0165C8.85406 11.6203 9.64292 11.241 10.4097 10.8212C10.8117 10.6011 10.9578 10.2117 10.8653 9.80581C10.7772 9.41935 10.53 9.17803 10.1469 9.08927C9.7522 8.99785 9.35202 9.15231 9.13775 9.55404C8.72003 10.3372 8.34367 11.1426 7.91568 11.9692C7.94945 11.9895 7.98321 12.0098 8.07434 12.0165Z" fill="white"/>
</svg>
