<svg width="20" height="20" viewBox="0 0 20 20" fill="none" xmlns="http://www.w3.org/2000/svg">
    <path d="M0 2C0 0.895431 0.895431 0 2 0H18C19.1046 0 20 0.895431 20 2V18C20 19.1046 19.1046 20 18 20H2C0.895431 20 0 19.1046 0 18V2Z" fill="#4680D7"/>
    <path d="M13.6954 13.6978H12.1408V11.2612C12.1408 10.6802 12.1292 9.93233 11.33 9.93233C10.5197 9.93233 10.3961 10.5647 10.3961 11.2186V13.6978H8.84092V8.6875H10.3342V9.37H10.3547C10.5635 8.97683 11.071 8.56092 11.8293 8.56092C13.4043 8.56092 13.696 9.59808 13.696 10.9473V13.6978H13.6954ZM7.08508 8.00208C6.96641 8.00224 6.84887 7.97897 6.7392 7.9336C6.62954 7.88824 6.52991 7.82168 6.44602 7.73774C6.36213 7.65379 6.29563 7.55412 6.25034 7.44442C6.20505 7.33473 6.18185 7.21718 6.18208 7.0985C6.1822 6.9199 6.23527 6.74535 6.33459 6.59692C6.43391 6.44849 6.57501 6.33284 6.74006 6.2646C6.9051 6.19636 7.08668 6.17859 7.26182 6.21355C7.43696 6.2485 7.59781 6.33461 7.72401 6.46098C7.85022 6.58735 7.93612 6.7483 7.97085 6.92349C8.00557 7.09868 7.98758 7.28023 7.91912 7.44519C7.85067 7.61014 7.73484 7.7511 7.58628 7.85022C7.43772 7.94935 7.2631 8.0022 7.0845 8.00208H7.08508ZM7.86442 13.6978H6.30517V8.6875H7.865V13.6978H7.86442ZM14.4742 4.75H5.52525C5.09592 4.75 4.75 5.08833 4.75 5.50658V14.4934C4.75 14.9117 5.0965 15.25 5.52467 15.25H14.4718C14.9 15.25 15.25 14.9117 15.25 14.4934V5.50658C15.25 5.08833 14.9 4.75 14.4718 4.75H14.4736H14.4742Z" fill="white"/>
</svg>
