<svg width="20" height="20" viewBox="0 0 20 20" fill="none" xmlns="http://www.w3.org/2000/svg">
    <path d="M0 2C0 0.895431 0.895431 0 2 0H18C19.1046 0 20 0.895431 20 2V18C20 19.1046 19.1046 20 18 20H2C0.895431 20 0 19.1046 0 18V2Z" fill="#6555C6"/>
    <path d="M9.41667 5.33334H15.25V6.50001H9.41667V5.33334ZM9.41667 7.66668H12.9167V8.83334H9.41667V7.66668ZM9.41667 11.1667H15.25V12.3333H9.41667V11.1667ZM9.41667 13.5H12.9167V14.6667H9.41667V13.5ZM4.75 5.33334H8.25V8.83334H4.75V5.33334ZM5.91667 6.50001V7.66668H7.08333V6.50001H5.91667ZM4.75 11.1667H8.25V14.6667H4.75V11.1667ZM5.91667 12.3333V13.5H7.08333V12.3333H5.91667Z" fill="white"/>
</svg>
