<svg width="20" height="20" viewBox="0 0 20 20" fill="none" xmlns="http://www.w3.org/2000/svg">
<path d="M0 2C0 0.895431 0.895431 0 2 0H18C19.1046 0 20 0.895431 20 2V18C20 19.1046 19.1046 20 18 20H2C0.895431 20 0 19.1046 0 18V2Z" fill="#E76E67"/>
<path d="M6.76525 14.0833L4.1665 16.125V5.33333C4.1665 5.17862 4.22796 5.03025 4.33736 4.92085C4.44675 4.81146 4.59513 4.75 4.74984 4.75H15.2498C15.4045 4.75 15.5529 4.81146 15.6623 4.92085C15.7717 5.03025 15.8332 5.17862 15.8332 5.33333V13.5C15.8332 13.6547 15.7717 13.8031 15.6623 13.9125C15.5529 14.0219 15.4045 14.0833 15.2498 14.0833H6.76525ZM7.08317 8.83333V10H8.24984V8.83333H7.08317ZM9.4165 8.83333V10H10.5832V8.83333H9.4165ZM11.7498 8.83333V10H12.9165V8.83333H11.7498Z" fill="white"/>
</svg>
