<svg width="686" height="733" viewBox="0 0 686 733" fill="none" xmlns="http://www.w3.org/2000/svg">
<path d="M438.783 65.5195H10.7347C4.80611 65.5195 0 70.3196 0 76.2408V518.493C0 524.415 4.80611 529.215 10.7347 529.215H438.783C444.711 529.215 449.518 524.415 449.518 518.493V76.2408C449.518 70.3196 444.711 65.5195 438.783 65.5195Z" fill="#FFF2F3"/>
<path fill-rule="evenodd" clip-rule="evenodd" d="M10.7347 65.5195H438.783C444.711 65.5195 449.518 70.3196 449.518 76.2408V101.704H0V76.2408C0 70.3196 4.80611 65.5195 10.7347 65.5195Z" fill="#F86E7F"/>
<path d="M17.4438 89.6422C20.4081 89.6422 22.8112 87.2421 22.8112 84.2815C22.8112 81.3209 20.4081 78.9209 17.4438 78.9209C14.4795 78.9209 12.0764 81.3209 12.0764 84.2815C12.0764 87.2421 14.4795 89.6422 17.4438 89.6422Z" fill="white"/>
<path d="M33.5458 89.6422C36.5102 89.6422 38.9132 87.2421 38.9132 84.2815C38.9132 81.3209 36.5102 78.9209 33.5458 78.9209C30.5815 78.9209 28.1785 81.3209 28.1785 84.2815C28.1785 87.2421 30.5815 89.6422 33.5458 89.6422Z" fill="white"/>
<path d="M49.6476 89.6422C52.612 89.6422 55.015 87.2421 55.015 84.2815C55.015 81.3209 52.612 78.9209 49.6476 78.9209C46.6833 78.9209 44.2803 81.3209 44.2803 84.2815C44.2803 87.2421 46.6833 89.6422 49.6476 89.6422Z" fill="white"/>
<path d="M417.314 208.917H32.2047C26.2761 208.917 21.47 213.717 21.47 219.638V497.051C21.47 502.973 26.2761 507.773 32.2047 507.773H417.314C423.242 507.773 428.049 502.973 428.049 497.051V219.638C428.049 213.717 423.242 208.917 417.314 208.917Z" fill="white"/>
<path d="M80.5116 230.359H48.3073C45.343 230.359 42.9399 232.759 42.9399 235.72V267.884C42.9399 270.844 45.343 273.244 48.3073 273.244H80.5116C83.4759 273.244 85.8789 270.844 85.8789 267.884V235.72C85.8789 232.759 83.4759 230.359 80.5116 230.359Z" fill="#F9C8CA"/>
<path d="M80.5113 285.306H48.3071C45.3428 285.306 42.9397 287.706 42.9397 290.666V322.83C42.9397 325.791 45.3428 328.191 48.3071 328.191H80.5113C83.4756 328.191 85.8787 325.791 85.8787 322.83V290.666C85.8787 287.706 83.4756 285.306 80.5113 285.306Z" fill="#FFDADB"/>
<path d="M80.5113 338.912H48.3071C45.3428 338.912 42.9397 341.312 42.9397 344.273V376.437C42.9397 379.397 45.3428 381.797 48.3071 381.797H80.5113C83.4756 381.797 85.8787 379.397 85.8787 376.437V344.273C85.8787 341.312 83.4756 338.912 80.5113 338.912Z" fill="#FFE2E3"/>
<path d="M80.5113 446.125H48.3071C45.3428 446.125 42.9397 448.525 42.9397 451.486V483.649C42.9397 486.61 45.3428 489.01 48.3071 489.01H80.5113C83.4756 489.01 85.8787 486.61 85.8787 483.649V451.486C85.8787 448.525 83.4756 446.125 80.5113 446.125Z" fill="#FFEEEF"/>
<path d="M80.5113 392.519H48.3071C45.3428 392.519 42.9397 394.919 42.9397 397.879V430.043C42.9397 433.004 45.3428 435.404 48.3071 435.404H80.5113C83.4756 435.404 85.8787 433.004 85.8787 430.043V397.879C85.8787 394.919 83.4756 392.519 80.5113 392.519Z" fill="#FBD2D4"/>
<path d="M144.92 230.359H112.716C109.751 230.359 107.348 232.759 107.348 235.72V267.884C107.348 270.844 109.751 273.244 112.716 273.244H144.92C147.884 273.244 150.287 270.844 150.287 267.884V235.72C150.287 232.759 147.884 230.359 144.92 230.359Z" fill="#F9C8CA"/>
<path d="M144.919 285.306H112.715C109.751 285.306 107.348 287.706 107.348 290.666V322.83C107.348 325.791 109.751 328.191 112.715 328.191H144.919C147.884 328.191 150.287 325.791 150.287 322.83V290.666C150.287 287.706 147.884 285.306 144.919 285.306Z" fill="#F9C8CA"/>
<path d="M144.919 338.912H112.715C109.751 338.912 107.348 341.312 107.348 344.273V376.437C107.348 379.397 109.751 381.797 112.715 381.797H144.919C147.884 381.797 150.287 379.397 150.287 376.437V344.273C150.287 341.312 147.884 338.912 144.919 338.912Z" fill="#FFE2E3"/>
<path d="M144.919 446.125H112.715C109.751 446.125 107.348 448.525 107.348 451.486V483.649C107.348 486.61 109.751 489.01 112.715 489.01H144.919C147.884 489.01 150.287 486.61 150.287 483.649V451.486C150.287 448.525 147.884 446.125 144.919 446.125Z" fill="#FFEEEF"/>
<path d="M144.919 392.519H112.715C109.751 392.519 107.348 394.919 107.348 397.879V430.043C107.348 433.004 109.751 435.404 112.715 435.404H144.919C147.884 435.404 150.287 433.004 150.287 430.043V397.879C150.287 394.919 147.884 392.519 144.919 392.519Z" fill="#FBD2D4"/>
<path d="M209.328 230.359H177.124C174.16 230.359 171.757 232.759 171.757 235.72V267.884C171.757 270.844 174.16 273.244 177.124 273.244H209.328C212.293 273.244 214.696 270.844 214.696 267.884V235.72C214.696 232.759 212.293 230.359 209.328 230.359Z" fill="#F9C8CA"/>
<path d="M209.328 285.306H177.124C174.16 285.306 171.757 287.706 171.757 290.666V322.83C171.757 325.791 174.16 328.191 177.124 328.191H209.328C212.293 328.191 214.696 325.791 214.696 322.83V290.666C214.696 287.706 212.293 285.306 209.328 285.306Z" fill="#FFDADB"/>
<path d="M209.328 338.912H177.124C174.16 338.912 171.757 341.312 171.757 344.273V376.437C171.757 379.397 174.16 381.797 177.124 381.797H209.328C212.293 381.797 214.696 379.397 214.696 376.437V344.273C214.696 341.312 212.293 338.912 209.328 338.912Z" fill="#FFE2E3"/>
<path d="M209.328 446.125H177.124C174.16 446.125 171.757 448.525 171.757 451.486V483.649C171.757 486.61 174.16 489.01 177.124 489.01H209.328C212.293 489.01 214.696 486.61 214.696 483.649V451.486C214.696 448.525 212.293 446.125 209.328 446.125Z" fill="#FFEEEF"/>
<path d="M209.328 392.519H177.124C174.16 392.519 171.757 394.919 171.757 397.879V430.043C171.757 433.004 174.16 435.404 177.124 435.404H209.328C212.293 435.404 214.696 433.004 214.696 430.043V397.879C214.696 394.919 212.293 392.519 209.328 392.519Z" fill="#FBD2D4"/>
<path d="M273.736 230.359H241.532C238.568 230.359 236.165 232.759 236.165 235.72V267.884C236.165 270.844 238.568 273.244 241.532 273.244H273.736C276.701 273.244 279.104 270.844 279.104 267.884V235.72C279.104 232.759 276.701 230.359 273.736 230.359Z" fill="#F9C8CA"/>
<path d="M273.736 285.306H241.532C238.568 285.306 236.165 287.706 236.165 290.666V322.83C236.165 325.791 238.568 328.191 241.532 328.191H273.736C276.701 328.191 279.104 325.791 279.104 322.83V290.666C279.104 287.706 276.701 285.306 273.736 285.306Z" fill="#FFDADB"/>
<path d="M273.736 338.912H241.532C238.568 338.912 236.165 341.312 236.165 344.273V376.437C236.165 379.397 238.568 381.797 241.532 381.797H273.736C276.701 381.797 279.104 379.397 279.104 376.437V344.273C279.104 341.312 276.701 338.912 273.736 338.912Z" fill="#FFE2E3"/>
<path d="M273.736 446.125H241.532C238.568 446.125 236.165 448.525 236.165 451.486V483.649C236.165 486.61 238.568 489.01 241.532 489.01H273.736C276.701 489.01 279.104 486.61 279.104 483.649V451.486C279.104 448.525 276.701 446.125 273.736 446.125Z" fill="#FFEEEF"/>
<path d="M273.736 392.519H241.532C238.568 392.519 236.165 394.919 236.165 397.879V430.043C236.165 433.004 238.568 435.404 241.532 435.404H273.736C276.701 435.404 279.104 433.004 279.104 430.043V397.879C279.104 394.919 276.701 392.519 273.736 392.519Z" fill="#FBD2D4"/>
<path d="M338.146 230.359H305.941C302.977 230.359 300.574 232.759 300.574 235.72V267.884C300.574 270.844 302.977 273.244 305.941 273.244H338.146C341.11 273.244 343.513 270.844 343.513 267.884V235.72C343.513 232.759 341.11 230.359 338.146 230.359Z" fill="#F9C8CA"/>
<path d="M338.145 285.306H305.941C302.977 285.306 300.573 287.706 300.573 290.666V322.83C300.573 325.791 302.977 328.191 305.941 328.191H338.145C341.109 328.191 343.512 325.791 343.512 322.83V290.666C343.512 287.706 341.109 285.306 338.145 285.306Z" fill="#FFBBC3"/>
<path d="M338.145 338.912H305.941C302.977 338.912 300.573 341.312 300.573 344.273V376.437C300.573 379.397 302.977 381.797 305.941 381.797H338.145C341.109 381.797 343.512 379.397 343.512 376.437V344.273C343.512 341.312 341.109 338.912 338.145 338.912Z" fill="#FFE2E3"/>
<path d="M338.145 446.125H305.941C302.977 446.125 300.573 448.525 300.573 451.486V483.649C300.573 486.61 302.977 489.01 305.941 489.01H338.145C341.109 489.01 343.512 486.61 343.512 483.649V451.486C343.512 448.525 341.109 446.125 338.145 446.125Z" fill="#FFEEEF"/>
<path d="M338.145 392.519H305.941C302.977 392.519 300.573 394.919 300.573 397.879V430.043C300.573 433.004 302.977 435.404 305.941 435.404H338.145C341.109 435.404 343.512 433.004 343.512 430.043V397.879C343.512 394.919 341.109 392.519 338.145 392.519Z" fill="#FBD2D4"/>
<path d="M402.553 230.359H370.349C367.385 230.359 364.982 232.759 364.982 235.72V267.884C364.982 270.844 367.385 273.244 370.349 273.244H402.553C405.518 273.244 407.921 270.844 407.921 267.884V235.72C407.921 232.759 405.518 230.359 402.553 230.359Z" fill="#F9C8CA"/>
<path d="M402.553 285.306H370.349C367.384 285.306 364.981 287.706 364.981 290.666V322.83C364.981 325.791 367.384 328.191 370.349 328.191H402.553C405.517 328.191 407.92 325.791 407.92 322.83V290.666C407.92 287.706 405.517 285.306 402.553 285.306Z" fill="#FFDADB"/>
<path d="M402.553 338.912H370.349C367.384 338.912 364.981 341.312 364.981 344.273V376.437C364.981 379.397 367.384 381.797 370.349 381.797H402.553C405.517 381.797 407.92 379.397 407.92 376.437V344.273C407.92 341.312 405.517 338.912 402.553 338.912Z" fill="#FFE2E3"/>
<path d="M402.553 446.125H370.349C367.384 446.125 364.981 448.525 364.981 451.486V483.649C364.981 486.61 367.384 489.01 370.349 489.01H402.553C405.517 489.01 407.92 486.61 407.92 483.649V451.486C407.92 448.525 405.517 446.125 402.553 446.125Z" fill="#FFEEEF"/>
<path d="M402.553 392.519H370.349C367.384 392.519 364.981 394.919 364.981 397.879V430.043C364.981 433.004 367.384 435.404 370.349 435.404H402.553C405.517 435.404 407.92 433.004 407.92 430.043V397.879C407.92 394.919 405.517 392.519 402.553 392.519Z" fill="#FFCACC"/>
<path d="M422.681 124.486H26.8373C23.873 124.486 21.47 126.886 21.47 129.847V182.113C21.47 185.074 23.873 187.474 26.8373 187.474H422.681C425.645 187.474 428.049 185.074 428.049 182.113V129.847C428.049 126.886 425.645 124.486 422.681 124.486Z" fill="#FFF2F3"/>
<path d="M285.813 151.289H163.705C161.482 151.289 159.68 153.089 159.68 155.31V156.717C159.68 158.937 161.482 160.737 163.705 160.737H285.813C288.036 160.737 289.839 158.937 289.839 156.717V155.31C289.839 153.089 288.036 151.289 285.813 151.289Z" fill="#F9C8CA"/>
<path d="M397.187 166.031C402.374 166.031 406.58 161.831 406.58 156.65C406.58 151.469 402.374 147.269 397.187 147.269C391.999 147.269 387.794 151.469 387.794 156.65C387.794 161.831 391.999 166.031 397.187 166.031Z" fill="#F9C8CA"/>
<path d="M397.187 160.67C399.41 160.67 401.212 158.87 401.212 156.649C401.212 154.429 399.41 152.629 397.187 152.629C394.963 152.629 393.161 154.429 393.161 156.649C393.161 158.87 394.963 160.67 397.187 160.67Z" fill="white"/>
<path d="M52.3324 166.031C57.5199 166.031 61.7253 161.831 61.7253 156.65C61.7253 151.469 57.5199 147.269 52.3324 147.269C47.1448 147.269 42.9395 151.469 42.9395 156.65C42.9395 161.831 47.1448 166.031 52.3324 166.031Z" fill="#F9C8CA"/>
<path d="M52.3329 160.67C54.5561 160.67 56.3584 158.87 56.3584 156.649C56.3584 154.429 54.5561 152.629 52.3329 152.629C50.1097 152.629 48.3074 154.429 48.3074 156.649C48.3074 158.87 50.1097 160.67 52.3329 160.67Z" fill="white"/>
<g clip-path="url(#clip0)">
<path fill-rule="evenodd" clip-rule="evenodd" d="M400.034 29.2652C389.491 48.8573 390.743 98.5542 404.37 102.056C409.805 103.452 421.381 100.032 433.164 92.9518L425.768 145.111H469.437L454.403 75.2583C462.787 65.4475 468.462 53.4242 467.514 39.9518C464.782 1.13366 410.578 9.67316 400.034 29.2652Z" fill="#FFCEB5"/>
<path fill-rule="evenodd" clip-rule="evenodd" d="M457.759 83.9969C463.239 59.6888 478.853 43.1188 476.469 32.2541C474.879 25.011 470.642 20.5067 463.757 18.7414C460.197 4.38146 448.713 -1.72637 429.306 0.417878C400.196 3.63426 382.428 15.6861 390.101 42.2054C397.154 42.2054 405.669 39.6625 417.443 44.0193C421.179 45.4017 423.851 49.6886 425.459 56.88H430.78C435.943 48.3458 441.035 45.2097 446.054 47.4717C451.074 49.7338 452.215 55.2283 449.477 63.9552L452.098 83.9969H457.759Z" fill="#10173D"/>
<path fill-rule="evenodd" clip-rule="evenodd" d="M519.121 298.285C515.845 342.945 304.804 474.43 303.573 478.119C303.026 479.759 324.922 531.589 369.262 633.609L350.814 640.769C282.804 532.723 250.546 472.943 254.039 461.43C259.04 444.947 313.621 390.724 417.782 298.76L519.121 298.285Z" fill="#F5C0A5"/>
<path fill-rule="evenodd" clip-rule="evenodd" d="M364.408 610.569L334.288 621.52C270.777 549.943 245.882 490.884 250.422 460.793C253.448 440.733 307.841 386.6 413.6 298.395L521.281 298.395C517.607 401.82 321.999 478.513 319.383 482.92C316.766 487.327 342.514 530.493 364.408 610.569Z" fill="#F16375"/>
<path fill-rule="evenodd" clip-rule="evenodd" d="M375.767 629.788C379.706 634.348 382.149 637.924 383.096 640.516C384.218 643.592 385.344 648.265 386.472 654.537C382.9 655.833 350.803 667.479 290.18 689.476C284.661 682.121 284.477 677.136 289.627 674.521C294.778 671.906 299.039 669.686 302.411 667.861L340.037 631.551C340.679 630.932 341.703 630.949 342.324 631.588C342.335 631.6 342.346 631.611 342.357 631.623L347.918 637.702C353.758 638.217 358.238 637.908 361.358 636.776C363.959 635.832 367.182 633.444 371.03 629.611L371.03 629.611C372.293 628.352 374.341 628.353 375.604 629.612C375.661 629.669 375.715 629.727 375.767 629.788Z" fill="#10173D"/>
<path fill-rule="evenodd" clip-rule="evenodd" d="M494.856 298.285L588.869 523.724L681.268 714.313H659.468L420.96 298.285H494.856Z" fill="#F5C0A5"/>
<path fill-rule="evenodd" clip-rule="evenodd" d="M682.416 705.102C684.553 710.73 685.622 714.923 685.622 717.682C685.622 720.955 685.076 725.73 683.984 732.008C680.184 732.008 646.026 732.008 581.512 732.008C578.85 723.215 580.387 718.468 586.124 717.767C591.861 717.065 596.627 716.432 600.422 715.867L648.236 694.576C649.051 694.213 650.008 694.578 650.372 695.391C650.378 695.405 650.385 695.42 650.391 695.435L653.531 703.043C658.842 705.518 663.158 706.755 666.478 706.755C669.246 706.755 673.094 705.61 678.025 703.32L678.025 703.32C679.644 702.568 681.568 703.267 682.323 704.881C682.357 704.954 682.388 705.027 682.416 705.102Z" fill="#10173D"/>
<path fill-rule="evenodd" clip-rule="evenodd" d="M672.925 674.721L624.485 683.795C587.031 628.794 430.285 403.271 413.099 298.285H520.938C578.33 374.179 637.224 618.81 672.925 674.721Z" fill="#F86E7F"/>
<path fill-rule="evenodd" clip-rule="evenodd" d="M570.222 212.058L530.795 217.721C574.536 310.472 597.656 359.004 600.154 363.318C605.777 373.024 599.169 389.928 596.587 398.877C609.646 402.634 605.472 382.539 621.986 387.554C637.058 392.131 649.497 402.504 664.422 390.174C666.257 388.658 667.802 383.701 661.969 380.811C647.435 373.612 626.096 360.439 622.778 355.585C618.254 348.966 600.735 301.124 570.222 212.058ZM327.015 291.824L282.988 348.543C269.031 356.927 257.849 365.594 249.442 374.543C247.671 377.404 246.043 382.638 255.767 379.038C265.491 375.438 275.883 372.087 278.228 375.074C280.573 378.06 275.719 383.818 279.806 387.584C282.53 390.095 289.071 379.982 299.427 357.245L348.091 318.665L327.015 291.824Z" fill="#F5C0A5"/>
<path fill-rule="evenodd" clip-rule="evenodd" d="M434.289 117.547L418.337 117.064C406.005 206.857 288.26 283.347 285.083 316.714C283.918 328.95 293.321 333.739 289.411 337.963L311.741 349.891C314.606 345.429 322.952 351.692 337.509 344.46C352.067 337.228 448.739 219.809 434.289 117.547Z" fill="#3956BC"/>
<path fill-rule="evenodd" clip-rule="evenodd" d="M460.272 95.422L410.658 105.916C407.165 106.653 404.935 110.078 405.679 113.563C405.679 113.564 405.679 113.564 405.681 113.564L409.74 132.542C427.74 246.706 365.449 285.16 386.72 328.975C404.28 365.146 526.887 389.529 541.862 349.573C547.925 333.398 549.07 314.699 546.698 294.876C554.01 309.339 559.945 321.84 564.501 332.379C572.359 350.559 592.892 350.753 593.921 358.036L619.385 347.049C616.19 337.407 627.998 330.843 621.527 309.207C592.53 212.268 542.074 146.114 470.159 110.746L467.945 100.395C467.199 96.9104 463.765 94.6848 460.272 95.422Z" fill="#4864C9"/>
</g>
<defs>
<clipPath id="clip0">
<rect width="438.3" height="732.006" fill="white" transform="translate(247.456)"/>
</clipPath>
</defs>
</svg>
