<svg width="820" height="595" viewBox="0 0 820 595" fill="none" xmlns="http://www.w3.org/2000/svg">
<g filter="url(#filter0_d)">
<mask id="path-1-inside-1" fill="white">
<path fill-rule="evenodd" clip-rule="evenodd" d="M307.26 294.714C310 297.516 312.705 300.435 315.374 303.471C315.804 303.961 315.681 304.652 315.098 305.014C314.515 305.376 313.693 305.272 313.263 304.782C310.621 301.777 307.943 298.888 305.232 296.115C304.772 295.644 304.853 294.949 305.413 294.562C305.973 294.175 306.8 294.243 307.26 294.714ZM139.121 281.426C139.806 281.624 140.171 282.252 139.935 282.828C138.015 287.511 135.224 290.748 131.826 292.281C131.187 292.569 130.391 292.367 130.049 291.831C129.706 291.294 129.946 290.625 130.585 290.337C133.326 289.1 135.731 286.311 137.453 282.109C137.689 281.533 138.436 281.227 139.121 281.426ZM117.228 277.324C117.921 277.502 118.311 278.119 118.099 278.701C116.721 282.491 117.391 285.685 120.099 288.037C120.603 288.475 120.59 289.173 120.069 289.597C119.548 290.021 118.717 290.009 118.213 289.572C114.793 286.601 113.947 282.569 115.589 278.056C115.801 277.473 116.535 277.146 117.228 277.324ZM289.353 278.438C292.473 280.939 295.557 283.577 298.603 286.352C299.095 286.8 299.061 287.498 298.529 287.911C297.996 288.324 297.166 288.296 296.674 287.848C293.666 285.108 290.621 282.504 287.541 280.035C287.016 279.615 286.997 278.916 287.497 278.475C287.997 278.034 288.828 278.018 289.353 278.438ZM268.946 264.303C272.485 266.389 275.99 268.636 279.457 271.044C280.016 271.432 280.095 272.127 279.633 272.597C279.171 273.066 278.344 273.133 277.785 272.745C274.371 270.373 270.921 268.162 267.439 266.109C266.845 265.759 266.702 265.071 267.118 264.572C267.534 264.074 268.353 263.953 268.946 264.303ZM141.459 259.689C142.184 259.665 142.793 260.14 142.821 260.749C143.003 264.798 142.901 268.53 142.527 271.922C142.46 272.529 141.821 272.975 141.099 272.919C140.377 272.863 139.846 272.325 139.913 271.719C140.277 268.425 140.376 264.789 140.198 260.833C140.17 260.224 140.735 259.712 141.459 259.689ZM134.121 260.76C134.561 261.245 134.45 261.937 133.874 262.306C130.201 264.66 127.028 267.147 124.466 269.662C123.994 270.125 123.166 270.179 122.615 269.783C122.064 269.386 122 268.69 122.472 268.227C125.158 265.589 128.467 262.997 132.282 260.552C132.858 260.182 133.682 260.276 134.121 260.76ZM246.019 253.18C249.971 254.703 253.896 256.411 257.79 258.306C258.417 258.611 258.631 259.286 258.268 259.814C257.905 260.341 257.102 260.521 256.475 260.216C252.652 258.356 248.801 256.68 244.925 255.185C244.266 254.931 243.977 254.277 244.279 253.723C244.581 253.169 245.36 252.926 246.019 253.18ZM157.248 250.448C157.509 251.017 157.171 251.655 156.494 251.873C152.373 253.206 148.435 254.734 144.733 256.427C144.096 256.718 143.299 256.521 142.952 255.986C142.606 255.45 142.841 254.78 143.478 254.489C147.281 252.749 151.324 251.181 155.552 249.814C156.229 249.595 156.988 249.879 157.248 250.448ZM220.906 246.024C225.174 246.825 229.435 247.831 233.682 249.044C234.368 249.241 234.735 249.867 234.502 250.444C234.269 251.021 233.523 251.33 232.837 251.133C228.68 249.945 224.51 248.961 220.334 248.178C219.627 248.045 219.181 247.455 219.339 246.861C219.497 246.266 220.198 245.892 220.906 246.024ZM139.627 238.624C140.492 242.439 141.184 246.095 141.705 249.588C141.795 250.193 141.285 250.744 140.566 250.82C139.847 250.896 139.191 250.467 139.1 249.863C138.586 246.417 137.904 242.807 137.049 239.038C136.913 238.439 137.38 237.861 138.092 237.747C138.804 237.633 139.492 238.026 139.627 238.624ZM182.763 245.357C182.854 245.962 182.345 246.513 181.626 246.59C177.295 247.049 173.037 247.721 168.878 248.593C168.175 248.74 167.463 248.381 167.287 247.79C167.112 247.198 167.54 246.6 168.243 246.452C172.502 245.559 176.863 244.871 181.297 244.401C182.016 244.324 182.673 244.753 182.763 245.357ZM207.833 244.209C208.553 244.274 209.075 244.818 208.997 245.424C208.92 246.03 208.272 246.468 207.552 246.403C203.21 246.01 198.886 245.831 194.593 245.861C193.868 245.866 193.276 245.376 193.27 244.767C193.264 244.157 193.846 243.659 194.571 243.654C198.965 243.624 203.39 243.807 207.833 244.209ZM133.399 217C133.829 218.233 134.245 219.468 134.65 220.714C135.421 223.093 136.138 225.427 136.801 227.715C136.972 228.307 136.54 228.904 135.836 229.048C135.132 229.192 134.422 228.829 134.25 228.237C133.594 225.968 132.883 223.654 132.117 221.295C131.717 220.062 131.306 218.841 130.88 217.62C130.676 217.036 131.075 216.423 131.77 216.251C132.466 216.08 133.195 216.415 133.399 217ZM124.685 196.069C126.352 199.526 127.906 202.975 129.351 206.437C129.591 207.012 129.231 207.641 128.547 207.843C127.863 208.045 127.114 207.742 126.874 207.167C125.443 203.739 123.904 200.323 122.252 196.897C121.98 196.332 122.304 195.689 122.976 195.46C123.648 195.232 124.413 195.504 124.685 196.069ZM227.258 191.367C230.582 191.926 233.969 192.031 237.445 191.664C238.299 191.573 239.117 191.477 239.923 191.373C240.639 191.28 241.309 191.694 241.419 192.296C241.529 192.898 241.038 193.461 240.321 193.554C239.493 193.661 238.651 193.76 237.773 193.853C234.016 194.25 230.343 194.137 226.743 193.53C226.032 193.41 225.571 192.829 225.714 192.232C225.856 191.634 226.548 191.247 227.258 191.367ZM265.547 184.046C265.979 184.535 265.859 185.226 265.278 185.59C261.812 187.759 257.859 189.512 253.322 190.878C252.639 191.083 251.888 190.785 251.644 190.211C251.399 189.638 251.754 189.006 252.437 188.801C256.735 187.506 260.457 185.856 263.71 183.82C264.291 183.456 265.114 183.557 265.547 184.046ZM205.391 180.762C208.766 183.467 212.124 185.681 215.511 187.404C216.132 187.719 216.33 188.398 215.955 188.919C215.579 189.44 214.773 189.607 214.152 189.292C210.592 187.48 207.086 185.169 203.58 182.359C203.055 181.938 203.036 181.24 203.536 180.799C204.036 180.358 204.867 180.342 205.391 180.762ZM113.818 175.895C115.829 179.307 117.702 182.611 119.477 185.894C119.777 186.448 119.485 187.102 118.825 187.354C118.165 187.606 117.387 187.361 117.087 186.806C115.325 183.548 113.465 180.265 111.466 176.874C111.144 176.329 111.409 175.667 112.059 175.396C112.708 175.126 113.496 175.349 113.818 175.895ZM280.329 166.082C280.996 166.32 281.308 166.967 281.024 167.528C279.107 171.326 277.016 174.587 274.634 177.432C274.217 177.931 273.398 178.05 272.806 177.699C272.213 177.349 272.071 176.661 272.488 176.162C274.755 173.454 276.76 170.328 278.608 166.666C278.891 166.105 279.662 165.844 280.329 166.082ZM188.816 163.976C191.532 167.222 194.113 170.113 196.651 172.729C197.109 173.201 197.025 173.896 196.463 174.281C195.901 174.666 195.075 174.595 194.616 174.123C192.037 171.464 189.418 168.531 186.669 165.246C186.252 164.747 186.395 164.059 186.988 163.708C187.581 163.358 188.399 163.478 188.816 163.976ZM101.68 156.298C101.734 156.384 104.021 159.993 104.7 161.065C105.88 162.932 106.872 164.511 107.833 166.051C108.169 166.591 107.921 167.257 107.279 167.54C106.637 167.823 105.844 167.615 105.508 167.075C104.55 165.539 103.56 163.965 102.382 162.101C101.704 161.03 99.4179 157.422 99.3627 157.335C99.0222 156.797 99.2648 156.129 99.9046 155.842C100.544 155.556 101.339 155.76 101.68 156.298ZM288.038 145.027C288.74 145.179 289.162 145.781 288.981 146.371C287.696 150.556 286.58 153.959 285.46 157.048C285.249 157.631 284.515 157.959 283.822 157.781C283.129 157.604 282.738 156.987 282.949 156.404C284.056 153.351 285.163 149.977 286.439 145.819C286.62 145.229 287.336 144.875 288.038 145.027ZM174.498 145.606C177.943 150.184 179.572 152.333 181.55 154.894C181.944 155.405 181.772 156.088 181.164 156.42C180.556 156.752 179.743 156.607 179.348 156.096C177.363 153.525 175.73 151.371 172.279 146.786C171.892 146.271 172.074 145.589 172.687 145.263C173.299 144.938 174.11 145.091 174.498 145.606ZM90.0904 136.611C91.5192 139.511 93.3055 142.709 95.6055 146.531C95.9327 147.075 95.6736 147.739 95.0267 148.014C94.3799 148.289 93.5904 148.071 93.2632 147.527C90.9357 143.659 89.1228 140.413 87.6653 137.455C87.3879 136.892 87.706 136.247 88.3756 136.013C89.0453 135.78 89.813 136.048 90.0904 136.611ZM160.041 127.05C162.337 129.793 164.711 132.768 167.389 136.238C167.784 136.75 167.611 137.433 167.003 137.764C166.394 138.096 165.582 137.95 165.187 137.439C162.525 133.99 160.169 131.037 157.894 128.32C157.477 127.822 157.619 127.134 158.212 126.783C158.805 126.432 159.624 126.552 160.041 127.05ZM294.449 123.607C295.151 123.759 295.572 124.361 295.391 124.951C294.416 128.117 293.548 131.017 292.184 135.637C292.009 136.229 291.297 136.589 290.594 136.442C289.89 136.296 289.462 135.697 289.636 135.106C291.002 130.479 291.872 127.573 292.85 124.398C293.031 123.808 293.747 123.454 294.449 123.607ZM86.3644 114.611C87.0355 114.841 87.3577 115.485 87.084 116.05C85.6592 118.986 85.4051 122.351 86.2539 126.331C86.3818 126.931 85.9072 127.504 85.1937 127.612C84.4802 127.719 83.7982 127.32 83.6702 126.72C82.7392 122.355 83.0248 118.573 84.6535 115.216C84.9272 114.652 85.6932 114.381 86.3644 114.611ZM143.019 110.017C146.017 112.343 149.016 115.06 152.086 118.198C152.546 118.668 152.466 119.364 151.906 119.75C151.346 120.137 150.519 120.07 150.058 119.599C147.061 116.535 144.142 113.891 141.239 111.639C140.706 111.225 140.673 110.527 141.165 110.08C141.656 109.632 142.487 109.604 143.019 110.017ZM301.665 102.354C302.357 102.535 302.743 103.154 302.528 103.735C301.242 107.202 300.013 110.697 298.81 114.285C298.614 114.871 297.889 115.213 297.191 115.048C296.493 114.882 296.087 114.273 296.284 113.687C297.492 110.079 298.729 106.565 300.022 103.079C300.237 102.497 300.973 102.172 301.665 102.354ZM593.091 95.3679C593.74 95.5207 594.137 96.0567 594.034 96.6022L594.001 96.7281L589.121 111.353L588.491 113.242L586.899 111.809L574.564 100.709C574.069 100.263 574.097 99.5652 574.627 99.1492C575.116 98.7653 575.861 98.756 576.362 99.1071L576.482 99.2023L587.223 108.868L591.473 96.1322C591.669 95.5456 592.394 95.2034 593.091 95.3679ZM107.331 102.043C107.56 102.621 107.187 103.245 106.5 103.438C103.066 104.396 99.5357 105.852 95.8892 107.829C95.6215 107.974 95.3596 108.12 95.1034 108.267C94.5052 108.611 93.6884 108.483 93.2791 107.98C92.8697 107.477 93.0228 106.791 93.621 106.446C93.897 106.288 94.1787 106.13 94.4664 105.974C98.2924 103.9 102.021 102.363 105.672 101.344C106.36 101.152 107.103 101.465 107.331 102.043ZM584.257 94.771C584.552 95.5505 584.84 96.3344 585.127 97.1433L585.413 97.9611L587.604 105.518C587.775 106.11 587.343 106.707 586.639 106.851C585.985 106.985 585.326 106.682 585.098 106.164L585.053 106.04L582.878 98.5315C582.518 97.4934 582.144 96.4634 581.756 95.4415C581.536 94.861 581.917 94.2403 582.608 94.0552C583.298 93.87 584.036 94.1905 584.257 94.771ZM119.018 99.9242L119.171 99.9284C123.597 100.266 127.904 101.412 132.137 103.327C132.775 103.615 133.014 104.284 132.671 104.821C132.327 105.357 131.532 105.558 130.893 105.27C126.961 103.491 122.994 102.436 118.933 102.126C118.212 102.071 117.68 101.534 117.745 100.927C117.801 100.407 118.278 100.004 118.868 99.9345L119.018 99.9242ZM310.344 81.5237C311.02 81.742 311.359 82.3801 311.099 82.9489C309.53 86.3863 308.039 89.8246 306.616 93.2797C306.379 93.8555 305.631 94.1606 304.946 93.9612C304.261 93.7618 303.898 93.1334 304.136 92.5576C305.568 89.0799 307.069 85.6188 308.648 82.1586C308.908 81.5897 309.667 81.3055 310.344 81.5237ZM574.005 74.203C576.057 77.4521 577.945 80.808 579.668 84.2687C579.947 84.8308 579.632 85.4771 578.963 85.7122C578.295 85.9474 577.526 85.6823 577.246 85.1202C575.555 81.7216 573.7 78.4268 571.687 75.2374C571.347 74.6992 571.59 74.0314 572.231 73.7457C572.871 73.4601 573.665 73.6648 574.005 74.203ZM320.694 61.3305C321.342 61.6037 321.604 62.2667 321.279 62.8113C320.754 63.6898 320.252 64.5769 319.771 65.4724C318.464 67.9073 317.2 70.3389 315.979 72.7695C315.696 73.3308 314.926 73.5935 314.259 73.3564C313.591 73.1192 313.278 72.472 313.561 71.9107C314.791 69.4638 316.062 67.0159 317.378 64.5648C317.874 63.6417 318.392 62.7274 318.932 61.822C319.257 61.2773 320.046 61.0573 320.694 61.3305ZM559.396 55.6088C562.167 58.4844 564.778 61.481 567.225 64.5963C567.624 65.1048 567.457 65.7892 566.853 66.1249C566.248 66.4606 565.434 66.3205 565.034 65.812C562.635 62.7565 560.073 59.8175 557.357 56.9974C556.9 56.5239 556.987 55.8292 557.55 55.4458C558.114 55.0623 558.94 55.1353 559.396 55.6088ZM336.038 43.4844C336.567 43.9007 336.595 44.5989 336.1 45.0438C333.117 47.7236 330.389 50.5368 327.93 53.4752C327.513 53.9735 326.694 54.0933 326.101 53.7427C325.508 53.3921 325.366 52.7039 325.783 52.2056C328.313 49.1828 331.118 46.2901 334.183 43.5363C334.678 43.0914 335.509 43.0681 336.038 43.4844ZM540.784 39.7385C544.179 42.1217 547.432 44.6361 550.534 47.2793C551.043 47.713 551.037 48.4115 550.521 48.8394C550.005 49.2674 549.174 49.2626 548.665 48.8289C545.622 46.2365 542.432 43.77 539.101 41.4322C538.545 41.0416 538.47 40.3459 538.935 39.8782C539.4 39.4105 540.227 39.348 540.784 39.7385ZM356.413 29.6105C356.808 30.1217 356.634 30.8049 356.026 31.1364C352.339 33.1462 348.844 35.2969 345.558 37.581C344.999 37.9693 344.172 37.9034 343.71 37.4338C343.248 36.9643 343.326 36.2688 343.885 35.8806C347.25 33.5417 350.826 31.3406 354.598 29.285C355.206 28.9535 356.019 29.0992 356.413 29.6105ZM518.989 27.1447C522.858 28.9675 526.612 30.9274 530.24 33.0218C530.838 33.3667 530.99 34.0535 530.579 34.5558C530.169 35.0581 529.352 35.1856 528.754 34.8407C525.192 32.7844 521.506 30.8598 517.706 29.0695C517.073 28.7716 516.848 28.0993 517.202 27.5677C517.557 27.0362 518.357 26.8468 518.989 27.1447ZM379.889 19.7862C380.154 20.3532 379.822 20.9937 379.148 21.2167C375.061 22.5677 371.103 24.0606 367.292 25.6896C366.645 25.9657 365.855 25.7493 365.527 25.2062C365.198 24.663 365.456 23.9989 366.102 23.7227C369.989 22.0616 374.023 20.5399 378.187 19.1633C378.862 18.9403 379.624 19.2192 379.889 19.7862ZM494.941 18.0163C499.12 19.2581 503.217 20.6391 507.221 22.1571C507.881 22.4076 508.175 23.061 507.877 23.6164C507.579 24.1718 506.802 24.4189 506.141 24.1684C502.205 22.676 498.176 21.318 494.066 20.0966C493.382 19.8935 493.024 19.2632 493.266 18.6888C493.507 18.1143 494.257 17.8132 494.941 18.0163ZM405.113 13.722C405.259 14.3188 404.802 14.9022 404.092 15.0252C399.804 15.768 395.587 16.6516 391.461 17.6722C390.766 17.8442 390.037 17.5098 389.832 16.9253C389.627 16.3407 390.025 15.7274 390.72 15.5554C394.916 14.5175 399.203 13.6192 403.563 12.8641C404.272 12.7412 404.967 13.1253 405.113 13.722ZM469.231 12.2999L469.383 12.3157C473.735 12.9839 478.044 13.7918 482.294 14.738C482.994 14.894 483.412 15.4979 483.226 16.0869C483.041 16.6759 482.322 17.0269 481.622 16.8709C477.438 15.9395 473.197 15.1442 468.911 14.4863C468.198 14.3769 467.726 13.8022 467.856 13.2028C467.968 12.6891 468.486 12.3239 469.081 12.2989L469.231 12.2999ZM429.767 10.1065C430.491 10.0776 431.105 10.5475 431.14 11.1561C431.174 11.7647 430.615 12.2816 429.891 12.3105C425.537 12.4844 421.206 12.7972 416.917 13.2473C416.198 13.3228 415.542 12.8939 415.452 12.2893C415.363 11.6846 415.873 11.1333 416.592 11.0578C420.948 10.6007 425.345 10.2831 429.767 10.1065ZM443.046 10.0005C447.453 10.1057 451.858 10.3505 456.243 10.7349C456.964 10.7981 457.487 11.3406 457.412 11.9466C457.337 12.5526 456.692 12.9927 455.971 12.9295C451.651 12.5509 447.313 12.3097 442.971 12.2061C442.247 12.1888 441.676 11.681 441.697 11.0719C441.717 10.4629 442.321 9.98316 443.046 10.0005Z"/>
</mask>
<path fill-rule="evenodd" clip-rule="evenodd" d="M307.26 294.714C310 297.516 312.705 300.435 315.374 303.471C315.804 303.961 315.681 304.652 315.098 305.014C314.515 305.376 313.693 305.272 313.263 304.782C310.621 301.777 307.943 298.888 305.232 296.115C304.772 295.644 304.853 294.949 305.413 294.562C305.973 294.175 306.8 294.243 307.26 294.714ZM139.121 281.426C139.806 281.624 140.171 282.252 139.935 282.828C138.015 287.511 135.224 290.748 131.826 292.281C131.187 292.569 130.391 292.367 130.049 291.831C129.706 291.294 129.946 290.625 130.585 290.337C133.326 289.1 135.731 286.311 137.453 282.109C137.689 281.533 138.436 281.227 139.121 281.426ZM117.228 277.324C117.921 277.502 118.311 278.119 118.099 278.701C116.721 282.491 117.391 285.685 120.099 288.037C120.603 288.475 120.59 289.173 120.069 289.597C119.548 290.021 118.717 290.009 118.213 289.572C114.793 286.601 113.947 282.569 115.589 278.056C115.801 277.473 116.535 277.146 117.228 277.324ZM289.353 278.438C292.473 280.939 295.557 283.577 298.603 286.352C299.095 286.8 299.061 287.498 298.529 287.911C297.996 288.324 297.166 288.296 296.674 287.848C293.666 285.108 290.621 282.504 287.541 280.035C287.016 279.615 286.997 278.916 287.497 278.475C287.997 278.034 288.828 278.018 289.353 278.438ZM268.946 264.303C272.485 266.389 275.99 268.636 279.457 271.044C280.016 271.432 280.095 272.127 279.633 272.597C279.171 273.066 278.344 273.133 277.785 272.745C274.371 270.373 270.921 268.162 267.439 266.109C266.845 265.759 266.702 265.071 267.118 264.572C267.534 264.074 268.353 263.953 268.946 264.303ZM141.459 259.689C142.184 259.665 142.793 260.14 142.821 260.749C143.003 264.798 142.901 268.53 142.527 271.922C142.46 272.529 141.821 272.975 141.099 272.919C140.377 272.863 139.846 272.325 139.913 271.719C140.277 268.425 140.376 264.789 140.198 260.833C140.17 260.224 140.735 259.712 141.459 259.689ZM134.121 260.76C134.561 261.245 134.45 261.937 133.874 262.306C130.201 264.66 127.028 267.147 124.466 269.662C123.994 270.125 123.166 270.179 122.615 269.783C122.064 269.386 122 268.69 122.472 268.227C125.158 265.589 128.467 262.997 132.282 260.552C132.858 260.182 133.682 260.276 134.121 260.76ZM246.019 253.18C249.971 254.703 253.896 256.411 257.79 258.306C258.417 258.611 258.631 259.286 258.268 259.814C257.905 260.341 257.102 260.521 256.475 260.216C252.652 258.356 248.801 256.68 244.925 255.185C244.266 254.931 243.977 254.277 244.279 253.723C244.581 253.169 245.36 252.926 246.019 253.18ZM157.248 250.448C157.509 251.017 157.171 251.655 156.494 251.873C152.373 253.206 148.435 254.734 144.733 256.427C144.096 256.718 143.299 256.521 142.952 255.986C142.606 255.45 142.841 254.78 143.478 254.489C147.281 252.749 151.324 251.181 155.552 249.814C156.229 249.595 156.988 249.879 157.248 250.448ZM220.906 246.024C225.174 246.825 229.435 247.831 233.682 249.044C234.368 249.241 234.735 249.867 234.502 250.444C234.269 251.021 233.523 251.33 232.837 251.133C228.68 249.945 224.51 248.961 220.334 248.178C219.627 248.045 219.181 247.455 219.339 246.861C219.497 246.266 220.198 245.892 220.906 246.024ZM139.627 238.624C140.492 242.439 141.184 246.095 141.705 249.588C141.795 250.193 141.285 250.744 140.566 250.82C139.847 250.896 139.191 250.467 139.1 249.863C138.586 246.417 137.904 242.807 137.049 239.038C136.913 238.439 137.38 237.861 138.092 237.747C138.804 237.633 139.492 238.026 139.627 238.624ZM182.763 245.357C182.854 245.962 182.345 246.513 181.626 246.59C177.295 247.049 173.037 247.721 168.878 248.593C168.175 248.74 167.463 248.381 167.287 247.79C167.112 247.198 167.54 246.6 168.243 246.452C172.502 245.559 176.863 244.871 181.297 244.401C182.016 244.324 182.673 244.753 182.763 245.357ZM207.833 244.209C208.553 244.274 209.075 244.818 208.997 245.424C208.92 246.03 208.272 246.468 207.552 246.403C203.21 246.01 198.886 245.831 194.593 245.861C193.868 245.866 193.276 245.376 193.27 244.767C193.264 244.157 193.846 243.659 194.571 243.654C198.965 243.624 203.39 243.807 207.833 244.209ZM133.399 217C133.829 218.233 134.245 219.468 134.65 220.714C135.421 223.093 136.138 225.427 136.801 227.715C136.972 228.307 136.54 228.904 135.836 229.048C135.132 229.192 134.422 228.829 134.25 228.237C133.594 225.968 132.883 223.654 132.117 221.295C131.717 220.062 131.306 218.841 130.88 217.62C130.676 217.036 131.075 216.423 131.77 216.251C132.466 216.08 133.195 216.415 133.399 217ZM124.685 196.069C126.352 199.526 127.906 202.975 129.351 206.437C129.591 207.012 129.231 207.641 128.547 207.843C127.863 208.045 127.114 207.742 126.874 207.167C125.443 203.739 123.904 200.323 122.252 196.897C121.98 196.332 122.304 195.689 122.976 195.46C123.648 195.232 124.413 195.504 124.685 196.069ZM227.258 191.367C230.582 191.926 233.969 192.031 237.445 191.664C238.299 191.573 239.117 191.477 239.923 191.373C240.639 191.28 241.309 191.694 241.419 192.296C241.529 192.898 241.038 193.461 240.321 193.554C239.493 193.661 238.651 193.76 237.773 193.853C234.016 194.25 230.343 194.137 226.743 193.53C226.032 193.41 225.571 192.829 225.714 192.232C225.856 191.634 226.548 191.247 227.258 191.367ZM265.547 184.046C265.979 184.535 265.859 185.226 265.278 185.59C261.812 187.759 257.859 189.512 253.322 190.878C252.639 191.083 251.888 190.785 251.644 190.211C251.399 189.638 251.754 189.006 252.437 188.801C256.735 187.506 260.457 185.856 263.71 183.82C264.291 183.456 265.114 183.557 265.547 184.046ZM205.391 180.762C208.766 183.467 212.124 185.681 215.511 187.404C216.132 187.719 216.33 188.398 215.955 188.919C215.579 189.44 214.773 189.607 214.152 189.292C210.592 187.48 207.086 185.169 203.58 182.359C203.055 181.938 203.036 181.24 203.536 180.799C204.036 180.358 204.867 180.342 205.391 180.762ZM113.818 175.895C115.829 179.307 117.702 182.611 119.477 185.894C119.777 186.448 119.485 187.102 118.825 187.354C118.165 187.606 117.387 187.361 117.087 186.806C115.325 183.548 113.465 180.265 111.466 176.874C111.144 176.329 111.409 175.667 112.059 175.396C112.708 175.126 113.496 175.349 113.818 175.895ZM280.329 166.082C280.996 166.32 281.308 166.967 281.024 167.528C279.107 171.326 277.016 174.587 274.634 177.432C274.217 177.931 273.398 178.05 272.806 177.699C272.213 177.349 272.071 176.661 272.488 176.162C274.755 173.454 276.76 170.328 278.608 166.666C278.891 166.105 279.662 165.844 280.329 166.082ZM188.816 163.976C191.532 167.222 194.113 170.113 196.651 172.729C197.109 173.201 197.025 173.896 196.463 174.281C195.901 174.666 195.075 174.595 194.616 174.123C192.037 171.464 189.418 168.531 186.669 165.246C186.252 164.747 186.395 164.059 186.988 163.708C187.581 163.358 188.399 163.478 188.816 163.976ZM101.68 156.298C101.734 156.384 104.021 159.993 104.7 161.065C105.88 162.932 106.872 164.511 107.833 166.051C108.169 166.591 107.921 167.257 107.279 167.54C106.637 167.823 105.844 167.615 105.508 167.075C104.55 165.539 103.56 163.965 102.382 162.101C101.704 161.03 99.4179 157.422 99.3627 157.335C99.0222 156.797 99.2648 156.129 99.9046 155.842C100.544 155.556 101.339 155.76 101.68 156.298ZM288.038 145.027C288.74 145.179 289.162 145.781 288.981 146.371C287.696 150.556 286.58 153.959 285.46 157.048C285.249 157.631 284.515 157.959 283.822 157.781C283.129 157.604 282.738 156.987 282.949 156.404C284.056 153.351 285.163 149.977 286.439 145.819C286.62 145.229 287.336 144.875 288.038 145.027ZM174.498 145.606C177.943 150.184 179.572 152.333 181.55 154.894C181.944 155.405 181.772 156.088 181.164 156.42C180.556 156.752 179.743 156.607 179.348 156.096C177.363 153.525 175.73 151.371 172.279 146.786C171.892 146.271 172.074 145.589 172.687 145.263C173.299 144.938 174.11 145.091 174.498 145.606ZM90.0904 136.611C91.5192 139.511 93.3055 142.709 95.6055 146.531C95.9327 147.075 95.6736 147.739 95.0267 148.014C94.3799 148.289 93.5904 148.071 93.2632 147.527C90.9357 143.659 89.1228 140.413 87.6653 137.455C87.3879 136.892 87.706 136.247 88.3756 136.013C89.0453 135.78 89.813 136.048 90.0904 136.611ZM160.041 127.05C162.337 129.793 164.711 132.768 167.389 136.238C167.784 136.75 167.611 137.433 167.003 137.764C166.394 138.096 165.582 137.95 165.187 137.439C162.525 133.99 160.169 131.037 157.894 128.32C157.477 127.822 157.619 127.134 158.212 126.783C158.805 126.432 159.624 126.552 160.041 127.05ZM294.449 123.607C295.151 123.759 295.572 124.361 295.391 124.951C294.416 128.117 293.548 131.017 292.184 135.637C292.009 136.229 291.297 136.589 290.594 136.442C289.89 136.296 289.462 135.697 289.636 135.106C291.002 130.479 291.872 127.573 292.85 124.398C293.031 123.808 293.747 123.454 294.449 123.607ZM86.3644 114.611C87.0355 114.841 87.3577 115.485 87.084 116.05C85.6592 118.986 85.4051 122.351 86.2539 126.331C86.3818 126.931 85.9072 127.504 85.1937 127.612C84.4802 127.719 83.7982 127.32 83.6702 126.72C82.7392 122.355 83.0248 118.573 84.6535 115.216C84.9272 114.652 85.6932 114.381 86.3644 114.611ZM143.019 110.017C146.017 112.343 149.016 115.06 152.086 118.198C152.546 118.668 152.466 119.364 151.906 119.75C151.346 120.137 150.519 120.07 150.058 119.599C147.061 116.535 144.142 113.891 141.239 111.639C140.706 111.225 140.673 110.527 141.165 110.08C141.656 109.632 142.487 109.604 143.019 110.017ZM301.665 102.354C302.357 102.535 302.743 103.154 302.528 103.735C301.242 107.202 300.013 110.697 298.81 114.285C298.614 114.871 297.889 115.213 297.191 115.048C296.493 114.882 296.087 114.273 296.284 113.687C297.492 110.079 298.729 106.565 300.022 103.079C300.237 102.497 300.973 102.172 301.665 102.354ZM593.091 95.3679C593.74 95.5207 594.137 96.0567 594.034 96.6022L594.001 96.7281L589.121 111.353L588.491 113.242L586.899 111.809L574.564 100.709C574.069 100.263 574.097 99.5652 574.627 99.1492C575.116 98.7653 575.861 98.756 576.362 99.1071L576.482 99.2023L587.223 108.868L591.473 96.1322C591.669 95.5456 592.394 95.2034 593.091 95.3679ZM107.331 102.043C107.56 102.621 107.187 103.245 106.5 103.438C103.066 104.396 99.5357 105.852 95.8892 107.829C95.6215 107.974 95.3596 108.12 95.1034 108.267C94.5052 108.611 93.6884 108.483 93.2791 107.98C92.8697 107.477 93.0228 106.791 93.621 106.446C93.897 106.288 94.1787 106.13 94.4664 105.974C98.2924 103.9 102.021 102.363 105.672 101.344C106.36 101.152 107.103 101.465 107.331 102.043ZM584.257 94.771C584.552 95.5505 584.84 96.3344 585.127 97.1433L585.413 97.9611L587.604 105.518C587.775 106.11 587.343 106.707 586.639 106.851C585.985 106.985 585.326 106.682 585.098 106.164L585.053 106.04L582.878 98.5315C582.518 97.4934 582.144 96.4634 581.756 95.4415C581.536 94.861 581.917 94.2403 582.608 94.0552C583.298 93.87 584.036 94.1905 584.257 94.771ZM119.018 99.9242L119.171 99.9284C123.597 100.266 127.904 101.412 132.137 103.327C132.775 103.615 133.014 104.284 132.671 104.821C132.327 105.357 131.532 105.558 130.893 105.27C126.961 103.491 122.994 102.436 118.933 102.126C118.212 102.071 117.68 101.534 117.745 100.927C117.801 100.407 118.278 100.004 118.868 99.9345L119.018 99.9242ZM310.344 81.5237C311.02 81.742 311.359 82.3801 311.099 82.9489C309.53 86.3863 308.039 89.8246 306.616 93.2797C306.379 93.8555 305.631 94.1606 304.946 93.9612C304.261 93.7618 303.898 93.1334 304.136 92.5576C305.568 89.0799 307.069 85.6188 308.648 82.1586C308.908 81.5897 309.667 81.3055 310.344 81.5237ZM574.005 74.203C576.057 77.4521 577.945 80.808 579.668 84.2687C579.947 84.8308 579.632 85.4771 578.963 85.7122C578.295 85.9474 577.526 85.6823 577.246 85.1202C575.555 81.7216 573.7 78.4268 571.687 75.2374C571.347 74.6992 571.59 74.0314 572.231 73.7457C572.871 73.4601 573.665 73.6648 574.005 74.203ZM320.694 61.3305C321.342 61.6037 321.604 62.2667 321.279 62.8113C320.754 63.6898 320.252 64.5769 319.771 65.4724C318.464 67.9073 317.2 70.3389 315.979 72.7695C315.696 73.3308 314.926 73.5935 314.259 73.3564C313.591 73.1192 313.278 72.472 313.561 71.9107C314.791 69.4638 316.062 67.0159 317.378 64.5648C317.874 63.6417 318.392 62.7274 318.932 61.822C319.257 61.2773 320.046 61.0573 320.694 61.3305ZM559.396 55.6088C562.167 58.4844 564.778 61.481 567.225 64.5963C567.624 65.1048 567.457 65.7892 566.853 66.1249C566.248 66.4606 565.434 66.3205 565.034 65.812C562.635 62.7565 560.073 59.8175 557.357 56.9974C556.9 56.5239 556.987 55.8292 557.55 55.4458C558.114 55.0623 558.94 55.1353 559.396 55.6088ZM336.038 43.4844C336.567 43.9007 336.595 44.5989 336.1 45.0438C333.117 47.7236 330.389 50.5368 327.93 53.4752C327.513 53.9735 326.694 54.0933 326.101 53.7427C325.508 53.3921 325.366 52.7039 325.783 52.2056C328.313 49.1828 331.118 46.2901 334.183 43.5363C334.678 43.0914 335.509 43.0681 336.038 43.4844ZM540.784 39.7385C544.179 42.1217 547.432 44.6361 550.534 47.2793C551.043 47.713 551.037 48.4115 550.521 48.8394C550.005 49.2674 549.174 49.2626 548.665 48.8289C545.622 46.2365 542.432 43.77 539.101 41.4322C538.545 41.0416 538.47 40.3459 538.935 39.8782C539.4 39.4105 540.227 39.348 540.784 39.7385ZM356.413 29.6105C356.808 30.1217 356.634 30.8049 356.026 31.1364C352.339 33.1462 348.844 35.2969 345.558 37.581C344.999 37.9693 344.172 37.9034 343.71 37.4338C343.248 36.9643 343.326 36.2688 343.885 35.8806C347.25 33.5417 350.826 31.3406 354.598 29.285C355.206 28.9535 356.019 29.0992 356.413 29.6105ZM518.989 27.1447C522.858 28.9675 526.612 30.9274 530.24 33.0218C530.838 33.3667 530.99 34.0535 530.579 34.5558C530.169 35.0581 529.352 35.1856 528.754 34.8407C525.192 32.7844 521.506 30.8598 517.706 29.0695C517.073 28.7716 516.848 28.0993 517.202 27.5677C517.557 27.0362 518.357 26.8468 518.989 27.1447ZM379.889 19.7862C380.154 20.3532 379.822 20.9937 379.148 21.2167C375.061 22.5677 371.103 24.0606 367.292 25.6896C366.645 25.9657 365.855 25.7493 365.527 25.2062C365.198 24.663 365.456 23.9989 366.102 23.7227C369.989 22.0616 374.023 20.5399 378.187 19.1633C378.862 18.9403 379.624 19.2192 379.889 19.7862ZM494.941 18.0163C499.12 19.2581 503.217 20.6391 507.221 22.1571C507.881 22.4076 508.175 23.061 507.877 23.6164C507.579 24.1718 506.802 24.4189 506.141 24.1684C502.205 22.676 498.176 21.318 494.066 20.0966C493.382 19.8935 493.024 19.2632 493.266 18.6888C493.507 18.1143 494.257 17.8132 494.941 18.0163ZM405.113 13.722C405.259 14.3188 404.802 14.9022 404.092 15.0252C399.804 15.768 395.587 16.6516 391.461 17.6722C390.766 17.8442 390.037 17.5098 389.832 16.9253C389.627 16.3407 390.025 15.7274 390.72 15.5554C394.916 14.5175 399.203 13.6192 403.563 12.8641C404.272 12.7412 404.967 13.1253 405.113 13.722ZM469.231 12.2999L469.383 12.3157C473.735 12.9839 478.044 13.7918 482.294 14.738C482.994 14.894 483.412 15.4979 483.226 16.0869C483.041 16.6759 482.322 17.0269 481.622 16.8709C477.438 15.9395 473.197 15.1442 468.911 14.4863C468.198 14.3769 467.726 13.8022 467.856 13.2028C467.968 12.6891 468.486 12.3239 469.081 12.2989L469.231 12.2999ZM429.767 10.1065C430.491 10.0776 431.105 10.5475 431.14 11.1561C431.174 11.7647 430.615 12.2816 429.891 12.3105C425.537 12.4844 421.206 12.7972 416.917 13.2473C416.198 13.3228 415.542 12.8939 415.452 12.2893C415.363 11.6846 415.873 11.1333 416.592 11.0578C420.948 10.6007 425.345 10.2831 429.767 10.1065ZM443.046 10.0005C447.453 10.1057 451.858 10.3505 456.243 10.7349C456.964 10.7981 457.487 11.3406 457.412 11.9466C457.337 12.5526 456.692 12.9927 455.971 12.9295C451.651 12.5509 447.313 12.3097 442.971 12.2061C442.247 12.1888 441.676 11.681 441.697 11.0719C441.717 10.4629 442.321 9.98316 443.046 10.0005Z" fill="#F86E7F"/>
<path fill-rule="evenodd" clip-rule="evenodd" d="M307.26 294.714C310 297.516 312.705 300.435 315.374 303.471C315.804 303.961 315.681 304.652 315.098 305.014C314.515 305.376 313.693 305.272 313.263 304.782C310.621 301.777 307.943 298.888 305.232 296.115C304.772 295.644 304.853 294.949 305.413 294.562C305.973 294.175 306.8 294.243 307.26 294.714ZM139.121 281.426C139.806 281.624 140.171 282.252 139.935 282.828C138.015 287.511 135.224 290.748 131.826 292.281C131.187 292.569 130.391 292.367 130.049 291.831C129.706 291.294 129.946 290.625 130.585 290.337C133.326 289.1 135.731 286.311 137.453 282.109C137.689 281.533 138.436 281.227 139.121 281.426ZM117.228 277.324C117.921 277.502 118.311 278.119 118.099 278.701C116.721 282.491 117.391 285.685 120.099 288.037C120.603 288.475 120.59 289.173 120.069 289.597C119.548 290.021 118.717 290.009 118.213 289.572C114.793 286.601 113.947 282.569 115.589 278.056C115.801 277.473 116.535 277.146 117.228 277.324ZM289.353 278.438C292.473 280.939 295.557 283.577 298.603 286.352C299.095 286.8 299.061 287.498 298.529 287.911C297.996 288.324 297.166 288.296 296.674 287.848C293.666 285.108 290.621 282.504 287.541 280.035C287.016 279.615 286.997 278.916 287.497 278.475C287.997 278.034 288.828 278.018 289.353 278.438ZM268.946 264.303C272.485 266.389 275.99 268.636 279.457 271.044C280.016 271.432 280.095 272.127 279.633 272.597C279.171 273.066 278.344 273.133 277.785 272.745C274.371 270.373 270.921 268.162 267.439 266.109C266.845 265.759 266.702 265.071 267.118 264.572C267.534 264.074 268.353 263.953 268.946 264.303ZM141.459 259.689C142.184 259.665 142.793 260.14 142.821 260.749C143.003 264.798 142.901 268.53 142.527 271.922C142.46 272.529 141.821 272.975 141.099 272.919C140.377 272.863 139.846 272.325 139.913 271.719C140.277 268.425 140.376 264.789 140.198 260.833C140.17 260.224 140.735 259.712 141.459 259.689ZM134.121 260.76C134.561 261.245 134.45 261.937 133.874 262.306C130.201 264.66 127.028 267.147 124.466 269.662C123.994 270.125 123.166 270.179 122.615 269.783C122.064 269.386 122 268.69 122.472 268.227C125.158 265.589 128.467 262.997 132.282 260.552C132.858 260.182 133.682 260.276 134.121 260.76ZM246.019 253.18C249.971 254.703 253.896 256.411 257.79 258.306C258.417 258.611 258.631 259.286 258.268 259.814C257.905 260.341 257.102 260.521 256.475 260.216C252.652 258.356 248.801 256.68 244.925 255.185C244.266 254.931 243.977 254.277 244.279 253.723C244.581 253.169 245.36 252.926 246.019 253.18ZM157.248 250.448C157.509 251.017 157.171 251.655 156.494 251.873C152.373 253.206 148.435 254.734 144.733 256.427C144.096 256.718 143.299 256.521 142.952 255.986C142.606 255.45 142.841 254.78 143.478 254.489C147.281 252.749 151.324 251.181 155.552 249.814C156.229 249.595 156.988 249.879 157.248 250.448ZM220.906 246.024C225.174 246.825 229.435 247.831 233.682 249.044C234.368 249.241 234.735 249.867 234.502 250.444C234.269 251.021 233.523 251.33 232.837 251.133C228.68 249.945 224.51 248.961 220.334 248.178C219.627 248.045 219.181 247.455 219.339 246.861C219.497 246.266 220.198 245.892 220.906 246.024ZM139.627 238.624C140.492 242.439 141.184 246.095 141.705 249.588C141.795 250.193 141.285 250.744 140.566 250.82C139.847 250.896 139.191 250.467 139.1 249.863C138.586 246.417 137.904 242.807 137.049 239.038C136.913 238.439 137.38 237.861 138.092 237.747C138.804 237.633 139.492 238.026 139.627 238.624ZM182.763 245.357C182.854 245.962 182.345 246.513 181.626 246.59C177.295 247.049 173.037 247.721 168.878 248.593C168.175 248.74 167.463 248.381 167.287 247.79C167.112 247.198 167.54 246.6 168.243 246.452C172.502 245.559 176.863 244.871 181.297 244.401C182.016 244.324 182.673 244.753 182.763 245.357ZM207.833 244.209C208.553 244.274 209.075 244.818 208.997 245.424C208.92 246.03 208.272 246.468 207.552 246.403C203.21 246.01 198.886 245.831 194.593 245.861C193.868 245.866 193.276 245.376 193.27 244.767C193.264 244.157 193.846 243.659 194.571 243.654C198.965 243.624 203.39 243.807 207.833 244.209ZM133.399 217C133.829 218.233 134.245 219.468 134.65 220.714C135.421 223.093 136.138 225.427 136.801 227.715C136.972 228.307 136.54 228.904 135.836 229.048C135.132 229.192 134.422 228.829 134.25 228.237C133.594 225.968 132.883 223.654 132.117 221.295C131.717 220.062 131.306 218.841 130.88 217.62C130.676 217.036 131.075 216.423 131.77 216.251C132.466 216.08 133.195 216.415 133.399 217ZM124.685 196.069C126.352 199.526 127.906 202.975 129.351 206.437C129.591 207.012 129.231 207.641 128.547 207.843C127.863 208.045 127.114 207.742 126.874 207.167C125.443 203.739 123.904 200.323 122.252 196.897C121.98 196.332 122.304 195.689 122.976 195.46C123.648 195.232 124.413 195.504 124.685 196.069ZM227.258 191.367C230.582 191.926 233.969 192.031 237.445 191.664C238.299 191.573 239.117 191.477 239.923 191.373C240.639 191.28 241.309 191.694 241.419 192.296C241.529 192.898 241.038 193.461 240.321 193.554C239.493 193.661 238.651 193.76 237.773 193.853C234.016 194.25 230.343 194.137 226.743 193.53C226.032 193.41 225.571 192.829 225.714 192.232C225.856 191.634 226.548 191.247 227.258 191.367ZM265.547 184.046C265.979 184.535 265.859 185.226 265.278 185.59C261.812 187.759 257.859 189.512 253.322 190.878C252.639 191.083 251.888 190.785 251.644 190.211C251.399 189.638 251.754 189.006 252.437 188.801C256.735 187.506 260.457 185.856 263.71 183.82C264.291 183.456 265.114 183.557 265.547 184.046ZM205.391 180.762C208.766 183.467 212.124 185.681 215.511 187.404C216.132 187.719 216.33 188.398 215.955 188.919C215.579 189.44 214.773 189.607 214.152 189.292C210.592 187.48 207.086 185.169 203.58 182.359C203.055 181.938 203.036 181.24 203.536 180.799C204.036 180.358 204.867 180.342 205.391 180.762ZM113.818 175.895C115.829 179.307 117.702 182.611 119.477 185.894C119.777 186.448 119.485 187.102 118.825 187.354C118.165 187.606 117.387 187.361 117.087 186.806C115.325 183.548 113.465 180.265 111.466 176.874C111.144 176.329 111.409 175.667 112.059 175.396C112.708 175.126 113.496 175.349 113.818 175.895ZM280.329 166.082C280.996 166.32 281.308 166.967 281.024 167.528C279.107 171.326 277.016 174.587 274.634 177.432C274.217 177.931 273.398 178.05 272.806 177.699C272.213 177.349 272.071 176.661 272.488 176.162C274.755 173.454 276.76 170.328 278.608 166.666C278.891 166.105 279.662 165.844 280.329 166.082ZM188.816 163.976C191.532 167.222 194.113 170.113 196.651 172.729C197.109 173.201 197.025 173.896 196.463 174.281C195.901 174.666 195.075 174.595 194.616 174.123C192.037 171.464 189.418 168.531 186.669 165.246C186.252 164.747 186.395 164.059 186.988 163.708C187.581 163.358 188.399 163.478 188.816 163.976ZM101.68 156.298C101.734 156.384 104.021 159.993 104.7 161.065C105.88 162.932 106.872 164.511 107.833 166.051C108.169 166.591 107.921 167.257 107.279 167.54C106.637 167.823 105.844 167.615 105.508 167.075C104.55 165.539 103.56 163.965 102.382 162.101C101.704 161.03 99.4179 157.422 99.3627 157.335C99.0222 156.797 99.2648 156.129 99.9046 155.842C100.544 155.556 101.339 155.76 101.68 156.298ZM288.038 145.027C288.74 145.179 289.162 145.781 288.981 146.371C287.696 150.556 286.58 153.959 285.46 157.048C285.249 157.631 284.515 157.959 283.822 157.781C283.129 157.604 282.738 156.987 282.949 156.404C284.056 153.351 285.163 149.977 286.439 145.819C286.62 145.229 287.336 144.875 288.038 145.027ZM174.498 145.606C177.943 150.184 179.572 152.333 181.55 154.894C181.944 155.405 181.772 156.088 181.164 156.42C180.556 156.752 179.743 156.607 179.348 156.096C177.363 153.525 175.73 151.371 172.279 146.786C171.892 146.271 172.074 145.589 172.687 145.263C173.299 144.938 174.11 145.091 174.498 145.606ZM90.0904 136.611C91.5192 139.511 93.3055 142.709 95.6055 146.531C95.9327 147.075 95.6736 147.739 95.0267 148.014C94.3799 148.289 93.5904 148.071 93.2632 147.527C90.9357 143.659 89.1228 140.413 87.6653 137.455C87.3879 136.892 87.706 136.247 88.3756 136.013C89.0453 135.78 89.813 136.048 90.0904 136.611ZM160.041 127.05C162.337 129.793 164.711 132.768 167.389 136.238C167.784 136.75 167.611 137.433 167.003 137.764C166.394 138.096 165.582 137.95 165.187 137.439C162.525 133.99 160.169 131.037 157.894 128.32C157.477 127.822 157.619 127.134 158.212 126.783C158.805 126.432 159.624 126.552 160.041 127.05ZM294.449 123.607C295.151 123.759 295.572 124.361 295.391 124.951C294.416 128.117 293.548 131.017 292.184 135.637C292.009 136.229 291.297 136.589 290.594 136.442C289.89 136.296 289.462 135.697 289.636 135.106C291.002 130.479 291.872 127.573 292.85 124.398C293.031 123.808 293.747 123.454 294.449 123.607ZM86.3644 114.611C87.0355 114.841 87.3577 115.485 87.084 116.05C85.6592 118.986 85.4051 122.351 86.2539 126.331C86.3818 126.931 85.9072 127.504 85.1937 127.612C84.4802 127.719 83.7982 127.32 83.6702 126.72C82.7392 122.355 83.0248 118.573 84.6535 115.216C84.9272 114.652 85.6932 114.381 86.3644 114.611ZM143.019 110.017C146.017 112.343 149.016 115.06 152.086 118.198C152.546 118.668 152.466 119.364 151.906 119.75C151.346 120.137 150.519 120.07 150.058 119.599C147.061 116.535 144.142 113.891 141.239 111.639C140.706 111.225 140.673 110.527 141.165 110.08C141.656 109.632 142.487 109.604 143.019 110.017ZM301.665 102.354C302.357 102.535 302.743 103.154 302.528 103.735C301.242 107.202 300.013 110.697 298.81 114.285C298.614 114.871 297.889 115.213 297.191 115.048C296.493 114.882 296.087 114.273 296.284 113.687C297.492 110.079 298.729 106.565 300.022 103.079C300.237 102.497 300.973 102.172 301.665 102.354ZM593.091 95.3679C593.74 95.5207 594.137 96.0567 594.034 96.6022L594.001 96.7281L589.121 111.353L588.491 113.242L586.899 111.809L574.564 100.709C574.069 100.263 574.097 99.5652 574.627 99.1492C575.116 98.7653 575.861 98.756 576.362 99.1071L576.482 99.2023L587.223 108.868L591.473 96.1322C591.669 95.5456 592.394 95.2034 593.091 95.3679ZM107.331 102.043C107.56 102.621 107.187 103.245 106.5 103.438C103.066 104.396 99.5357 105.852 95.8892 107.829C95.6215 107.974 95.3596 108.12 95.1034 108.267C94.5052 108.611 93.6884 108.483 93.2791 107.98C92.8697 107.477 93.0228 106.791 93.621 106.446C93.897 106.288 94.1787 106.13 94.4664 105.974C98.2924 103.9 102.021 102.363 105.672 101.344C106.36 101.152 107.103 101.465 107.331 102.043ZM584.257 94.771C584.552 95.5505 584.84 96.3344 585.127 97.1433L585.413 97.9611L587.604 105.518C587.775 106.11 587.343 106.707 586.639 106.851C585.985 106.985 585.326 106.682 585.098 106.164L585.053 106.04L582.878 98.5315C582.518 97.4934 582.144 96.4634 581.756 95.4415C581.536 94.861 581.917 94.2403 582.608 94.0552C583.298 93.87 584.036 94.1905 584.257 94.771ZM119.018 99.9242L119.171 99.9284C123.597 100.266 127.904 101.412 132.137 103.327C132.775 103.615 133.014 104.284 132.671 104.821C132.327 105.357 131.532 105.558 130.893 105.27C126.961 103.491 122.994 102.436 118.933 102.126C118.212 102.071 117.68 101.534 117.745 100.927C117.801 100.407 118.278 100.004 118.868 99.9345L119.018 99.9242ZM310.344 81.5237C311.02 81.742 311.359 82.3801 311.099 82.9489C309.53 86.3863 308.039 89.8246 306.616 93.2797C306.379 93.8555 305.631 94.1606 304.946 93.9612C304.261 93.7618 303.898 93.1334 304.136 92.5576C305.568 89.0799 307.069 85.6188 308.648 82.1586C308.908 81.5897 309.667 81.3055 310.344 81.5237ZM574.005 74.203C576.057 77.4521 577.945 80.808 579.668 84.2687C579.947 84.8308 579.632 85.4771 578.963 85.7122C578.295 85.9474 577.526 85.6823 577.246 85.1202C575.555 81.7216 573.7 78.4268 571.687 75.2374C571.347 74.6992 571.59 74.0314 572.231 73.7457C572.871 73.4601 573.665 73.6648 574.005 74.203ZM320.694 61.3305C321.342 61.6037 321.604 62.2667 321.279 62.8113C320.754 63.6898 320.252 64.5769 319.771 65.4724C318.464 67.9073 317.2 70.3389 315.979 72.7695C315.696 73.3308 314.926 73.5935 314.259 73.3564C313.591 73.1192 313.278 72.472 313.561 71.9107C314.791 69.4638 316.062 67.0159 317.378 64.5648C317.874 63.6417 318.392 62.7274 318.932 61.822C319.257 61.2773 320.046 61.0573 320.694 61.3305ZM559.396 55.6088C562.167 58.4844 564.778 61.481 567.225 64.5963C567.624 65.1048 567.457 65.7892 566.853 66.1249C566.248 66.4606 565.434 66.3205 565.034 65.812C562.635 62.7565 560.073 59.8175 557.357 56.9974C556.9 56.5239 556.987 55.8292 557.55 55.4458C558.114 55.0623 558.94 55.1353 559.396 55.6088ZM336.038 43.4844C336.567 43.9007 336.595 44.5989 336.1 45.0438C333.117 47.7236 330.389 50.5368 327.93 53.4752C327.513 53.9735 326.694 54.0933 326.101 53.7427C325.508 53.3921 325.366 52.7039 325.783 52.2056C328.313 49.1828 331.118 46.2901 334.183 43.5363C334.678 43.0914 335.509 43.0681 336.038 43.4844ZM540.784 39.7385C544.179 42.1217 547.432 44.6361 550.534 47.2793C551.043 47.713 551.037 48.4115 550.521 48.8394C550.005 49.2674 549.174 49.2626 548.665 48.8289C545.622 46.2365 542.432 43.77 539.101 41.4322C538.545 41.0416 538.47 40.3459 538.935 39.8782C539.4 39.4105 540.227 39.348 540.784 39.7385ZM356.413 29.6105C356.808 30.1217 356.634 30.8049 356.026 31.1364C352.339 33.1462 348.844 35.2969 345.558 37.581C344.999 37.9693 344.172 37.9034 343.71 37.4338C343.248 36.9643 343.326 36.2688 343.885 35.8806C347.25 33.5417 350.826 31.3406 354.598 29.285C355.206 28.9535 356.019 29.0992 356.413 29.6105ZM518.989 27.1447C522.858 28.9675 526.612 30.9274 530.24 33.0218C530.838 33.3667 530.99 34.0535 530.579 34.5558C530.169 35.0581 529.352 35.1856 528.754 34.8407C525.192 32.7844 521.506 30.8598 517.706 29.0695C517.073 28.7716 516.848 28.0993 517.202 27.5677C517.557 27.0362 518.357 26.8468 518.989 27.1447ZM379.889 19.7862C380.154 20.3532 379.822 20.9937 379.148 21.2167C375.061 22.5677 371.103 24.0606 367.292 25.6896C366.645 25.9657 365.855 25.7493 365.527 25.2062C365.198 24.663 365.456 23.9989 366.102 23.7227C369.989 22.0616 374.023 20.5399 378.187 19.1633C378.862 18.9403 379.624 19.2192 379.889 19.7862ZM494.941 18.0163C499.12 19.2581 503.217 20.6391 507.221 22.1571C507.881 22.4076 508.175 23.061 507.877 23.6164C507.579 24.1718 506.802 24.4189 506.141 24.1684C502.205 22.676 498.176 21.318 494.066 20.0966C493.382 19.8935 493.024 19.2632 493.266 18.6888C493.507 18.1143 494.257 17.8132 494.941 18.0163ZM405.113 13.722C405.259 14.3188 404.802 14.9022 404.092 15.0252C399.804 15.768 395.587 16.6516 391.461 17.6722C390.766 17.8442 390.037 17.5098 389.832 16.9253C389.627 16.3407 390.025 15.7274 390.72 15.5554C394.916 14.5175 399.203 13.6192 403.563 12.8641C404.272 12.7412 404.967 13.1253 405.113 13.722ZM469.231 12.2999L469.383 12.3157C473.735 12.9839 478.044 13.7918 482.294 14.738C482.994 14.894 483.412 15.4979 483.226 16.0869C483.041 16.6759 482.322 17.0269 481.622 16.8709C477.438 15.9395 473.197 15.1442 468.911 14.4863C468.198 14.3769 467.726 13.8022 467.856 13.2028C467.968 12.6891 468.486 12.3239 469.081 12.2989L469.231 12.2999ZM429.767 10.1065C430.491 10.0776 431.105 10.5475 431.14 11.1561C431.174 11.7647 430.615 12.2816 429.891 12.3105C425.537 12.4844 421.206 12.7972 416.917 13.2473C416.198 13.3228 415.542 12.8939 415.452 12.2893C415.363 11.6846 415.873 11.1333 416.592 11.0578C420.948 10.6007 425.345 10.2831 429.767 10.1065ZM443.046 10.0005C447.453 10.1057 451.858 10.3505 456.243 10.7349C456.964 10.7981 457.487 11.3406 457.412 11.9466C457.337 12.5526 456.692 12.9927 455.971 12.9295C451.651 12.5509 447.313 12.3097 442.971 12.2061C442.247 12.1888 441.676 11.681 441.697 11.0719C441.717 10.4629 442.321 9.98316 443.046 10.0005Z" stroke="#F86E7F" stroke-width="2" mask="url(#path-1-inside-1)"/>
</g>
<g filter="url(#filter1_d)">
<path d="M779.218 161.501H454.587C450.928 161.501 447.962 164.465 447.962 168.12V535.493C447.962 539.149 450.928 542.112 454.587 542.112H779.218C782.877 542.112 785.844 539.149 785.844 535.493V168.12C785.844 164.465 782.877 161.501 779.218 161.501Z" fill="#F9C8CA"/>
<path d="M557.277 229.349C557.277 206.501 538.738 187.979 515.87 187.979C493.001 187.979 474.463 206.501 474.463 229.349C474.463 252.198 493.001 270.72 515.87 270.72C538.738 270.72 557.277 252.198 557.277 229.349Z" fill="#FFECED"/>
<path d="M756.031 189.633H587.09C585.261 189.633 583.777 191.115 583.777 192.942V202.871C583.777 204.699 585.261 206.181 587.09 206.181H756.031C757.86 206.181 759.343 204.699 759.343 202.871V192.942C759.343 191.115 757.86 189.633 756.031 189.633Z" fill="#FFECED"/>
<path d="M706.342 219.42H587.09C585.261 219.42 583.777 220.902 583.777 222.73V232.659C583.777 234.486 585.261 235.968 587.09 235.968H706.342C708.172 235.968 709.655 234.486 709.655 232.659V222.73C709.655 220.902 708.172 219.42 706.342 219.42Z" fill="#FFECED"/>
<path d="M621.872 249.207H592.059C587.485 249.207 583.777 252.911 583.777 257.481V260.791C583.777 265.361 587.485 269.065 592.059 269.065H621.872C626.445 269.065 630.153 265.361 630.153 260.791V257.481C630.153 252.911 626.445 249.207 621.872 249.207Z" fill="#FFECED"/>
<path d="M681.498 249.207H651.685C647.111 249.207 643.403 252.911 643.403 257.481V260.791C643.403 265.361 647.111 269.065 651.685 269.065H681.498C686.072 269.065 689.779 265.361 689.779 260.791V257.481C689.779 252.911 686.072 249.207 681.498 249.207Z" fill="#FFECED"/>
<path d="M557.277 351.806C557.277 328.958 538.738 310.436 515.87 310.436C493.001 310.436 474.463 328.958 474.463 351.806C474.463 374.655 493.001 393.177 515.87 393.177C538.738 393.177 557.277 374.655 557.277 351.806Z" fill="#FFECED"/>
<path d="M756.031 312.091H587.09C585.261 312.091 583.777 313.573 583.777 315.4V325.329C583.777 327.157 585.261 328.639 587.09 328.639H756.031C757.86 328.639 759.343 327.157 759.343 325.329V315.4C759.343 313.573 757.86 312.091 756.031 312.091Z" fill="#FFECED"/>
<path d="M706.342 341.878H587.09C585.261 341.878 583.777 343.36 583.777 345.188V355.117C583.777 356.944 585.261 358.426 587.09 358.426H706.342C708.172 358.426 709.655 356.944 709.655 355.117V345.188C709.655 343.36 708.172 341.878 706.342 341.878Z" fill="#FFECED"/>
<path d="M621.872 371.665H592.059C587.485 371.665 583.777 375.37 583.777 379.939V383.249C583.777 387.819 587.485 391.523 592.059 391.523H621.872C626.445 391.523 630.153 387.819 630.153 383.249V379.939C630.153 375.37 626.445 371.665 621.872 371.665Z" fill="#FFECED"/>
<path d="M681.498 371.665H651.685C647.111 371.665 643.403 375.37 643.403 379.939V383.249C643.403 387.819 647.111 391.523 651.685 391.523H681.498C686.072 391.523 689.779 387.819 689.779 383.249V379.939C689.779 375.37 686.072 371.665 681.498 371.665Z" fill="#FFECED"/>
<path d="M557.277 474.264C557.277 451.416 538.738 432.894 515.87 432.894C493.001 432.894 474.463 451.416 474.463 474.264C474.463 497.113 493.001 515.635 515.87 515.635C538.738 515.635 557.277 497.113 557.277 474.264Z" fill="#FFECED"/>
<path d="M756.031 434.549H587.09C585.261 434.549 583.777 436.031 583.777 437.858V447.788C583.777 449.615 585.261 451.097 587.09 451.097H756.031C757.86 451.097 759.343 449.615 759.343 447.788V437.858C759.343 436.031 757.86 434.549 756.031 434.549Z" fill="#FFECED"/>
<path d="M706.342 464.336H587.09C585.261 464.336 583.777 465.818 583.777 467.646V477.575C583.777 479.402 585.261 480.884 587.09 480.884H706.342C708.172 480.884 709.655 479.402 709.655 477.575V467.646C709.655 465.818 708.172 464.336 706.342 464.336Z" fill="#FFECED"/>
<path d="M621.872 494.123H592.059C587.485 494.123 583.777 497.828 583.777 502.397V505.707C583.777 510.277 587.485 513.981 592.059 513.981H621.872C626.445 513.981 630.153 510.277 630.153 505.707V502.397C630.153 497.828 626.445 494.123 621.872 494.123Z" fill="#FFECED"/>
<path d="M681.498 494.123H651.685C647.111 494.123 643.403 497.828 643.403 502.397V505.707C643.403 510.277 647.111 513.981 651.685 513.981H681.498C686.072 513.981 689.779 510.277 689.779 505.707V502.397C689.779 497.828 686.072 494.123 681.498 494.123Z" fill="#FFECED"/>
</g>
<g filter="url(#filter2_d)">
<path d="M592.535 145.8C612.202 145.8 628.145 129.871 628.145 110.221C628.145 90.5718 612.202 74.6426 592.535 74.6426C572.868 74.6426 556.925 90.5718 556.925 110.221C556.925 129.871 572.868 145.8 592.535 145.8Z" fill="#F4F7FF"/>
<g clip-path="url(#clip0)" filter="url(#filter3_d)">
<path d="M593.343 111.413C589.053 111.413 585.564 107.924 585.564 103.635C585.564 99.3455 589.053 95.8564 593.343 95.8564C597.632 95.8564 601.121 99.3455 601.121 103.635C601.121 107.924 597.632 111.413 593.343 111.413Z" fill="#709DFF"/>
<path d="M604.657 124.142H582.028C580.859 124.142 579.907 123.191 579.907 122.021C579.907 121.925 579.927 119.638 581.64 117.354C582.637 116.024 584.001 114.968 585.697 114.216C587.768 113.295 590.34 112.828 593.343 112.828C596.345 112.828 598.918 113.295 600.988 114.216C602.684 114.969 604.049 116.024 605.046 117.354C606.758 119.638 606.778 121.925 606.778 122.021C606.778 123.191 605.826 124.142 604.657 124.142Z" fill="#709DFF"/>
</g>
</g>
<path fill-rule="evenodd" clip-rule="evenodd" d="M152.368 372.446C147.36 374.972 128.564 374.246 116.154 357.36C103.743 340.474 103.397 316.145 112.11 314.138C118.431 312.683 127.545 339.413 134.51 337.045C142.428 334.353 125.438 323.444 134.51 321.352C143.583 319.26 159.668 343.473 159.668 355.27C159.668 367.067 157.376 369.921 152.368 372.446Z" fill="#F5C0A5"/>
<path fill-rule="evenodd" clip-rule="evenodd" d="M600.472 388.776C605.48 391.301 624.276 390.575 636.686 373.689C649.097 356.803 649.443 332.474 640.73 330.468C634.409 329.012 625.295 355.742 618.33 353.374C610.412 350.682 627.402 339.773 618.33 337.681C609.257 335.589 593.172 359.802 593.172 371.599C593.172 383.396 595.464 386.25 600.472 388.776Z" fill="#F5C0A5"/>
<path fill-rule="evenodd" clip-rule="evenodd" d="M303.268 207.513C300.038 177.599 314.668 110.772 368.472 112.426C422.277 114.079 437.336 183.575 436.103 210.609L303.268 207.513Z" fill="#10173D"/>
<path fill-rule="evenodd" clip-rule="evenodd" d="M413.846 242.084C395.221 226.877 342.259 227.253 324.754 241.592L333.965 251.365C356.878 243.023 386.701 243.246 403.334 253.02L413.846 242.084Z" fill="#495DB4"/>
<path fill-rule="evenodd" clip-rule="evenodd" d="M345.85 206.406H394.057C388.817 229.456 392.223 247.517 404.274 260.591C413.434 270.527 394.057 299.327 369.954 299.011C345.85 298.695 324.182 270.818 331.965 260.591C344.016 244.754 348.645 226.692 345.85 206.406Z" fill="#F5C0A5"/>
<path fill-rule="evenodd" clip-rule="evenodd" d="M369.954 240.009C379.618 240.009 399.145 224.267 407.817 202.003C407.817 204.3 412.23 205.194 414.876 201.958C417.522 198.721 425.58 181.896 419.335 177.953C416.468 176.143 413.005 177.953 412.134 179.804C412.134 146.554 393.249 119.6 369.954 119.6C346.658 119.6 327.773 146.554 327.773 179.804C327.078 177.292 323.324 176.05 320.98 177.953C314.589 183.144 323.156 199.696 325.278 201.958C327.4 204.22 331.186 204.308 332.073 201.958C340.735 224.246 360.282 240.009 369.954 240.009Z" fill="#FFCEB5"/>
<path d="M329.531 200.808C329.531 199.894 328.789 199.153 327.874 199.153C326.96 199.153 326.218 199.894 326.218 200.808V210.737C326.218 211.651 326.96 212.392 327.874 212.392C328.789 212.392 329.531 211.651 329.531 210.737V200.808Z" fill="#CBD2EB"/>
<path d="M412.665 200.808C412.665 199.894 411.923 199.153 411.009 199.153C410.094 199.153 409.352 199.894 409.352 200.808V210.737C409.352 211.651 410.094 212.392 411.009 212.392C411.923 212.392 412.665 211.651 412.665 210.737V200.808Z" fill="#CBD2EB"/>
<path fill-rule="evenodd" clip-rule="evenodd" d="M335.468 250.364C297.932 261.346 276.14 271.996 270.094 282.315C257.299 304.153 249.934 344.557 244.486 369.578C230.963 369.211 206.584 354.973 157.136 339.114C152.902 337.756 140.95 380.413 149.413 386.536C173.348 403.853 287.433 444.663 289.742 422.984C292.022 401.578 297.03 378.206 304.765 352.868L293.501 428.46H447.017L432.828 352.868C442.11 386.642 448.503 413.643 452.007 433.87C453.729 443.81 574.42 413.886 602.713 399.786C612.328 394.995 600.827 346.273 588.965 351.716C577.102 357.159 503.744 380.464 495.309 375.021C489.862 345.343 482.557 299.745 471.742 282.315C463.007 268.238 439.374 257.588 400.841 250.364C398.955 271.665 388.929 282.315 370.761 282.315C352.593 282.315 340.829 271.665 335.468 250.364Z" fill="#F86E7F"/>
<path fill-rule="evenodd" clip-rule="evenodd" d="M310.689 278.782C300.835 266.687 308.292 253.009 316.347 245.342C324.402 237.674 337.943 237.71 346.669 247.67C355.394 257.63 354.706 276.176 348.953 282.56C343.199 288.944 320.543 290.877 310.689 278.782Z" fill="#263471"/>
<path fill-rule="evenodd" clip-rule="evenodd" d="M427.842 278.781C437.696 266.686 430.239 253.008 422.184 245.341C414.129 237.673 400.588 237.709 391.862 247.669C383.137 257.629 383.825 276.175 389.578 282.559C395.332 288.943 417.988 290.876 427.842 278.781Z" fill="#263471"/>
<path fill-rule="evenodd" clip-rule="evenodd" d="M266.411 348.339H475.415C476.329 348.339 477.071 349.08 477.071 349.994C477.071 350.018 477.07 350.042 477.069 350.066L471.697 473.528H270.129L264.757 350.066C264.717 349.153 265.426 348.38 266.339 348.34C266.363 348.339 266.387 348.339 266.411 348.339Z" fill="#CBD2EB"/>
<path d="M370.914 419.098C378.436 419.098 384.533 413.006 384.533 405.49C384.533 397.975 378.436 391.883 370.914 391.883C363.392 391.883 357.294 397.975 357.294 405.49C357.294 413.006 363.392 419.098 370.914 419.098Z" fill="white"/>
<path fill-rule="evenodd" clip-rule="evenodd" d="M290.348 514.133C251.941 508.851 227.346 508.851 216.564 514.133C200.391 522.056 200.515 546.006 216.564 552.182C232.613 558.359 294.265 558.359 294.265 543.147C294.265 533.006 292.959 523.334 290.348 514.133Z" fill="#10173D"/>
<path fill-rule="evenodd" clip-rule="evenodd" d="M284.521 512.294C298.347 501.634 482.529 411.855 519.074 408.383C555.619 404.911 576.458 454.979 546.835 479.41C517.213 503.842 300.206 543.146 294.264 543.146C288.322 543.146 279.434 515.669 284.521 512.294Z" fill="#6192FD"/>
<path fill-rule="evenodd" clip-rule="evenodd" d="M448.375 514.744C486.782 509.463 511.376 509.463 522.158 514.744C538.332 522.667 538.207 546.617 522.158 552.794C506.109 558.97 444.458 558.97 444.458 543.758C444.458 533.617 445.763 523.946 448.375 514.744Z" fill="#10173D"/>
<path fill-rule="evenodd" clip-rule="evenodd" d="M453.92 512.908C440.094 502.248 255.913 412.469 219.368 408.997C182.823 405.525 161.983 455.593 191.606 480.025C221.229 504.456 438.235 543.761 444.177 543.761C450.119 543.761 459.008 516.284 453.92 512.908Z" fill="#709DFF"/>
<path fill-rule="evenodd" clip-rule="evenodd" d="M382.542 162.641C383.438 159.796 383.438 155.749 382.542 150.5C385.473 154.383 386.939 158.43 386.939 162.641H411.549C411.549 156.325 398.293 119.6 369.529 119.6C340.765 119.6 325.022 154.41 327.51 162.641H382.542Z" fill="#10173D"/>
<path fill-rule="evenodd" clip-rule="evenodd" d="M365.393 115.739C365.393 105.587 378.43 103.106 378.43 105.587C378.43 107.534 375.117 107.534 373.593 111.007C377.848 108.076 382.635 109.104 382.635 111.007C382.635 112.91 375.403 112.274 375.403 115.739C375.403 119.205 365.393 125.892 365.393 115.739Z" fill="#10173D"/>
<path opacity="0.2" d="M378.287 595C512.754 595 621.76 588.332 621.76 580.106C621.76 571.881 512.754 565.213 378.287 565.213C243.82 565.213 134.814 571.881 134.814 580.106C134.814 588.332 243.82 595 378.287 595Z" fill="#4864C9"/>
<g filter="url(#filter4_d)">
<path d="M292.039 30H40.2774C37.173 30 34.6564 32.5144 34.6564 35.6161V109.216C34.6564 112.318 37.173 114.832 40.2774 114.832H292.039C295.144 114.832 297.66 112.318 297.66 109.216V35.6161C297.66 32.5144 295.144 30 292.039 30Z" fill="#709DFF"/>
<path d="M97.3741 46.5518H56.8439C53.7395 46.5518 51.2229 49.0662 51.2229 52.1678V92.6626C51.2229 95.7643 53.7395 98.2787 56.8439 98.2787H97.3741C100.479 98.2787 102.995 95.7643 102.995 92.6626V52.1678C102.995 49.0662 100.479 46.5518 97.3741 46.5518Z" fill="#BED3FF"/>
<path d="M278.282 47.5869H122.374C120.821 47.5869 119.563 48.8441 119.563 50.395V55.1237C119.563 56.6745 120.821 57.9317 122.374 57.9317H278.282C279.834 57.9317 281.093 56.6745 281.093 55.1237V50.395C281.093 48.8441 279.834 47.5869 278.282 47.5869Z" fill="#BED3FF"/>
<path d="M226.51 66.209H122.374C120.821 66.209 119.563 67.4662 119.563 69.017V73.7457C119.563 75.2966 120.821 76.5538 122.374 76.5538H226.51C228.062 76.5538 229.32 75.2966 229.32 73.7457V69.017C229.32 67.4662 228.062 66.209 226.51 66.209Z" fill="#BED3FF"/>
<path d="M142.344 84.8301H125.776C122.345 84.8301 119.563 87.6091 119.563 91.0373C119.563 94.4654 122.345 97.2445 125.776 97.2445H142.344C145.775 97.2445 148.556 94.4654 148.556 91.0373C148.556 87.6091 145.775 84.8301 142.344 84.8301Z" fill="#BED3FF"/>
<path d="M179.619 84.8301H163.051C159.62 84.8301 156.839 87.6091 156.839 91.0373C156.839 94.4654 159.62 97.2445 163.051 97.2445H179.619C183.05 97.2445 185.832 94.4654 185.832 91.0373C185.832 87.6091 183.05 84.8301 179.619 84.8301Z" fill="#BED3FF"/>
</g>
<g filter="url(#filter5_d)">
<path d="M296.303 137.326C310.862 137.326 322.664 125.534 322.664 110.988C322.664 96.4414 310.862 84.6494 296.303 84.6494C281.744 84.6494 269.941 96.4414 269.941 110.988C269.941 125.534 281.744 137.326 296.303 137.326Z" fill="black"/>
</g>
<path d="M296.303 137.326C310.862 137.326 322.664 125.534 322.664 110.988C322.664 96.4414 310.862 84.6494 296.303 84.6494C281.744 84.6494 269.941 96.4414 269.941 110.988C269.941 125.534 281.744 137.326 296.303 137.326Z" fill="#F4F7FF"/>
<path d="M296.642 122.842C296.544 122.842 296.448 122.817 296.359 122.768C296.25 122.708 293.654 121.257 291.019 118.879C289.459 117.473 288.215 116.035 287.317 114.603C286.173 112.778 285.593 110.956 285.593 109.188C285.593 105.824 288.332 103.088 291.699 103.088C292.839 103.088 294.05 103.514 295.108 104.289C295.727 104.743 296.253 105.289 296.642 105.869C297.03 105.289 297.557 104.743 298.176 104.289C299.234 103.514 300.445 103.088 301.585 103.088C304.951 103.088 307.69 105.824 307.69 109.188C307.69 110.956 307.11 112.778 305.967 114.603C305.07 116.035 303.825 117.473 302.266 118.879C299.631 121.257 297.035 122.708 296.926 122.768C296.837 122.817 296.741 122.842 296.643 122.842H296.642Z" fill="#F86E7F"/>
<defs>
<filter id="filter0_d" x="73.1427" y="4" width="530.907" height="315.23" filterUnits="userSpaceOnUse" color-interpolation-filters="sRGB">
<feFlood flood-opacity="0" result="BackgroundImageFix"/>
<feColorMatrix in="SourceAlpha" type="matrix" values="0 0 0 0 0 0 0 0 0 0 0 0 0 0 0 0 0 0 127 0"/>
<feOffset dy="4"/>
<feGaussianBlur stdDeviation="5"/>
<feColorMatrix type="matrix" values="0 0 0 0 0.14902 0 0 0 0 0.203922 0 0 0 0 0.443137 0 0 0 0.05 0"/>
<feBlend mode="normal" in2="BackgroundImageFix" result="effect1_dropShadow"/>
<feBlend mode="normal" in="SourceGraphic" in2="effect1_dropShadow" result="shape"/>
</filter>
<filter id="filter1_d" x="413.962" y="131.501" width="405.881" height="448.611" filterUnits="userSpaceOnUse" color-interpolation-filters="sRGB">
<feFlood flood-opacity="0" result="BackgroundImageFix"/>
<feColorMatrix in="SourceAlpha" type="matrix" values="0 0 0 0 0 0 0 0 0 0 0 0 0 0 0 0 0 0 127 0"/>
<feOffset dy="4"/>
<feGaussianBlur stdDeviation="17"/>
<feColorMatrix type="matrix" values="0 0 0 0 0 0 0 0 0 0 0 0 0 0 0 0 0 0 0.05 0"/>
<feBlend mode="normal" in2="BackgroundImageFix" result="effect1_dropShadow"/>
<feBlend mode="normal" in="SourceGraphic" in2="effect1_dropShadow" result="shape"/>
</filter>
<filter id="filter2_d" x="522.925" y="44.6426" width="139.22" height="139.158" filterUnits="userSpaceOnUse" color-interpolation-filters="sRGB">
<feFlood flood-opacity="0" result="BackgroundImageFix"/>
<feColorMatrix in="SourceAlpha" type="matrix" values="0 0 0 0 0 0 0 0 0 0 0 0 0 0 0 0 0 0 127 0"/>
<feOffset dy="4"/>
<feGaussianBlur stdDeviation="17"/>
<feColorMatrix type="matrix" values="0 0 0 0 0 0 0 0 0 0 0 0 0 0 0 0 0 0 0.15 0"/>
<feBlend mode="normal" in2="BackgroundImageFix" result="effect1_dropShadow"/>
<feBlend mode="normal" in="SourceGraphic" in2="effect1_dropShadow" result="shape"/>
</filter>
<filter id="filter3_d" x="575.907" y="93.8564" width="34.8712" height="36.2855" filterUnits="userSpaceOnUse" color-interpolation-filters="sRGB">
<feFlood flood-opacity="0" result="BackgroundImageFix"/>
<feColorMatrix in="SourceAlpha" type="matrix" values="0 0 0 0 0 0 0 0 0 0 0 0 0 0 0 0 0 0 127 0"/>
<feOffset dy="2"/>
<feGaussianBlur stdDeviation="2"/>
<feColorMatrix type="matrix" values="0 0 0 0 0.14902 0 0 0 0 0.203922 0 0 0 0 0.443137 0 0 0 0.1 0"/>
<feBlend mode="normal" in2="BackgroundImageFix" result="effect1_dropShadow"/>
<feBlend mode="normal" in="SourceGraphic" in2="effect1_dropShadow" result="shape"/>
</filter>
<filter id="filter4_d" x="0.656372" y="0" width="331.004" height="152.832" filterUnits="userSpaceOnUse" color-interpolation-filters="sRGB">
<feFlood flood-opacity="0" result="BackgroundImageFix"/>
<feColorMatrix in="SourceAlpha" type="matrix" values="0 0 0 0 0 0 0 0 0 0 0 0 0 0 0 0 0 0 127 0"/>
<feOffset dy="4"/>
<feGaussianBlur stdDeviation="17"/>
<feColorMatrix type="matrix" values="0 0 0 0 0 0 0 0 0 0 0 0 0 0 0 0 0 0 0.05 0"/>
<feBlend mode="normal" in2="BackgroundImageFix" result="effect1_dropShadow"/>
<feBlend mode="normal" in="SourceGraphic" in2="effect1_dropShadow" result="shape"/>
</filter>
<filter id="filter5_d" x="235.941" y="54.6494" width="120.723" height="120.676" filterUnits="userSpaceOnUse" color-interpolation-filters="sRGB">
<feFlood flood-opacity="0" result="BackgroundImageFix"/>
<feColorMatrix in="SourceAlpha" type="matrix" values="0 0 0 0 0 0 0 0 0 0 0 0 0 0 0 0 0 0 127 0"/>
<feOffset dy="4"/>
<feGaussianBlur stdDeviation="17"/>
<feColorMatrix type="matrix" values="0 0 0 0 0 0 0 0 0 0 0 0 0 0 0 0 0 0 0.15 0"/>
<feBlend mode="normal" in2="BackgroundImageFix" result="effect1_dropShadow"/>
<feBlend mode="normal" in="SourceGraphic" in2="effect1_dropShadow" result="shape"/>
</filter>
<clipPath id="clip0">
<rect width="26.8712" height="28.2855" fill="white" transform="translate(579.907 95.8564)"/>
</clipPath>
</defs>
</svg>
