<svg width="481" height="152" viewBox="0 0 481 152" fill="none" xmlns="http://www.w3.org/2000/svg">
<rect x="79" y="23" width="145" height="9" fill="#D2D5E4"/>
<g clip-path="url(#clip0)">
<rect x="24" y="12" width="32" height="32" rx="16" fill="#D2D5E4"/>
<circle cx="40" cy="22" r="5" fill="#FAD3D5"/>
<rect x="31" y="29" width="18" height="16" rx="2" fill="#A5ABC9"/>
</g>
<rect x="79" y="71" width="97" height="9" fill="#D2D5E4"/>
<g clip-path="url(#clip1)">
<rect x="24" y="60" width="32" height="32" rx="16" fill="#D2D5E4"/>
<circle cx="40" cy="70" r="5" fill="#FAD3D5"/>
<rect x="31" y="77" width="18" height="16" rx="2" fill="#A5ABC9"/>
</g>
<rect x="79" y="119" width="129" height="9" fill="#D2D5E4"/>
<g clip-path="url(#clip2)">
<rect x="24" y="108" width="32" height="32" rx="16" fill="#D2D5E4"/>
<circle cx="40" cy="118" r="5" fill="#FAD3D5"/>
<rect x="31" y="125" width="18" height="16" rx="2" fill="#A5ABC9"/>
</g>
<rect x="0.5" y="0.5" width="247" height="151" rx="2.5" stroke="#A5ABC9" stroke-dasharray="6 6"/>
<rect x="384" y="18" width="97" height="9" fill="#D2D5E4"/>
<g clip-path="url(#clip3)">
<rect x="329" y="7" width="32" height="32" rx="16" fill="#D2D5E4"/>
<circle cx="345" cy="17" r="5" fill="#FAD3D5"/>
<rect x="336" y="24" width="18" height="16" rx="2" fill="#A5ABC9"/>
</g>
<path d="M278.793 113.293C278.402 113.683 278.402 114.317 278.793 114.707L285.157 121.071C285.547 121.462 286.181 121.462 286.571 121.071C286.962 120.681 286.962 120.047 286.571 119.657L280.914 114L286.571 108.343C286.962 107.953 286.962 107.319 286.571 106.929C286.181 106.538 285.547 106.538 285.157 106.929L278.793 113.293ZM350 62.5C350 81.8163 339.888 94.3918 326.01 102.191C312.083 110.017 294.395 113 279.5 113V115C294.605 115 312.667 111.983 326.99 103.934C341.362 95.8582 352 82.6837 352 62.5H350Z" fill="#A5ABC9"/>
<defs>
<clipPath id="clip0">
<rect x="24" y="12" width="32" height="32" rx="16" fill="white"/>
</clipPath>
<clipPath id="clip1">
<rect x="24" y="60" width="32" height="32" rx="16" fill="white"/>
</clipPath>
<clipPath id="clip2">
<rect x="24" y="108" width="32" height="32" rx="16" fill="white"/>
</clipPath>
<clipPath id="clip3">
<rect x="329" y="7" width="32" height="32" rx="16" fill="white"/>
</clipPath>
</defs>
</svg>
