<?xml version="1.0" encoding="UTF-8"?>
<svg width="201px" height="162px" viewBox="0 0 201 162" version="1.1" xmlns="http://www.w3.org/2000/svg" xmlns:xlink="http://www.w3.org/1999/xlink">
    <!-- Generator: Sketch 62 (91390) - https://sketch.com -->
    <title>parrainage</title>
    <desc>Created with Sketch.</desc>
    <g id="Page-1" stroke="none" stroke-width="1" fill="none" fill-rule="evenodd">
        <g id="Artboard" transform="translate(-1136.000000, -79.000000)">
            <g id="parrainage" transform="translate(1136.000000, 79.000000)">
                <path d="M129.880437,0 L74.1195631,0 C72.396404,0 71,1.38760076 71,3.09932059 L71,113.900512 C71,115.612232 72.396404,117 74.1195631,117 L129.880437,117 C131.603174,117 133,115.612232 133,113.900512 L133,3.09932059 C133,1.38760076 131.603174,0 129.880437,0 Z" id="Path" fill="#F9C8CA" fill-rule="nonzero"></path>
                <path d="M101.5,110 C104.537627,110 107,107.53762 107,104.5 C107,101.46238 104.537627,99 101.5,99 C98.462373,99 96,101.46238 96,104.5 C96,107.53762 98.462373,110 101.5,110 Z" id="Path" fill="#FFFFFF" fill-rule="nonzero"></path>
                <path d="M97,8 C97.5524324,8 98,7.55228873 98,7.00002697 C98,6.44771127 97.5524324,6 97,6 C96.4475676,6 96,6.44771127 96,7.00002697 C96,7.55228873 96.4475676,8 97,8 Z" id="Path" fill="#FFFFFF" fill-rule="nonzero"></path>
                <path d="M106.238389,6 L99.7620224,6 C99.3414684,6 99,6.44771127 99,7.00002697 C99,7.55228873 99.3414684,8 99.7620224,8 L106.238389,8 C106.658943,8 107,7.55228873 107,7.00002697 C107,6.44771127 106.658943,6 106.238389,6 Z" id="Path" fill="#FFFFFF" fill-rule="nonzero"></path>
                <path d="M125.473456,11 L78.526957,11 C77.6834164,11 77,11.6964363 77,12.5555478 L77,30.4444103 C77,31.3035218 77.6834164,32 78.526957,32 L125.473456,32 C126.316584,32 127,31.3035218 127,30.4444103 L127,12.5555478 C127,11.6964363 126.316584,11 125.473456,11 Z" id="Path" fill="#FFEDED" fill-rule="nonzero"></path>
                <path d="M106.849145,17 L81.1508554,17 C80.5155003,17 80,17.4974758 80,18.1111185 L80,18.8889214 C80,19.5025642 80.5155003,20 81.1508554,20 L106.849145,20 C107.484914,20 108,19.5025642 108,18.8889214 L108,18.1111185 C108,17.4974758 107.484914,17 106.849145,17 Z" id="Path" fill="#F86E7F" fill-rule="nonzero" opacity="0.6"></path>
                <path d="M97.8369743,23 L81.163445,23 C80.5211395,23 80,23.4974758 80,24.1111185 L80,24.8888815 C80,25.5025242 80.5211395,26 81.163445,26 L97.8369743,26 C98.4792798,26 99,25.5025242 99,24.8888815 L99,24.1111185 C99,23.4974758 98.4792798,23 97.8369743,23 Z" id="Path" fill="#F86E7F" fill-rule="nonzero" opacity="0.6"></path>
                <path d="M122,25 C123.65709,25 125,23.6568482 125,22 C125,20.3431518 123.65709,19 122,19 C120.343373,19 119,20.3431518 119,22 C119,23.6568482 120.343373,25 122,25 Z" id="Path" fill="#F86E7F" fill-rule="nonzero" opacity="0.6"></path>
                <path d="M121.99982,23 C122.552352,23 123,22.5523107 123,22 C123,21.4477252 122.552352,21 121.99982,21 C121.447648,21 121,21.4477252 121,22 C121,22.5523107 121.447648,23 121.99982,23 Z" id="Path" fill="#F2F2F2" fill-rule="nonzero"></path>
                <path d="M125.473456,35 L78.526957,35 C77.6834164,35 77,35.6823028 77,36.5240835 L77,49.4763275 C77,50.3176972 77.6834164,51 78.526957,51 L125.473456,51 C126.316584,51 127,50.3176972 127,49.4763275 L127,36.5240835 C127,35.6823028 126.316584,35 125.473456,35 Z" id="Path" fill="#FFEDED" fill-rule="nonzero"></path>
                <path d="M118.849145,40 L93.1508554,40 C92.5155003,40 92,40.4264429 92,40.9525604 L92,41.0477822 C92,41.5735571 92.5155003,42 93.1508554,42 L118.849145,42 C119.484914,42 120,41.5735571 120,41.0477822 L120,40.9525604 C120,40.4264429 119.484914,40 118.849145,40 Z" id="Path" fill="#F86E7F" fill-rule="nonzero" opacity="0.6"></path>
                <path d="M109.836974,44 L93.163445,44 C92.5211395,44 92,44.4261004 92,44.9522178 L92,45.0474396 C92,45.5735571 92.5211395,46 93.163445,46 L109.836974,46 C110.47928,46 111,45.5735571 111,45.0474396 L111,44.9522178 C111,44.4261004 110.47928,44 109.836974,44 Z" id="Path" fill="#F86E7F" fill-rule="nonzero" opacity="0.6"></path>
                <path d="M85.5002027,48 C87.9852683,48 90,45.9854792 90,43.5 C90,41.0149254 87.9852683,39 85.5002027,39 C83.0147317,39 81,41.0149254 81,43.5 C81,45.9854792 83.0147317,48 85.5002027,48 Z" id="Path" fill="#C5CFD6" fill-rule="nonzero"></path>
                <path d="M125.473456,55 L78.526957,55 C77.6834164,55 77,55.6823028 77,56.5236725 L77,69.4763275 C77,70.3176972 77.6834164,71 78.526957,71 L125.473456,71 C126.316584,71 127,70.3176972 127,69.4763275 L127,56.5236725 C127,55.6823028 126.316584,55 125.473456,55 Z" id="Path" fill="#FFEDED" fill-rule="nonzero"></path>
                <path d="M106.849145,60 L81.1508554,60 C80.5155003,60 80,60.4264429 80,60.9522178 L80,61.0474396 C80,61.5735571 80.5155003,62 81.1508554,62 L106.849145,62 C107.484914,62 108,61.5735571 108,61.0474396 L108,60.9522178 C108,60.4264429 107.484914,60 106.849145,60 Z" id="Path" fill="#F86E7F" fill-rule="nonzero" opacity="0.6"></path>
                <path d="M97.8369743,64 L81.163445,64 C80.5211395,64 80,64.4264429 80,64.9525604 L80,65.0477822 C80,65.5738996 80.5211395,66 81.163445,66 L97.8369743,66 C98.4792798,66 99,65.5738996 99,65.0477822 L99,64.9525604 C99,64.4264429 98.4792798,64 97.8369743,64 Z" id="Path" fill="#F86E7F" fill-rule="nonzero" opacity="0.6"></path>
                <path d="M122,66 C123.65709,66 125,64.6571098 125,63.0002312 C125,61.3428902 123.65709,60 122,60 C120.343373,60 119,61.3428902 119,63.0002312 C119,64.6571098 120.343373,66 122,66 Z" id="Path" fill="#F86E7F" fill-rule="nonzero" opacity="0.6"></path>
                <path d="M121.99982,64 C122.552352,64 123,63.5522388 123,62.9998202 C123,62.4477612 122.552352,62 121.99982,62 C121.447648,62 121,62.4477612 121,62.9998202 C121,63.5522388 121.447648,64 121.99982,64 Z" id="Path" fill="#F2F2F2" fill-rule="nonzero"></path>
                <path d="M125.473456,74 L78.526957,74 C77.6834164,74 77,74.6823028 77,75.5236725 L77,88.4759165 C77,89.3176972 77.6834164,90 78.526957,90 L125.473456,90 C126.316584,90 127,89.3176972 127,88.4759165 L127,75.5236725 C127,74.6823028 126.316584,74 125.473456,74 Z" id="Path" fill="#FFEDED" fill-rule="nonzero"></path>
                <path d="M118.849145,79 L93.1508554,79 C92.5155003,79 92,79.4264429 92,79.9522178 L92,80.0474396 C92,80.5735571 92.5155003,81 93.1508554,81 L118.849145,81 C119.484914,81 120,80.5735571 120,80.0474396 L120,79.9522178 C120,79.4264429 119.484914,79 118.849145,79 Z" id="Path" fill="#F86E7F" fill-rule="nonzero" opacity="0.6"></path>
                <path d="M109.836974,83 L93.163445,83 C92.5211395,83 92,83.4264429 92,83.9525604 L92,84.0477822 C92,84.5735571 92.5211395,85 93.163445,85 L109.836974,85 C110.47928,85 111,84.5735571 111,84.0477822 L111,83.9525604 C111,83.4264429 110.47928,83 109.836974,83 Z" id="Path" fill="#F86E7F" fill-rule="nonzero" opacity="0.6"></path>
                <path d="M85.5002027,86 C87.9852683,86 90,83.9850746 90,81.5 C90,79.0145208 87.9852683,77 85.5002027,77 C83.0147317,77 81,79.0145208 81,81.5 C81,83.9850746 83.0147317,86 85.5002027,86 Z" id="Path" fill="#F86E7F" fill-rule="nonzero" opacity="0.6"></path>
                <path d="M52.485189,28.2704778 C54.9967086,31.6909537 56.0768686,41.1122111 53.5948616,42.1360184 C52.6053473,42.5441948 50.326977,42.2062921 47.9132705,41.182064 L50.6929329,50.8381702 L42.4420619,52 L43.4311546,38.4047815 C41.5869142,36.7746009 40.1960712,34.6541878 40.0181947,32.0841495 C39.5056035,24.6787362 49.9736694,24.850002 52.485189,28.2704778 Z" id="Path" fill="#FFCEB5"></path>
                <path d="M48.4564305,25.1205454 C47.2861548,24.933493 45.6407169,25.0496624 44.9661713,25.2281968 C45.2255797,24.2208536 45.2348143,23.1388179 44.9670108,22.1250542 C44.706763,21.1400117 44.149329,20.3495123 43.6195987,19.5134269 C43.3753016,19.128022 43.1066587,18.7484813 42.7465092,18.4786465 C42.379224,18.2037609 41.94142,18.0504379 41.4992086,18.0108873 C41.0464193,17.9703521 40.5890548,18.044959 40.162752,18.2021344 C39.9741563,18.2716476 39.812257,18.3872177 39.6285724,18.4649065 C39.4405223,18.5444787 39.3287837,18.4337454 39.1699905,18.3291331 C38.7873003,18.0770618 38.2664689,18.0003576 37.8273216,18.0092607 C37.3346557,18.0192768 36.8421577,18.166008 36.4023389,18.3946656 C35.9742732,18.617245 35.5773952,18.9357904 35.3035054,19.3560803 C35.1815667,19.5431755 35.0761243,19.7512873 35.0194155,19.9725398 C34.9961611,20.0633265 34.9973364,20.1149478 34.917625,20.1584364 C34.8439161,20.1986719 34.7531232,20.2126259 34.6767279,20.2518342 C33.9380018,20.6308185 33.3587405,21.3363525 33.1053347,22.1716674 C32.9574552,22.6590308 32.9681589,23.4780375 33.1193545,24.3760171 C33.2705081,25.2740396 34.3934355,27.5123326 35.2592633,28.263153 C36.0321573,28.9332883 37.0829709,29.2977621 38.0604533,29.382856 C37.5323181,30.2049874 37.2393714,31.1795429 37.0576177,32.15397 C36.8602071,33.2124636 36.7963205,34.2920595 36.8663356,35.3724258 C36.9328666,36.3988595 37.0736943,37.4745174 37.4441277,38.4350333 C37.7906351,39.3334838 38.3633482,40.0290445 39.2110425,40.400581 C39.5993155,40.5709398 40.007191,40.6822295 40.4153184,40.778538 C40.8175691,40.8735623 41.2203656,40.9643062 41.6316831,40.9912725 C42.4102858,41.0413529 43.2783383,40.8889716 43.7765869,40.1916987 C43.9562419,39.9404408 44.149329,39.6292576 44.265601,39.3373361 C44.3071567,39.2324669 44.3319222,39.163981 44.2517491,39.0788015 C44.156045,38.9765006 44.014168,38.9080146 43.8991553,38.8339641 C43.2418196,38.4114912 42.7851267,37.7865567 42.5832247,36.9951156 C42.3779647,36.1921174 42.4484835,35.1074707 43.1792762,34.6391978 C44.080909,34.0609193 45.209629,34.4136221 46.1293112,34.7611885 C46.3135835,33.402555 46.8983016,32.1191705 47.9858856,31.3517423 C49.1893219,30.5027302 50.6639197,30.2115363 51.9156278,29.4514704 C52.2421968,29.2534175 52.5721239,29.0344336 52.785779,28.6957704 C52.874767,28.5542184 52.9776068,28.3725165 52.9973353,28.1995038 C53.0229403,27.9721732 52.8588163,27.8083633 52.7282726,27.6528573 C52.0348381,26.8283717 49.6267062,25.3076405 48.4564305,25.1205454 Z" id="Path" fill="#10173D"></path>
                <polygon id="Path" fill="#FFCEB5" points="45 80 70.6385015 122.809213 89.8597276 159 94 159 61.7941554 80"></polygon>
                <path d="M87.545438,157.1342 C87.1818127,158.103894 87,158.832608 87,159.321169 C87,159.933108 87.1038929,160.826051 87.310841,162 C88.0322267,162 94.5150626,162 106.759768,162 C107.264989,160.355647 106.973418,159.468067 105.884218,159.336849 C104.795437,159.205631 103.890982,159.087617 103.170853,158.981983 L94.1707077,155.033059 C93.9750706,154.947231 93.7459197,155.034297 93.6592026,155.22741 C93.6579458,155.230299 93.6562701,155.2336 93.6550133,155.236488 L93.0907238,156.583744 C92.0827947,157.046308 91.2637999,157.277797 90.6333206,157.277797 C90.1360588,157.277797 89.4548897,157.085921 88.5898134,156.70217 L88.5898134,156.70217 C88.199377,156.528863 87.7406561,156.700932 87.5655463,157.086334 C87.5584246,157.102014 87.5517218,157.118107 87.545438,157.1342 Z" id="Path" fill="#263471"></path>
                <path d="M84.9802235,153 L93,150.594454 C89.4863215,140.179611 85.1798021,128.718062 80.080442,116.210641 C74.9810818,103.702802 69.5044591,91.6328668 63.6509949,80 L41,80 C47.5078631,94.714908 54.4076414,108.085184 61.698156,120.111245 C68.9890915,132.136888 76.7495,143.099946 84.9802235,153 Z" id="Path" fill="#5787F0"></path>
                <path d="M43.1654666,80 C40.7501334,95.007883 36.091925,114.182323 35.6522867,114.774261 C35.3592084,115.168468 24.8084741,118.69794 4,125.362257 L4.89262314,129 C29.7066677,125.425799 42.7813897,122.652971 44.1172911,120.681099 C46.120934,117.7235 56.1249236,94.3578382 60,80 L43.1654666,80 Z" id="Path" fill="#FFCEB5"></path>
                <path d="M12,122.404717 L13.572451,128.289421 C32.1343105,129.921518 43.5075177,128.742058 47.6923237,124.75146 C51.8767112,120.760443 56.6460761,105.84315 62,80 L40.5352217,80 C37.1431061,101.162259 35.2466998,112.187628 34.8460028,113.075688 C34.445264,113.964167 26.8299716,117.073843 12,122.404717 Z" id="Path" fill="#709DFF"></path>
                <path d="M4.80312865,123.192768 C3.79218198,123.00527 3.04764515,122.954742 2.56948115,123.040348 C1.97044335,123.148086 1.11395224,123.406992 0,123.817064 C0.122903904,124.526549 1.22746024,130.904393 3.31366449,142.950178 C5.00942835,143.158137 5.82870824,142.715075 5.77149183,141.620991 C5.71431651,140.526906 5.67609003,139.616144 5.65681237,138.88912 L7.98866905,129.340938 C8.03934998,129.133396 7.91525776,128.923348 7.71150649,128.871985 C7.7083004,128.871149 7.7050532,128.870314 7.701806,128.869479 L6.28701502,128.551276 C5.66215586,127.640931 5.29604478,126.875907 5.18868179,126.255787 C5.10392587,125.76679 5.17573411,125.062734 5.40406543,124.144037 L5.40406543,124.144037 C5.50707142,123.729788 5.26057225,123.308858 4.85352184,123.204043 C4.83683372,123.19945 4.82002229,123.195691 4.80312865,123.192768 Z" id="Path" fill="#263471"></path>
                <path d="M86.1132376,54.2435963 C87.5318285,53.7239263 90.7258288,50.4891507 91.4150713,50.9519287 C92.4350841,51.6367552 91.9670441,54.2618526 91.1822917,55.6472146 C89.7161526,58.237073 88.3475907,59.2479669 84.8385317,60.8209875 C83.0039972,61.6433737 81.0892509,63.0363778 79.0938794,65 L78.0800686,59.7540507 L82.8245544,56.1146628 C83.16194,53.1966142 83.8309229,51.6558607 84.8315029,51.4932515 C85.5517551,51.0139155 84.6950601,54.7636908 86.1132376,54.2435963 Z M75.6245129,43.4736064 C74.9150107,45.3276903 74.2501625,47.3104179 74.8029623,47.7702239 C75.3557621,48.2296054 76.4539193,47.3167864 77.1472964,48.1128495 C77.6095479,48.6435582 75.6877727,49.8658864 71.3819709,51.7802588 L63.9689961,60.9933617 L59,56.8640235 L69.8037834,48.5985541 C71.4262115,45.947558 73.0924666,43.8298181 74.8021354,42.2457588 C75.3454255,41.9150211 76.3340151,41.6195225 75.6245129,43.4736064 Z" id="Shape" fill="#FFCEB5"></path>
                <path d="M51.9511727,56.7789123 C56.1113068,56.1575327 61.5439475,54.5213434 66.9459,50 L70,54.7794931 C66.4784314,59.3351737 61.1950276,63.4105468 56.1478803,63.9694575 C52.1706139,64.4104633 49.4755231,59.9813754 51.9511727,56.7789123 Z" id="Path" fill="#3B55B4"></path>
                <path d="M50.7945869,43 C52.260709,49.641289 55.9381967,56.6704792 59.1296378,63.6770244 C63.7040226,64.1542478 70.935491,61.814679 80.823623,56.6578986 C84.151594,61.6175832 85.876913,65.2441455 86,67.5384242 C77.7246023,73.4441685 70.3637454,76.5939268 64.079165,77.6179861 C64.8050844,81.3166771 64.8475137,84.9289814 63.7729177,88.3861252 C61.5636524,95.4928957 42.2885585,91.9137202 36.2690983,94 C30.6325942,81.9968672 37.4120434,75.841608 36.2917413,67.8110035 C35.0649038,59.0167577 40.2491786,44.4845086 41.2912595,44.3381545 L50.7945869,43 Z" id="Path" fill="#4864C9"></path>
                <path d="M141.623708,29.9782649 C140.126249,33.8751592 141.476706,43.1179792 144.062147,43.4583863 C145.092802,43.5943833 147.145104,42.6905008 149.152772,41.0991702 L148.968098,51 L157,49.9974368 L152.660357,37.3107417 C153.981331,35.2882011 154.754016,32.9148048 154.276155,30.4231575 C152.898673,23.2439674 143.121577,26.0812047 141.623708,29.9782649 Z" id="Path" fill="#FFCEB5"></path>
                <path d="M145.536832,25.5262328 C146.605268,25.222161 149.525436,24.7512741 150.066614,24.6864995 C150.412495,24.645093 150.797183,24.6768653 150.963375,24.344055 C151.099196,24.0715096 150.984043,23.6519095 150.997119,23.3529623 C151.012726,23.0056802 151.052798,22.6598739 151.094135,22.3148055 C151.211819,21.3328141 151.45731,20.3826361 151.852965,19.4707078 C152.595766,17.7598379 153.820693,16.3426267 155.474175,15.4052805 C157.300598,14.3702395 159.45856,13.9248935 161.551987,13.8396616 C163.792623,13.7484442 165.89069,14.2187161 168.069321,14.6367584 C170.145875,15.0350813 172.268406,15.0355733 174.316699,14.4742479 C176.381021,13.9086999 177.831192,12.6118136 179.473285,11.3490775 C181.154185,10.0563729 183.141316,9.10451396 185.30898,9.00899189 C187.332386,8.9198653 189.280711,9.50181195 191.07339,10.3763103 C192.750493,11.1945203 194.182104,12.2491167 195.118515,13.8625787 C196.125789,15.5981695 196.377608,17.6054858 195.303267,19.3746528 C193.745535,21.9390718 190.382892,22.9567302 187.514607,23.2391968 C185.85522,23.4026502 184.193301,23.3041354 182.563862,22.9579601 C180.390715,22.4962565 178.438172,21.5063527 176.365836,20.7616906 C175.39315,20.4122766 174.400217,20.1485455 173.375227,19.9957102 C172.380185,19.8473025 171.417622,19.8398411 170.617877,20.5080446 C169.771733,21.2149079 169.020073,21.899756 168.013221,22.3994225 C167.047283,22.8787547 166.001625,23.2074244 164.923487,23.3283234 C162.825843,23.5636438 160.680112,23.1773329 158.591326,22.9966199 C156.888071,22.8493601 155.068397,22.7171051 153.418289,23.2524797 C152.729479,23.4759111 151.734437,23.886082 151.569089,24.6288583 C155.9563,24.8697543 158.290578,29.8199701 157.556634,33.7471158 C157.160558,35.8666398 153.53513,38.7232825 151.873633,37.8328364 C150.820804,37.2687233 151.295758,36.3057133 151.601146,35.671086 C152.187036,34.455537 152.253259,32.9763799 150.80815,32.3520427 C149.561711,31.8135935 148.543048,33.5687807 148.519849,33.5700106 C148.197167,33.5835394 145.248738,32.4001317 143.070529,30.4186023 C141.209096,30.7510027 140.773792,29.5853876 141.098161,28.5506335 C141.422108,27.5159205 144.060509,25.9465299 145.536832,25.5262328 Z" id="Path" fill="#10173D"></path>
                <path d="M167,80 C166.382762,88.4760576 126.614194,113.43057 126.382106,114.1308 C126.279372,114.441967 130.405381,124.278701 138.760548,143.641 L135.28422,145 C122.468637,124.493963 116.389845,113.1483 117.048259,110.96301 C117.990753,107.835006 128.275828,97.5438772 147.9039,80.0900416 L167,80 Z" id="Path" fill="#FFCEB5"></path>
                <path d="M137.518983,138.932563 L131.858635,141 C119.923206,127.487305 115.244687,116.338227 116.097928,110.65788 C116.666618,106.870843 126.888512,96.6515495 146.763611,80 L167,80 C166.309359,99.5250488 129.549034,114.002936 129.057497,114.834827 C128.56596,115.666717 133.404591,123.815658 137.518983,138.932563 Z" id="Path" fill="#3C57BA"></path>
                <path d="M140.101985,143.262298 C140.776779,144.027531 141.198421,144.632907 141.366911,145.078425 C141.577941,145.636924 141.78897,146.485492 142,147.624527 C141.325206,147.861309 135.2604,149.986333 123.805583,154 C122.765866,152.66545 122.732502,151.75959 123.705907,151.283222 C124.679312,150.806454 125.484644,150.402203 126.121903,150.069667 L133.179716,143.516708 C133.333192,143.374479 133.577169,143.378485 133.725223,143.526324 C133.727308,143.528727 133.72981,143.530731 133.731896,143.533135 L134.724485,144.577217 C135.827177,144.669365 136.673381,144.612073 137.263096,144.40534 C137.728111,144.242277 138.299059,143.844036 138.975938,143.210214 L138.975938,143.210214 C139.281639,142.924153 139.77001,142.930964 140.066953,143.225038 C140.079047,143.237057 140.090725,143.249478 140.101985,143.262298 Z" id="Path" fill="#263471"></path>
                <polygon id="Path" fill="#FFCEB5" points="162.194139 80 180.252239 122.809213 198 159 193.812983 159 148 80"></polygon>
                <path d="M197.454556,157.1342 C197.818185,158.103894 198,158.832608 198,159.321169 C198,159.933108 197.896525,160.826051 197.689156,162 C196.967762,162 190.484855,162 178.240434,162 C177.734788,160.355647 178.026781,159.468067 179.115574,159.336849 C180.204368,159.205631 181.108833,159.087205 181.829388,158.98157 L190.829632,155.033059 C191.024853,154.947231 191.254006,155.034297 191.340724,155.22741 C191.3424,155.230299 191.343657,155.2336 191.344914,155.236488 L191.909209,156.583744 C192.917149,157.046308 193.736572,157.277797 194.36664,157.277797 C194.863907,157.277797 195.545083,157.085921 196.410169,156.70217 L196.410169,156.70217 C196.80061,156.528863 197.259336,156.700932 197.434866,157.086334 C197.441988,157.102014 197.448691,157.118107 197.454556,157.1342 Z" id="Path" fill="#263471"></path>
                <path d="M196,151.281812 L186.678412,153 C179.470811,142.58474 149.307112,99.8799176 146,80 L166.752064,80 C177.796442,94.3714376 189.129651,140.694399 196,151.281812 Z" id="Path" fill="#4864C9"></path>
                <path d="M180.957808,68.4287795 L174.145172,70.6876332 C182.765115,82.9709111 187.378041,89.4754526 187.983535,90.2012579 C189.345895,91.8350543 188.671595,95.2222854 188.484776,96.9853751 C191.033938,97.2578144 189.600686,93.6287881 192.832904,94.0225448 C195.782808,94.3818793 198.433302,95.9153475 200.802316,93.1103558 C201.093804,92.765294 201.218489,91.7851001 200.040028,91.4362602 C197.104302,90.5673089 192.708636,88.8037994 191.933421,88.0036925 C190.876309,86.9122561 187.217911,80.3875649 180.957808,68.4287795 Z M110.619645,66.465873 L110.781027,66.6505777 C112.018285,68.0736429 113.192576,69.5777263 112.83812,70.1712998 C112.467818,70.7904801 111.121721,70.3249405 110.730986,71.3055542 C110.470774,71.9595765 112.701759,72.4263755 117.423941,72.7063709 L127.53635,78.6857636 L130.86156,73.1198574 L117.853458,69.2011807 C115.427314,67.3029208 113.138782,65.9155372 110.987445,65.03861 C110.361935,64.9206509 109.326091,64.9899151 110.619645,66.465873 Z" id="Shape" fill="#FFCEB5"></path>
                <path d="M151.097905,45.1419668 L148.070062,45 C142.376173,52.0177518 141.579129,67.2983875 137.517941,69.8057713 C133.677945,72.177034 127.685636,71.0730336 120.526933,69.4679739 L119,74.3879578 C126.054614,80.3217515 140.025334,84.3527728 145.009061,80.4624656 C152.976561,74.2430682 152.694511,55.5518894 151.097905,45.1419668 Z" id="Path" fill="#5787F0"></path>
                <path d="M169,80.7649781 C156.840971,82.2269779 147.897315,83.3025442 142.168174,83.9912583 C140.942187,84.1386305 140.956777,82.386073 141.025007,81.4943033 C141.811149,71.2025283 148.438431,59.4131664 146.645152,45.1130335 L154.23666,43 C161.895969,52.2618439 165.658466,64.346369 169,80.7649781 Z" id="Path" fill="#D3E1FF"></path>
                <path d="M151.917121,43.3669757 C148.015688,67.1841178 148.027663,82.7284593 151.953047,90 L175.194406,87.107564 C174.148848,81.5587241 172.253052,75.7892818 169.939364,70.2216761 C176.362606,79.1429395 181.62219,85.4861985 185.717291,89.2522869 L191,87.5095692 C184.872421,66.139071 172.827861,51.3024089 154.865907,43 L151.917121,43.3669757 Z" id="Path" fill="#709DFF"></path>
                <path d="M90.5015,44.492646 C90.5005,44.497646 90.4995,44.502646 90.4985,44.509646 C90.4995,44.503646 90.4995,44.483646 90.5015,44.492646 Z" id="Path" fill="#C5CFD6"></path>
                <path d="M90.49928,44.5009694 C90.49928,44.5019694 90.49928,44.5039694 90.49928,44.5059694 C90.49828,44.5009694 90.50328,44.4849694 90.49928,44.5009694 Z" id="Path" fill="#C5CFD6"></path>
                <path d="M90.5116666,44.415461 C90.5096666,44.435461 90.5056666,44.455461 90.5026666,44.475461 C90.5046666,44.465461 90.5056666,44.457461 90.5076666,44.447461 C90.4716666,44.708461 90.4936666,44.538461 90.5116666,44.415461 Z" id="Path" fill="#C5CFD6"></path>
                <path d="M90.5050732,44.4744764 C90.5040732,44.4844764 90.5020732,44.4954764 90.5000732,44.5044764 C90.4860732,44.5654764 90.5050732,44.4744764 90.5050732,44.4744764 Z" id="Path" fill="#C5CFD6"></path>
                <path d="M90.499,44.502 L90.501,44.498 C90.5,44.5 90.501,44.502 90.499,44.502 Z" id="Path" fill="#C5CFD6"></path>
            </g>
        </g>
    </g>
</svg>