<svg width="120" height="120" viewBox="0 0 120 120" fill="none" xmlns="http://www.w3.org/2000/svg">
  <rect width="120" height="120" fill="white" />
  <circle cx="60" cy="60" r="50" fill="#E2EBFF" />
  <path
    d="M97.8313 51.4921C98.5231 49.3941 100.785 48.2542 102.883 48.9461L110.48 51.4516C112.578 52.1434 113.718 54.4051 113.026 56.5031L110.521 64.1006C109.829 66.1986 107.567 67.3385 105.469 66.6466L97.8718 64.1412C95.7738 63.4493 94.6339 61.1877 95.3258 59.0897L97.8313 51.4921Z"
    fill="#4680D7" />
  <g clip-path="url(#clip0_1192_61948)">
    <path
      d="M106.192 61.7988L104.927 61.3815L105.581 59.398C105.737 58.9251 105.928 58.3132 105.278 58.0987C104.618 57.8812 104.348 58.3627 104.172 58.895L103.507 60.9131L102.241 60.4956L103.586 56.4172L104.801 56.818L104.618 57.3736L104.635 57.3791C104.91 57.1151 105.435 56.9128 106.052 57.1163C107.334 57.5391 107.293 58.4617 106.931 59.56L106.193 61.7989L106.192 61.7988ZM102.34 55.3879C102.244 55.3561 102.154 55.3056 102.077 55.2393C102 55.1729 101.937 55.092 101.891 55.0011C101.845 54.9103 101.818 54.8113 101.811 54.7098C101.803 54.6084 101.816 54.5065 101.848 54.4099C101.896 54.2646 101.986 54.1367 102.107 54.0426C102.227 53.9484 102.373 53.8921 102.526 53.8809C102.679 53.8697 102.831 53.9039 102.964 53.9794C103.097 54.0549 103.205 54.1682 103.274 54.3049C103.343 54.4416 103.37 54.5957 103.351 54.7477C103.332 54.8996 103.269 55.0425 103.169 55.1584C103.069 55.2743 102.937 55.358 102.789 55.3988C102.642 55.4396 102.485 55.4358 102.34 55.3877L102.34 55.3879ZM101.446 60.2335L100.176 59.8149L101.521 55.7365L102.791 56.1552L101.446 60.2336L101.446 60.2335ZM109.228 54.7241L101.944 52.3219C101.594 52.2066 101.222 52.3892 101.109 52.7296L98.697 60.0451C98.5847 60.3856 98.7759 60.754 99.1245 60.869L106.408 63.2708C106.756 63.3857 107.132 63.2042 107.244 62.8638L109.657 55.5483C109.769 55.2078 109.575 54.8385 109.226 54.7235L109.228 54.724L109.228 54.7241Z"
      fill="white" />
  </g>
  <rect x="81.7324" y="14.417" width="32.2618" height="17.4751" transform="rotate(15 81.7324 14.417)" fill="white" />
  <rect x="84.5039" y="14.4639" width="32.2618" height="15.4588" transform="rotate(15 84.5039 14.4639)" stroke="#4864C9"
    stroke-width="1.5" stroke-linecap="round" stroke-linejoin="round" />
  <path d="M87.3125 19.7065L110.639 25.9898" stroke="#4864C9" stroke-width="1.5" stroke-linecap="round"
    stroke-linejoin="round" />
  <path d="M86.7403 22.7158L108.559 28.5635" stroke="#4864C9" stroke-width="1.5" stroke-linecap="round"
    stroke-linejoin="round" />
  <rect x="91.9785" y="26.8022" width="5.37696" height="2.01636" rx="1" transform="rotate(15 91.9785 26.8022)"
    fill="#4864C9" />
  <rect x="85.3145" y="24.8638" width="5.37696" height="2.01636" rx="1" transform="rotate(15 85.3145 24.8638)"
    fill="#4864C9" />
  <rect x="98.4707" y="28.5415" width="3.3606" height="2.01636" rx="1" transform="rotate(15 98.4707 28.5415)"
    fill="#4864C9" />
  <rect x="4.5332" y="62.6958" width="32.2618" height="17.4751" transform="rotate(-17.1503 4.5332 62.6958)"
    fill="white" />
  <rect x="6.9043" y="61.2607" width="32.2618" height="15.4588" transform="rotate(-17.1503 6.9043 61.2607)"
    stroke="#4864C9" stroke-width="1.5" stroke-linecap="round" stroke-linejoin="round" />
  <path d="M12.0742 64.2046L35.1675 57.1112" stroke="#4864C9" stroke-width="1.5" stroke-linecap="round"
    stroke-linejoin="round" />
  <path d="M13.1895 67.0571L34.7741 60.3974" stroke="#4864C9" stroke-width="1.5" stroke-linecap="round"
    stroke-linejoin="round" />
  <rect x="19.8008" y="67.729" width="5.37696" height="2.01636" rx="1" transform="rotate(-17.1503 19.8008 67.729)"
    fill="#4864C9" />
  <rect x="13.127" y="69.6343" width="5.37696" height="2.01636" rx="1" transform="rotate(-17.1503 13.127 69.6343)"
    fill="#4864C9" />
  <rect x="26.2227" y="65.7471" width="3.3606" height="2.01636" rx="1" transform="rotate(-17.1503 26.2227 65.7471)"
    fill="#4864C9" />
  <path fill-rule="evenodd" clip-rule="evenodd"
    d="M69.135 82.4609C63.7403 85.6005 51.7835 89.0407 47.114 77.6853L47.4045 76.9014C34.7941 79.4225 26.9362 89.578 24.543 95.3366C47.5225 120.251 76.2849 110.046 88.1973 101.424C86.5702 96.0726 80.6679 85.8707 69.4403 80.2339L69.135 82.4609Z"
    fill="white" />
  <path
    d="M65.7297 43.6075C66.7407 50.6061 61.4879 52.684 58.2578 51.9025C56.1715 50.4276 52.729 50.4851 52.729 50.4851C49.6636 48.7777 49.3008 40.8203 55.4949 37.2781C65.5217 31.5442 73.661 39.3986 76.1185 44.7884C72.4733 48.233 66.5633 45.0662 65.7297 43.6075Z"
    fill="#4864C9" stroke="#4864C9" stroke-width="1.5" stroke-linecap="round" stroke-linejoin="round" />
  <circle cx="49.3493" cy="34.9636" r="7.26531" fill="#4864C9" />
  <circle cx="39.8295" cy="37.0736" r="5.15763" fill="#4864C9" />
  <circle cx="36.6083" cy="43.3617" r="3.2196" fill="#4864C9" />
  <path d="M67.1133 61C68.3386 62.7213 71.5069 65.3237 74.3777 61.9628" stroke="#4864C9" stroke-width="1.5"
    stroke-linecap="round" stroke-linejoin="round" />
  <path d="M71.9102 55.75C72.9184 55.8857 74.5625 56.5177 73.0735 57.9603" stroke="#4864C9" stroke-width="1.5"
    stroke-linecap="round" stroke-linejoin="round" />
  <path d="M66.332 55.5808C66.4216 54.9087 67.0308 53.7125 68.7511 54.3039" stroke="#4864C9" stroke-width="1.5"
    stroke-linecap="round" stroke-linejoin="round" />
  <path d="M72.8298 53.1165C73.0298 52.4686 73.8292 51.3902 75.4274 52.2591" stroke="#4864C9" stroke-width="1.5"
    stroke-linecap="round" stroke-linejoin="round" />
  <path d="M53.541 53.4971L55.7837 54.9664" stroke="#4864C9" stroke-width="1.5" stroke-linecap="round"
    stroke-linejoin="round" />
  <path
    d="M72.7057 41.8438C77.6583 49.1841 85.3883 63.8072 75.8895 69.0385C74.0496 70.0517 72.3491 70.5451 70.802 70.6586M60.5014 62.8036C60.9253 65.5594 64.652 71.1099 70.802 70.6586M70.802 70.6586L69.1363 82.4613C63.7415 85.6008 51.7847 89.041 47.1152 77.6856L54.2665 58.0279C52.8515 57.232 49.0328 55.1793 50.7461 51.8193C52.0709 49.2212 56.4855 51.1118 57.9949 51.8193"
    stroke="#4864C9" stroke-width="1.5" stroke-linecap="round" stroke-linejoin="round" />
  <path d="M36.9551 104.365C37.9695 101.434 40.8395 96.4042 42.7039 95.0654" stroke="#4864C9" stroke-width="1.5"
    stroke-linecap="round" stroke-linejoin="round" />
  <path
    d="M73.359 93.254C70.8149 94.6562 67.9834 94.8672 66.1047 94.7254C65.4369 94.675 64.8297 95.2131 64.946 95.8726C65.5143 99.0941 67.4041 103.585 71.8337 102.964C76.3338 102.333 75.8959 97.1613 74.871 93.7812C74.6813 93.1555 73.9316 92.9384 73.359 93.254Z"
    fill="#4864C9" />
  <path
    d="M30.3949 31.5856L30.225 30.8551L30.3949 31.5856ZM25.0937 18.4111L25.0769 19.1609L25.0769 19.1609L25.0937 18.4111ZM25.2101 35.3008C25.6241 35.3155 25.9716 34.9919 25.9864 34.578C26.0011 34.164 25.6775 33.8165 25.2636 33.8017L25.2101 35.3008ZM27.4025 25.5936L26.654 25.5466L27.4025 25.5936ZM23.9434 22.272C22.89 23.0413 22.052 24.3317 21.719 26.3158L23.1983 26.5641C23.4782 24.896 24.1442 23.9828 24.828 23.4834L23.9434 22.272ZM21.719 26.3158C21.5279 27.4545 21.6089 28.3977 21.9479 29.1521C22.2933 29.9206 22.8732 30.4181 23.5294 30.7105C24.786 31.2705 26.3321 31.0906 27.325 30.8089L26.9156 29.3658C26.0628 29.6078 24.9278 29.6915 24.1399 29.3404C23.7739 29.1773 23.4907 28.9257 23.3161 28.5372C23.1351 28.1345 23.0392 27.5126 23.1983 26.5641L21.719 26.3158ZM27.8688 30.1344L28.151 25.6406L26.654 25.5466L26.3718 30.0404L27.8688 30.1344ZM26.449 30.4219C26.8688 31.2642 28.2797 32.8477 30.5649 32.3161L30.225 30.8551C28.8856 31.1667 28.0447 30.2607 27.7916 29.7529L26.449 30.4219ZM30.5649 32.3161C31.125 32.1857 31.5518 31.7417 31.8543 31.3037C32.1761 30.8378 32.454 30.2383 32.6734 29.5712C33.1126 28.2356 33.3525 26.5207 33.1762 24.8095C32.9997 23.0976 32.3994 21.3322 31.0981 19.9732C29.7838 18.6006 27.8301 17.722 25.1104 17.6613L25.0769 19.1609C27.4723 19.2144 29.022 19.974 30.0147 21.0106C31.0205 22.061 31.5308 23.4761 31.6841 24.9633C31.8374 26.4513 31.6261 27.9543 31.2485 29.1026C31.0594 29.6774 30.8375 30.1364 30.62 30.4513C30.5116 30.6083 30.4144 30.7148 30.336 30.7813C30.2561 30.849 30.2179 30.8567 30.225 30.8551L30.5649 32.3161ZM25.1104 17.6613C22.7545 17.6086 20.9588 18.7194 19.7785 20.3759C18.6147 22.0093 18.0482 24.1646 18.0422 26.2932C18.0361 28.423 18.5907 30.6067 19.7653 32.3C20.9541 34.014 22.7762 35.214 25.2101 35.3008L25.2636 33.8017C23.3544 33.7337 21.9483 32.8155 20.9978 31.4451C20.0329 30.0541 19.5368 28.1873 19.5422 26.2975C19.5475 24.4066 20.0546 22.5733 21.0002 21.2463C21.9292 19.9423 23.2785 19.1207 25.0769 19.1609L25.1104 17.6613ZM24.828 23.4834C25.0887 23.293 25.2929 23.2636 25.445 23.2834C25.6097 23.3048 25.8028 23.3967 25.9998 23.5961C26.4063 24.0078 26.7034 24.7597 26.654 25.5466L28.151 25.6406C28.2244 24.4723 27.8041 23.2885 27.0671 22.5421C26.6923 22.1626 26.207 21.8699 25.6386 21.7959C25.0575 21.7203 24.4738 21.8846 23.9434 22.272L24.828 23.4834Z"
    fill="#4864C9" />
  <path
    d="M107.615 89.6659L107.103 89.118L107.615 89.6659ZM96.4398 80.9029L96.7999 81.5608L96.7999 81.5608L96.4398 80.9029ZM104.98 95.4748C105.346 95.2807 105.485 94.8267 105.291 94.4608C105.097 94.0948 104.643 93.9555 104.277 94.1496L104.98 95.4748ZM102.029 85.9708L101.357 86.3042L102.029 85.9708ZM97.3726 84.8221C96.8446 86.0149 96.7634 87.5513 97.4665 89.4364L98.8719 88.9122C98.2809 87.3275 98.4014 86.2036 98.7442 85.4293L97.3726 84.8221ZM97.4665 89.4364C97.8699 90.5182 98.4114 91.2947 99.0819 91.7788C99.7652 92.2719 100.516 92.4131 101.231 92.3385C102.599 92.1956 103.848 91.2672 104.568 90.5271L103.492 89.4816C102.874 90.1173 101.933 90.757 101.075 90.8466C100.676 90.8882 100.305 90.8118 99.9598 90.5625C99.6018 90.3041 99.208 89.8134 98.8719 88.9122L97.4665 89.4364ZM104.702 89.6711L102.701 85.6375L101.357 86.3042L103.358 90.3377L104.702 89.6711ZM103.615 90.6295C104.4 91.1494 106.413 91.8161 108.127 90.2137L107.103 89.118C106.098 90.0572 104.917 89.6926 104.444 89.3792L103.615 90.6295ZM108.127 90.2137C108.547 89.8209 108.695 89.223 108.738 88.6925C108.784 88.1281 108.725 87.47 108.582 86.7825C108.295 85.4061 107.646 83.8008 106.638 82.4067C105.63 81.0119 104.228 79.7827 102.421 79.2558C100.597 78.7236 98.4658 78.9387 96.0796 80.2451L96.7999 81.5608C98.9016 80.4102 100.623 80.2938 102.001 80.6957C103.397 81.103 104.547 82.0737 105.422 83.2854C106.299 84.4977 106.867 85.9052 107.113 87.0886C107.237 87.6809 107.274 88.1894 107.243 88.5709C107.228 88.761 107.197 88.9019 107.162 88.9986C107.127 89.0972 107.097 89.123 107.103 89.118L108.127 90.2137ZM96.0796 80.2451C94.0126 81.3767 93.0121 83.2361 92.8175 85.2608C92.6256 87.2572 93.2119 89.4072 94.2703 91.2541C95.3292 93.1019 96.9008 94.7163 98.7643 95.5962C100.651 96.4868 102.828 96.6158 104.98 95.4748L104.277 94.1496C102.59 95.0446 100.913 94.9518 99.4047 94.2398C97.8739 93.517 96.5113 92.1478 95.5717 90.5082C94.6315 88.8676 94.1547 87.0262 94.3106 85.4043C94.4638 83.8105 95.2221 82.4246 96.7999 81.5608L96.0796 80.2451ZM98.7442 85.4293C98.8748 85.1342 99.0371 85.0067 99.1787 84.9478C99.3321 84.8841 99.5452 84.8672 99.8155 84.9415C100.373 85.095 101.006 85.5978 101.357 86.3042L102.701 85.6375C102.18 84.5889 101.225 83.7734 100.213 83.4952C99.6991 83.3537 99.1325 83.3427 98.6031 83.5626C98.062 83.7875 97.6385 84.2215 97.3726 84.8221L98.7442 85.4293Z"
    fill="#4864C9" />
  <defs>
    <clipPath id="clip0_1192_61948">
      <rect width="12" height="12" fill="white" transform="translate(100.357 50.2192) rotate(18.2511)" />
    </clipPath>
  </defs>
</svg>