<svg width="120" height="120" viewBox="0 0 120 120" fill="none" xmlns="http://www.w3.org/2000/svg">
  <circle cx="60" cy="60" r="50" fill="#E2EBFF" />
  <rect x="4.13873" y="27.2781" width="51.4626" height="27.8756" transform="rotate(-7.43562 4.13873 27.2781)"
    fill="white" />
  <rect x="8.25243" y="25.6599" width="51.4626" height="24.6592" transform="rotate(-7.43562 8.25243 25.6599)"
    stroke="#4864C9" stroke-width="1.5" stroke-linecap="round" stroke-linejoin="round" />
  <path d="M13.6492 33.4737L13.1132 29.7212L37.7724 25.9688L38.3084 29.7212L13.6492 33.4737Z" stroke="#4864C9"
    stroke-width="1.5" stroke-linecap="round" stroke-linejoin="round" />
  <path d="M20.0821 39.5156L28.6592 38.2985" stroke="#4864C9" stroke-width="1.5" stroke-linecap="round"
    stroke-linejoin="round" />
  <rect x="32.9477" y="36.0908" width="8.57711" height="3.21642" rx="1" transform="rotate(-7.43562 32.9477 36.0908)"
    fill="#4864C9" />
  <rect x="43.5789" y="34.7034" width="5.36069" height="3.21642" rx="1" transform="rotate(-7.43562 43.5789 34.7034)"
    fill="#4864C9" />
  <rect x="51.1741" y="33.6313" width="5.36069" height="3.21642" rx="1" transform="rotate(-7.43562 51.1741 33.6313)"
    fill="#4864C9" />
  <path
    d="M16.3295 43.6592L15.7491 44.1341C15.9208 44.3441 16.1925 44.4449 16.4597 44.3978C16.7268 44.3508 16.9477 44.1631 17.0373 43.9071L16.3295 43.6592ZM15.2574 37.2263L15.1512 36.4838L15.2574 37.2263ZM16.3295 43.6592C16.91 43.1843 16.9101 43.1844 16.9101 43.1844C16.9101 43.1844 16.9102 43.1845 16.9102 43.1845C16.9101 43.1845 16.9101 43.1843 16.9099 43.1842C16.9096 43.1838 16.909 43.183 16.9081 43.1819C16.9063 43.1798 16.9035 43.1762 16.8995 43.1713C16.8916 43.1616 16.8795 43.1464 16.8634 43.1263C16.8314 43.0859 16.784 43.0256 16.7244 42.948C16.6052 42.7927 16.4379 42.5691 16.2483 42.2988C15.866 41.7538 15.4061 41.0381 15.0629 40.3203C14.7042 39.5705 14.5381 38.9498 14.5865 38.5471C14.6072 38.3741 14.6633 38.2747 14.7385 38.2044C14.8215 38.1267 14.9968 38.0212 15.3635 37.9687L15.1512 36.4838C14.5799 36.5655 14.085 36.7616 13.7137 37.109C13.3344 37.4639 13.1518 37.9131 13.0971 38.3684C12.9947 39.2221 13.3312 40.1761 13.7097 40.9675C14.1035 41.7909 14.6152 42.5828 15.0203 43.1602C15.2244 43.4511 15.4047 43.6923 15.5346 43.8615C15.5997 43.9462 15.6522 44.0131 15.6891 44.0594C15.7075 44.0826 15.7219 44.1006 15.7321 44.1132C15.7371 44.1195 15.7411 44.1244 15.744 44.1279C15.7454 44.1296 15.7465 44.131 15.7474 44.1321C15.7478 44.1326 15.7482 44.133 15.7484 44.1334C15.7486 44.1336 15.7487 44.1337 15.7488 44.1338C15.7489 44.134 15.7491 44.1341 16.3295 43.6592ZM15.3635 37.9687C15.6876 37.9224 15.864 37.9725 15.9587 38.0224C16.0502 38.0707 16.1403 38.1582 16.2195 38.3318C16.397 38.7205 16.4422 39.3701 16.3601 40.1794C16.281 40.9582 16.0979 41.7658 15.9301 42.3886C15.8469 42.6976 15.7688 42.9561 15.7119 43.1364C15.6834 43.2264 15.6603 43.2967 15.6446 43.3437C15.6368 43.3672 15.6308 43.3849 15.6268 43.3963C15.6249 43.402 15.6235 43.4061 15.6226 43.4086C15.6222 43.4099 15.6219 43.4107 15.6217 43.4112C15.6216 43.4114 15.6216 43.4115 15.6216 43.4115C15.6216 43.4115 15.6216 43.4115 15.6216 43.4115C15.6216 43.4114 15.6217 43.4113 16.3295 43.6592C17.0373 43.9071 17.0374 43.907 17.0375 43.9068C17.0375 43.9067 17.0376 43.9064 17.0377 43.9062C17.0378 43.9058 17.038 43.9053 17.0382 43.9047C17.0386 43.9034 17.0392 43.9018 17.0399 43.8997C17.0414 43.8956 17.0434 43.8898 17.0459 43.8824C17.051 43.8676 17.0582 43.8464 17.0673 43.8192C17.0854 43.7649 17.1111 43.6867 17.1422 43.5881C17.2044 43.3912 17.2887 43.1119 17.3785 42.7788C17.5567 42.1172 17.7619 41.2228 17.8524 40.3308C17.9399 39.4692 17.9359 38.4794 17.5841 37.7088C17.3987 37.3028 17.1042 36.9307 16.6585 36.6956C16.2159 36.4622 15.7024 36.405 15.1512 36.4838L15.3635 37.9687Z"
    fill="#4864C9" />
  <rect x="69" y="38.8745" width="41.9737" height="22.7358" fill="white" />
  <rect x="72.4978" y="38" width="41.9737" height="20.1124" stroke="#4864C9" stroke-width="1.5" stroke-linecap="round"
    stroke-linejoin="round" />
  <path d="M76.0377 44.8892L76.0003 41.7978L96.3396 41.3657L96.3771 44.4572L76.0377 44.8892Z" stroke="#4864C9"
    stroke-width="1.5" stroke-linecap="round" stroke-linejoin="round" />
  <path d="M80.6026 50.4546L87.6679 50.3755" stroke="#4864C9" stroke-width="1.5" stroke-linecap="round"
    stroke-linejoin="round" />
  <rect x="91.3693" y="49.0427" width="6.99562" height="2.62336" rx="1" fill="#4864C9" />
  <rect x="100.114" y="49.0427" width="4.37227" height="2.62336" rx="1" fill="#4864C9" />
  <rect x="106.37" y="48.9775" width="4.37227" height="2.62336" rx="1" fill="#4864C9" />
  <path
    d="M77.1303 53.4094L76.4933 53.8053C76.6365 54.0356 76.8928 54.1708 77.1638 54.1587C77.4348 54.1466 77.6781 53.9891 77.8001 53.7469L77.1303 53.4094ZM76.9422 48.0936L76.9331 47.3437L76.9422 48.0936ZM77.1303 53.4094C77.7674 53.0136 77.7675 53.0137 77.7675 53.0138C77.7675 53.0138 77.7676 53.0139 77.7676 53.0139C77.7676 53.0139 77.7675 53.0139 77.7675 53.0137C77.7673 53.0134 77.7669 53.0128 77.7664 53.0119C77.7652 53.0101 77.7634 53.0071 77.7608 53.0029C77.7556 52.9944 77.7475 52.9812 77.7369 52.9635C77.7156 52.9281 77.684 52.875 77.6445 52.8067C77.5652 52.6698 77.4545 52.4731 77.3308 52.2365C77.0808 51.7587 76.7883 51.1388 76.5898 50.5323C76.3802 49.8921 76.323 49.4051 76.3942 49.1251C76.4228 49.0128 76.463 48.9688 76.4999 48.9422C76.5457 48.9094 76.6683 48.847 76.9514 48.8435L76.9331 47.3437C76.4433 47.3496 75.9921 47.4605 75.6255 47.7235C75.2501 47.9928 75.0393 48.3673 74.9406 48.7551C74.7573 49.4754 74.9403 50.3149 75.1642 50.999C75.3991 51.7167 75.7333 52.4188 76.0016 52.9318C76.1371 53.1906 76.2584 53.4065 76.3465 53.5585C76.3905 53.6346 76.4264 53.6949 76.4516 53.7368C76.4643 53.7578 76.4742 53.7742 76.4813 53.7857C76.4848 53.7915 76.4876 53.796 76.4896 53.7993C76.4906 53.8009 76.4914 53.8022 76.492 53.8032C76.4924 53.8037 76.4926 53.8042 76.4928 53.8045C76.4929 53.8047 76.4931 53.8049 76.4931 53.8049C76.4932 53.8051 76.4933 53.8053 77.1303 53.4094ZM76.9514 48.8435C77.1972 48.8405 77.3039 48.895 77.3456 48.9244C77.3844 48.9518 77.4327 49.0036 77.4715 49.1299C77.5626 49.426 77.5385 49.9256 77.3878 50.5667C77.244 51.178 77.0137 51.8041 76.8137 52.2867C76.7146 52.5258 76.625 52.7247 76.5606 52.863C76.5285 52.9321 76.5027 52.9858 76.4854 53.0215C76.4767 53.0394 76.4701 53.0527 76.4659 53.0613C76.4638 53.0655 76.4623 53.0686 76.4614 53.0704C76.4609 53.0713 76.4606 53.0719 76.4605 53.0721C76.4604 53.0723 76.4604 53.0723 76.4604 53.0723C76.4604 53.0723 76.4604 53.0722 76.4604 53.0722C76.4605 53.0721 76.4606 53.072 77.1303 53.4094C77.8001 53.7469 77.8002 53.7467 77.8003 53.7466C77.8004 53.7465 77.8005 53.7463 77.8005 53.7461C77.8007 53.7457 77.8009 53.7453 77.8012 53.7448C77.8017 53.7438 77.8024 53.7424 77.8032 53.7407C77.8049 53.7374 77.8072 53.7328 77.8101 53.7269C77.8159 53.7152 77.8241 53.6985 77.8345 53.6772C77.8552 53.6345 77.8846 53.5733 77.9205 53.4961C77.9923 53.3419 78.0908 53.1231 78.1994 52.861C78.4147 52.3414 78.6782 51.632 78.8479 50.91C79.0107 50.2177 79.1198 49.3861 78.9052 48.6888C78.7912 48.3184 78.577 47.9579 78.2112 47.6994C77.8483 47.443 77.4083 47.3379 76.9331 47.3437L76.9514 48.8435Z"
    fill="#4864C9" />
  <rect x="15.2263" y="69.6135" width="41.9737" height="22.7358" transform="rotate(-15 15.2263 69.6135)" fill="white" />
  <rect x="18.3786" y="67.8635" width="41.9737" height="20.1124" transform="rotate(-15 18.3786 67.8635)"
    stroke="#4864C9" stroke-width="1.5" stroke-linecap="round" stroke-linejoin="round" />
  <path d="M23.581 73.6019L22.7447 70.6255L42.2792 64.944L43.1155 67.9203L23.581 73.6019Z" stroke="#4864C9"
    stroke-width="1.5" stroke-linecap="round" stroke-linejoin="round" />
  <path d="M29.4307 77.7959L36.2348 75.8909" stroke="#4864C9" stroke-width="1.5" stroke-linecap="round"
    stroke-linejoin="round" />
  <rect x="39.4652" y="73.6458" width="6.99562" height="2.62336" rx="1" transform="rotate(-15 39.4652 73.6458)"
    fill="#4864C9" />
  <rect x="47.9116" y="71.3823" width="4.37227" height="2.62336" rx="1" transform="rotate(-15 47.9116 71.3823)"
    fill="#4864C9" />
  <rect x="53.9374" y="69.7002" width="4.37227" height="2.62336" rx="1" transform="rotate(-15 53.9374 69.7002)"
    fill="#4864C9" />
  <path
    d="M26.8416 81.5489L26.3287 82.0962C26.5266 82.2816 26.8092 82.3458 27.0678 82.264C27.3264 82.1822 27.5207 81.9671 27.5759 81.7016L26.8416 81.5489ZM25.284 76.4629L25.0811 75.7409L25.284 76.4629ZM26.8416 81.5489C27.3545 81.0017 27.3546 81.0018 27.3546 81.0019C27.3546 81.0019 27.3547 81.002 27.3547 81.002C27.3547 81.002 27.3547 81.0019 27.3546 81.0018C27.3543 81.0016 27.3538 81.0011 27.353 81.0004C27.3515 80.9989 27.3489 80.9965 27.3453 80.9931C27.3381 80.9862 27.3269 80.9755 27.3121 80.9612C27.2823 80.9325 27.2381 80.8894 27.1822 80.8336C27.0702 80.722 26.9124 80.5606 26.7316 80.3641C26.3665 79.9672 25.9235 79.4443 25.5748 78.9098C25.2067 78.3456 25.0253 77.89 25.0217 77.6011C25.0202 77.4852 25.0476 77.4323 25.0765 77.3971C25.1122 77.3535 25.2144 77.2616 25.487 77.1849L25.0811 75.7409C24.6096 75.8734 24.2024 76.0973 23.9164 76.4462C23.6235 76.8035 23.5168 77.2198 23.5218 77.62C23.5312 78.3631 23.9252 79.1267 24.3186 79.7295C24.7313 80.362 25.2357 80.9536 25.6277 81.3797C25.8255 81.5947 25.9986 81.7718 26.123 81.8958C26.1852 81.9579 26.2355 82.0068 26.2707 82.0408C26.2883 82.0578 26.3022 82.0711 26.312 82.0804C26.3169 82.085 26.3208 82.0887 26.3236 82.0913C26.325 82.0927 26.3261 82.0937 26.327 82.0945C26.3274 82.0949 26.3277 82.0953 26.328 82.0955C26.3282 82.0957 26.3283 82.0958 26.3284 82.0959C26.3286 82.096 26.3287 82.0962 26.8416 81.5489ZM25.487 77.1849C25.7237 77.1184 25.8408 77.1434 25.8887 77.1611C25.9333 77.1775 25.9933 77.215 26.0635 77.3269C26.2282 77.5894 26.3341 78.0782 26.3545 78.7364C26.3738 79.3641 26.3134 80.0285 26.2451 80.5464C26.2113 80.803 26.1763 81.0184 26.1499 81.1686C26.1367 81.2436 26.1257 81.3022 26.1182 81.3412C26.1144 81.3607 26.1115 81.3753 26.1096 81.3846C26.1087 81.3893 26.108 81.3926 26.1076 81.3946C26.1074 81.3956 26.1073 81.3962 26.1072 81.3965C26.1072 81.3966 26.1072 81.3967 26.1072 81.3967C26.1072 81.3967 26.1072 81.3966 26.1072 81.3966C26.1072 81.3965 26.1073 81.3963 26.8416 81.5489C27.5759 81.7016 27.5759 81.7014 27.576 81.7012C27.576 81.7011 27.576 81.7009 27.5761 81.7007C27.5762 81.7003 27.5762 81.6998 27.5764 81.6992C27.5766 81.6981 27.5769 81.6966 27.5773 81.6948C27.578 81.6911 27.5791 81.6861 27.5803 81.6797C27.5829 81.6668 27.5865 81.6486 27.591 81.6253C27.6 81.5788 27.6125 81.512 27.6272 81.4282C27.6567 81.2606 27.6952 81.0238 27.7323 80.7426C27.8058 80.1849 27.8766 79.4315 27.8537 78.6901C27.8318 77.9793 27.7219 77.1478 27.3342 76.5298C27.1282 76.2015 26.828 75.9087 26.4077 75.7537C25.9908 75.5999 25.5386 75.6123 25.0811 75.7409L25.487 77.1849Z"
    fill="#4864C9" />
  <rect x="71.9483" y="69.7046" width="35.404" height="19.1772" transform="rotate(17.2867 71.9483 69.7046)"
    fill="white" />
  <rect x="74.9846" y="69.8767" width="35.404" height="16.9644" transform="rotate(17.2867 74.9846 69.8767)"
    stroke="#4864C9" stroke-width="1.5" stroke-linecap="round" stroke-linejoin="round" />
  <path d="M76.1089 76.3126L76.8536 73.8134L93.3427 78.5634L92.5981 81.0625L76.1089 76.3126Z" stroke="#4864C9"
    stroke-width="1.5" stroke-linecap="round" stroke-linejoin="round" />
  <path d="M78.3903 81.9392L84.1004 83.6464" stroke="#4864C9" stroke-width="1.5" stroke-linecap="round"
    stroke-linejoin="round" />
  <rect x="87.4155" y="83.5007" width="5.90066" height="2.21275" rx="1" transform="rotate(17.2867 87.4155 83.5007)"
    fill="#4864C9" />
  <rect x="94.4581" y="85.6921" width="3.68791" height="2.21275" rx="1" transform="rotate(17.2867 94.4581 85.6921)"
    fill="#4864C9" />
  <rect x="99.5127" y="87.2075" width="3.68791" height="2.21275" rx="1" transform="rotate(17.2867 99.5127 87.2075)"
    fill="#4864C9" />
  <path
    d="M74.8533 83.4486L74.1274 83.6372C74.1956 83.8997 74.4003 84.105 74.6626 84.1739C74.9249 84.2429 75.204 84.1648 75.3925 83.9698L74.8533 83.4486ZM76.0341 79.1202L76.2483 78.4014L76.0341 79.1202ZM74.8533 83.4486C75.5792 83.2599 75.5792 83.26 75.5792 83.2602C75.5792 83.2602 75.5792 83.2603 75.5792 83.2603C75.5793 83.2603 75.5793 83.2603 75.5792 83.2602C75.5792 83.26 75.579 83.2595 75.5788 83.2587C75.5784 83.2571 75.5777 83.2543 75.5767 83.2504C75.5747 83.2425 75.5716 83.2301 75.5676 83.2135C75.5594 83.1803 75.5475 83.1302 75.5329 83.066C75.5037 82.9373 75.4642 82.7527 75.4242 82.5331C75.3432 82.0887 75.2641 81.5233 75.2564 80.9942C75.2481 80.4297 75.3253 80.0524 75.4343 79.875C75.4738 79.8107 75.4967 79.806 75.5022 79.8042C75.518 79.7989 75.6067 79.7754 75.82 79.8389L76.2483 78.4014C75.8368 78.2788 75.4199 78.2509 75.0295 78.3806C74.6287 78.5137 74.3446 78.7832 74.1562 79.0898C73.8095 79.6542 73.7476 80.4055 73.7566 81.0162C73.766 81.6623 73.8604 82.3185 73.9485 82.802C73.993 83.0464 74.037 83.2523 74.0701 83.3981C74.0867 83.4711 74.1006 83.5293 74.1106 83.57C74.1155 83.5904 74.1195 83.6064 74.1224 83.6177C74.1238 83.6233 74.125 83.6278 74.1258 83.6311C74.1262 83.6327 74.1266 83.634 74.1268 83.6351C74.127 83.6356 74.1271 83.636 74.1272 83.6364C74.1272 83.6366 74.1273 83.6368 74.1273 83.6369C74.1273 83.637 74.1274 83.6372 74.8533 83.4486ZM75.82 79.8389C76.0016 79.893 76.0501 79.9521 76.0576 79.9618C76.0629 79.9687 76.0836 79.9956 76.0833 80.0871C76.0826 80.3155 75.9519 80.689 75.672 81.164C75.4075 81.6126 75.0695 82.0537 74.7894 82.3898C74.651 82.556 74.5301 82.6925 74.4445 82.7868C74.4018 82.8338 74.368 82.8701 74.3455 82.8941C74.3342 82.9061 74.3258 82.915 74.3204 82.9206C74.3178 82.9234 74.3159 82.9254 74.3148 82.9265C74.3142 82.9271 74.3139 82.9274 74.3138 82.9276C74.3137 82.9276 74.3137 82.9276 74.3137 82.9276C74.3138 82.9276 74.3138 82.9275 74.3138 82.9275C74.3139 82.9274 74.314 82.9273 74.8533 83.4486C75.3925 83.9698 75.3926 83.9697 75.3928 83.9695C75.3928 83.9695 75.393 83.9693 75.3931 83.9692C75.3934 83.9689 75.3937 83.9686 75.394 83.9682C75.3948 83.9675 75.3957 83.9665 75.3968 83.9653C75.3991 83.963 75.4022 83.9597 75.4061 83.9556C75.4139 83.9474 75.4249 83.9358 75.4388 83.921C75.4666 83.8915 75.506 83.849 75.5548 83.7953C75.6522 83.6881 75.7875 83.5353 75.9419 83.35C76.2476 82.9831 76.642 82.4723 76.9642 81.9257C77.2709 81.4054 77.5812 80.7401 77.5833 80.0919C77.5844 79.745 77.497 79.374 77.2481 79.0493C77.0014 78.7274 76.6496 78.5209 76.2483 78.4014L75.82 79.8389Z"
    fill="#4864C9" />
  <circle cx="92.5" cy="15.5" r="6.5" fill="#4864C9" />
  <circle cx="92.5" cy="13.206" r="1.91176" fill="white" />
  <path
    d="M95.3055 18.7176C93.3929 20.0841 91.2026 19.474 89.8324 18.6955C89.3755 18.436 89.285 17.8327 89.6331 17.439C91.863 14.9171 94.1488 16.1502 95.4188 17.5267C95.7466 17.8819 95.6987 18.4367 95.3055 18.7176Z"
    fill="white" />
  <circle cx="51.5" cy="107.5" r="6.5" fill="#4864C9" />
  <circle cx="51.5" cy="105.206" r="1.91176" fill="white" />
  <path
    d="M54.3055 110.718C52.3929 112.084 50.2026 111.474 48.8324 110.696C48.3755 110.436 48.285 109.833 48.6331 109.439C50.863 106.917 53.1488 108.15 54.4188 109.527C54.7466 109.882 54.6987 110.437 54.3055 110.718Z"
    fill="white" />
  <path d="M52.7608 98C53.4009 95.0385 53.1449 88.6923 47 87" stroke="#4864C9" stroke-width="1.5" stroke-linecap="round"
    stroke-linejoin="round" />
  <path d="M84 20.5C81.3333 21.6667 76.5 26 78.5 34" stroke="#4864C9" stroke-width="1.5" stroke-linecap="round"
    stroke-linejoin="round" />
  <path
    d="M66.8388 11.7533C67.5872 10.9298 68.0448 9.82713 68.0448 8.61538C68.0448 6.06638 66.0201 4 63.5224 4C61.0247 4 59 6.06638 59 8.61538C59 11.1644 61.0247 13.2308 63.5224 13.2308C64.8327 13.2308 66.0129 12.662 66.8388 11.7533ZM66.8388 11.7533L71 16"
    stroke="#4864C9" stroke-width="1.5" stroke-linecap="round" stroke-linejoin="round" />
</svg>