<svg width="120" height="120" viewBox="0 0 120 120" fill="none" xmlns="http://www.w3.org/2000/svg">
  <circle cx="60" cy="60" r="50" fill="#E2EBFF" />
  <path d="M67.439 28L28 44.3453L51.561 99L91 81.1223L67.439 28Z" fill="white" />
  <path d="M68.5 24L30 40L53 93.5L91.5 76L68.5 24Z" stroke="#4864C9" stroke-width="1.5" stroke-linecap="round"
    stroke-linejoin="round" />
  <path d="M53 50L67.5 43.5" stroke="#4864C9" stroke-width="1.5" stroke-linecap="round" stroke-linejoin="round" />
  <path d="M54.5 53.5L60 51" stroke="#4864C9" stroke-width="1.5" stroke-linecap="round" stroke-linejoin="round" />
  <path
    d="M42.4385 56.1124L42.337 55.6345C41.877 53.4689 43.1753 51.3177 45.3057 50.7155C47.6453 50.0542 50.0564 51.5094 50.5615 53.8876L50.6631 54.3655C51.123 56.5311 49.8247 58.6823 47.6944 59.2845C45.3548 59.9458 42.9436 58.4906 42.4385 56.1124Z"
    fill="#4864C9" />
  <path
    d="M45.5234 57.444C45.9329 55.2367 47.8111 55.4845 48.9336 55.8891C49.1749 55.9761 49.2895 56.2464 49.1656 56.471C48.7128 57.2915 47.6602 58.2963 45.8695 57.9527C45.6339 57.9075 45.4796 57.6799 45.5234 57.444Z"
    fill="white" />
  <circle cx="45.8028" cy="53.3375" r="1.5" transform="rotate(10.9408 45.8028 53.3375)" fill="white" />
  <path d="M58.0388 61.5L72.5388 55" stroke="#4864C9" stroke-width="1.5" stroke-linecap="round"
    stroke-linejoin="round" />
  <path d="M59.5388 65L65.0388 62.5" stroke="#4864C9" stroke-width="1.5" stroke-linecap="round"
    stroke-linejoin="round" />
  <path
    d="M47.4773 67.6124L47.3758 67.1345C46.9159 64.9689 48.2142 62.8177 50.3445 62.2155C52.6841 61.5542 55.0952 63.0094 55.6004 65.3876L55.7019 65.8655C56.1618 68.0311 54.8635 70.1823 52.7332 70.7845C50.3936 71.4458 47.9825 69.9906 47.4773 67.6124Z"
    fill="#4864C9" />
  <path
    d="M50.5624 68.9426C50.9732 66.7331 52.8565 66.9854 53.978 67.3912C54.2168 67.4776 54.332 67.744 54.2118 67.9678C53.7704 68.7894 52.7255 69.7979 50.91 69.4521C50.6737 69.4071 50.5185 69.1791 50.5624 68.9426Z"
    fill="white" />
  <circle cx="50.8416" cy="64.8375" r="1.5" transform="rotate(10.9408 50.8416 64.8375)" fill="white" />
  <path d="M64.0388 73.5L78.5388 67" stroke="#4864C9" stroke-width="1.5" stroke-linecap="round"
    stroke-linejoin="round" />
  <path d="M65.5388 77L71.0388 74.5" stroke="#4864C9" stroke-width="1.5" stroke-linecap="round"
    stroke-linejoin="round" />
  <path
    d="M53.4773 79.6124L53.3758 79.1345C52.9159 76.9689 54.2142 74.8177 56.3445 74.2155C58.6841 73.5542 61.0952 75.0094 61.6004 77.3876L61.7019 77.8655C62.1618 80.0311 60.8635 82.1823 58.7332 82.7845C56.3936 83.4458 53.9825 81.9906 53.4773 79.6124Z"
    fill="#4864C9" />
  <path
    d="M56.5624 80.9426C56.9732 78.7331 58.8565 78.9854 59.978 79.3912C60.2168 79.4776 60.332 79.744 60.2118 79.9678C59.7704 80.7894 58.7255 81.7979 56.91 81.4521C56.6737 81.4071 56.5185 81.1791 56.5624 80.9426Z"
    fill="white" />
  <circle cx="56.8416" cy="76.8375" r="1.5" transform="rotate(10.9408 56.8416 76.8375)" fill="white" />
  <circle cx="14.5" cy="70.5" r="6.5" fill="#4864C9" />
  <circle cx="14.4999" cy="68.206" r="1.91176" fill="white" />
  <path
    d="M17.3055 73.7176C15.3929 75.0841 13.2026 74.474 11.8324 73.6955C11.3755 73.436 11.2851 72.8327 11.6331 72.439C13.863 69.9171 16.1488 71.1502 17.4188 72.5267C17.7466 72.8819 17.6988 73.4367 17.3055 73.7176Z"
    fill="white" />
  <circle cx="97.5" cy="92.5" r="6.5" fill="#4864C9" />
  <circle cx="97.4999" cy="90.206" r="1.91176" fill="white" />
  <path
    d="M100.306 95.7176C98.3929 97.0841 96.2026 96.474 94.8324 95.6955C94.3755 95.436 94.2851 94.8327 94.6331 94.439C96.863 91.9171 99.1488 93.1502 100.419 94.5267C100.747 94.8819 100.699 95.4367 100.306 95.7176Z"
    fill="white" />
  <path d="M39.5 47L38 43L65 32L66.5 35.5L39.5 47Z" stroke="#4864C9" stroke-width="1.5" stroke-linecap="round"
    stroke-linejoin="round" />
  <path d="M18 79C21.5256 82.3651 30.8615 87.4128 40 80.6826" stroke="#4864C9" stroke-width="1.5" stroke-linecap="round"
    stroke-linejoin="round" />
  <path
    d="M30.8388 25.7533C31.5872 24.9298 32.0448 23.8271 32.0448 22.6154C32.0448 20.0664 30.0201 18 27.5224 18C25.0247 18 23 20.0664 23 22.6154C23 25.1644 25.0247 27.2308 27.5224 27.2308C28.8327 27.2308 30.0129 26.662 30.8388 25.7533ZM30.8388 25.7533L35 30"
    stroke="#4864C9" stroke-width="1.5" stroke-linecap="round" stroke-linejoin="round" />
  <path
    d="M104.161 71.7533C103.413 70.9298 102.955 69.8271 102.955 68.6154C102.955 66.0664 104.98 64 107.478 64C109.975 64 112 66.0664 112 68.6154C112 71.1644 109.975 73.2308 107.478 73.2308C106.167 73.2308 104.987 72.662 104.161 71.7533ZM104.161 71.7533L100 76"
    stroke="#4864C9" stroke-width="1.5" stroke-linecap="round" stroke-linejoin="round" />
  <circle cx="82" cy="26" r="18" fill="white" stroke="#4864C9" stroke-width="1.5" stroke-linecap="round"
    stroke-linejoin="round" />
  <circle cx="82" cy="26" r="10" stroke="#4864C9" stroke-width="1.5" stroke-linecap="round" stroke-linejoin="round" />
  <path d="M81 22L81.5 28L86 25.5" stroke="#4864C9" stroke-width="1.5" stroke-linecap="round" stroke-linejoin="round" />
</svg>