<svg width="120" height="120" viewBox="0 0 120 120" fill="none" xmlns="http://www.w3.org/2000/svg">
  <circle cx="60" cy="60" r="50" fill="#E2EBFF" />
  <circle cx="28.5" cy="30.5" r="12.5" fill="white" />
  <circle cx="30.5" cy="28.5" r="12.5" stroke="#4864C9" stroke-width="1.5" stroke-linecap="round"
    stroke-linejoin="round" />
  <path d="M27 29.68L28.8462 22L33 34" stroke="#4864C9" stroke-width="1.5" stroke-linecap="round"
    stroke-linejoin="round" />
  <circle cx="75.3093" cy="43.3093" r="12.5" transform="rotate(15 75.3093 43.3093)" fill="white" />
  <circle cx="77.3093" cy="41.3093" r="12.5" transform="rotate(15 77.3093 41.3093)" stroke="#4864C9" stroke-width="1.5"
    stroke-linecap="round" stroke-linejoin="round" />
  <path
    d="M73.2543 37.9199C73.2101 38.3317 73.5081 38.7014 73.9199 38.7456C74.3318 38.7898 74.7015 38.4918 74.7457 38.08L73.2543 37.9199ZM78.5136 34.9028L78.2661 35.6108L78.5136 34.9028ZM74.2016 46.1707L73.6073 45.7131C73.4544 45.9117 73.4108 46.1736 73.4912 46.4111C73.5715 46.6486 73.7653 46.8302 74.0074 46.8951L74.2016 46.1707ZM80.0384 48.5111C80.4385 48.6183 80.8498 48.3809 80.957 47.9808C81.0642 47.5807 80.8268 47.1694 80.4267 47.0622L80.0384 48.5111ZM74.7457 38.08C74.8384 37.2167 75.0696 36.3503 75.5564 35.835C75.7817 35.5965 76.0711 35.4227 76.4733 35.3574C76.8885 35.2899 77.4678 35.3318 78.2661 35.6108L78.761 34.1947C77.8026 33.8598 76.9633 33.7581 76.2328 33.8768C75.4893 33.9975 74.9059 34.3393 74.466 34.8049C73.6225 35.6979 73.3537 36.9941 73.2543 37.9199L74.7457 38.08ZM78.2661 35.6108C78.7711 35.7872 79.0593 35.9998 79.2227 36.1991C79.3789 36.3896 79.4605 36.6151 79.4689 36.9039C79.4873 37.5365 79.1531 38.4096 78.4942 39.4797C77.8523 40.5223 76.9786 41.6338 76.0817 42.7175C75.2016 43.7811 74.2783 44.8418 73.6073 45.7131L74.7958 46.6283C75.4466 45.7831 76.3179 44.785 77.2374 43.6738C78.1402 42.5828 79.0712 41.4036 79.7715 40.2661C80.4549 39.1561 81.0003 37.9599 80.9683 36.8602C80.9514 36.2829 80.7751 35.7265 80.3825 35.2479C79.9971 34.7779 79.4454 34.4339 78.761 34.1947L78.2661 35.6108ZM74.0074 46.8951L80.0384 48.5111L80.4267 47.0622L74.3957 45.4462L74.0074 46.8951Z"
    fill="#4864C9" />
  <circle cx="44.3092" cy="81.3093" r="12.5" transform="rotate(15 44.3092 81.3093)" fill="white" />
  <circle cx="46.3093" cy="79.3093" r="12.5" transform="rotate(15 46.3093 79.3093)" stroke="#4864C9" stroke-width="1.5"
    stroke-linecap="round" stroke-linejoin="round" />
  <path d="M41 75.5L48 73.5L44.5 80C48 79.1667 53.4 79.3 47 86.5" stroke="#4864C9" stroke-width="1.5"
    stroke-linecap="round" stroke-linejoin="round" />
  <circle cx="88.3095" cy="88.3091" r="12.5" transform="rotate(51.8821 88.3095 88.3091)" fill="white" />
  <circle cx="90.3095" cy="86.3091" r="12.5" transform="rotate(51.8821 90.3095 86.3091)" stroke="#4864C9"
    stroke-width="1.5" stroke-linecap="round" stroke-linejoin="round" />
  <path d="M89.6843 93L94.1054 79L84.0001 84.4783L96.0001 88.7391" stroke="#4864C9" stroke-width="1.5"
    stroke-linecap="round" stroke-linejoin="round" />
  <path d="M47 22C51.3333 20.6667 61.4 19.9 67 27.5" stroke="#4864C9" stroke-width="1.5" stroke-linecap="round"
    stroke-linejoin="round" />
  <path d="M62.5 51.9999C55 50.1666 39.3 50.5999 36.5 66.9999" stroke="#4864C9" stroke-width="1.5"
    stroke-linecap="round" stroke-linejoin="round" />
  <path d="M54 95C57.8333 97.8333 67.8 102.4 77 98" stroke="#4864C9" stroke-width="1.5" stroke-linecap="round"
    stroke-linejoin="round" />
  <path
    d="M5.03528 56.0048C4.46351 53.871 5.72984 51.6776 7.8637 51.1058L15.5911 49.0353C17.725 48.4635 19.9183 49.7298 20.4901 51.8637L22.5606 59.5911C23.1324 61.725 21.8661 63.9183 19.7322 64.4901L12.0048 66.5607C9.87094 67.1324 7.6776 65.8661 7.10583 63.7322L5.03528 56.0048Z"
    fill="#C35CC5" />
  <g clip-path="url(#clip0_712_22001)">
    <path
      d="M8.28655 54.6157L16.9799 52.2863C17.108 52.252 17.2445 52.27 17.3593 52.3363C17.4741 52.4026 17.5579 52.5118 17.5923 52.6399L19.6628 60.3673C19.6971 60.4954 19.6792 60.6319 19.6129 60.7467C19.5466 60.8615 19.4373 60.9453 19.3093 60.9797L10.6159 63.309C10.4878 63.3434 10.3514 63.3254 10.2365 63.2591C10.1217 63.1928 10.0379 63.0836 10.0036 62.9555L7.933 55.2281C7.89868 55.1 7.91664 54.9635 7.98295 54.8487C8.04925 54.7338 8.15846 54.65 8.28655 54.6157ZM13.7859 57.6368L9.98447 55.8369L9.55625 56.7405L14.133 58.9073L16.9454 54.758L16.1179 54.1965L13.7863 57.6367L13.7859 57.6368Z"
      fill="white" />
  </g>
  <path
    d="M76.7583 7.79877C77.4501 5.70077 79.7118 4.56087 81.8098 5.25273L89.4073 7.75819C91.5053 8.45006 92.6452 10.7117 91.9533 12.8097L89.4479 20.4072C88.756 22.5052 86.4944 23.6451 84.3964 22.9533L76.7988 20.4478C74.7008 19.756 73.5609 17.4943 74.2528 15.3963L76.7583 7.79877Z"
    fill="#4680D7" />
  <g clip-path="url(#clip1_712_22001)">
    <path
      d="M85.1186 18.1054L83.8531 17.6881L84.5072 15.7047C84.6632 15.2317 84.8544 14.6198 84.2039 14.4053C83.5443 14.1878 83.2739 14.6693 83.0984 15.2016L82.4329 17.2197L81.1669 16.8023L82.5119 12.7238L83.7275 13.1247L83.5443 13.6802L83.5609 13.6857C83.8364 13.4217 84.3612 13.2194 84.9785 13.423C86.2606 13.8458 86.2196 14.7683 85.8574 15.8667L85.1191 18.1056L85.1186 18.1054ZM81.2666 11.6945C81.1699 11.6628 81.0805 11.6123 81.0034 11.5459C80.9263 11.4796 80.8631 11.3986 80.8173 11.3078C80.7716 11.2169 80.7442 11.1179 80.7368 11.0165C80.7294 10.915 80.742 10.8131 80.7741 10.7166C80.8221 10.5712 80.9122 10.4434 81.0329 10.3492C81.1536 10.255 81.2995 10.1988 81.4521 10.1875C81.6048 10.1763 81.7574 10.2106 81.8906 10.2861C82.0238 10.3615 82.1316 10.4748 82.2004 10.6115C82.2692 10.7483 82.2959 10.9024 82.2772 11.0543C82.2584 11.2062 82.195 11.3492 82.095 11.4651C81.995 11.581 81.8629 11.6646 81.7153 11.7054C81.5678 11.7463 81.4115 11.7424 81.2661 11.6944L81.2666 11.6945ZM80.372 16.5401L79.1028 16.1216L80.4477 12.0431L81.7175 12.4618L80.3725 16.5403L80.372 16.5401ZM88.1545 11.0308L80.8698 8.62852C80.5204 8.51327 80.1479 8.69582 80.0357 9.03629L77.6232 16.3518C77.5109 16.6922 77.7022 17.0607 78.0507 17.1756L85.3339 19.5774C85.6825 19.6923 86.0582 19.5109 86.1705 19.1704L88.5829 11.8549C88.6952 11.5145 88.5011 11.1451 88.1526 11.0302L88.154 11.0306L88.1545 11.0308Z"
      fill="white" />
  </g>
  <path
    d="M97.1058 23.8637C97.6776 21.7298 99.871 20.4635 102.005 21.0353L109.732 23.1058C111.866 23.6776 113.132 25.8709 112.561 28.0048L110.49 35.7322C109.918 37.8661 107.725 39.1324 105.591 38.5606L97.8637 36.4901C95.7298 35.9183 94.4635 33.725 95.0353 31.5911L97.1058 23.8637Z"
    fill="#5A5270" />
  <g clip-path="url(#clip2_712_22001)">
    <path
      d="M107.573 33.0974L107.115 34.8051C107.082 34.9274 107.004 35.0327 106.897 35.0999C106.79 35.167 106.661 35.1909 106.537 35.1668C106.322 35.1247 106.147 35.0862 106.014 35.0505C101.746 33.9069 99.2136 29.5205 100.357 25.2525C100.393 25.1192 100.446 24.9488 100.518 24.7417C100.559 24.622 100.644 24.5225 100.756 24.4631C100.868 24.4037 100.998 24.3889 101.12 24.4217L102.828 24.8793C102.888 24.8953 102.94 24.933 102.973 24.9851C103.007 25.0371 103.02 25.0999 103.01 25.1611C102.992 25.2752 102.978 25.3663 102.97 25.436C102.886 26.1315 102.908 26.8357 103.035 27.5246C103.055 27.6335 102.994 27.7409 102.891 27.7795L101.649 28.2449C101.889 29.9005 102.755 31.4009 104.069 32.436L105.091 31.595C105.133 31.5606 105.186 31.542 105.24 31.5424C105.294 31.5428 105.346 31.5622 105.387 31.5972C105.921 32.0511 106.519 32.4218 107.163 32.6968C107.228 32.7244 107.313 32.7587 107.421 32.7989C107.479 32.8209 107.526 32.8637 107.554 32.9188C107.583 32.974 107.589 33.0377 107.573 33.0975L107.573 33.0974Z"
      fill="white" />
  </g>
  <path
    d="M22.1058 93.8637C22.6776 91.7298 24.871 90.4635 27.0048 91.0353L34.7322 93.1058C36.8661 93.6776 38.1324 95.8709 37.5607 98.0048L35.4901 105.732C34.9183 107.866 32.725 109.132 30.5911 108.561L22.8637 106.49C20.7298 105.918 19.4635 103.725 20.0353 101.591L22.1058 93.8637Z"
    fill="#6555C6" />
  <g clip-path="url(#clip3_712_22001)">
    <path
      d="M29.3503 95.8053L34.1799 97.0994L33.9211 98.0653L29.0915 96.7712L29.3503 95.8053ZM28.8326 97.7371L31.7304 98.5136L31.4716 99.4795L28.5738 98.7031L28.8326 97.7371ZM28.0562 100.635L32.8858 101.929L32.627 102.895L27.7974 101.601L28.0562 100.635ZM27.5385 102.567L30.4363 103.343L30.1775 104.309L27.2797 103.533L27.5385 102.567ZM25.4866 94.77L28.3843 95.5465L27.6079 98.4443L24.7101 97.6678L25.4866 94.77ZM26.1937 95.9948L25.9349 96.9607L26.9008 97.2195L27.1596 96.2536L26.1937 95.9948ZM24.1925 99.5996L27.0903 100.376L26.3138 103.274L23.416 102.497L24.1925 99.5996ZM24.8996 100.824L24.6408 101.79L25.6067 102.049L25.8655 101.083L24.8996 100.824Z"
      fill="white" />
  </g>
  <path
    d="M94.0353 57.0048C93.4635 54.871 94.7298 52.6776 96.8637 52.1058L104.591 50.0353C106.725 49.4635 108.918 50.7298 109.49 52.8637L111.561 60.5911C112.132 62.725 110.866 64.9183 108.732 65.4901L101.005 67.5607C98.8709 68.1324 96.6776 66.8661 96.1058 64.7322L94.0353 57.0048Z"
    fill="#E76E67" />
  <g clip-path="url(#clip4_712_22001)">
    <path
      d="M101.026 62.896L99.3271 65.1629L96.933 56.2281C96.8987 56.1 96.9166 55.9635 96.9829 55.8487C97.0493 55.7338 97.1585 55.65 97.2866 55.6157L105.98 53.2863C106.108 53.252 106.244 53.27 106.359 53.3363C106.474 53.4026 106.558 53.5118 106.592 53.6399L108.404 60.4014C108.438 60.5295 108.42 60.6659 108.354 60.7808C108.288 60.8956 108.179 60.9794 108.05 61.0137L101.026 62.896ZM100.124 58.4788L100.383 59.4447L101.349 59.1859L101.09 58.22L100.124 58.4788ZM102.056 57.9612L102.315 58.9271L103.281 58.6683L103.022 57.7024L102.056 57.9612ZM103.988 57.4435L104.247 58.4095L105.213 58.1506L104.954 57.1847L103.988 57.4435Z"
      fill="white" />
  </g>
  <defs>
    <clipPath id="clip0_712_22001">
      <rect width="12" height="12" fill="white" transform="translate(6.44946 53.5552) rotate(-15)" />
    </clipPath>
    <clipPath id="clip1_712_22001">
      <rect width="12" height="12" fill="white" transform="translate(79.2841 6.52588) rotate(18.2511)" />
    </clipPath>
    <clipPath id="clip2_712_22001">
      <rect width="12" height="12" fill="white" transform="translate(99.5553 22.4497) rotate(15)" />
    </clipPath>
    <clipPath id="clip3_712_22001">
      <rect width="12" height="12" fill="white" transform="translate(24.5553 92.4497) rotate(15)" />
    </clipPath>
    <clipPath id="clip4_712_22001">
      <rect width="12" height="12" fill="white" transform="translate(95.4495 54.5552) rotate(-15)" />
    </clipPath>
  </defs>
</svg>