<svg width="120" height="120" viewBox="0 0 120 120" fill="none" xmlns="http://www.w3.org/2000/svg">
  <circle cx="60" cy="60" r="50" fill="#E2EBFF" />
  <circle cx="39.5" cy="13.5" r="6.5" fill="#4864C9" />
  <circle cx="39.5" cy="11.206" r="1.91176" fill="white" />
  <path
    d="M42.3055 16.7176C40.3929 18.0841 38.2026 17.474 36.8324 16.6955C36.3755 16.436 36.2851 15.8327 36.6331 15.439C38.863 12.9171 41.1488 14.1502 42.4188 15.5267C42.7466 15.8819 42.6988 16.4367 42.3055 16.7176Z"
    fill="white" />
  <circle cx="98.5" cy="68.5" r="6.5" fill="#4864C9" />
  <circle cx="98.5" cy="66.206" r="1.91176" fill="white" />
  <path
    d="M101.306 71.7176C99.3929 73.0841 97.2026 72.474 95.8324 71.6955C95.3755 71.436 95.2851 70.8327 95.6331 70.439C97.863 67.9171 100.149 69.1502 101.419 70.5267C101.747 70.8819 101.699 71.4367 101.306 71.7176Z"
    fill="white" />
  <circle cx="29.5" cy="100.5" r="6.5" fill="#4864C9" />
  <circle cx="29.5" cy="98.206" r="1.91176" fill="white" />
  <path
    d="M32.3055 103.718C30.3929 105.084 28.2026 104.474 26.8324 103.696C26.3755 103.436 26.2851 102.833 26.6331 102.439C28.863 99.9171 31.1488 101.15 32.4188 102.527C32.7466 102.882 32.6988 103.437 32.3055 103.718Z"
    fill="white" />
  <path d="M52.061 28L91.5 44.3453L67.939 99L28.5 81.1223L52.061 28Z" fill="white" />
  <path d="M51 24L89.5 40L66.5 93.5L28 76L51 24Z" stroke="#4864C9" stroke-width="1.5" stroke-linecap="round"
    stroke-linejoin="round" />
  <path d="M51.5 42L54 36L59.5 38.5L57 44.5L51.5 42Z" fill="#4864C9" stroke="#4864C9" stroke-width="1.5"
    stroke-linecap="round" stroke-linejoin="round" />
  <path d="M47 52.5L49.5 46.5L55 49L52.5 55L47 52.5Z" fill="#4864C9" stroke="#4864C9" stroke-width="1.5"
    stroke-linecap="round" stroke-linejoin="round" />
  <path d="M42.5 63L45 57L50.5 59.5L48 65.5L42.5 63Z" stroke="#4864C9" stroke-width="1.5" stroke-linecap="round"
    stroke-linejoin="round" />
  <path d="M38 73.5L40.5 67.5L46 70L43.5 76L38 73.5Z" stroke="#4864C9" stroke-width="1.5" stroke-linecap="round"
    stroke-linejoin="round" />
  <path d="M62 42.5L79 49.5" stroke="#4864C9" stroke-width="1.5" stroke-linecap="round" stroke-linejoin="round" />
  <path d="M57.5 53L74.5 60" stroke="#4864C9" stroke-width="1.5" stroke-linecap="round" stroke-linejoin="round" />
  <path d="M53 63.5L70 70.5" stroke="#4864C9" stroke-width="1.5" stroke-linecap="round" stroke-linejoin="round" />
  <path d="M48.5 74L65.5 81" stroke="#4864C9" stroke-width="1.5" stroke-linecap="round" stroke-linejoin="round" />
  <path d="M54 39L55 42L61.5 40" stroke="white" stroke-width="1.5" stroke-linecap="round" stroke-linejoin="round" />
  <path d="M50 49L51 52L57.5 50" stroke="white" stroke-width="1.5" stroke-linecap="round" stroke-linejoin="round" />
  <path
    d="M11.0353 28.0048C10.4635 25.871 11.7298 23.6776 13.8637 23.1058L21.5911 21.0353C23.725 20.4635 25.9183 21.7298 26.4901 23.8637L28.5606 31.5911C29.1324 33.725 27.8661 35.9183 25.7322 36.4901L18.0048 38.5607C15.8709 39.1324 13.6776 37.8661 13.1058 35.7322L11.0353 28.0048Z"
    fill="#C35CC5" />
  <g clip-path="url(#clip0_712_22093)">
    <path
      d="M14.2866 26.6162L22.9799 24.2868C23.108 24.2525 23.2445 24.2705 23.3593 24.3368C23.4741 24.4031 23.5579 24.5123 23.5923 24.6404L25.6628 32.3678C25.6971 32.4959 25.6792 32.6324 25.6129 32.7472C25.5466 32.862 25.4373 32.9458 25.3093 32.9802L16.6159 35.3095C16.4878 35.3438 16.3514 35.3259 16.2365 35.2596C16.1217 35.1933 16.0379 35.0841 16.0036 34.956L13.933 27.2286C13.8987 27.1005 13.9166 26.964 13.9829 26.8492C14.0493 26.7343 14.1585 26.6505 14.2866 26.6162ZM19.7859 29.6373L15.9845 27.8374L15.5562 28.741L20.133 30.9078L22.9454 26.7585L22.1179 26.197L19.7863 29.6372L19.7859 29.6373Z"
      fill="white" />
  </g>
  <path
    d="M75.8584 11.6161C76.4302 9.48228 78.6235 8.21595 80.7574 8.78772L88.4848 10.8583C90.6187 11.43 91.885 13.6234 91.3132 15.7572L89.2427 23.4847C88.6709 25.6185 86.4775 26.8849 84.3437 26.3131L76.6163 24.2425C74.4824 23.6708 73.2161 21.4774 73.7878 19.3436L75.8584 11.6161Z"
    fill="#5A5270" />
  <g clip-path="url(#clip1_712_22093)">
    <path
      d="M86.3252 20.8498L85.8676 22.5576C85.8349 22.6798 85.757 22.7852 85.6497 22.8523C85.5424 22.9194 85.4136 22.9433 85.2893 22.9192C85.0744 22.8771 84.8999 22.8387 84.7666 22.8029C80.4986 21.6594 77.9661 17.2729 79.1097 13.005C79.1454 12.8717 79.1989 12.7012 79.2704 12.4942C79.3116 12.3745 79.3967 12.2749 79.5085 12.2155C79.6203 12.1561 79.7505 12.1413 79.8727 12.1742L81.5805 12.6318C81.6404 12.6477 81.6923 12.6854 81.7259 12.7375C81.7596 12.7896 81.7728 12.8523 81.7628 12.9135C81.7441 13.0276 81.7306 13.1187 81.7223 13.1884C81.6388 13.884 81.6609 14.5881 81.7879 15.2771C81.8079 15.386 81.747 15.4934 81.6435 15.5319L80.4018 15.9974C80.6411 17.653 81.5074 19.1533 82.8215 20.1884L83.844 19.3474C83.8858 19.3131 83.9383 19.2945 83.9924 19.2949C84.0465 19.2953 84.0987 19.3146 84.14 19.3496C84.6732 19.8035 85.2719 20.1742 85.9159 20.4492C85.9805 20.4769 86.066 20.5112 86.1733 20.5513C86.2311 20.5734 86.2788 20.6161 86.3069 20.6713C86.3351 20.7265 86.3418 20.7901 86.3257 20.8499L86.3252 20.8498Z"
      fill="white" />
  </g>
  <path
    d="M85.1058 84.8637C85.6776 82.7298 87.871 81.4635 90.0048 82.0353L97.7322 84.1058C99.8661 84.6776 101.132 86.8709 100.561 89.0048L98.4901 96.7322C97.9183 98.8661 95.725 100.132 93.5911 99.5606L85.8637 97.4901C83.7298 96.9183 82.4635 94.725 83.0353 92.5911L85.1058 84.8637Z"
    fill="#6555C6" />
  <g clip-path="url(#clip2_712_22093)">
    <path
      d="M92.3503 86.8048L97.1799 88.0989L96.9211 89.0648L92.0915 87.7707L92.3503 86.8048ZM91.8326 88.7367L94.7304 89.5131L94.4716 90.479L91.5738 89.7026L91.8326 88.7367ZM91.0562 91.6344L95.8858 92.9285L95.627 93.8945L90.7974 92.6004L91.0562 91.6344ZM90.5385 93.5663L93.4363 94.3427L93.1775 95.3087L90.2797 94.5322L90.5385 93.5663ZM88.4866 85.7695L91.3843 86.546L90.6079 89.4438L87.7101 88.6673L88.4866 85.7695ZM89.1937 86.9943L88.9349 87.9602L89.9008 88.219L90.1596 87.2531L89.1937 86.9943ZM87.1925 90.5992L90.0903 91.3756L89.3138 94.2734L86.416 93.4969L87.1925 90.5992ZM87.8996 91.8239L87.6408 92.7898L88.6067 93.0487L88.8655 92.0827L87.8996 91.8239Z"
      fill="white" />
  </g>
  <path
    d="M4 57C4 54.7909 5.79086 53 8 53H16C18.2091 53 20 54.7909 20 57V65C20 67.2091 18.2091 69 16 69H8C5.79086 69 4 67.2091 4 65V57Z"
    fill="#4680D7" />
  <path
    d="M15.1675 64.1695H13.835V62.081C13.835 61.583 13.825 60.942 13.14 60.942C12.4455 60.942 12.3395 61.484 12.3395 62.0445V64.1695H11.0065V59.875H12.2865V60.46H12.304C12.483 60.123 12.918 59.7665 13.568 59.7665C14.918 59.7665 15.168 60.6555 15.168 61.812V64.1695H15.1675ZM9.5015 59.2875C9.39978 59.2876 9.29903 59.2677 9.20503 59.2288C9.11103 59.1899 9.02563 59.1329 8.95373 59.0609C8.88182 58.989 8.82483 58.9035 8.78601 58.8095C8.74718 58.7155 8.7273 58.6147 8.7275 58.513C8.7276 58.3599 8.77309 58.2103 8.85822 58.0831C8.94335 57.9558 9.0643 57.8567 9.20577 57.7982C9.34723 57.7397 9.50287 57.7245 9.65299 57.7545C9.80311 57.7844 9.94098 57.8582 10.0492 57.9666C10.1573 58.0749 10.231 58.2128 10.2607 58.363C10.2905 58.5132 10.2751 58.6688 10.2164 58.8102C10.1577 58.9516 10.0584 59.0724 9.9311 59.1573C9.80376 59.2423 9.65408 59.2876 9.501 59.2875H9.5015ZM10.1695 64.1695H8.833V59.875H10.17V64.1695H10.1695ZM15.835 56.5H8.1645C7.7965 56.5 7.5 56.79 7.5 57.1485V64.8515C7.5 65.21 7.797 65.5 8.164 65.5H15.833C16.2 65.5 16.5 65.21 16.5 64.8515V57.1485C16.5 56.79 16.2 56.5 15.833 56.5H15.8345H15.835Z"
    fill="white" />
  <path
    d="M96.0353 33.0048C95.4635 30.871 96.7298 28.6776 98.8637 28.1058L106.591 26.0353C108.725 25.4635 110.918 26.7298 111.49 28.8637L113.561 36.5911C114.132 38.725 112.866 40.9183 110.732 41.4901L103.005 43.5607C100.871 44.1324 98.6776 42.8661 98.1058 40.7322L96.0353 33.0048Z"
    fill="#E76E67" />
  <g clip-path="url(#clip3_712_22093)">
    <path
      d="M103.026 38.8965L101.327 41.1634L98.933 32.2286C98.8987 32.1005 98.9166 31.964 98.9829 31.8492C99.0493 31.7343 99.1585 31.6505 99.2866 31.6162L107.98 29.2868C108.108 29.2525 108.244 29.2705 108.359 29.3368C108.474 29.4031 108.558 29.5123 108.592 29.6404L110.404 36.4019C110.438 36.5299 110.42 36.6664 110.354 36.7813C110.288 36.8961 110.179 36.9799 110.05 37.0142L103.026 38.8965ZM102.124 34.4793L102.383 35.4452L103.349 35.1864L103.09 34.2205L102.124 34.4793ZM104.056 33.9617L104.315 34.9276L105.281 34.6688L105.022 33.7028L104.056 33.9617ZM105.988 33.444L106.247 34.4099L107.213 34.1511L106.954 33.1852L105.988 33.444Z"
      fill="white" />
  </g>
  <path d="M14 75C15 77.5347 18.8 82.2238 26 80.703" stroke="#4864C9" stroke-width="1.5" stroke-linecap="round"
    stroke-linejoin="round" />
  <path d="M107.5 46C105.833 49.8333 99.9 57.2 89.5 56" stroke="#4864C9" stroke-width="1.5" stroke-linecap="round"
    stroke-linejoin="round" />
  <path d="M70.5 14.5C68.5 14.8333 64.5 17.4 64.5 25" stroke="#4864C9" stroke-width="1.5" stroke-linecap="round"
    stroke-linejoin="round" />
  <path d="M25 40C28 39.6666 34.5 40.5 36.5 46.5" stroke="#4864C9" stroke-width="1.5" stroke-linecap="round"
    stroke-linejoin="round" />
  <path d="M73 97.5C75.1667 100 81.1 104.5 87.5 102.5" stroke="#4864C9" stroke-width="1.5" stroke-linecap="round"
    stroke-linejoin="round" />
  <defs>
    <clipPath id="clip0_712_22093">
      <rect width="12" height="12" fill="white" transform="translate(12.4495 25.5554) rotate(-15)" />
    </clipPath>
    <clipPath id="clip1_712_22093">
      <rect width="12" height="12" fill="white" transform="translate(78.3079 10.2019) rotate(15)" />
    </clipPath>
    <clipPath id="clip2_712_22093">
      <rect width="12" height="12" fill="white" transform="translate(87.5553 83.4495) rotate(15)" />
    </clipPath>
    <clipPath id="clip3_712_22093">
      <rect width="12" height="12" fill="white" transform="translate(97.4495 30.5554) rotate(-15)" />
    </clipPath>
  </defs>
</svg>