<svg width="120" height="120" viewBox="0 0 120 120" fill="none" xmlns="http://www.w3.org/2000/svg">
  <rect width="120" height="120" fill="white" />
  <circle cx="60" cy="60" r="50" fill="#E2EBFF" />
  <path d="M26.9103 83.5L21.069 35.9344L94.0862 27.1724L99.0931 75.1551L26.9103 83.5Z" fill="white" />
  <path d="M30.2482 79.3276L24.4069 31.7621L97.4241 23L102.431 70.9828L30.2482 79.3276Z" stroke="#4864C9"
    stroke-width="1.5" stroke-linecap="round" stroke-linejoin="round" />
  <path
    d="M33.5862 38.0205L34.212 44.4878M34.8379 50.955L34.212 44.4878M34.212 44.4878L39.8448 43.8619L39.0103 37.186L40.6793 50.5378M44.4345 43.0274L45.2689 50.1205M44.0172 39.6895V40.524"
    stroke="#4864C9" stroke-width="1.5" stroke-linecap="round" stroke-linejoin="round" />
  <path
    d="M80.4857 45.6834L54.401 48.7522C51.8789 49.0489 49.5838 47.271 49.2407 44.7548C48.8914 42.1932 50.6948 39.837 53.2588 39.5052L79.3062 36.1344C81.9393 35.7936 84.3507 37.6505 84.6941 40.2832C85.0408 42.9414 83.148 45.3701 80.4857 45.6834Z"
    fill="#FFD142" />
  <path d="M55.2827 43.8621L77.8137 40.9414" stroke="#4864C9" stroke-width="1.5" stroke-linecap="round"
    stroke-linejoin="round" />
  <path
    d="M45.8788 98.1658L19.794 101.235C17.272 101.531 14.9769 99.7534 14.6338 97.2373C14.2844 94.6756 16.0878 92.3195 18.6518 91.9877L44.6992 88.6168C47.3324 88.2761 49.7437 90.1329 50.0871 92.7656C50.4338 95.4238 48.5411 97.8526 45.8788 98.1658Z"
    fill="#FFD142" />
  <path d="M20.6758 96.3445L43.2068 93.4238" stroke="#4864C9" stroke-width="1.5" stroke-linecap="round"
    stroke-linejoin="round" />
  <path
    d="M90.1697 58.1598L75.803 59.8349C73.2752 60.1296 70.9765 58.347 70.6326 55.8255C70.2835 53.2649 72.0793 50.9073 74.6406 50.5636L88.9762 48.6403C91.6089 48.287 94.0275 50.1404 94.371 52.7744C94.717 55.4269 92.8267 57.85 90.1697 58.1598Z"
    fill="#FFD142" />
  <path d="M76.6758 54.9414L88.5 53.5967" stroke="#4864C9" stroke-width="1.5" stroke-linecap="round"
    stroke-linejoin="round" />
  <path
    d="M89.1697 16.1598L74.803 17.8349C72.2752 18.1296 69.9765 16.347 69.6326 13.8255C69.2835 11.2649 71.0793 8.90725 73.6406 8.56361L87.9762 6.64025C90.6089 6.28703 93.0275 8.1404 93.371 10.7744C93.717 13.4269 91.8267 15.85 89.1697 16.1598Z"
    fill="#FFD142" />
  <path d="M75.6758 12.9414L87.5 11.5967" stroke="#4864C9" stroke-width="1.5" stroke-linecap="round"
    stroke-linejoin="round" />
  <path
    d="M109.17 93.1598L94.803 94.8349C92.2752 95.1296 89.9765 93.347 89.6326 90.8255C89.2835 88.2649 91.0793 85.9073 93.6406 85.5636L107.976 83.6403C110.609 83.287 113.027 85.1404 113.371 87.7744C113.717 90.4269 111.827 92.85 109.17 93.1598Z"
    fill="#FFD142" />
  <path d="M95.6758 89.9414L107.5 88.5967" stroke="#4864C9" stroke-width="1.5" stroke-linecap="round"
    stroke-linejoin="round" />
  <path d="M35 60.5L65.5 56.5" stroke="#4864C9" stroke-width="1.5" stroke-linecap="round" stroke-linejoin="round" />
  <path
    d="M29.2133 21.3162L28.824 20.6751L29.2133 21.3162ZM20.0682 10.4516L20.2861 11.1693V11.1693L20.0682 10.4516ZM25.4455 26.4629C25.8434 26.3478 26.0727 25.932 25.9577 25.5341C25.8426 25.1362 25.4268 24.9069 25.0289 25.0219L25.4455 26.4629ZM24.5016 16.5561L23.7758 16.7449L24.5016 16.5561ZM20.1792 14.4788C19.4182 15.5382 19.0244 17.0255 19.3267 19.0146L20.8097 18.7891C20.5555 17.117 20.9035 16.0416 21.3975 15.3539L20.1792 14.4788ZM19.3267 19.0146C19.5003 20.1561 19.8713 21.027 20.4286 21.638C20.9964 22.2606 21.7025 22.5524 22.4172 22.6256C23.7858 22.7658 25.1987 22.1128 26.0543 21.5355L25.2153 20.2921C24.4805 20.7878 23.4281 21.2213 22.57 21.1334C22.1714 21.0926 21.8239 20.9418 21.5368 20.6272C21.2393 20.3009 20.9542 19.74 20.8097 18.7891L19.3267 19.0146ZM26.3606 20.725L25.2275 16.3674L23.7758 16.7449L24.9089 21.1025L26.3606 20.725ZM25.1013 21.4409C25.7628 22.1104 27.5971 23.175 29.6026 21.9572L28.824 20.6751C27.6486 21.3889 26.5671 20.7902 26.1683 20.3866L25.1013 21.4409ZM29.6026 21.9572C30.0941 21.6588 30.3612 21.1038 30.512 20.5933C30.6724 20.0502 30.7496 19.394 30.75 18.6917C30.7508 17.2858 30.4441 15.5816 29.7429 14.0107C29.0415 12.4392 27.9205 10.949 26.2604 10.0636C24.5836 9.16923 22.4533 8.94368 19.8503 9.73399L20.2861 11.1693C22.5788 10.4732 24.288 10.7116 25.5545 11.3871C26.8376 12.0714 27.7638 13.2568 28.3732 14.6221C28.9829 15.9881 29.2507 17.482 29.25 18.6908C29.2496 19.2959 29.1819 19.8012 29.0735 20.1683C29.0194 20.3512 28.9602 20.4828 28.9065 20.5704C28.8517 20.6596 28.8178 20.6789 28.824 20.6751L29.6026 21.9572ZM19.8503 9.73399C17.5955 10.4186 16.2356 12.0339 15.6308 13.9759C15.0343 15.8908 15.1681 18.1153 15.8262 20.1396C16.4845 22.1651 17.6925 24.067 19.3364 25.3096C21.0005 26.5674 23.1059 27.1394 25.4455 26.4629L25.0289 25.0219C23.1936 25.5526 21.5714 25.1186 20.2409 24.113C18.8904 23.0922 17.8369 21.4732 17.2527 19.676C16.6682 17.8777 16.5783 15.9777 17.0629 14.422C17.539 12.8933 18.5648 11.6919 20.2861 11.1693L19.8503 9.73399ZM21.3975 15.3539C21.5858 15.0917 21.7706 15.0001 21.9213 14.9714C22.0845 14.9404 22.2966 14.9675 22.546 15.0956C23.0606 15.36 23.5773 15.9817 23.7758 16.7449L25.2275 16.3674C24.9329 15.2344 24.1644 14.2407 23.2314 13.7614C22.7569 13.5176 22.2046 13.3908 21.6414 13.4978C21.0658 13.6071 20.5624 13.9453 20.1792 14.4788L21.3975 15.3539Z"
    fill="#4864C9" />
  <path
    d="M75.785 98.4067L75.7684 97.6569L75.785 98.4067ZM73.2974 84.4252L73.1272 85.1557L73.1272 85.1557L73.2974 84.4252ZM69.9486 100.98C70.3507 101.079 70.7573 100.834 70.8566 100.432C70.9559 100.03 70.7104 99.6231 70.3083 99.5238L69.9486 100.98ZM74.0846 91.9286L73.3616 91.7291L74.0846 91.9286ZM71.3799 87.9683C70.1912 88.5053 69.1064 89.5964 68.3738 91.4702L69.7708 92.0164C70.3867 90.4412 71.2258 89.6839 71.9974 89.3353L71.3799 87.9683ZM68.3738 91.4702C67.9533 92.5455 67.8391 93.4853 68.0163 94.2931C68.1968 95.1162 68.6623 95.722 69.2447 96.1427C70.3598 96.9484 71.9099 97.0893 72.9395 97.0172L72.8347 95.5208C71.9504 95.5828 70.8223 95.432 70.1231 94.9269C69.7983 94.6922 69.5727 94.3878 69.4815 93.9718C69.3869 93.5405 69.4205 92.9122 69.7708 92.0164L68.3738 91.4702ZM73.6101 96.4685L74.8076 92.128L73.3616 91.7291L72.1641 96.0695L73.6101 96.4685ZM72.1615 96.4588C72.3996 97.3693 73.4559 99.2084 75.8015 99.1566L75.7684 97.6569C74.3935 97.6873 73.7562 96.6282 73.6127 96.0792L72.1615 96.4588ZM75.8015 99.1566C76.3765 99.1438 76.8853 98.7967 77.2711 98.4301C77.6816 98.04 78.0765 97.5102 78.428 96.9022C79.1317 95.6851 79.7181 94.0558 79.8964 92.3448C80.0746 90.6331 79.849 88.7821 78.854 87.1852C77.849 85.5723 76.1169 84.3119 73.4675 83.6948L73.1272 85.1557C75.4608 85.6992 76.8218 86.7603 77.5809 87.9785C78.35 89.2127 78.5593 90.7024 78.4044 92.1894C78.2495 93.6773 77.7345 95.105 77.1294 96.1515C76.8266 96.6753 76.5152 97.0791 76.2378 97.3427C76.0996 97.4741 75.9825 97.5585 75.8922 97.6075C75.8001 97.6574 75.7612 97.6571 75.7684 97.6569L75.8015 99.1566ZM73.4675 83.6948C71.1724 83.1603 69.1871 83.8792 67.6923 85.2586C66.2183 86.6187 65.222 88.6121 64.7796 90.6943C64.3371 92.7776 64.4322 95.0286 65.2346 96.9267C66.0468 98.848 67.5841 100.396 69.9486 100.98L70.3083 99.5238C68.4536 99.0657 67.2656 97.8788 66.6162 96.3427C65.957 94.7833 65.8542 92.8545 66.2469 91.006C66.6398 89.1564 67.512 87.466 68.7095 86.361C69.8862 85.2752 71.3753 84.7476 73.1272 85.1557L73.4675 83.6948ZM71.9974 89.3353C72.2916 89.2024 72.4975 89.2155 72.6423 89.2661C72.7991 89.3208 72.9693 89.4503 73.1212 89.6859C73.4347 90.1722 73.5713 90.969 73.3616 91.7291L74.8076 92.128C75.1189 90.9996 74.9503 89.7548 74.3819 88.8731C74.0929 88.4248 73.6779 88.0388 73.1367 87.8499C72.5835 87.6568 71.9785 87.6979 71.3799 87.9683L71.9974 89.3353Z"
    fill="#4864C9" />
  <path d="M17 66C11.8451 69.9344 3.43873 80.2426 11.0521 90" stroke="#4864C9" stroke-width="1.5" stroke-linecap="round"
    stroke-linejoin="round" />
  <path d="M96.5 10.5C104 11.8333 116.4 19.1 106 37.5" stroke="#4864C9" stroke-width="1.5" stroke-linecap="round"
    stroke-linejoin="round" />
</svg>