<svg width="756" height="646" viewBox="0 0 756 646" fill="none" xmlns="http://www.w3.org/2000/svg">
<path d="M576.213 161.723C620.871 161.723 657.074 125.52 657.074 80.8613C657.074 36.2029 620.871 0 576.213 0C531.554 0 495.352 36.2029 495.352 80.8613C495.352 125.52 531.554 161.723 576.213 161.723Z" fill="#F9C8CA"/>
<path d="M478.237 191.358C522.647 191.358 558.648 160.663 558.648 122.797C558.648 84.9321 522.647 54.2363 478.237 54.2363C433.827 54.2363 397.826 84.9321 397.826 122.797C397.826 160.663 433.827 191.358 478.237 191.358Z" fill="#F9C8CA"/>
<path d="M674.597 191.358C719.006 191.358 755.008 160.663 755.008 122.797C755.008 84.9321 719.006 54.2363 674.597 54.2363C630.187 54.2363 594.186 84.9321 594.186 122.797C594.186 160.663 630.187 191.358 674.597 191.358Z" fill="#F9C8CA"/>
<path d="M576.415 211.672C620.825 211.672 656.826 180.598 656.826 142.265C656.826 103.932 620.825 72.8574 576.415 72.8574C532.005 72.8574 496.004 103.932 496.004 142.265C496.004 180.598 532.005 211.672 576.415 211.672Z" fill="#F9C8CA"/>
<g filter="url(#filter0_d)">
<path d="M660.778 292.996C647.66 165.314 505.111 261.388 546.215 279.003C587.318 296.619 548.838 155.261 482.374 134.705C397.544 108.469 285.604 190.208 323.209 206.417C360.813 222.626 336.327 99.7238 263.74 144.325" stroke="#F86E7F" stroke-width="2" stroke-linecap="round" stroke-linejoin="round" stroke-dasharray="8 12"/>
</g>
<circle cx="254.996" cy="149.572" r="8.24627" stroke="#F86E7F" stroke-width="2.5"/>
<g filter="url(#filter1_d)">
<path d="M646.414 320.184H314.03C311.839 320.184 310.062 321.96 310.062 324.151V426.083C310.062 428.274 311.839 430.05 314.03 430.05H646.414C648.605 430.05 650.381 428.274 650.381 426.083V324.151C650.381 321.96 648.605 320.184 646.414 320.184Z" fill="#709DFF"/>
<path d="M394.525 341.622H335.467C333.276 341.622 331.5 343.398 331.5 345.589V404.647C331.5 406.838 333.276 408.614 335.467 408.614H394.525C396.716 408.614 398.492 406.838 398.492 404.647V345.589C398.492 343.398 396.716 341.622 394.525 341.622Z" fill="#BED3FF"/>
<path d="M626.965 342.961H421.917C420.822 342.961 419.934 343.849 419.934 344.945V354.376C419.934 355.471 420.822 356.36 421.917 356.36H626.965C628.06 356.36 628.948 355.471 628.948 354.376V344.945C628.948 343.849 628.06 342.961 626.965 342.961Z" fill="#BED3FF"/>
<path d="M559.973 367.078H421.917C420.822 367.078 419.934 367.966 419.934 369.062V378.493C419.934 379.589 420.822 380.477 421.917 380.477H559.973C561.068 380.477 561.956 379.589 561.956 378.493V369.062C561.956 367.966 561.068 367.078 559.973 367.078Z" fill="#BED3FF"/>
<path d="M452.49 391.195H424.893C422.154 391.195 419.934 393.416 419.934 396.154V402.315C419.934 405.054 422.154 407.274 424.893 407.274H452.49C455.229 407.274 457.449 405.054 457.449 402.315V396.154C457.449 393.416 455.229 391.195 452.49 391.195Z" fill="#BED3FF"/>
<path d="M500.727 391.195H473.129C470.39 391.195 468.17 393.416 468.17 396.154V402.315C468.17 405.054 470.39 407.274 473.129 407.274H500.727C503.466 407.274 505.686 405.054 505.686 402.315V396.154C505.686 393.416 503.466 391.195 500.727 391.195Z" fill="#BED3FF"/>
</g>
<g filter="url(#filter2_d)">
<path d="M650.41 363.443C674.089 363.443 693.285 344.247 693.285 320.568C693.285 296.889 674.089 277.693 650.41 277.693C626.731 277.693 607.535 296.889 607.535 320.568C607.535 344.247 626.731 363.443 650.41 363.443Z" fill="black"/>
</g>
<path d="M650.41 363.443C674.089 363.443 693.285 344.247 693.285 320.568C693.285 296.889 674.089 277.693 650.41 277.693C626.731 277.693 607.535 296.889 607.535 320.568C607.535 344.247 626.731 363.443 650.41 363.443Z" fill="white"/>
<g filter="url(#filter3_d)">
<path d="M665.929 303.356H636.846C634.847 303.356 633.229 304.992 633.229 306.992L633.211 339.709L640.482 332.439H665.929C667.928 332.439 669.564 330.803 669.564 328.803V306.992C669.564 304.992 667.928 303.356 665.929 303.356ZM640.482 316.08H662.293V319.715H640.482V316.08ZM655.023 325.168H640.482V321.533H655.023V325.168ZM662.293 314.262H640.482V310.627H662.293V314.262Z" fill="#F86E7F"/>
</g>
<path fill-rule="evenodd" clip-rule="evenodd" d="M197.058 58.8059C210.177 72.2235 220.207 112.252 209.673 117.971C205.472 120.252 195.098 119.994 183.738 116.852L201.498 157L165.24 166.349L162.16 107.243C153.013 101.189 145.624 92.7842 143.41 81.8029C137.031 50.161 183.939 45.3884 197.058 58.8059Z" fill="#FFCEB5"/>
<path fill-rule="evenodd" clip-rule="evenodd" d="M173.17 48.6174C183.576 46.8325 193.49 47.47 196.558 48.5758C199.134 57.8277 198.032 61.054 182.025 64.9221C178.661 67.9189 176.603 72.1165 174.716 77.4105C181.274 95.6244 187.531 103.965 193.486 102.429C202.419 100.126 208.481 92.7241 212.401 91.7135C215.258 90.9768 215.576 94.5759 214.391 97.6107C213.414 100.115 206.368 104.102 207.275 107.359C208.182 110.616 213.493 106.546 214.03 108.478C214.92 111.673 217.65 117.409 211.876 118.897C206.033 120.404 188.711 122.678 183.521 115.088C180.171 110.19 175.872 99.3592 170.622 82.5956C170.256 82.6452 169.889 82.7174 169.523 82.8118C164.517 84.1026 161.544 89.0475 162.884 93.8564C163.563 96.2977 165.224 98.2347 167.349 99.3813C166.043 102.766 164.52 106.343 162.68 110.103C150.937 106.88 137.72 91.4105 143.047 72.4597C143.544 63.7205 149.494 58.1671 156.25 54.2893C161.51 50.3826 167.583 48.529 173.17 48.6174Z" fill="#10173D"/>
<path fill-rule="evenodd" clip-rule="evenodd" d="M182.648 286.879L259.431 473.542L310.93 631.35H331.265L252.536 286.879H182.648Z" fill="#F5C0A5"/>
<path fill-rule="evenodd" clip-rule="evenodd" d="M167.188 286.879C166.37 352.474 154.446 440.786 152.541 444.875C151.271 447.601 107.427 482.265 21.0098 548.868L35.0161 563.265C136.981 506.161 190.322 473.801 195.041 466.185C202.118 454.76 225.16 349.632 243.66 286.879H167.188Z" fill="#F5C0A5"/>
<path fill-rule="evenodd" clip-rule="evenodd" d="M20.437 543.575C15.0389 545.326 11.3742 546.982 9.44297 548.541C7.28601 550.283 4.44057 553.171 0.906635 557.206C3.01023 559.618 21.9156 581.3 57.6226 622.25C64.8923 619.26 67.1705 615.758 64.4572 611.743C61.7439 607.728 59.5233 604.366 57.7953 601.657L45.2376 559.548C45.0934 559.065 44.5691 558.785 44.0665 558.924C44.0583 558.926 44.0502 558.929 44.042 558.931L36.8537 561.12C32.2826 559.066 29.0781 556.985 27.2403 554.877C25.6085 553.006 24.1539 549.664 22.8766 544.85L22.8766 544.85C22.6178 543.875 21.5868 543.287 20.5736 543.536C20.5276 543.547 20.482 543.56 20.437 543.575Z" fill="#10173D"/>
<path fill-rule="evenodd" clip-rule="evenodd" d="M303.09 622.841C301.014 627.946 299.977 631.712 299.977 634.138C299.977 636.848 300.447 640.802 301.386 646C304.659 646 334.071 646 389.621 646C391.914 638.719 390.59 634.789 385.65 634.208C380.71 633.627 376.606 633.103 373.339 632.635L331.747 614.826C331.269 614.621 330.71 614.828 330.497 615.288C330.494 615.295 330.49 615.303 330.487 615.311L327.609 622.017C323.036 624.066 319.319 625.091 316.46 625.091C313.921 625.091 310.326 624.015 305.673 621.862L305.673 621.862C304.731 621.426 303.599 621.808 303.146 622.715C303.126 622.756 303.107 622.798 303.09 622.841Z" fill="#10173D"/>
<path fill-rule="evenodd" clip-rule="evenodd" d="M234.273 615.096L330.959 605.017L259.303 286.879H172.705L234.273 615.096Z" fill="#3956BC"/>
<path fill-rule="evenodd" clip-rule="evenodd" d="M41.0039 525.642L104.424 597.745C171.224 527.67 210.168 481.946 221.257 460.573C232.346 439.2 242.315 381.302 251.163 286.879H153.669C148.835 369.948 145.577 413.416 143.895 417.281C142.212 421.147 107.915 457.267 41.0039 525.642Z" fill="#4864C9"/>
<path fill-rule="evenodd" clip-rule="evenodd" d="M113.974 285.872L146.184 280.532C137.602 345.535 132.864 380.056 131.971 384.096C129.962 393.186 139.872 404.828 144.37 411.225C134.692 417.523 132.747 400.611 120.581 408.781C109.476 416.239 102.07 427.595 86.578 421.683C84.6734 420.956 82.0881 417.442 86.088 413.673C96.0531 404.286 109.991 388.45 111.409 383.775C113.344 377.4 114.199 344.766 113.974 285.872ZM306.585 247.243L357.71 280.728C371.359 283.776 382.813 287.755 392.074 292.665C394.285 294.468 397.012 298.18 388.1 297.824C379.188 297.468 369.798 297.479 368.676 300.433C367.555 303.387 373.059 306.688 370.721 310.701C369.163 313.377 361.118 307.072 346.587 291.788L296.507 273.79L306.585 247.243Z" fill="#F5C0A5"/>
<path fill-rule="evenodd" clip-rule="evenodd" d="M181.675 140.608L194.592 136.154C227.605 187.289 276.801 230.495 342.18 265.77L308.236 323.486C239.371 269.148 192.05 209.06 181.675 140.608Z" fill="#F36678"/>
<path fill-rule="evenodd" clip-rule="evenodd" d="M153.063 311.245L271.663 291.12C232.427 231.605 208.699 179.418 200.48 134.56L163.765 135.51C143.608 183.72 145.467 238.549 153.063 311.245Z" fill="#709DFF"/>
<path fill-rule="evenodd" clip-rule="evenodd" d="M165.37 135.24C168.182 134.858 172.469 134.302 178.231 133.573L191.224 155.837C197.44 184.617 213.464 242.021 239.297 328.051L161.552 341.243C162.865 347.265 164.321 353.32 165.92 359.41L108.113 369.219C99.5887 274.04 117.882 196.181 162.993 135.643L163.025 135.663L163.035 135.636L165.37 135.24Z" fill="#F86E7F"/>
<path fill-rule="evenodd" clip-rule="evenodd" d="M183.412 338.134L161.677 341.821C155.749 314.824 152.686 288.513 152.487 262.887C161.618 300.26 171.926 325.342 183.412 338.134Z" fill="black" fill-opacity="0.1"/>
<path fill-rule="evenodd" clip-rule="evenodd" d="M170.561 293.021L205.76 269.396L208.897 286.516L170.561 293.021Z" fill="white" fill-opacity="0.2"/>
<g filter="url(#filter4_d)">
<path fill-rule="evenodd" clip-rule="evenodd" d="M360.643 116.916L471.253 219.79L464.762 263.22L360.643 116.916Z" fill="#8DABED"/>
<path fill-rule="evenodd" clip-rule="evenodd" d="M452.617 227.956L464.762 263.22L436.571 231.751L452.617 227.956Z" fill="#A7C2FF"/>
<path fill-rule="evenodd" clip-rule="evenodd" d="M385.288 249.398L360.643 116.916L452.617 227.956L385.288 249.398Z" fill="#EFF4FF"/>
<path fill-rule="evenodd" clip-rule="evenodd" d="M360.643 116.916L520.222 206.137L471.253 219.79L360.643 116.916Z" fill="#EFF4FF"/>
</g>
<defs>
<filter id="filter0_d" x="258.74" y="128.557" width="407.038" height="173.439" filterUnits="userSpaceOnUse" color-interpolation-filters="sRGB">
<feFlood flood-opacity="0" result="BackgroundImageFix"/>
<feColorMatrix in="SourceAlpha" type="matrix" values="0 0 0 0 0 0 0 0 0 0 0 0 0 0 0 0 0 0 127 0"/>
<feOffset dy="4"/>
<feGaussianBlur stdDeviation="2"/>
<feColorMatrix type="matrix" values="0 0 0 0 0.14902 0 0 0 0 0.203922 0 0 0 0 0.443137 0 0 0 0.05 0"/>
<feBlend mode="normal" in2="BackgroundImageFix" result="effect1_dropShadow"/>
<feBlend mode="normal" in="SourceGraphic" in2="effect1_dropShadow" result="shape"/>
</filter>
<filter id="filter1_d" x="276.062" y="290.184" width="408.319" height="177.867" filterUnits="userSpaceOnUse" color-interpolation-filters="sRGB">
<feFlood flood-opacity="0" result="BackgroundImageFix"/>
<feColorMatrix in="SourceAlpha" type="matrix" values="0 0 0 0 0 0 0 0 0 0 0 0 0 0 0 0 0 0 127 0"/>
<feOffset dy="4"/>
<feGaussianBlur stdDeviation="17"/>
<feColorMatrix type="matrix" values="0 0 0 0 0.14902 0 0 0 0 0.203922 0 0 0 0 0.443137 0 0 0 0.05 0"/>
<feBlend mode="normal" in2="BackgroundImageFix" result="effect1_dropShadow"/>
<feBlend mode="normal" in="SourceGraphic" in2="effect1_dropShadow" result="shape"/>
</filter>
<filter id="filter2_d" x="573.535" y="247.693" width="153.749" height="153.749" filterUnits="userSpaceOnUse" color-interpolation-filters="sRGB">
<feFlood flood-opacity="0" result="BackgroundImageFix"/>
<feColorMatrix in="SourceAlpha" type="matrix" values="0 0 0 0 0 0 0 0 0 0 0 0 0 0 0 0 0 0 127 0"/>
<feOffset dy="4"/>
<feGaussianBlur stdDeviation="17"/>
<feColorMatrix type="matrix" values="0 0 0 0 0 0 0 0 0 0 0 0 0 0 0 0 0 0 0.15 0"/>
<feBlend mode="normal" in2="BackgroundImageFix" result="effect1_dropShadow"/>
<feBlend mode="normal" in="SourceGraphic" in2="effect1_dropShadow" result="shape"/>
</filter>
<filter id="filter3_d" x="625.576" y="295.721" width="51.6234" height="51.6234" filterUnits="userSpaceOnUse" color-interpolation-filters="sRGB">
<feFlood flood-opacity="0" result="BackgroundImageFix"/>
<feColorMatrix in="SourceAlpha" type="matrix" values="0 0 0 0 0 0 0 0 0 0 0 0 0 0 0 0 0 0 127 0"/>
<feOffset/>
<feGaussianBlur stdDeviation="2"/>
<feColorMatrix type="matrix" values="0 0 0 0 0.14902 0 0 0 0 0.203922 0 0 0 0 0.443137 0 0 0 0.1 0"/>
<feBlend mode="normal" in2="BackgroundImageFix" result="effect1_dropShadow"/>
<feBlend mode="normal" in="SourceGraphic" in2="effect1_dropShadow" result="shape"/>
</filter>
<filter id="filter4_d" x="307.529" y="86.916" width="256.25" height="214.304" filterUnits="userSpaceOnUse" color-interpolation-filters="sRGB">
<feFlood flood-opacity="0" result="BackgroundImageFix"/>
<feColorMatrix in="SourceAlpha" type="matrix" values="0 0 0 0 0 0 0 0 0 0 0 0 0 0 0 0 0 0 127 0"/>
<feOffset dy="4"/>
<feGaussianBlur stdDeviation="17"/>
<feColorMatrix type="matrix" values="0 0 0 0 0.14902 0 0 0 0 0.203922 0 0 0 0 0.443137 0 0 0 0.15 0"/>
<feBlend mode="normal" in2="BackgroundImageFix" result="effect1_dropShadow"/>
<feBlend mode="normal" in="SourceGraphic" in2="effect1_dropShadow" result="shape"/>
</filter>
</defs>
</svg>
