<svg width="735" height="547" viewBox="0 0 735 547" fill="none" xmlns="http://www.w3.org/2000/svg">
<path d="M247.092 214.166C295.693 214.166 335.091 174.768 335.091 126.168C335.091 77.5673 295.693 38.1689 247.092 38.1689C198.492 38.1689 159.094 77.5673 159.094 126.168C159.094 174.768 198.492 214.166 247.092 214.166Z" fill="#E8F1FE"/>
<path d="M140.468 246.418C188.797 246.418 227.976 213.012 227.976 171.805C227.976 130.598 188.797 97.1924 140.468 97.1924C92.1379 97.1924 52.959 130.598 52.959 171.805C52.959 213.012 92.1379 246.418 140.468 246.418Z" fill="#E8F1FE"/>
<path d="M354.174 246.418C402.503 246.418 441.682 213.012 441.682 171.805C441.682 130.598 402.503 97.1924 354.174 97.1924C305.844 97.1924 266.665 130.598 266.665 171.805C266.665 213.012 305.844 246.418 354.174 246.418Z" fill="#E8F1FE"/>
<path d="M247.314 268.526C295.644 268.526 334.823 234.708 334.823 192.992C334.823 151.276 295.644 117.458 247.314 117.458C198.985 117.458 159.806 151.276 159.806 192.992C159.806 234.708 198.985 268.526 247.314 268.526Z" fill="#E8F1FE"/>
<g filter="url(#filter0_d)">
<path d="M326.958 117.067H39.9466C36.9558 117.067 34.5312 119.492 34.5312 122.483V209.127C34.5312 212.118 36.9558 214.543 39.9466 214.543H326.958C329.948 214.543 332.373 212.118 332.373 209.127V122.483C332.373 119.492 329.948 117.067 326.958 117.067Z" fill="#709DFF"/>
<path d="M106.515 136.087H58.7151C55.7243 136.087 53.2998 138.511 53.2998 141.502V190.107C53.2998 193.098 55.7243 195.523 58.7151 195.523H106.515C109.505 195.523 111.93 193.098 111.93 190.107V141.502C111.93 138.511 109.505 136.087 106.515 136.087Z" fill="#BED3FF"/>
<path d="M310.904 137.276H133.393C131.898 137.276 130.686 138.489 130.686 139.984V146.455C130.686 147.951 131.898 149.163 133.393 149.163H310.904C312.399 149.163 313.612 147.951 313.612 146.455V139.984C313.612 138.489 312.399 137.276 310.904 137.276Z" fill="#BED3FF"/>
<path d="M252.273 158.674H133.392C131.897 158.674 130.685 159.886 130.685 161.381V167.853C130.685 169.348 131.897 170.56 133.392 170.56H252.273C253.768 170.56 254.981 169.348 254.981 167.853V161.381C254.981 159.886 253.768 158.674 252.273 158.674Z" fill="#BED3FF"/>
<path d="M156.748 180.071H137.454C133.715 180.071 130.685 183.102 130.685 186.84V187.567C130.685 191.306 133.715 194.337 137.454 194.337H156.748C160.487 194.337 163.518 191.306 163.518 187.567V186.84C163.518 183.102 160.487 180.071 156.748 180.071Z" fill="#BED3FF"/>
<path d="M198.957 180.071H179.663C175.924 180.071 172.894 183.102 172.894 186.84V187.567C172.894 191.306 175.924 194.337 179.663 194.337H198.957C202.696 194.337 205.727 191.306 205.727 187.567V186.84C205.727 183.102 202.696 180.071 198.957 180.071Z" fill="#BED3FF"/>
</g>
<g filter="url(#filter1_d)">
<path d="M333.718 156.328C354.653 156.328 371.625 139.356 371.625 118.421C371.625 97.4853 354.653 80.5137 333.718 80.5137C312.782 80.5137 295.811 97.4853 295.811 118.421C295.811 139.356 312.782 156.328 333.718 156.328Z" fill="black"/>
</g>
<path d="M333.718 156.328C354.653 156.328 371.625 139.356 371.625 118.421C371.625 97.4853 354.653 80.5137 333.718 80.5137C312.782 80.5137 295.811 97.4853 295.811 118.421C295.811 139.356 312.782 156.328 333.718 156.328Z" fill="white"/>
<path d="M333.278 135.916C333.121 135.916 332.967 135.876 332.825 135.798C332.65 135.701 328.493 133.375 324.273 129.565C321.776 127.312 319.784 125.006 318.346 122.712C316.513 119.786 315.586 116.866 315.586 114.034C315.586 108.642 319.972 104.257 325.363 104.257C327.188 104.257 329.127 104.94 330.821 106.182C331.812 106.909 332.656 107.784 333.278 108.713C333.9 107.784 334.743 106.909 335.734 106.182C337.429 104.94 339.367 104.257 341.192 104.257C346.583 104.257 350.969 108.642 350.969 114.034C350.969 116.866 350.04 119.786 348.209 122.712C346.773 125.006 344.779 127.312 342.284 129.565C338.064 133.375 333.907 135.701 333.732 135.798C333.59 135.876 333.436 135.916 333.279 135.916H333.278Z" fill="#F86E7F"/>
<g filter="url(#filter2_d)">
<mask id="path-14-inside-1" fill="white">
<path fill-rule="evenodd" clip-rule="evenodd" d="M305.971 202.162L305.978 202.035L307.139 191.326L306.538 192.165C306.191 192.651 305.515 192.764 305.028 192.417C304.576 192.094 304.447 191.488 304.709 191.013L304.776 190.906L305.377 190.067L295.621 194.636C295.121 194.87 294.533 194.689 294.246 194.234L294.181 194.115C293.947 193.615 294.128 193.027 294.583 192.74L294.702 192.675L308.201 186.352L309.944 185.536L309.736 187.449L308.131 202.269C308.066 202.863 307.532 203.293 306.937 203.228C306.386 203.169 305.976 202.704 305.971 202.162ZM405.965 246.736C405.393 246.559 405.074 245.953 405.251 245.382C406.942 239.927 410.127 237.105 414.013 238.287C414.586 238.461 414.908 239.066 414.734 239.638C414.56 240.21 413.956 240.532 413.384 240.358C410.908 239.606 408.703 241.559 407.319 246.023C407.142 246.594 406.536 246.913 405.965 246.736ZM294.927 211.408C294.361 211.216 294.058 210.601 294.25 210.035C295.403 206.643 296.882 203.279 298.687 199.958C298.973 199.433 299.631 199.238 300.156 199.524C300.681 199.81 300.875 200.467 300.59 200.992C298.842 204.206 297.414 207.457 296.301 210.732C296.108 211.298 295.493 211.601 294.927 211.408ZM417.979 258.508C417.472 258.191 417.319 257.522 417.637 257.016C419.751 253.647 420.432 250.433 419.633 247.504C419.476 246.927 419.816 246.332 420.393 246.174C420.97 246.017 421.565 246.357 421.722 246.934C422.694 250.5 421.885 254.319 419.471 258.167C419.154 258.673 418.485 258.826 417.979 258.508ZM529.67 312.002C529.231 311.596 529.204 310.911 529.61 310.472C531.987 307.899 534.229 305.123 536.32 302.159C536.665 301.67 537.34 301.554 537.829 301.898C538.317 302.243 538.434 302.919 538.089 303.407C535.944 306.449 533.643 309.299 531.2 311.942C530.794 312.381 530.109 312.408 529.67 312.002ZM401.295 272.158C400.999 271.638 401.181 270.977 401.701 270.681C402.979 269.954 404.205 269.209 405.373 268.451L405.759 268.198L405.67 268.167C405.374 268.049 405.136 267.804 405.037 267.485L405.006 267.362C404.285 263.556 403.91 259.857 403.878 256.402C403.872 255.804 404.352 255.315 404.95 255.31C405.548 255.304 406.037 255.784 406.043 256.382C406.074 259.706 406.436 263.277 407.134 266.959C407.149 267.043 407.155 267.127 407.152 267.209L407.147 267.257L407.411 267.072C408.289 266.453 409.128 265.827 409.926 265.194L410.517 264.719C410.979 264.34 411.661 264.409 412.04 264.871C412.418 265.334 412.35 266.016 411.887 266.395C409.263 268.54 406.198 270.614 402.771 272.563C402.252 272.859 401.591 272.677 401.295 272.158ZM291.307 231.909C291.06 228.254 291.182 224.565 291.683 220.87C291.764 220.277 292.309 219.862 292.902 219.942C293.494 220.023 293.909 220.568 293.829 221.161C293.347 224.711 293.23 228.254 293.468 231.763C293.508 232.36 293.057 232.876 292.461 232.916C291.864 232.957 291.348 232.506 291.307 231.909ZM512.641 325.277C512.343 324.759 512.522 324.097 513.041 323.799C516.085 322.054 519.02 320.04 521.827 317.772C522.292 317.396 522.974 317.468 523.35 317.933C523.726 318.398 523.653 319.08 523.188 319.456C520.292 321.796 517.262 323.875 514.118 325.678C513.6 325.975 512.938 325.796 512.641 325.277ZM412.16 288.067C410.473 284.762 409.035 281.382 407.851 277.971C407.655 277.406 407.954 276.789 408.519 276.593C409.083 276.397 409.7 276.696 409.896 277.261C411.048 280.579 412.447 283.867 414.089 287.082C414.361 287.615 414.15 288.267 413.617 288.539C413.084 288.811 412.432 288.6 412.16 288.067ZM381.4 280.398C381.221 279.827 381.539 279.22 382.11 279.041C385.596 277.952 388.969 276.717 392.178 275.357C392.729 275.124 393.364 275.381 393.597 275.932C393.831 276.483 393.573 277.118 393.023 277.351C389.748 278.738 386.308 279.998 382.756 281.108C382.185 281.286 381.578 280.968 381.4 280.398ZM297.157 253.132C295.495 249.819 294.16 246.374 293.179 242.836C293.019 242.26 293.356 241.663 293.932 241.503C294.508 241.343 295.105 241.681 295.265 242.257C296.209 245.658 297.492 248.973 299.092 252.161C299.36 252.696 299.144 253.346 298.61 253.615C298.076 253.883 297.425 253.667 297.157 253.132ZM424.672 306.065C422.175 303.341 419.889 300.481 417.817 297.502C417.475 297.012 417.596 296.337 418.087 295.995C418.578 295.654 419.253 295.775 419.594 296.266C421.611 299.165 423.837 301.95 426.268 304.601C426.672 305.042 426.642 305.727 426.202 306.131C425.761 306.535 425.076 306.505 424.672 306.065ZM492.24 332.287C492.138 331.698 492.533 331.138 493.122 331.036C496.615 330.432 500.046 329.516 503.394 328.295C503.956 328.09 504.577 328.379 504.782 328.941C504.987 329.503 504.698 330.124 504.136 330.329C500.667 331.594 497.111 332.544 493.491 333.17C492.902 333.272 492.341 332.876 492.24 332.287ZM360.132 284.769C360.06 284.176 360.483 283.636 361.076 283.564C364.619 283.135 368.157 282.54 371.657 281.788C372.241 281.663 372.817 282.035 372.943 282.619C373.068 283.204 372.696 283.78 372.111 283.905C368.548 284.67 364.945 285.277 361.337 285.714C360.743 285.786 360.204 285.363 360.132 284.769ZM310.381 270.608C307.67 268.109 305.186 265.378 302.97 262.454C302.608 261.977 302.702 261.298 303.178 260.937C303.655 260.576 304.334 260.669 304.695 261.146C306.834 263.967 309.232 266.604 311.849 269.015C312.288 269.421 312.316 270.106 311.911 270.545C311.506 270.985 310.821 271.013 310.381 270.608ZM441.353 320.273C438.411 318.282 435.502 316.08 432.633 313.668C432.175 313.283 432.116 312.6 432.5 312.142C432.885 311.685 433.568 311.625 434.026 312.01C436.839 314.374 439.688 316.531 442.566 318.479C443.062 318.815 443.191 319.488 442.856 319.983C442.521 320.478 441.848 320.608 441.353 320.273ZM470.584 331.759C470.691 331.171 471.255 330.781 471.843 330.887C475.392 331.532 478.93 331.869 482.438 331.901C483.036 331.906 483.516 332.395 483.511 332.993C483.505 333.591 483.016 334.071 482.419 334.066C478.787 334.033 475.126 333.685 471.456 333.018C470.868 332.911 470.478 332.347 470.584 331.759ZM338.621 284.281C338.734 283.694 339.302 283.31 339.889 283.423C343.399 284.101 346.935 284.412 350.45 284.344C351.048 284.332 351.542 284.808 351.553 285.406C351.565 286.003 351.09 286.497 350.492 286.509C346.823 286.58 343.136 286.255 339.479 285.549C338.892 285.436 338.508 284.868 338.621 284.281ZM328.895 282.399C325.511 281.025 322.231 279.326 319.108 277.333C318.604 277.011 318.456 276.341 318.778 275.837C319.099 275.333 319.769 275.186 320.273 275.507C323.285 277.43 326.448 279.068 329.71 280.392C330.264 280.617 330.531 281.249 330.306 281.803C330.081 282.357 329.45 282.623 328.895 282.399ZM450.825 325.896C450.293 325.623 450.082 324.971 450.355 324.438C450.628 323.906 451.28 323.696 451.812 323.969C455.065 325.636 458.338 327.041 461.623 328.183C462.187 328.38 462.486 328.997 462.289 329.562C462.093 330.126 461.476 330.425 460.911 330.228C457.531 329.052 454.165 327.608 450.825 325.896Z"/>
</mask>
<path fill-rule="evenodd" clip-rule="evenodd" d="M305.971 202.162L305.978 202.035L307.139 191.326L306.538 192.165C306.191 192.651 305.515 192.764 305.028 192.417C304.576 192.094 304.447 191.488 304.709 191.013L304.776 190.906L305.377 190.067L295.621 194.636C295.121 194.87 294.533 194.689 294.246 194.234L294.181 194.115C293.947 193.615 294.128 193.027 294.583 192.74L294.702 192.675L308.201 186.352L309.944 185.536L309.736 187.449L308.131 202.269C308.066 202.863 307.532 203.293 306.937 203.228C306.386 203.169 305.976 202.704 305.971 202.162ZM405.965 246.736C405.393 246.559 405.074 245.953 405.251 245.382C406.942 239.927 410.127 237.105 414.013 238.287C414.586 238.461 414.908 239.066 414.734 239.638C414.56 240.21 413.956 240.532 413.384 240.358C410.908 239.606 408.703 241.559 407.319 246.023C407.142 246.594 406.536 246.913 405.965 246.736ZM294.927 211.408C294.361 211.216 294.058 210.601 294.25 210.035C295.403 206.643 296.882 203.279 298.687 199.958C298.973 199.433 299.631 199.238 300.156 199.524C300.681 199.81 300.875 200.467 300.59 200.992C298.842 204.206 297.414 207.457 296.301 210.732C296.108 211.298 295.493 211.601 294.927 211.408ZM417.979 258.508C417.472 258.191 417.319 257.522 417.637 257.016C419.751 253.647 420.432 250.433 419.633 247.504C419.476 246.927 419.816 246.332 420.393 246.174C420.97 246.017 421.565 246.357 421.722 246.934C422.694 250.5 421.885 254.319 419.471 258.167C419.154 258.673 418.485 258.826 417.979 258.508ZM529.67 312.002C529.231 311.596 529.204 310.911 529.61 310.472C531.987 307.899 534.229 305.123 536.32 302.159C536.665 301.67 537.34 301.554 537.829 301.898C538.317 302.243 538.434 302.919 538.089 303.407C535.944 306.449 533.643 309.299 531.2 311.942C530.794 312.381 530.109 312.408 529.67 312.002ZM401.295 272.158C400.999 271.638 401.181 270.977 401.701 270.681C402.979 269.954 404.205 269.209 405.373 268.451L405.759 268.198L405.67 268.167C405.374 268.049 405.136 267.804 405.037 267.485L405.006 267.362C404.285 263.556 403.91 259.857 403.878 256.402C403.872 255.804 404.352 255.315 404.95 255.31C405.548 255.304 406.037 255.784 406.043 256.382C406.074 259.706 406.436 263.277 407.134 266.959C407.149 267.043 407.155 267.127 407.152 267.209L407.147 267.257L407.411 267.072C408.289 266.453 409.128 265.827 409.926 265.194L410.517 264.719C410.979 264.34 411.661 264.409 412.04 264.871C412.418 265.334 412.35 266.016 411.887 266.395C409.263 268.54 406.198 270.614 402.771 272.563C402.252 272.859 401.591 272.677 401.295 272.158ZM291.307 231.909C291.06 228.254 291.182 224.565 291.683 220.87C291.764 220.277 292.309 219.862 292.902 219.942C293.494 220.023 293.909 220.568 293.829 221.161C293.347 224.711 293.23 228.254 293.468 231.763C293.508 232.36 293.057 232.876 292.461 232.916C291.864 232.957 291.348 232.506 291.307 231.909ZM512.641 325.277C512.343 324.759 512.522 324.097 513.041 323.799C516.085 322.054 519.02 320.04 521.827 317.772C522.292 317.396 522.974 317.468 523.35 317.933C523.726 318.398 523.653 319.08 523.188 319.456C520.292 321.796 517.262 323.875 514.118 325.678C513.6 325.975 512.938 325.796 512.641 325.277ZM412.16 288.067C410.473 284.762 409.035 281.382 407.851 277.971C407.655 277.406 407.954 276.789 408.519 276.593C409.083 276.397 409.7 276.696 409.896 277.261C411.048 280.579 412.447 283.867 414.089 287.082C414.361 287.615 414.15 288.267 413.617 288.539C413.084 288.811 412.432 288.6 412.16 288.067ZM381.4 280.398C381.221 279.827 381.539 279.22 382.11 279.041C385.596 277.952 388.969 276.717 392.178 275.357C392.729 275.124 393.364 275.381 393.597 275.932C393.831 276.483 393.573 277.118 393.023 277.351C389.748 278.738 386.308 279.998 382.756 281.108C382.185 281.286 381.578 280.968 381.4 280.398ZM297.157 253.132C295.495 249.819 294.16 246.374 293.179 242.836C293.019 242.26 293.356 241.663 293.932 241.503C294.508 241.343 295.105 241.681 295.265 242.257C296.209 245.658 297.492 248.973 299.092 252.161C299.36 252.696 299.144 253.346 298.61 253.615C298.076 253.883 297.425 253.667 297.157 253.132ZM424.672 306.065C422.175 303.341 419.889 300.481 417.817 297.502C417.475 297.012 417.596 296.337 418.087 295.995C418.578 295.654 419.253 295.775 419.594 296.266C421.611 299.165 423.837 301.95 426.268 304.601C426.672 305.042 426.642 305.727 426.202 306.131C425.761 306.535 425.076 306.505 424.672 306.065ZM492.24 332.287C492.138 331.698 492.533 331.138 493.122 331.036C496.615 330.432 500.046 329.516 503.394 328.295C503.956 328.09 504.577 328.379 504.782 328.941C504.987 329.503 504.698 330.124 504.136 330.329C500.667 331.594 497.111 332.544 493.491 333.17C492.902 333.272 492.341 332.876 492.24 332.287ZM360.132 284.769C360.06 284.176 360.483 283.636 361.076 283.564C364.619 283.135 368.157 282.54 371.657 281.788C372.241 281.663 372.817 282.035 372.943 282.619C373.068 283.204 372.696 283.78 372.111 283.905C368.548 284.67 364.945 285.277 361.337 285.714C360.743 285.786 360.204 285.363 360.132 284.769ZM310.381 270.608C307.67 268.109 305.186 265.378 302.97 262.454C302.608 261.977 302.702 261.298 303.178 260.937C303.655 260.576 304.334 260.669 304.695 261.146C306.834 263.967 309.232 266.604 311.849 269.015C312.288 269.421 312.316 270.106 311.911 270.545C311.506 270.985 310.821 271.013 310.381 270.608ZM441.353 320.273C438.411 318.282 435.502 316.08 432.633 313.668C432.175 313.283 432.116 312.6 432.5 312.142C432.885 311.685 433.568 311.625 434.026 312.01C436.839 314.374 439.688 316.531 442.566 318.479C443.062 318.815 443.191 319.488 442.856 319.983C442.521 320.478 441.848 320.608 441.353 320.273ZM470.584 331.759C470.691 331.171 471.255 330.781 471.843 330.887C475.392 331.532 478.93 331.869 482.438 331.901C483.036 331.906 483.516 332.395 483.511 332.993C483.505 333.591 483.016 334.071 482.419 334.066C478.787 334.033 475.126 333.685 471.456 333.018C470.868 332.911 470.478 332.347 470.584 331.759ZM338.621 284.281C338.734 283.694 339.302 283.31 339.889 283.423C343.399 284.101 346.935 284.412 350.45 284.344C351.048 284.332 351.542 284.808 351.553 285.406C351.565 286.003 351.09 286.497 350.492 286.509C346.823 286.58 343.136 286.255 339.479 285.549C338.892 285.436 338.508 284.868 338.621 284.281ZM328.895 282.399C325.511 281.025 322.231 279.326 319.108 277.333C318.604 277.011 318.456 276.341 318.778 275.837C319.099 275.333 319.769 275.186 320.273 275.507C323.285 277.43 326.448 279.068 329.71 280.392C330.264 280.617 330.531 281.249 330.306 281.803C330.081 282.357 329.45 282.623 328.895 282.399ZM450.825 325.896C450.293 325.623 450.082 324.971 450.355 324.438C450.628 323.906 451.28 323.696 451.812 323.969C455.065 325.636 458.338 327.041 461.623 328.183C462.187 328.38 462.486 328.997 462.289 329.562C462.093 330.126 461.476 330.425 460.911 330.228C457.531 329.052 454.165 327.608 450.825 325.896Z" stroke="#4864C9" stroke-width="2" mask="url(#path-14-inside-1)"/>
</g>
<path fill-rule="evenodd" clip-rule="evenodd" d="M578.383 105.859C568.599 97.9793 575.252 65.5761 598.567 73.5106C600.998 74.3381 597.88 76.7738 599.211 77.9562C606.126 84.1002 639.729 84.5002 646.21 115.66C647.782 126.936 638.032 145.526 638.324 156.871C638.616 168.216 652.94 188.899 640.677 209.343C637.093 204.492 632.183 200.547 625.948 197.505C621.433 195.303 604.595 190.855 587.599 185.71C569.38 180.195 551.467 172.221 547.518 164.664C545.093 160.023 538.164 156.984 538.011 153.73C537.058 133.484 568.919 128.934 578.383 105.859Z" fill="#10173D"/>
<path fill-rule="evenodd" clip-rule="evenodd" d="M576.637 137.359L594.468 139.219C587.61 161.089 585.34 176.797 587.659 186.344C566.482 209.227 491.598 196.816 547.516 164.663C563.625 172.181 573.332 163.08 576.637 137.359Z" fill="#F5C0A5"/>
<path fill-rule="evenodd" clip-rule="evenodd" d="M555.661 134.082C557.436 141.321 576.344 152.451 595.17 147.835C599.353 150.614 605.44 151.305 609.905 149.964C613.454 148.898 618.353 142.549 612.566 139.936C621.132 133.679 625.764 125.225 623.836 117.364C620.841 105.152 603.153 98.9952 584.327 103.612C565.501 108.228 553.886 126.844 555.661 134.082Z" fill="#FFCEB5"/>
<path fill-rule="evenodd" clip-rule="evenodd" d="M634.156 366.397C645.888 406.941 653.046 429.217 655.63 433.227C657.526 436.167 670.074 444.359 678.656 448.886C682.101 450.703 681.075 453.621 679.943 454.489C670.739 461.553 663.478 455.178 654.521 452.198C644.707 448.934 646.814 460.941 639.049 458.483C640.777 453.213 645.078 443.289 641.896 437.427C640.481 434.822 630.337 411.999 611.462 368.959L634.156 366.397Z" fill="#F5C0A5"/>
<path fill-rule="evenodd" clip-rule="evenodd" d="M639.983 210.336C617.123 244.678 601.586 263.493 593.372 266.783C581.051 271.716 586.7 281.089 585.195 282.921C583.548 284.926 560.669 275.691 571.432 257.018C574.765 251.235 597.615 235.674 639.983 210.336Z" fill="#263471"/>
<path fill-rule="evenodd" clip-rule="evenodd" d="M442.442 281.336C433.554 305.78 415.276 325.122 412.643 325.299C335.609 330.48 272.01 345.642 265.832 351.326C246.029 369.548 165.955 418.849 138.528 432.76C111.1 446.671 88.0668 435.603 76.2582 437.766C64.4496 439.93 86.719 459.276 94.9802 460.47C103.242 461.663 111.771 459.951 119.013 460.997C126.255 462.044 134.466 473.554 141.38 469.391C148.293 465.228 157.608 448.82 161.997 446.095C164.923 444.278 205.836 425.859 284.736 390.836L452.416 363.129C464.558 334.264 472.659 312.48 476.717 297.777C466.741 293.102 455.316 287.622 442.442 281.336Z" fill="#F5C0A5"/>
<path fill-rule="evenodd" clip-rule="evenodd" d="M442.444 281.335C433.556 305.779 415.277 325.121 412.645 325.298C335.61 330.479 276.748 343.356 265.834 351.325C243.139 367.897 162.797 414.11 135.369 428.021C153.268 446.225 163.68 454.419 166.606 452.602C169.532 450.786 208.909 430.197 284.737 390.835L452.418 363.129C464.56 334.263 472.66 312.479 476.719 297.776C466.743 293.101 455.318 287.621 442.444 281.335Z" fill="#608FF5"/>
<path fill-rule="evenodd" clip-rule="evenodd" d="M476.717 297.776C464.166 319.484 458.672 332.396 452.26 358.041C414.21 364.19 383.614 369.658 382.252 369.904C352.482 375.277 325.475 381.381 301.231 388.216C295.196 389.917 296.172 394.647 284.129 395.841C221.208 402.08 116.89 412.529 101.925 413.172C86.9604 413.815 39.4309 404.167 34.3093 408.77C29.1877 413.372 48.2472 435.5 58.8872 437.037C69.5273 438.574 82.0722 432.321 88.5896 429.758C95.107 427.195 217.712 429.215 246.319 426.625C274.926 424.034 302.078 431.345 310.127 430.678C315.365 430.244 495.575 463.037 516.181 427.636C536.787 392.234 542.21 328.281 548.368 312.087C534.796 310.739 491.335 303.036 476.717 297.776Z" fill="#F5C0A5"/>
<path fill-rule="evenodd" clip-rule="evenodd" d="M476.724 297.777C464.172 319.486 458.679 332.398 452.266 358.042C414.217 364.191 383.62 369.66 382.259 369.906C352.488 375.278 325.812 376.832 301.568 383.668C295.534 385.369 291.504 389.843 279.461 391.037C231.668 395.775 135.708 407.666 102.623 409.235C102.639 424.463 103.244 432.067 104.437 432.045C110.719 431.932 221.752 442.579 250.358 439.989C278.965 437.399 302.085 431.347 310.133 430.68C315.371 430.246 508.94 475.823 529.546 440.422C550.152 405.02 542.216 328.282 548.375 312.088C534.803 310.741 491.342 303.037 476.724 297.777Z" fill="#709DFF"/>
<path fill-rule="evenodd" clip-rule="evenodd" d="M547.515 164.663C539.326 150.074 520.45 142.711 508.589 146.906C500.682 149.703 494.435 160.835 489.848 180.303C464.899 190.009 457.35 204.56 467.201 223.958C466.903 224.58 466.777 225.351 466.307 225.827C455.328 263.14 439.445 286.813 412.642 325.298C439.972 371.446 501.799 398.751 557.316 394.289C585.772 392.002 595.497 272.534 599.362 263.397C596.777 282.88 593.071 320.848 595.409 335.463C597.746 350.079 629.406 428.553 635.014 435.251C640.622 441.948 670.006 425.484 665.412 422.355C660.818 419.225 634.851 340.71 630.235 323.893C625.618 307.076 648.701 224.242 641.053 209.325C635.955 199.381 618.097 191.453 587.48 185.541C563.677 195.158 546.444 197.272 535.781 191.882C525.117 186.493 529.028 177.42 547.515 164.663Z" fill="#F86E7F"/>
<path fill-rule="evenodd" clip-rule="evenodd" d="M578.192 105.698C589.634 115.9 617.085 113.219 617.598 125.94C618.003 135.968 611.355 140.119 612.566 139.937C619.428 136.965 641.924 118.251 625.146 104.544C608.368 90.8372 581.546 101.176 578.192 105.698Z" fill="#10173D"/>
<defs>
<filter id="filter0_d" x="0.53125" y="87.0674" width="365.842" height="165.475" filterUnits="userSpaceOnUse" color-interpolation-filters="sRGB">
<feFlood flood-opacity="0" result="BackgroundImageFix"/>
<feColorMatrix in="SourceAlpha" type="matrix" values="0 0 0 0 0 0 0 0 0 0 0 0 0 0 0 0 0 0 127 0"/>
<feOffset dy="4"/>
<feGaussianBlur stdDeviation="17"/>
<feColorMatrix type="matrix" values="0 0 0 0 0.14902 0 0 0 0 0.203922 0 0 0 0 0.443137 0 0 0 0.15 0"/>
<feBlend mode="normal" in2="BackgroundImageFix" result="effect1_dropShadow"/>
<feBlend mode="normal" in="SourceGraphic" in2="effect1_dropShadow" result="shape"/>
</filter>
<filter id="filter1_d" x="261.811" y="50.5137" width="143.814" height="143.814" filterUnits="userSpaceOnUse" color-interpolation-filters="sRGB">
<feFlood flood-opacity="0" result="BackgroundImageFix"/>
<feColorMatrix in="SourceAlpha" type="matrix" values="0 0 0 0 0 0 0 0 0 0 0 0 0 0 0 0 0 0 127 0"/>
<feOffset dy="4"/>
<feGaussianBlur stdDeviation="17"/>
<feColorMatrix type="matrix" values="0 0 0 0 0 0 0 0 0 0 0 0 0 0 0 0 0 0 0.15 0"/>
<feBlend mode="normal" in2="BackgroundImageFix" result="effect1_dropShadow"/>
<feBlend mode="normal" in="SourceGraphic" in2="effect1_dropShadow" result="shape"/>
</filter>
<filter id="filter2_d" x="255.407" y="171.339" width="307.71" height="199.377" filterUnits="userSpaceOnUse" color-interpolation-filters="sRGB">
<feFlood flood-opacity="0" result="BackgroundImageFix"/>
<feColorMatrix in="SourceAlpha" type="matrix" values="0 0 0 0 0 0 0 0 0 0 0 0 0 0 0 0 0 0 127 0"/>
<feOffset dy="4"/>
<feGaussianBlur stdDeviation="7"/>
<feColorMatrix type="matrix" values="0 0 0 0 0.14902 0 0 0 0 0.203922 0 0 0 0 0.443137 0 0 0 0.25 0"/>
<feBlend mode="normal" in2="BackgroundImageFix" result="effect1_dropShadow"/>
<feBlend mode="normal" in="SourceGraphic" in2="effect1_dropShadow" result="shape"/>
</filter>
</defs>
</svg>
