<svg width="18" height="18" viewBox="0 0 18 18" fill="none" xmlns="http://www.w3.org/2000/svg">
    <path d="M7.63758 15.5276L9.24592 12.7426C8.5353 12.7893 7.82607 12.6327 7.20122 12.2911C6.57637 11.9494 6.06175 11.4369 5.71758 10.8134L2.99508 6.10008C2.55478 7.01216 2.32799 8.01254 2.33192 9.02533C2.33585 10.0381 2.57039 11.0367 3.01776 11.9453C3.46513 12.854 4.11357 13.6488 4.91389 14.2695C5.7142 14.8901 6.64537 15.3204 7.63675 15.5276H7.63758ZM9.49175 15.6492C10.5018 15.5749 11.4817 15.2714 12.357 14.7618C13.2322 14.2522 13.9799 13.5498 14.5431 12.7081C15.1064 11.8663 15.4704 10.9073 15.6076 9.90384C15.7449 8.90036 15.6517 7.87881 15.3351 6.91675H12.1184C12.5313 7.53302 12.7512 8.25831 12.7501 9.00008C12.7512 9.6807 12.5662 10.3487 12.2151 10.9317L9.49175 15.6484V15.6492ZM10.7859 10.0734L10.8042 10.0417C10.9862 9.72651 11.0824 9.36911 11.0833 9.00512C11.0841 8.64114 10.9896 8.28328 10.8091 7.96719C10.6287 7.6511 10.3685 7.38781 10.0546 7.20355C9.74072 7.01928 9.38402 6.92048 9.02006 6.91696C8.65609 6.91345 8.29755 7.00536 7.98015 7.18354C7.66276 7.36171 7.39758 7.61993 7.21104 7.93248C7.02449 8.24503 6.92309 8.601 6.91693 8.96493C6.91076 9.32887 7.00006 9.68806 7.17591 10.0067L7.19592 10.0417C7.37703 10.356 7.63708 10.6175 7.95033 10.8004C8.26358 10.9833 8.61916 11.0811 8.98186 11.0843C9.34456 11.0875 9.70181 10.9959 10.0182 10.8186C10.3347 10.6413 10.5993 10.3844 10.7859 10.0734ZM4.02925 4.55675L5.63675 7.34008C5.94652 6.7126 6.42569 6.1843 7.02006 5.81496C7.61443 5.44561 8.3003 5.24994 9.00008 5.25008H14.5126C13.9016 4.35094 13.0797 3.61504 12.1188 3.10663C11.1579 2.59822 10.0872 2.33275 9.00008 2.33341C8.06149 2.33235 7.1333 2.52999 6.27655 2.91334C5.41981 3.29668 4.65392 3.85705 4.02925 4.55758V4.55675ZM9.00008 17.3334C4.39758 17.3334 0.666748 13.6026 0.666748 9.00008C0.666748 4.39758 4.39758 0.666748 9.00008 0.666748C13.6026 0.666748 17.3334 4.39758 17.3334 9.00008C17.3334 13.6026 13.6026 17.3334 9.00008 17.3334Z" fill="#9FA2B1"/>
</svg>
