<?xml version="1.0" encoding="UTF-8" standalone="no"?>
<svg width="821px" height="900px" viewBox="0 0 821 900" version="1.1" xmlns="http://www.w3.org/2000/svg" xmlns:xlink="http://www.w3.org/1999/xlink">
    <!-- Generator: Sketch 47.1 (45422) - http://www.bohemiancoding.com/sketch -->
    <title>hiresweet-logo</title>
    <desc>Created with Sketch.</desc>
    <defs></defs>
    <g id="Page-1" stroke="none" stroke-width="1" fill="none" fill-rule="evenodd">
        <g id="hiresweet-logo" fill-rule="nonzero" fill="#FFFFFF">
            <path d="M407.9805,0 C441.723718,0 525.016803,37.6905848 619.159676,91.9802514 C662.05074,116.714376 702.587181,142.442573 733.939966,164.948365 C769.554188,190.51312 791.991208,210.651141 799.5635,226.001599 C812.709668,252.651351 820.465889,345.371208 820.975722,453.460746 C821.214281,504.037448 819.692051,552.253271 816.528806,590.2508 C812.834975,634.621837 807.399455,663.199128 798.190707,676.313569 C782.64587,698.451417 706.513302,751.500842 617.284476,804.372099 C519.818641,862.124078 440.535409,900 407.9805,900 C389.90448,900 359.907341,889.377878 318.486128,869.81532 C282.532366,852.834949 239.099797,829.47755 194.919792,803.544135 C152.169165,778.449758 111.155585,752.361337 79.6555115,730.185981 C43.7588729,704.915541 22.4261891,686.722851 16.2781566,673.751621 C10.6405195,661.857233 6.94942059,633.64117 4.16094537,589.541468 C1.69171004,550.490541 0.234136293,501.162395 0.0259213763,450.92308 C-0.186869893,399.579557 0.912767984,350.442273 3.23954161,311.787165 C5.94479627,266.844284 9.92609232,238.220036 16.6229709,225.560374 C23.5133804,212.534866 45.3158547,193.932792 80.7472662,168.878399 C112.313758,146.556983 153.084723,120.526406 195.450786,95.6124301 C292.659664,38.4473434 374.526797,0 407.9805,0 Z M407.980746,35 C383.680958,35 303.601271,72.6115417 213.179647,125.79043 C171.61464,150.235698 131.658537,175.748486 100.94983,197.465443 C85.3942418,208.466234 72.5422493,218.259318 63.0595757,226.350806 C58.367851,230.354217 54.5740943,233.879825 51.7649293,236.832599 C49.4193613,239.298076 47.9756452,241.147879 47.5568568,241.939626 C44.2466161,248.197852 40.514931,275.030072 38.1759166,313.892298 C35.8989891,351.722964 34.8157257,400.133236 35.0256002,450.777875 C35.2311058,500.368285 36.668584,549.021049 39.0907007,587.330501 C41.5257733,625.844871 45.0397832,652.709802 47.9016378,658.748379 C48.6728135,660.375577 53.8178242,665.85161 62.193812,672.995413 C71.4834813,680.918486 84.2431184,690.60512 99.7981839,701.556602 C130.448843,723.136076 170.661002,748.717194 212.624731,773.35205 C303.696263,826.815698 384.538815,865 407.980746,865 C431.245084,865 509.055443,827.824117 599.456619,774.253018 C683.251112,724.596993 758.182366,672.379597 769.551844,656.186431 C770.091444,655.417897 771.04429,653.284334 772.076367,650.047772 C773.323566,646.136594 774.548155,641.074483 775.707701,634.97757 C778.04691,622.677972 780.049571,606.571019 781.650029,587.344142 C784.71945,550.470066 786.210169,503.247773 785.976137,453.626002 C785.498245,352.298399 777.874616,261.154763 768.179184,241.498401 C764.132829,233.294885 744.21239,215.413854 713.535925,193.391412 C683.206304,171.617966 643.631909,146.497943 601.688358,122.307883 C513.865858,71.6581069 432.8623,35 407.980746,35 Z M169.973213,395.20042 C161.67439,391.453482 156.535481,383.008191 157.033175,373.937432 C157.527924,364.869609 163.559148,357.032167 172.217253,354.207282 L620.044483,208.094345 C627.91629,205.524932 636.55378,207.559907 642.437758,213.359437 C648.321736,219.158968 650.465647,227.75402 647.983068,235.626699 L505.875293,686.577653 C503.15712,695.199133 495.435503,701.289374 486.394557,701.941271 C485.861524,701.982381 485.325546,702 484.795459,702 C476.361168,702 468.601268,697.19006 464.902431,689.528807 L368.995397,484.309316 L169.973213,395.20042 Z M262.798578,588.719392 C262.798578,588.719392 304.995969,582.890769 330.105865,572.700109 L350,596.545411 C346.918898,600.911973 343.361974,605.050509 339.080925,608.663401 C312.038713,631.485052 189,651 189,651 C189,651 229.491114,532.542699 256.533326,509.721047 C260.814375,506.108155 265.457894,503.282395 270.286469,501 L290.184884,524.850433 C275.841879,547.946395 262.798578,588.719392 262.798578,588.719392 Z M404.000872,459.423553 L480.512225,620 L593,263 L240,378.190089 L390.996704,446.410203 C396.900123,448.860229 401.234845,453.198013 404.000872,459.423553 Z" id="logo-hiresweet"></path>
        </g>
    </g>
</svg>