<?xml version="1.0" encoding="UTF-8"?>
<svg width="1437px" height="388px" viewBox="0 0 1437 388" version="1.1" xmlns="http://www.w3.org/2000/svg" xmlns:xlink="http://www.w3.org/1999/xlink">
    <!-- Generator: Sketch 39 (31667) - http://www.bohemiancoding.com/sketch -->
    <title>Artboard</title>
    <desc>Created with Sketch.</desc>
    <defs></defs>
    <g id="Page-1" stroke="none" stroke-width="1" fill="none" fill-rule="evenodd">
        <g id="Artboard">
            <g id="Group" transform="translate(21.000000, 12.000000)">
                <g id="arrows" transform="translate(59.203832, 82.417284)" fill="#FFFFFF">
                    <g id="Capa_1">
                        <g id="Group-2">
                            <path d="M128.040354,200.325364 L89.4041907,115.54202 C93.5441166,116.528133 83.740441,102.087991 87.2915372,102.751435 C89.1650759,103.101464 89.7210122,102.046162 91.2995066,101.289541 C95.8710964,99.0988226 100.496925,100.351133 102.697607,104.902024 L134.516262,171.560758 L181.296375,23.3623867 L34.494825,71.180268 L97.2895849,99.4999035 C98.2644002,99.9387786 99.1534905,100.54467 99.918892,101.289539 C101.673804,102.996275 102.68291,105.345476 102.697605,107.788548 C102.711076,110.231619 101.755855,112.591792 100.020537,114.319253 C100.020537,114.319253 98.5561799,116.528133 94.1039328,116.528133 C92.9378078,116.528133 91.2542023,116.129888 89.4041889,115.542014 C84.1908794,113.885393 77.6561191,110.722915 77.6561191,110.722915 L5.39487404,78.1327812 C1.94383197,76.5772128 -0.19316889,73.0710883 0.0137956633,69.305296 C0.219535574,65.5407229 2.72760306,62.2869516 6.3280515,61.1141798 L192.555736,0.454325138 C195.829205,-0.612385196 199.421081,0.232449389 201.867916,2.640167 C204.314752,5.04788461 205.206291,8.61618307 204.173918,11.8845835 L145.078802,199.100171 C143.948458,202.679442 140.737445,205.20785 136.977793,205.47849 C136.756133,205.495557 136.533248,205.502871 136.312813,205.502871 C132.805437,205.502871 129.578504,203.50599 128.040354,200.325364 Z" id="Shape"></path>
                            <path d="M88.5546363,114.495946 C89.2803266,115.600125 94.1448785,119.533036 94.1448785,119.533036 L105.3084,112.735388 C105.3084,112.735388 102.719574,104.014308 100.768244,101.859368 C98.8169136,99.7044277 97.8719722,100.083884 96.457365,99.7164117 C94.3910213,99.1796375 90.1716259,99.0616499 90.1716259,99.0616499 L83.9772697,104.882058 C83.9772697,104.882058 87.8289459,113.391766 88.5546363,114.495946 Z" id="Path-63"></path>
                        </g>
                    </g>
                </g>
                <path d="M103.075395,240.949798 C103.075395,240.949798 120.664505,238.543357 131.129483,234.324599 L139.428124,244.214534 C138.144747,246.024011 136.662964,247.738847 134.8792,249.235602 C123.611651,258.690199 72.3260942,266.751525 72.3260942,266.751525 C72.3260942,266.751525 89.1777377,217.653459 100.445287,208.198863 C102.229051,206.702107 104.164098,205.531748 106.176414,204.58669 L114.476841,214.478754 C108.503165,224.050037 103.075395,240.949798 103.075395,240.949798 Z" id="Shape-Copy" fill="#FFFFFF"></path>
                <path d="M162.42156,0 C188.614555,-3.89488779e-15 308.662811,69.2963435 318.774481,89.75 C328.886151,110.203656 330.40833,252.71795 318.774481,269.25 C307.140633,285.78205 187.858994,359 162.42156,359 C136.984125,359 13.4670338,284.825307 6.06863817,269.25 C-1.32975747,253.674693 -2.68756989,106.266568 6.06863817,89.75 C14.8248462,73.2334324 136.228564,3.68259933e-15 162.42156,0 Z" id="Polygon-1" stroke="#FFFFFF" stroke-width="15"></path>
            </g>
            <path d="M486.309,244 L465.141,244 L465.141,148.009 L486.309,148.009 L486.309,183.583 L531.585,183.583 L531.585,148.009 L552.753,148.009 L552.753,244 L531.585,244 L531.585,201.37 L486.309,201.37 L486.309,244 Z M604.056,244 L583.035,244 L583.035,148.009 L604.056,148.009 L604.056,244 Z M655.359,244 L634.338,244 L634.338,148.009 L687.552,148.009 C700.096063,148.009 709.699967,151.487965 716.364,158.446 C721.656026,164.032028 724.302,170.646962 724.302,178.291 C724.302,184.36703 722.562517,189.732477 719.0835,194.3875 C715.604483,199.042523 710.87603,202.692987 704.898,205.339 L727.389,244 L703.281,244 L683.877,208.72 L655.359,208.72 L655.359,244 Z M688.287,165.796 L655.359,165.796 L655.359,190.933 L689.757,190.933 C693.481019,190.933 696.641487,189.732512 699.2385,187.3315 C701.835513,184.930488 703.134,181.917018 703.134,178.291 C703.134,174.958983 702.007011,172.166011 699.753,169.912 C697.204987,167.167986 693.383025,165.796 688.287,165.796 L688.287,165.796 Z M805.446,184.906 L805.446,202.987 L770.019,202.987 L770.019,225.919 L832.347,225.919 L832.347,244 L748.998,244 L748.998,148.009 L828.966,148.009 L828.966,166.237 L770.019,166.237 L770.019,184.906 L805.446,184.906 Z M933.483,158.005 L921.429,172.705 C912.216954,165.844966 900.996066,162.415 887.766,162.415 C882.571974,162.415 878.260017,163.39499 874.83,165.355 C871.399983,167.31501 869.685,170.25498 869.685,174.175 C869.685,175.449006 869.954497,176.600495 870.4935,177.6295 C871.032503,178.658505 871.938994,179.515997 873.213,180.202 C874.487006,180.888003 875.662995,181.451498 876.741,181.8925 C877.819005,182.333502 879.509488,182.700999 881.8125,182.995 C884.115512,183.289001 885.879494,183.509499 887.1045,183.6565 C888.329506,183.803501 890.313986,183.974999 893.058,184.171 C893.842004,184.269 894.429998,184.318 894.822,184.318 C898.154017,184.514001 900.84899,184.709999 902.907,184.906 C904.96501,185.102001 907.757982,185.493997 911.286,186.082 C914.814018,186.670003 917.704989,187.355996 919.959,188.14 C922.213011,188.924004 924.711986,190.075492 927.456,191.5945 C930.200014,193.113508 932.355992,194.82849 933.924,196.7395 C935.492008,198.65051 936.839494,201.100485 937.9665,204.0895 C939.093506,207.078515 939.657,210.385982 939.657,214.012 C939.657,225.184056 935.63904,233.464973 927.603,238.855 C919.56696,244.245027 909.179064,246.94 896.439,246.94 C876.740902,246.94 859.150077,240.619063 843.666,227.977 L855.573,213.571 C869.097068,224.351054 882.81693,229.741 896.733,229.741 C903.103032,229.741 908.345979,228.540512 912.462,226.1395 C916.578021,223.738488 918.636,220.382022 918.636,216.07 C918.636,211.757978 916.65152,208.769008 912.6825,207.103 C908.71348,205.436992 902.613041,204.261003 894.381,203.575 C890.656981,203.378999 887.570012,203.158501 885.12,202.9135 C882.669988,202.668499 879.705517,202.252003 876.2265,201.664 C872.747483,201.075997 869.832012,200.390004 867.48,199.606 C865.127988,198.821996 862.653513,197.744007 860.0565,196.372 C857.459487,194.999993 855.426007,193.383009 853.956,191.521 C852.485993,189.658991 851.236505,187.380513 850.2075,184.6855 C849.178495,181.990487 848.664,178.928017 848.664,175.498 C848.664,169.911972 849.864488,165.061021 852.2655,160.945 C854.666512,156.828979 857.85148,153.668511 861.8205,151.4635 C865.78952,149.258489 869.978978,147.641505 874.389,146.6125 C878.799022,145.583495 883.453975,145.069 888.354,145.069 C897.468046,145.069 906.01846,146.391987 914.0055,149.038 C921.99254,151.684013 928.484975,154.672983 933.483,158.005 L933.483,158.005 Z M949.947,148.009 L972.879,148.009 L991.254,211.072 L992.136,211.072 L1011.834,148.009 L1027.269,148.009 L1046.82,211.072 L1047.702,211.072 L1066.224,148.009 L1088.274,148.009 L1057.551,244 L1037.559,244 L1019.478,186.964 L1018.596,186.964 L1000.662,244 L980.67,244 L949.947,148.009 Z M1164.126,184.906 L1164.126,202.987 L1128.699,202.987 L1128.699,225.919 L1191.027,225.919 L1191.027,244 L1107.678,244 L1107.678,148.009 L1187.646,148.009 L1187.646,166.237 L1128.699,166.237 L1128.699,184.906 L1164.126,184.906 Z M1268.643,184.906 L1268.643,202.987 L1233.216,202.987 L1233.216,225.919 L1295.544,225.919 L1295.544,244 L1212.195,244 L1212.195,148.009 L1292.163,148.009 L1292.163,166.237 L1233.216,166.237 L1233.216,184.906 L1268.643,184.906 Z M1305.393,166.237 L1305.393,148.009 L1395.945,148.009 L1395.945,166.237 L1361.253,166.237 L1361.253,244 L1340.232,244 L1340.232,166.237 L1305.393,166.237 Z" id="HIRESWEET" fill="#FFFFFF"></path>
        </g>
    </g>
</svg>