<?xml version="1.0" encoding="UTF-8" standalone="no"?>
<svg width="64px" height="64px" viewBox="0 0 64 64" version="1.1" xmlns="http://www.w3.org/2000/svg" xmlns:xlink="http://www.w3.org/1999/xlink">
    <!-- Generator: Sketch 47.1 (45422) - http://www.bohemiancoding.com/sketch -->
    <title>logo-template</title>
    <desc>Created with Sketch.</desc>
    <defs></defs>
    <g id="Page-3" stroke="none" stroke-width="1" fill="none" fill-rule="evenodd">
        <g id="logo-template" fill-rule="nonzero" fill="#112E48">
            <path d="M47.1931757,35.133639 C46.6570426,34.9196808 46.1078999,34.7525896 45.5532795,34.6065546 L45.5532795,12.9390389 C45.5532795,12.9370012 45.5519101,12.9349635 45.5519101,12.9329258 C45.5519101,12.9308881 45.5532795,12.9295296 45.5532795,12.9274919 C45.5532795,12.6775344 45.4403013,12.4588215 45.267068,12.3032773 L35.2058429,2.25063678 C35.0456192,2.09033792 34.8265099,2 34.5984993,2 L10.2253288,2 C8.99831674,2 8,2.99032094 8,4.20750552 L8,50.3470878 C8,51.5642724 8.99831674,52.5545933 10.2253288,52.5545933 L28.6667998,52.5545933 C30.5559328,58.0393955 35.7912756,62 41.9523551,62 C49.6985535,62 56,55.7497028 56,48.0662252 C56,42.3443709 52.5428661,37.2684666 47.1931757,35.133639 Z M35.4050954,4.85956869 L42.6309092,12.0784513 L35.4050954,12.0784513 L35.4050954,4.85956869 Z M28.1888676,50.8558329 L10.2253288,50.8558329 C9.94254087,50.8558329 9.71179139,50.6276108 9.71179139,50.3464086 L9.71179139,4.20750552 C9.71179139,3.92630328 9.94254087,3.69808117 10.2253288,3.69808117 L33.6926193,3.69808117 L33.6926193,12.9281712 C33.6926193,13.3968416 34.0760606,13.7772118 34.548515,13.7772118 L43.8414881,13.7772118 L43.8414881,34.271693 C43.2183961,34.1888266 42.5898263,34.1317711 41.9516704,34.1317711 C34.8737554,34.1317711 28.8811161,39.3781627 28.0128955,46.3355408 C27.9410003,46.9081338 27.9047103,47.4909153 27.9047103,48.0669044 C27.905395,49.021226 28.0033095,49.9544914 28.1888676,50.8558329 Z M41.9523551,60.3012396 C36.4403869,60.3012396 31.7624034,56.6958737 30.1861858,51.7381559 C30.1861858,51.7259297 30.193033,51.7164204 30.193033,51.7048735 C30.193033,51.5479708 30.1382557,51.4087281 30.0643063,51.2830701 C29.7815184,50.2560706 29.6171864,49.1808456 29.6171864,48.0662252 C29.6171864,47.5595177 29.6493681,47.0473765 29.712362,46.5440652 C30.4751362,40.4357276 35.7378677,35.829173 41.9530399,35.829173 C43.5443211,35.829173 45.09315,36.1253184 46.5550198,36.7087791 C51.2528601,38.5834607 54.2888933,43.0412634 54.2888933,48.0662252 C54.2882086,54.812362 48.7543294,60.3012396 41.9523551,60.3012396 Z M49.654047,41.0558669 L34.2506633,41.0558669 C33.7782089,41.0558669 33.3947676,41.4362371 33.3947676,41.9049075 L33.3947676,54.2261844 C33.3947676,54.6948548 33.7782089,55.075225 34.2506633,55.075225 L49.654047,55.075225 C50.1265014,55.075225 50.5099427,54.6948548 50.5099427,54.2261844 L50.5099427,41.9049075 C50.5099427,41.4355578 50.1271861,41.0558669 49.654047,41.0558669 Z M48.7981513,53.3771438 L35.106559,53.3771438 L35.106559,46.9427747 L41.5579584,50.2676176 C41.6818921,50.3314654 41.8167813,50.3633894 41.9523551,50.3633894 C42.087929,50.3633894 42.2235029,50.3314654 42.3467519,50.2676176 L48.7981513,46.9427747 L48.7981513,53.3771438 Z M48.7981513,45.0293768 L41.9523551,48.5573102 L35.106559,45.0293768 L35.106559,42.7532688 L48.7981513,42.7532688 L48.7981513,45.0293768 Z M15.3648113,19.23892 L38.1891529,19.23892 C38.6616074,19.23892 39.0450486,18.8585498 39.0450486,18.3898794 C39.0450486,17.921209 38.6616074,17.5408389 38.1891529,17.5408389 L15.3648113,17.5408389 C14.8923569,17.5408389 14.5089156,17.921209 14.5089156,18.3898794 C14.5089156,18.8585498 14.8923569,19.23892 15.3648113,19.23892 Z M15.3648113,23.8801155 L38.1891529,23.8801155 C38.6616074,23.8801155 39.0450486,23.4997453 39.0450486,23.0310749 C39.0450486,22.5624045 38.6616074,22.1820343 38.1891529,22.1820343 L15.3648113,22.1820343 C14.8923569,22.1820343 14.5089156,22.5624045 14.5089156,23.0310749 C14.5089156,23.4997453 14.8923569,23.8801155 15.3648113,23.8801155 Z M15.3648113,28.5219902 L38.1891529,28.5219902 C38.6616074,28.5219902 39.0450486,28.14162 39.0450486,27.6729496 C39.0450486,27.2042792 38.6616074,26.823909 38.1891529,26.823909 L15.3648113,26.823909 C14.8923569,26.823909 14.5089156,27.2042792 14.5089156,27.6729496 C14.5089156,28.14162 14.8923569,28.5219902 15.3648113,28.5219902 Z M15.3648113,33.1631856 L38.1891529,33.1631856 C38.6616074,33.1631856 39.0450486,32.7828154 39.0450486,32.314145 C39.0450486,31.8454746 38.6616074,31.4651044 38.1891529,31.4651044 L15.3648113,31.4651044 C14.8923569,31.4651044 14.5089156,31.8454746 14.5089156,32.314145 C14.5089156,32.7828154 14.8923569,33.1631856 15.3648113,33.1631856 Z M28.8078514,36.9560197 C28.8078514,36.4873493 28.4244101,36.1069791 27.9519557,36.1069791 L15.3648113,36.1069791 C14.8923569,36.1069791 14.5089156,36.4873493 14.5089156,36.9560197 C14.5089156,37.4246901 14.8923569,37.8050603 15.3648113,37.8050603 L27.9519557,37.8050603 C28.4244101,37.8050603 28.8078514,37.4246901 28.8078514,36.9560197 Z M24.6995521,40.7481746 L15.3648113,40.7481746 C14.8923569,40.7481746 14.5089156,41.1285447 14.5089156,41.5972151 C14.5089156,42.0658855 14.8923569,42.4462557 15.3648113,42.4462557 L24.6995521,42.4462557 C25.1720065,42.4462557 25.5554478,42.0658855 25.5554478,41.5972151 C25.5554478,41.1285447 25.1720065,40.7481746 24.6995521,40.7481746 Z" id="Shape"></path>
        </g>
    </g>
</svg>