<?xml version="1.0" encoding="UTF-8"?>
<svg width="163px" height="17px" viewBox="0 0 163 17" version="1.1" xmlns="http://www.w3.org/2000/svg" xmlns:xlink="http://www.w3.org/1999/xlink">
    <!-- Generator: Sketch 58 (84663) - https://sketch.com -->
    <title>Group 23</title>
    <desc>Created with Sketch.</desc>
    <defs>
        <polygon id="path-1" points="0.0423917801 0.00835413742 11.4334987 0.00835413742 11.4334987 16.7082748 0.0423917801 16.7082748"></polygon>
    </defs>
    <g id="WEB" stroke="none" stroke-width="1" fill="none" fill-rule="evenodd">
        <g id="Menu---320px" transform="translate(-20.000000, -19.000000)">
            <g id="Group-23" transform="translate(20.000000, 19.000000)">
                <path d="M86.9699472,0.0427847738 C90.1279861,0.0427847738 92.4665323,2.14741506 92.4665323,4.95440523 L88.7473228,4.95440523 C88.7473228,3.99521029 87.9989495,3.2699312 86.9699472,3.2699312 C85.9877456,3.2699312 85.2624665,3.87860228 85.2624665,4.69687036 C85.2624665,5.72639751 86.3382695,6.28765558 87.9054357,6.70868661 C90.3612022,7.36345854 92.7004481,8.55709419 92.7004481,11.7375274 C92.7004481,14.5912308 90.2683006,16.7427492 87.0167479,16.7427492 C83.7658075,16.7427492 81.3093412,14.5444301 81.3093412,11.6209194 L85.0286381,11.6209194 C85.0286381,12.6736282 85.9173259,13.5155153 87.0635486,13.5155153 C88.1622707,13.5155153 88.9811511,12.8369494 88.9811511,11.9713558 C88.9811511,10.8718463 87.6485131,10.2876691 86.1274478,9.8897322 C83.7889016,9.30476762 81.5431695,7.90162245 81.5431695,4.8370974 C81.5431695,2.10070187 83.8824155,0.0427847738 86.9699472,0.0427847738 Z M29.2210494,0.323116384 L29.2210494,6.63849436 L35.7005359,6.63849436 L35.7005359,0.323116384 L39.326319,0.323116384 L39.326319,16.4624351 L35.7005359,16.4624351 L35.7005359,10.0534558 L29.2210494,10.0534558 L29.2210494,16.4624351 L25.5959661,16.4624351 L25.5959661,0.323116384 L29.2210494,0.323116384 Z M47.9092723,0.322845203 L47.9092723,16.4621639 L44.284189,16.4621639 L44.284189,0.322845203 L47.9092723,0.322845203 Z M58.6451612,0.323186366 C61.8499133,0.323186366 64.2589666,2.63863834 64.2589666,5.72625755 C64.2589666,7.93615497 62.9972044,9.69037989 61.0830493,10.4838045 L60.8677117,10.5679832 L64.7036166,16.4625051 L60.1886209,16.4625051 L56.7742718,10.9422135 L56.4930304,10.9422135 L56.4930304,16.4625051 L52.8679471,16.4625051 L52.8679471,0.323186366 L58.6451612,0.323186366 Z M77.7548963,0.32337007 L77.7548963,3.73763168 L72.0704962,3.73763168 L72.0704962,6.63874805 L76.9828165,6.63874805 L76.9828165,10.0537095 L72.0704962,10.0537095 L72.0704962,13.0478148 L77.8721166,13.0478148 L77.8721166,16.4626888 L68.4454129,16.4626888 L68.4454129,0.32337007 L77.7548963,0.32337007 Z M99.0622943,0.323116384 L102.640664,11.5271081 L106.242654,0.323116384 L109.518,0.323116384 L113.143084,11.5271081 L116.69836,0.323116384 L120.627778,0.323116384 L114.897365,16.4624351 L111.272194,16.4624351 L107.85662,5.84340792 L104.418652,16.4624351 L100.769163,16.4624351 L95.0623683,0.323116384 L99.0622943,0.323116384 Z M133.562013,0.32337007 L133.562013,3.73763168 L127.8777,3.73763168 L127.8777,6.63874805 L132.789933,6.63874805 L132.789933,10.0537095 L127.8777,10.0537095 L127.8777,13.0478148 L133.679233,13.0478148 L133.679233,16.4626888 L124.252529,16.4626888 L124.252529,0.32337007 L133.562013,0.32337007 Z M147.198274,0.32337007 L147.198274,3.73763168 L141.513874,3.73763168 L141.513874,6.63874805 L146.426195,6.63874805 L146.426195,10.0537095 L141.513874,10.0537095 L141.513874,13.0478148 L147.315495,13.0478148 L147.315495,16.4626888 L137.888791,16.4626888 L137.888791,0.32337007 L147.198274,0.32337007 Z M162.284674,0.322871446 L162.284674,3.73783288 L158.284748,3.73783288 L158.284748,16.4621902 L154.658965,16.4621902 L154.658965,3.73783288 L150.659739,3.73783288 L150.659739,0.322871446 L162.284674,0.322871446 Z M58.574654,3.73744798 L56.4930304,3.73744798 L56.4930304,7.78478699 L58.574654,7.78478699 C59.6977825,7.78478699 60.5403694,6.91919338 60.5403694,5.77297074 C60.5403694,4.60374141 59.6977825,3.73744798 58.574654,3.73744798 Z" id="Combined-Shape" fill="#fff"></path>
                <g id="Group-22" transform="translate(0.000000, 0.034431)">
                    <g id="Group-9" transform="translate(81.266949, 0.000000)">
                        <mask id="mask-2" fill="white">
                            <use xlink:href="#path-1"></use>
                        </mask>
                        <g id="Clip-8"></g>
                    </g>
                    <polygon id="Fill-18" fill="#fff" points="1.74955758e-05 0.288685748 0.000367407091 16.4280045 16.1692537 16.4280045 16.1692537 8.57012905 12.7534174 8.57012905 12.7534174 13.0117309 3.41594118 13.0117309 3.41655353 3.70504683 7.85789291 3.70504683 7.85789291 0.288685748"></polygon>
                    <polygon id="Fill-20" fill="#F9C8CA" points="9.48841934 0.288685748 9.48841934 3.70495935 12.7526564 3.70495935 12.7526564 6.93779184 16.1692799 6.93779184 16.1692799 0.288685748"></polygon>
                </g>
            </g>
        </g>
    </g>
</svg>