<svg width="37" height="37" viewBox="0 0 37 37" fill="none" xmlns="http://www.w3.org/2000/svg">
<path d="M18.1 36.3C28.1 36.3 36.2 28.2 36.2 18.3C36.2 8.3 28.1 0.300004 18.1 0.300004C8.1 0.200004 0 8.3 0 18.3C0 28.2 8.1 36.3 18.1 36.3Z" fill="#415896"/>
<path d="M13.7 20.3L3 28.2C3.6 29.2 4.4 30.1 5.3 30.9C6.2 31.8 7.1 32.5 8.1 33.2L16.1 22.6" fill="#F5BC41"/>
<path d="M36.2 0.199997C36.2 0.199997 22.8 0.299997 16.6 11.1C13.4 10.2 12.4 11.6 12.4 11.6L7.89999 16.1L13.4 16.7C13.6 16.7 13.8 16.8 13.9 17C14.1 17.2 14.2 17.5 14.1 17.8C13.9 18.6 13.8 19.4 13.7 20.3L14.9 21.5L16.1 22.7C17 22.6 17.8 22.5 18.6 22.3C18.9 22.2 19.2 22.3 19.4 22.5C19.5 22.6 19.6 22.8 19.7 23L20.3 28.4L24.8 23.9C24.8 23.9 26.2 22.9 25.3 19.7C36 13.6 36.2 0.199997 36.2 0.199997ZM26.2 10.2C25.2 9.2 25.2 7.7 26.2 6.7C27.2 5.7 28.7 5.7 29.7 6.7C30.7 7.7 30.7 9.2 29.7 10.2C28.7 11.2 27.2 11.2 26.2 10.2Z" fill="white"/>
</svg>
