<svg xmlns="http://www.w3.org/2000/svg" xmlns:xlink="http://www.w3.org/1999/xlink" version="1.1" id="Layer_1" x="0px" y="0px" viewBox="0 0 113 124" style="enable-background:new 0 0 113 124;" xml:space="preserve">
<style type="text/css">
	.st0{fill:#F43F85;}
</style>
<title>Jumbo - Wordmark - Whitebg</title>
<desc>Created with Sketch.</desc>
<g id="Jumbo---Wordmark---Whitebg">
	<g id="path-1_2_">
		<path id="path-19_2_" class="st0" d="M15.8,123.6c1.1-0.4,2.7-1.3,4.9-2.6c3-1.9,5.7-3.9,8.2-6.1c2.5-2.2,4.3-4,5.3-5.6    c1-1.5,0.1-2-2.6-1.3c-2.7,0.7-3.7-1.1-2.9-5.4c0.8-4.3,3-10,6.7-17.2c3.7-7.2,8.7-15.3,15-24.4s13.7-18.2,22.2-27.4    c0.7-0.8,1-1.8,0.9-2.7c-0.1-1-0.5-2-1.2-3.1c-0.7-1.1-1.5-2.1-2.6-3.1c-1.1-1-2.2-1.8-3.4-2.5c7.2-0.1,14.2,0,21,0.3    c6.8,0.4,12.9,0.9,18.4,1.6c1.4,0.1,2.7-0.7,3.8-2.5c1.1-1.8,1.9-4,2.5-6.6c0.6-2.5,0.8-5,0.8-7.5c-0.1-2.5-0.6-4.3-1.6-5.4    c-0.9-0.8-3.5-1.4-7.8-1.6c-4.3-0.2-9.7-0.2-16.2,0C80.8,0.8,73.8,1.2,66.3,2c-7.5,0.8-14.9,1.7-22,2.9c-7.2,1.1-13.7,2.5-19.6,4    c-5.9,1.5-10.4,3.2-13.4,5.1c-0.9,0.4-1.5,1.5-2,3.4c-0.4,1.8-0.5,3.7-0.1,5.5c0.4,1.8,1.2,3.3,2.4,4.4c1.2,1.1,3.1,1.3,5.5,0.4    c4.5-1.5,10.1-2.7,16.9-3.6c6.8-0.8,14.1-1.4,21.9-1.7c-3,2.4-6.5,6-10.4,10.8c-3.9,4.8-8,10.2-12.1,16.3    c-4.2,6.1-8.2,12.4-12.1,19.1c-3.9,6.7-7.5,13.1-10.6,19.1C7.4,93.8,4.9,99.2,3,104c-1.9,4.8-2.8,8.3-2.8,10.6    c0,0.4,0.5,1.2,1.4,2.2c0.9,1.1,2.1,2.1,3.6,3.2c1.4,1.1,3,2,4.8,2.7c1,0.4,1.9,0.7,2.7,0.9H15.8L15.8,123.6L15.8,123.6z"/>
	</g>
</g>
</svg>