<svg width="130" height="60" viewBox="0 0 130 60" fill="none" xmlns="http://www.w3.org/2000/svg">
    <mask id="mask0" mask-type="alpha" maskUnits="userSpaceOnUse" x="0" y="19" width="41" height="41">
        <path fill-rule="evenodd" clip-rule="evenodd" d="M0.199951 19.2H41V59.9999H0.199951V19.2Z" fill="white"/>
    </mask>
    <g mask="url(#mask0)">
        <mask id="path-3-inside-1" fill="white">
            <path fill-rule="evenodd" clip-rule="evenodd" d="M0.199951 39.5999C0.199951 28.3333 9.33333 19.2 20.6 19.2C31.8665 19.2 41 28.3333 41 39.5999C41 50.8665 31.8665 59.9999 20.6 59.9999C9.33333 59.9999 0.199951 50.8665 0.199951 39.5999Z"/>
        </mask>
        <path fill-rule="evenodd" clip-rule="evenodd" d="M0.199951 39.5999C0.199951 28.3333 9.33333 19.2 20.6 19.2C31.8665 19.2 41 28.3333 41 39.5999C41 50.8665 31.8665 59.9999 20.6 59.9999C9.33333 59.9999 0.199951 50.8665 0.199951 39.5999Z" fill="#E2EBFF"/>
        <path d="M2.59995 39.5999C2.59995 29.6588 10.6588 21.6 20.6 21.6V16.8C8.00785 16.8 -2.20005 27.0079 -2.20005 39.5999H2.59995ZM20.6 21.6C30.541 21.6 38.6 29.6588 38.6 39.5999H43.4C43.4 27.0078 33.1919 16.8 20.6 16.8V21.6ZM38.6 39.5999C38.6 49.541 30.541 57.5999 20.6 57.5999V62.3999C33.192 62.3999 43.4 52.192 43.4 39.5999H38.6ZM20.6 57.5999C10.6588 57.5999 2.59995 49.541 2.59995 39.5999H-2.20005C-2.20005 52.192 8.00784 62.3999 20.6 62.3999V57.5999Z" fill="#F8FAFF" mask="url(#path-3-inside-1)"/>
    </g>
    <g clip-path="url(#clip0)">
        <path d="M7.84998 49.5C7.84998 46.849 9.99901 44.7 12.65 44.7H28.55C31.2009 44.7 33.35 46.849 33.35 49.5V60H7.84998V49.5Z" fill="#F1F6FF"/>
        <path fill-rule="evenodd" clip-rule="evenodd" d="M12.7047 34.35C12.7047 29.9896 16.2395 26.4548 20.6 26.4548C24.9604 26.4548 28.4953 29.9896 28.4953 34.35C28.4953 38.7105 24.9604 42.2453 20.6 42.2453C16.2395 42.2453 12.7047 38.7105 12.7047 34.35Z" fill="#A9C4FF"/>
        <path fill-rule="evenodd" clip-rule="evenodd" d="M7.84998 49.8L20.6 60H7.84998V49.8Z" fill="#A9C4FF"/>
        <path fill-rule="evenodd" clip-rule="evenodd" d="M33.35 49.8L20.6 60H33.35V49.8Z" fill="#A9C4FF"/>
    </g>
    <mask id="mask1" mask-type="alpha" maskUnits="userSpaceOnUse" x="89" y="19" width="41" height="41">
        <path fill-rule="evenodd" clip-rule="evenodd" d="M89 19.2H129.8V59.9999H89V19.2Z" fill="white"/>
    </mask>
    <g mask="url(#mask1)">
        <mask id="path-12-inside-2" fill="white">
            <path fill-rule="evenodd" clip-rule="evenodd" d="M89 39.5999C89 28.3333 98.1334 19.2 109.4 19.2C120.667 19.2 129.8 28.3333 129.8 39.5999C129.8 50.8665 120.667 59.9999 109.4 59.9999C98.1334 59.9999 89 50.8665 89 39.5999Z"/>
        </mask>
        <path fill-rule="evenodd" clip-rule="evenodd" d="M89 39.5999C89 28.3333 98.1334 19.2 109.4 19.2C120.667 19.2 129.8 28.3333 129.8 39.5999C129.8 50.8665 120.667 59.9999 109.4 59.9999C98.1334 59.9999 89 50.8665 89 39.5999Z" fill="#E2EBFF"/>
        <path d="M91.4 39.5999C91.4 29.6588 99.4589 21.6 109.4 21.6V16.8C96.8079 16.8 86.6 27.0079 86.6 39.5999H91.4ZM109.4 21.6C119.341 21.6 127.4 29.6588 127.4 39.5999H132.2C132.2 27.0078 121.992 16.8 109.4 16.8V21.6ZM127.4 39.5999C127.4 49.541 119.341 57.5999 109.4 57.5999V62.3999C121.992 62.3999 132.2 52.192 132.2 39.5999H127.4ZM109.4 57.5999C99.4589 57.5999 91.4 49.541 91.4 39.5999H86.6C86.6 52.192 96.8079 62.3999 109.4 62.3999V57.5999Z" fill="#F8FAFF" mask="url(#path-12-inside-2)"/>
    </g>
    <g clip-path="url(#clip1)">
        <path d="M96.65 49.5C96.65 46.849 98.7991 44.7 101.45 44.7H117.35C120.001 44.7 122.15 46.849 122.15 49.5V60H96.65V49.5Z" fill="#F1F6FF"/>
        <path fill-rule="evenodd" clip-rule="evenodd" d="M101.505 34.35C101.505 29.9896 105.04 26.4548 109.4 26.4548C113.76 26.4548 117.295 29.9896 117.295 34.35C117.295 38.7105 113.76 42.2453 109.4 42.2453C105.04 42.2453 101.505 38.7105 101.505 34.35Z" fill="#A9C4FF"/>
        <path fill-rule="evenodd" clip-rule="evenodd" d="M96.65 49.8L109.4 60H96.65V49.8Z" fill="#A9C4FF"/>
        <path fill-rule="evenodd" clip-rule="evenodd" d="M122.15 49.8L109.4 60H122.15V49.8Z" fill="#A9C4FF"/>
    </g>
    <mask id="mask2" mask-type="alpha" maskUnits="userSpaceOnUse" x="35" y="0" width="60" height="60">
        <path fill-rule="evenodd" clip-rule="evenodd" d="M35 0H95V59.9999H35V0Z" fill="white"/>
    </mask>
    <g mask="url(#mask2)">
        <mask id="path-20-inside-3" fill="white">
            <path fill-rule="evenodd" clip-rule="evenodd" d="M35 29.9999C35 13.4315 48.4314 0 65 0C81.5684 0 95 13.4315 95 29.9999C95 46.5685 81.5684 59.9999 65 59.9999C48.4314 59.9999 35 46.5685 35 29.9999Z"/>
        </mask>
        <path fill-rule="evenodd" clip-rule="evenodd" d="M35 29.9999C35 13.4315 48.4314 0 65 0C81.5684 0 95 13.4315 95 29.9999C95 46.5685 81.5684 59.9999 65 59.9999C48.4314 59.9999 35 46.5685 35 29.9999Z" fill="#E2EBFF"/>
        <path d="M37.4 29.9999C37.4 14.757 49.7569 2.4 65 2.4V-2.4C47.106 -2.4 32.6 12.106 32.6 29.9999H37.4ZM65 2.4C80.243 2.4 92.6001 14.757 92.6001 29.9999H97.4001C97.4001 12.106 82.8939 -2.4 65 -2.4V2.4ZM92.6001 29.9999C92.6001 45.243 80.2429 57.5999 65 57.5999V62.3999C82.8939 62.3999 97.4001 47.894 97.4001 29.9999H92.6001ZM65 57.5999C49.7569 57.5999 37.4 45.243 37.4 29.9999H32.6C32.6 47.894 47.106 62.3999 65 62.3999V57.5999Z" fill="#F8FAFF" mask="url(#path-20-inside-3)"/>
    </g>
    <g clip-path="url(#clip2)">
        <path d="M46.25 42.3C46.25 39.6491 48.399 37.5 51.05 37.5H78.95C81.601 37.5 83.75 39.6491 83.75 42.3V60.0001H46.25V42.3Z" fill="#F1F6FF"/>
        <path fill-rule="evenodd" clip-rule="evenodd" d="M53.3893 22.2795C53.3893 15.867 58.5875 10.6688 64.9999 10.6688C71.4124 10.6688 76.6108 15.867 76.6108 22.2795C76.6108 28.6919 71.4124 33.8901 64.9999 33.8901C58.5875 33.8901 53.3893 28.6919 53.3893 22.2795Z" fill="#A9C4FF"/>
        <path fill-rule="evenodd" clip-rule="evenodd" d="M46.25 45L65 60.0001H46.25V45Z" fill="#A9C4FF"/>
        <path fill-rule="evenodd" clip-rule="evenodd" d="M83.75 45L65 60.0001H83.75V45Z" fill="#A9C4FF"/>
    </g>
    <defs>
        <clipPath id="clip0">
            <rect x="0.199951" y="19.2" width="40.7999" height="40.8" rx="20.4" fill="white"/>
        </clipPath>
        <clipPath id="clip1">
            <rect x="89" y="19.2" width="40.7999" height="40.8" rx="20.4" fill="white"/>
        </clipPath>
        <clipPath id="clip2">
            <rect x="35" y="3.05176e-05" width="59.9999" height="59.9999" rx="29.9999" fill="white"/>
        </clipPath>
    </defs>
</svg>
