<?xml version="1.0" encoding="UTF-8" standalone="no"?>
<svg
   xmlns:dc="http://purl.org/dc/elements/1.1/"
   xmlns:cc="http://creativecommons.org/ns#"
   xmlns:rdf="http://www.w3.org/1999/02/22-rdf-syntax-ns#"
   xmlns:svg="http://www.w3.org/2000/svg"
   xmlns="http://www.w3.org/2000/svg"
   xmlns:sodipodi="http://sodipodi.sourceforge.net/DTD/sodipodi-0.dtd"
   xmlns:inkscape="http://www.inkscape.org/namespaces/inkscape"
   width="11.25"
   height="8"
   viewBox="0 0 11.25 8"
   version="1.1"
   id="svg2"
   inkscape:version="0.91 r13725"
   sodipodi:docname="logolink_aboutMe_hover.svg">
  <metadata
     id="metadata16">
    <rdf:RDF>
      <cc:Work
         rdf:about="">
        <dc:format>image/svg+xml</dc:format>
        <dc:type
           rdf:resource="http://purl.org/dc/dcmitype/StillImage" />
        <dc:title>logolink_aboutMe</dc:title>
      </cc:Work>
    </rdf:RDF>
  </metadata>
  <sodipodi:namedview
     pagecolor="#ffffff"
     bordercolor="#666666"
     borderopacity="1"
     objecttolerance="10"
     gridtolerance="10"
     guidetolerance="10"
     inkscape:pageopacity="0"
     inkscape:pageshadow="2"
     inkscape:window-width="1362"
     inkscape:window-height="729"
     id="namedview14"
     showgrid="false"
     inkscape:zoom="26.75"
     inkscape:cx="12.362304"
     inkscape:cy="0.3120134"
     inkscape:window-x="0"
     inkscape:window-y="18"
     inkscape:window-maximized="0"
     inkscape:current-layer="svg2" />
  <!-- Generator: Sketch 39 (31667) - http://www.bohemiancoding.com/sketch -->
  <title
     id="title4">logolink_aboutMe</title>
  <desc
     id="desc6">Created with Sketch.</desc>
  <defs
     id="defs8" />
  <g
     id="Page-1"
     transform="matrix(0.7,0,0,0.7,0,1.2)"
     style="fill:none;fill-rule:evenodd;stroke:none;stroke-width:1">
    <g
       id="Artboard"
       transform="translate(-67,-63)"
       style="fill:#0087d5">
      <g
         id="logolink_aboutMe"
         transform="translate(67,63)">
        <path
           d="m 13.024,2.096 c -0.916,0 -1.422,0.675 -1.53,1.41 l 3.072,0 c -0.084,-0.7 -0.578,-1.41 -1.542,-1.41 l 0,0 z m -1.506,2.41 c 0.157,0.77 0.795,1.313 1.687,1.313 0.482,0 1.18,-0.18 1.59,-0.603 l 0.783,0.904 c -0.71,0.748 -1.77,0.952 -2.493,0.952 -1.76,0 -3.133,-1.265 -3.133,-3.072 0,-1.687 1.264,-3.072 3.048,-3.072 1.722,0 3,1.325 3,3.072 l 0,0.506 -4.482,0 0,0 z m -4.326,2.552 0,-3.793 c 0,-0.65 -0.288,-1.024 -0.89,-1.024 -0.543,0 -0.904,0.386 -1.145,0.664 l 0,4.154 -1.567,0 0,-3.794 C 3.59,2.615 3.314,2.241 2.712,2.241 2.17,2.241 1.795,2.627 1.567,2.905 l 0,4.154 -1.567,0 0,-6.055 1.567,0 0,0.767 C 1.832,1.459 2.434,0.929 3.374,0.929 c 0.83,0 1.397,0.35 1.65,1.06 0.35,-0.506 1,-1.06 1.94,-1.06 1.133,0 1.795,0.675 1.795,1.976 l 0,4.154 -1.569,0 0.002,-0.001 z"
           id="Shape"
           inkscape:connector-curvature="0" />
      </g>
    </g>
  </g>
</svg>
