<?xml version="1.0" encoding="UTF-8"?>
<svg width="16px" height="14px" viewBox="0 0 16 14" version="1.1" xmlns="http://www.w3.org/2000/svg" xmlns:xlink="http://www.w3.org/1999/xlink">
    <!-- Generator: Sketch 39 (31667) - http://www.bohemiancoding.com/sketch -->
    <title>logolink_codecademy</title>
    <desc>Created with Sketch.</desc>
    <defs></defs>
    <g id="Page-1" stroke="none" stroke-width="1" fill="none" fill-rule="evenodd">
        <g id="Artboard" transform="translate(-116.000000, -60.000000)" fill="#0087D5">
            <g id="logolink_codecademy" transform="translate(116.000000, 60.000000)">
                <path d="M15.885,12.152 L12.155,12.152 C12.093,12.152 12.042,12.192 12.042,12.267 L12.042,13.277 C12.042,13.34 12.08,13.391 12.156,13.391 L15.886,13.391 C15.949,13.391 16,13.354 16,13.277 L16,12.267 C16,12.192 15.962,12.153 15.885,12.153 L15.885,12.152 Z M10.975,0.644 C10.985,0.667 10.995,0.69 11.007,0.724 L11.007,13.25 C11.007,13.29 10.994,13.314 10.982,13.327 C10.956,13.353 10.932,13.367 10.892,13.367 L0.102,13.367 C0.077,13.367 0.052,13.367 0.038,13.353 C0.013,13.327 -6.9388939e-18,13.303 -6.9388939e-18,13.263 L-6.9388939e-18,0.71 C-6.9388939e-18,0.66 0.026,0.622 0.064,0.61 L10.892,0.61 C10.918,0.61 10.956,0.622 10.969,0.634 L10.973,0.644 L10.975,0.644 Z M1.212,12.05 C1.212,12.1 1.238,12.14 1.276,12.152 L9.704,12.152 C9.742,12.14 9.768,12.102 9.768,12.05 L9.768,1.937 C9.768,1.887 9.741,1.847 9.703,1.835 L1.277,1.835 C1.239,1.848 1.213,1.885 1.213,1.937 L1.213,12.05 L1.212,12.05 Z M4.622,6.42 C5.056,6.42 5.337,6.585 5.592,6.88 C5.63,6.93 5.694,6.943 5.745,6.904 L6.435,6.291 C6.485,6.254 6.473,6.177 6.448,6.139 C6.025,5.629 5.412,5.309 4.621,5.309 C3.561,5.309 2.756,5.833 2.451,6.779 C2.335,7.109 2.284,7.531 2.284,8.093 C2.284,8.655 2.334,9.076 2.45,9.408 C2.756,10.353 3.56,10.876 4.62,10.876 C5.412,10.876 6.025,10.556 6.447,10.059 C6.471,10.009 6.484,9.944 6.433,9.906 L5.743,9.293 C5.693,9.255 5.628,9.255 5.59,9.306 C5.322,9.6 5.054,9.766 4.62,9.766 C4.147,9.766 3.79,9.536 3.636,9.076 C3.546,8.808 3.52,8.489 3.52,8.08 C3.52,7.67 3.546,7.364 3.635,7.096 C3.787,6.649 4.145,6.419 4.618,6.419 L4.622,6.42 Z" id="Shape"></path>
            </g>
        </g>
    </g>
</svg>