<?xml version="1.0" encoding="UTF-8"?>
<svg width="16px" height="10px" viewBox="0 0 16 10" version="1.1" xmlns="http://www.w3.org/2000/svg" xmlns:xlink="http://www.w3.org/1999/xlink">
    <!-- Generator: Sketch 39 (31667) - http://www.bohemiancoding.com/sketch -->
    <title>logolink_digg</title>
    <desc>Created with Sketch.</desc>
    <defs></defs>
    <g id="Page-1" stroke="none" stroke-width="1" fill="none" fill-rule="evenodd">
        <g id="Artboard" transform="translate(-239.000000, -62.000000)" fill="#112E48">
            <g id="logolink_digg" transform="translate(239.000000, 62.000000)">
                <path d="M11.84,2.44 L11.84,7.88 L14.4,7.88 L14.4,8.52 L11.84,8.52 L11.84,9.8 L16,9.8 L16,2.44 L11.84,2.44 L11.84,2.44 Z M7.04,2.44 L7.04,7.88 L9.6,7.88 L9.6,8.52 L7.04,8.52 L7.04,9.8 L11.2,9.8 L11.2,2.44 L7.04,2.44 L7.04,2.44 Z M2.56,0.2 L2.56,2.44 L0,2.44 L0,7.88 L4.16,7.88 L4.16,0.2 L2.56,0.2 L2.56,0.2 Z M6.4,2.44 L4.8,2.44 L4.8,7.88 L6.4,7.88 L6.4,2.44 L6.4,2.44 Z M14.4,6.6 L13.44,6.6 L13.44,3.72 L14.4,3.72 L14.4,6.6 L14.4,6.6 Z M2.56,6.6 L1.6,6.6 L1.6,3.72 L2.56,3.72 L2.56,6.6 L2.56,6.6 Z M9.6,6.6 L8.64,6.6 L8.64,3.72 L9.6,3.72 L9.6,6.6 L9.6,6.6 Z M6.4,0.2 L4.8,0.2 L4.8,1.8 L6.4,1.8 L6.4,0.2 L6.4,0.2 Z" id="Shape"></path>
            </g>
        </g>
    </g>
</svg>