<?xml version="1.0" encoding="UTF-8" standalone="no"?>
<svg
   xmlns:dc="http://purl.org/dc/elements/1.1/"
   xmlns:cc="http://creativecommons.org/ns#"
   xmlns:rdf="http://www.w3.org/1999/02/22-rdf-syntax-ns#"
   xmlns:svg="http://www.w3.org/2000/svg"
   xmlns="http://www.w3.org/2000/svg"
   id="svg2"
   preserveAspectRatio="xMidYMid meet"
   viewBox="0 0 140.000000 140.000000"
   height="140.000000pt"
   width="140.000000pt"
   version="1.0">
  <defs
     id="defs14" />
  <metadata
     id="metadata4">
Created by potrace 1.14, written by Peter Selinger 2001-2017
<rdf:RDF>
  <cc:Work
     rdf:about="">
    <dc:format>image/svg+xml</dc:format>
    <dc:type
       rdf:resource="http://purl.org/dc/dcmitype/StillImage" />
    <dc:title></dc:title>
  </cc:Work>
</rdf:RDF>
</metadata>
  <g
     style="fill:#112E48;fill-opacity:1"
     id="g6"
     stroke="none"
     fill="#000000"
     transform="translate(0.000000,140.000000) scale(0.100000,-0.100000)">
    <path
       style="fill:#112E48;fill-opacity:1"
       id="path8"
       d="M0 700 l0 -700 700 0 700 0 0 700 0 700 -700 0 -700 0 0 -700z m820 260 c0 -71 2 -130 4 -130 2 0 20 7 41 16 20 8 63 15 96 15 132 1 239 -107 239 -241 0 -92 -46 -168 -130 -214 -62 -34 -156 -39 -211 -10 -23 11 -34 13 -37 5 -2 -6 -25 -11 -53 -11 l-49 0 0 350 0 350 50 0 50 0 0 -130z m-272 -131 c54 -31 112 -104 112 -141 0 -15 -8 -18 -50 -18 -46 0 -54 4 -89 40 -34 36 -43 40 -87 40 -62 0 -105 -25 -128 -75 -63 -131 109 -252 211 -150 31 31 41 35 89 35 64 0 66 -7 26 -71 -131 -206 -446 -114 -446 131 0 142 99 239 244 240 54 0 74 -5 118 -31z" />
    <path
       style="fill:#112E48;fill-opacity:1"
       id="path10"
       d="M884 731 c-84 -51 -79 -182 9 -228 98 -50 203 22 194 131 -4 42 -10 55 -41 83 -30 28 -43 33 -83 33 -29 0 -60 -7 -79 -19z" />
  </g>
</svg>
