<?xml version="1.0" encoding="UTF-8"?>
<svg width="14px" height="16px" viewBox="0 0 14 16" version="1.1" xmlns="http://www.w3.org/2000/svg" xmlns:xlink="http://www.w3.org/1999/xlink">
    <!-- Generator: Sketch 39 (31667) - http://www.bohemiancoding.com/sketch -->
    <title>logolink_bitBucket</title>
    <desc>Created with Sketch.</desc>
    <defs></defs>
    <g id="Page-1" stroke="none" stroke-width="1" fill="none" fill-rule="evenodd">
        <g id="Artboard" transform="translate(-854.000000, -59.000000)" fill="#0087D5">
            <g id="logolink_bitBucket" transform="translate(854.000000, 59.000000)">
                <g id="Group">
                    <path d="M7,0 C3.187,0 0.055,1.02 0.055,2.315 C0.055,2.655 0.872,7.489 1.213,9.395 C1.349,10.281 3.596,11.505 7,11.505 C10.404,11.505 12.583,10.281 12.787,9.395 C13.127,7.489 13.945,2.655 13.945,2.315 C13.877,1.02 10.813,0 7,0 L7,0 Z M7,9.94 C5.774,9.94 4.82,8.987 4.82,7.762 C4.82,6.536 5.774,5.582 7,5.582 C8.226,5.582 9.18,6.536 9.18,7.762 C9.18,8.92 8.225,9.94 7,9.94 L7,9.94 Z M7,2.996 C4.55,2.996 2.574,2.586 2.574,2.043 C2.574,1.498 4.549,1.089 7,1.089 C9.45,1.089 11.426,1.497 11.426,2.042 C11.426,2.586 9.451,2.995 7,2.995 L7,2.996 Z" id="Shape"></path>
                    <path d="M11.97,11.234 C11.834,11.234 11.766,11.302 11.766,11.302 C11.766,11.302 10.064,12.664 7,12.664 C3.936,12.664 2.234,11.302 2.234,11.302 C2.234,11.302 2.098,11.234 2.03,11.234 C1.894,11.234 1.757,11.302 1.757,11.506 L1.757,11.574 C2.03,13.004 2.234,14.026 2.234,14.162 C2.438,15.182 4.48,16 6.932,16 C9.382,16 11.426,15.183 11.63,14.162 C11.63,14.026 11.834,13.004 12.106,11.574 L12.106,11.506 C12.174,11.37 12.106,11.234 11.97,11.234 L11.97,11.234 Z" id="Shape"></path>
                    <circle id="Oval" cx="7" cy="7.694" r="1.089"></circle>
                </g>
            </g>
        </g>
    </g>
</svg>