<svg id="Layer_1" data-name="Layer 1" xmlns="http://www.w3.org/2000/svg" viewBox="0 0 47.99867 47.99983"><defs><style>.cls-1{fill:#c3c6cc;}.cls-2{fill:#e1e3e6;}</style></defs><title>lever_rgb_mark_standard2</title><path class="cls-1" d="M47.54844,45.474l-9.036-9.0375a1.52663,1.52663,0,0,0-2.13749,0l-9.036,9.0375A1.466,1.466,0,0,0,28.40694,48h18.0735a1.47368,1.47368,0,0,0,1.068-2.526Z" transform="translate(-0.00066 -0.00126)"/><path class="cls-2" d="M47.84914,13.014,45.01865,4.611a2.95774,2.95774,0,0,0-.59851-1.029L.34414,47.6565A1.35045,1.35045,0,0,0,1.28764,48h12.519a2.65919,2.65919,0,0,0,1.887-.7725L47.24914,15.672A2.53241,2.53241,0,0,0,47.84914,13.014Z" transform="translate(-0.00066 -0.00126)"/><path class="cls-1" d="M43.39034,2.98045l-8.403-2.829a2.53244,2.53244,0,0,0-2.658.6L.77235,32.3069a2.67026,2.67026,0,0,0-.771,1.887v12.519a1.3504,1.3504,0,0,0,.34349.94349L44.42084,3.582A2.97321,2.97321,0,0,0,43.39034,2.98045Z" transform="translate(-0.00066 -0.00126)"/></svg>