<?xml version="1.0" encoding="UTF-8"?>
<svg width="17px" height="24px" viewBox="0 0 17 24" version="1.1" xmlns="http://www.w3.org/2000/svg" xmlns:xlink="http://www.w3.org/1999/xlink">
    <!-- Generator: Sketch 39 (31667) - http://www.bohemiancoding.com/sketch -->
    <title>logolink_angelList</title>
    <desc>Created with Sketch.</desc>
    <defs></defs>
    <g id="Page-1" stroke="none" stroke-width="1" fill="none" fill-rule="evenodd">
        <g id="Artboard" transform="translate(-1012.000000, -55.000000)" fill="#112E48">
            <g id="logolink_angelList" transform="translate(1012.000000, 55.000000)">
                <g id="angellist">
                    <g id="Social-Icons">
                        <g id="angellist">
                            <g id="Group">
                                <path d="M13.0433369,9.9757407 C13.7919499,7.9757199 14.3762041,6.3246029 14.7953357,5.0223899 C15.2144673,3.7201769 15.4240755,2.9207028 15.4240755,2.624051 C15.4240755,2.3053631 15.3542061,2.0581255 15.2144673,1.8822545 C15.0745587,1.706634 14.8817598,1.6185733 14.6360708,1.6185733 C14.3231441,1.6185733 14.0045295,1.8740745 13.6804814,2.3849934 C13.3560938,2.8959957 12.9986816,3.7176728 12.6074808,4.849357 L10.9309546,9.6130643 L13.0433369,9.9757407 L13.0433369,9.9757407 L13.0433369,9.9757407 Z M10.8135434,14.4098256 C10.3329471,14.3878731 9.8773103,14.3384589 9.4472271,14.2614997 C9.0168893,14.1847909 8.6061625,14.0746942 8.2149617,13.9318773 C8.3935829,14.2837027 8.5528478,14.6351107 8.6927564,14.9867692 C8.8324952,15.338678 8.9468501,15.6848275 9.0365003,16.0252175 C9.3046868,15.6955951 9.586966,15.3963557 9.8831681,15.126915 C10.1791156,14.8576413 10.4892407,14.6186672 10.8135434,14.4098256 L10.8135434,14.4098256 L10.8135434,14.4098256 Z M8.9190891,9.4153242 L7.1084272,4.2724134 C6.6390372,2.9646914 6.2757672,2.1105445 6.018787,1.7092215 C5.7613823,1.3080655 5.4822443,1.1075709 5.180439,1.1075709 C4.9457864,1.1075709 4.7555345,1.1957151 4.6104472,1.3712521 C4.4651052,1.5471231 4.3925192,1.7833427 4.3925192,2.080078 C4.3925192,2.5855714 4.5878649,3.4647592 4.9793203,4.7174746 C5.3704362,5.97019 5.9572374,7.6130434 6.7396389,9.6460349 C6.8067068,9.5251705 6.9014507,9.4400313 7.0246348,9.3905337 C7.1475642,9.3411195 7.3152338,9.3164125 7.5275587,9.3164125 C7.5946266,9.3164125 7.7287623,9.3220884 7.9299658,9.332856 C8.1310844,9.343874 8.4606507,9.371586 8.9190891,9.4153242 L8.9190891,9.4153242 L8.9190891,9.4153242 Z M7.2760968,17.3769281 C7.466094,17.3769281 7.6391121,17.2919558 7.7958301,17.1214269 C7.9522934,16.951065 8.0305676,16.767014 8.0305676,16.5691904 C8.0305676,16.3605993 7.8768209,15.8743875 7.5694974,15.110388 C7.2619191,14.346639 6.8792929,13.5966624 6.4211091,12.860375 C6.0857699,12.310893 5.7560339,11.8961314 5.4319858,11.6158396 C5.1075982,11.3356314 4.8004445,11.1954855 4.5098454,11.1954855 C4.275108,11.1954855 4.0152413,11.3413908 3.7302454,11.6323667 C3.4452496,11.9235929 3.3027092,12.1955377 3.3027092,12.4482844 C3.3027092,12.7120491 3.442448,13.1076961 3.7218407,13.635142 C4.0010637,14.162588 4.3757098,14.723088 4.8451846,15.3164751 C5.3369872,15.9650357 5.8007741,16.4702787 6.236715,16.8329551 C6.6725711,17.1955481 7.018777,17.3769281 7.2760968,17.3769281 L7.2760968,17.3769281 L7.2760968,17.3769281 Z M2.246518,16.981281 C2.4029813,17.168337 2.6209943,17.4428693 2.900387,17.8054623 C3.6380484,18.8055144 4.3195935,19.3054988 4.9457864,19.3054988 C5.1578566,19.3054988 5.3481086,19.2395576 5.5157782,19.1076752 C5.6833629,18.9757929 5.7672401,18.838485 5.7672401,18.6955846 C5.7672401,18.5308152 5.6554321,18.2562829 5.4319858,17.8714034 C5.2081151,17.4867744 4.9010462,17.0529816 4.5098454,16.5691904 C4.0627831,16.0087739 3.6909386,15.5994378 3.3949911,15.3411821 C3.098789,15.0831769 2.8610802,14.9537986 2.682459,14.9537986 C2.2910035,14.9537986 1.9305351,15.1598856 1.6010537,15.5719762 C1.2714025,15.9840668 1.1065345,16.4702787 1.1065345,17.0306952 C1.1065345,17.4815158 1.2210592,17.9842547 1.4501935,18.5389952 C1.6790731,19.0939027 2.0117806,19.6516482 2.4477215,20.2120647 C3.1071937,21.0802345 3.9255912,21.7475759 4.9038478,22.2146732 C5.8817648,22.6821043 6.9631701,22.9151521 8.1478938,22.9151521 C10.3274289,22.9151521 12.1520138,22.1157614 13.6217334,20.5170635 C15.0912832,18.9181152 15.8263977,16.9154233 15.8263977,14.5087374 C15.8263977,13.7727003 15.7702814,13.1875768 15.6587281,12.7532832 C15.5470049,12.3191565 15.3626108,12.0032232 15.1054608,11.8053997 C14.6470224,11.4320391 13.755954,11.0966572 12.4314065,10.7999219 C11.1070289,10.5032701 9.7238183,10.3548608 8.2820295,10.3548608 C7.8797074,10.3548608 7.5946266,10.4208019 7.4270419,10.5526843 C7.2593723,10.6845666 7.175495,10.9098517 7.175495,11.2284561 C7.175495,11.976012 7.6002297,12.51698 8.4496991,12.8521115 C9.2989138,13.1875768 10.6736348,13.3549338 12.5739469,13.3549338 L13.2613498,13.3549338 C13.4178132,13.3549338 13.5435442,13.4126114 13.6385428,13.5279668 C13.7332867,13.6433221 13.7978077,13.8164385 13.8313416,14.0472327 C13.6410897,14.2230201 13.2501436,14.4238486 12.6577393,14.6488833 C12.0651652,14.8740849 11.6124997,15.0966155 11.2998277,15.3164751 C10.6291493,15.8001828 10.0898899,16.3742049 9.6819646,17.0389587 C9.2736997,17.7040464 9.0700342,18.3329917 9.0700342,18.9263788 C9.0700342,19.2890552 9.1563734,19.7258529 9.3299009,20.2367718 C9.5030887,20.7478576 9.5896826,21.0637075 9.5896826,21.1846553 L9.5896826,21.3000106 L9.5561487,21.4483365 C9.0641764,21.415366 8.6760319,21.1326536 8.391036,20.5994483 C8.1060401,20.0664933 7.9634997,19.3549964 7.9634997,18.4647905 L7.9634997,18.3164646 C7.8738495,18.3934238 7.7874254,18.448347 7.703633,18.4813176 C7.6198407,18.5142881 7.5275587,18.5308152 7.4270419,18.5308152 C7.3263552,18.5308152 7.2313566,18.5225517 7.1419611,18.5060246 C7.0523109,18.4895811 6.9517941,18.4647905 6.8402407,18.4318199 C6.8737746,18.5529347 6.8989038,18.6708776 6.9156284,18.7862329 C6.9324378,18.9016717 6.9407576,18.9923199 6.9407576,19.0582611 C6.9407576,19.4648427 6.778776,19.813997 6.4546431,20.1049729 C6.1302554,20.3961992 5.7446578,20.5417706 5.2977652,20.5417706 C4.5937227,20.5417706 3.878389,20.2038847 3.151849,19.5280294 C2.4251392,18.8521741 2.0621239,18.1903417 2.0621239,17.541781 C2.0621239,17.4209167 2.0761317,17.3137414 2.1040625,17.2202552 C2.1317386,17.1271029 2.1794502,17.0472222 2.246518,16.981281 L2.246518,16.981281 L2.246518,16.981281 Z M14.2504732,10.255949 C15.2564059,10.4430049 15.9661365,10.8603541 16.3796649,11.5087478 C16.7929387,12.1573085 17,13.1793132 17,14.5746786 C17,17.3439575 16.1533322,19.6104141 14.4599965,21.3742153 C12.7667457,23.1377661 10.6012185,24.019625 7.9634997,24.019625 C6.9240331,24.019625 5.9153837,23.8354905 4.9373817,23.4673885 C3.9591251,23.0992865 3.1183151,22.5855297 2.4141876,21.9262014 C1.6094584,21.2010989 1.0058478,20.4345953 0.6035257,19.6269411 C0.2011186,18.8192035 0,17.9925182 0,17.146134 C0,16.2010884 0.2068067,15.4705604 0.6202502,14.9537986 C1.0336088,14.4372872 1.6873929,14.0858792 2.5818572,13.8989067 C2.4141876,13.5141942 2.2910035,13.1900808 2.2129841,12.9263162 C2.1347949,12.6625515 2.0956578,12.4593024 2.0956578,12.3164855 C2.0956578,11.8219267 2.3610427,11.3166003 2.8919823,10.7999219 C3.4226672,10.2834106 3.9230443,10.0251549 4.3925192,10.0251549 C4.5937227,10.0251549 4.8057929,10.06088 5.0295788,10.1323302 C5.2531099,10.2040307 5.5099203,10.3218902 5.8007741,10.4867431 C4.9399286,8.0910752 4.314245,6.2422182 3.9230443,4.9400052 C3.5315888,3.6377922 3.336328,2.7394063 3.336328,2.244931 C3.336328,1.5636501 3.5148643,1.0225986 3.8727858,0.6212756 C4.2304527,0.2201196 4.7166521,0.019625 5.3312992,0.019625 C6.3817174,0.019625 7.7120378,2.3273157 9.3214962,6.9427806 C9.6007191,7.7339912 9.8132987,8.3438219 9.9585558,8.7724395 C10.0814852,8.4320495 10.2545032,7.9482583 10.4782891,7.3219006 C12.0877475,2.7504243 13.473505,0.4646862 14.6360708,0.4646862 C15.2061475,0.4646862 15.6613598,0.6542462 16.002472,1.0333662 C16.3433294,1.4124862 16.5138006,1.9209845 16.5138006,2.5581098 C16.5138006,3.0418175 16.3266049,3.926264 15.9521286,5.2119499 C15.5774826,6.4977194 15.0104622,8.1789689 14.2504732,10.255949 L14.2504732,10.255949 L14.2504732,10.255949 Z" id="Shape"></path>
                            </g>
                        </g>
                    </g>
                </g>
            </g>
        </g>
    </g>
</svg>