<?xml version="1.0" encoding="utf-8"?>
<svg viewBox="48.666 5.466 382.8 470.424" width="382.8" height="470.424" xmlns="http://www.w3.org/2000/svg">
  <defs>
    <clipPath clipPathUnits="userSpaceOnUse" id="clipPath20">
      <path d="M 0,360 H 360 V 0 H 0 Z" id="path18"/>
    </clipPath>
  </defs>
  <g id="g10" transform="matrix(1.333333, 0, 0, -1.333333, 0, 480)">
    <path d="M 98.1,305.3 H 265.5 V 115.9 H 98.1 Z" style="fill:#ffffff;fill-opacity:1;fill-rule:nonzero;stroke:#000000;stroke-width:1;stroke-linecap:butt;stroke-linejoin:miter;stroke-miterlimit:4;stroke-dasharray:none;stroke-opacity:1" id="path12"/>
    <g id="g14">
      <g id="g16" clip-path="url(#clipPath20)">
        <g id="g22" transform="translate(241.5996,164.1002)">
          <path d="m 0,0 c 0,-20.2 -18.1,-39.2 -62.1,-39.2 -44,0 -61.799,19 -61.799,39.2 v 8.1 c 0,3.9 1.5,5.7 5.399,5.7 h 17.8 c 4.2,0 5.4,-1.8 5.4,-5.7 V 1.2 c 0,-11.801 12.401,-17.2 33.2,-17.2 20.8,0 33.201,5.399 33.201,17.2 V 9.899 C -28.899,17.7 -35.5,22 -46.1,25.6 L -95,42.5 c -12.1,4.2 -25.3,16.6 -25.3,32.9 v 12.1 c 0,20.2 15.1,40.1 59.1,40.1 44.001,0 59.1,-19.9 59.1,-40.1 V 79.7 C -2.1,75.5 -3.3,74 -7.8,74 h -16.899 c -3.901,0 -5.401,1.5 -5.401,5.7 v 7.8 c 0,11.8 -10.9,17.2 -31.1,17.2 -20.199,0 -30.5,-5.4 -30.5,-17.2 v -5.4 c 0,-8.4 7.801,-13 13.6,-15.1 l 48.901,-16.9 c 18.099,-6.3 29.3,-16.6 29.3,-32 l 0,-18.1 z m -61.5,-161 c 25.601,-0.3 48.601,5.7 56.7,22.6 3,6.6 3,10.9 4.5,18.4 5.7,29.6 20.2,56.899 41.601,78.1 C 63.9,-19.9 82,15.4 82,53.1 c 0,75.7 -63,138.4 -143.6,138.7 -80.4,-0.2 -143.5,-63 -143.5,-138.7 0.5,-35.8 15.1,-70 40.701,-95 21.5,-21.201 36,-48.5 41.599,-78.1 1.5,-7.8 1.5,-12.101 4.5,-18.4 8.2,-16.9 31.5,-23 56.8,-22.6" style="fill:#00ae41;fill-opacity:1;fill-rule:nonzero;stroke:none" id="path24"/>
        </g>
      </g>
    </g>
  </g>
</svg>
