<?xml version="1.0" encoding="UTF-8"?>
<svg width="16px" height="14px" viewBox="0 0 16 14" version="1.1" xmlns="http://www.w3.org/2000/svg" xmlns:xlink="http://www.w3.org/1999/xlink">
    <!-- Generator: Sketch 39 (31667) - http://www.bohemiancoding.com/sketch -->
    <title>logolink_reddit</title>
    <desc>Created with Sketch.</desc>
    <defs></defs>
    <g id="Page-1" stroke="none" stroke-width="1" fill="none" fill-rule="evenodd">
        <g id="Artboard" transform="translate(-730.000000, -60.000000)" fill="#0087D5">
            <g id="logolink_reddit" transform="translate(730.000000, 60.000000)">
                <path d="M1.473,8.368 C1.433,8.553 1.413,8.742 1.413,8.934 C1.413,11.234 4.353,13.107 7.967,13.107 C11.58,13.107 14.52,11.235 14.52,8.934 C14.52,8.751 14.5,8.57 14.465,8.394 L14.455,8.372 C14.442,8.336 14.435,8.299 14.435,8.262 C14.235,7.478 13.69,6.765 12.902,6.19 C12.872,6.18 12.844,6.164 12.818,6.143 C12.801,6.13 12.788,6.115 12.774,6.1 C11.576,5.276 9.864,4.76 7.967,4.76 C6.087,4.76 4.391,5.266 3.195,6.075 C3.185,6.087 3.175,6.098 3.162,6.108 C3.136,6.13 3.106,6.148 3.075,6.158 C2.27,6.734 1.711,7.451 1.503,8.244 C1.503,8.282 1.493,8.321 1.478,8.358 L1.473,8.368 L1.473,8.368 Z M8,12.003 C6.802,12.003 5.958,11.743 5.42,11.203 C5.304,11.087 5.304,10.898 5.42,10.781 C5.537,10.665 5.727,10.665 5.844,10.781 C6.264,11.201 6.969,11.406 7.999,11.406 C9.029,11.406 9.734,11.202 10.155,10.782 C10.271,10.666 10.461,10.666 10.577,10.782 C10.694,10.9 10.694,11.089 10.577,11.206 C10.039,11.744 9.195,12.006 7.997,12.006 L8,12.003 Z M5.592,6.945 C4.982,6.945 4.472,7.455 4.472,8.065 C4.472,8.673 4.982,9.167 5.592,9.167 C6.202,9.167 6.695,8.673 6.695,8.065 C6.695,7.455 6.201,6.945 5.592,6.945 L5.592,6.945 Z M10.422,6.945 C9.812,6.945 9.302,7.455 9.302,8.065 C9.302,8.673 9.812,9.167 10.422,9.167 C11.032,9.167 11.525,8.673 11.525,8.065 C11.525,7.455 11.031,6.945 10.422,6.945 L10.422,6.945 Z M13.46,5.88 C14.153,6.436 14.662,7.096 14.922,7.82 C15.222,7.595 15.402,7.242 15.402,6.852 C15.402,6.182 14.857,5.638 14.188,5.638 C13.921,5.638 13.668,5.725 13.46,5.881 L13.46,5.88 Z M1.812,5.64 C1.142,5.64 0.598,6.185 0.598,6.854 C0.598,7.217 0.758,7.554 1.028,7.781 C1.296,7.061 1.81,6.406 2.506,5.857 C2.304,5.717 2.063,5.639 1.812,5.639 L1.812,5.64 Z M7.967,13.707 C4.023,13.707 0.815,11.567 0.815,8.937 C0.815,8.754 0.831,8.574 0.861,8.397 C0.33,8.068 0,7.487 0,6.852 C0,5.852 0.813,5.04 1.812,5.04 C2.258,5.04 2.682,5.204 3.012,5.495 C4.252,4.699 5.922,4.198 7.762,4.165 L8.97,0.475 L9.234,0.538 C9.236,0.538 9.238,0.538 9.24,0.54 L12.056,1.203 C12.284,0.67 12.813,0.295 13.429,0.295 C14.251,0.295 14.919,0.965 14.919,1.787 C14.919,2.61 14.251,3.279 13.429,3.279 C12.606,3.279 11.937,2.609 11.936,1.789 L9.366,1.183 L8.39,4.17 C10.163,4.24 11.764,4.742 12.96,5.52 C13.293,5.213 13.727,5.04 14.188,5.04 C15.188,5.04 16,5.854 16,6.853 C16,7.518 15.646,8.113 15.08,8.431 C15.105,8.597 15.12,8.765 15.12,8.935 C15.118,11.565 11.91,13.705 7.967,13.705 L7.967,13.707 Z M13.43,0.893 C12.936,0.893 12.535,1.293 12.535,1.787 C12.535,2.28 12.935,2.681 13.429,2.681 C13.919,2.681 14.321,2.281 14.321,1.788 C14.321,1.295 13.921,0.894 13.428,0.894 L13.43,0.893 Z" id="Shape"></path>
            </g>
        </g>
    </g>
</svg>