<?xml version="1.0" encoding="UTF-8"?>
<svg width="16px" height="16px" viewBox="0 0 16 16" version="1.1" xmlns="http://www.w3.org/2000/svg" xmlns:xlink="http://www.w3.org/1999/xlink">
    <!-- Generator: Sketch 39 (31667) - http://www.bohemiancoding.com/sketch -->
    <title>logolink_coderWall</title>
    <desc>Created with Sketch.</desc>
    <defs></defs>
    <g id="Page-1" stroke="none" stroke-width="1" fill="none" fill-rule="evenodd">
        <g id="Artboard" transform="translate(-165.000000, -59.000000)" fill="#112E48">
            <g id="logolink_coderWall" transform="translate(165.000000, 59.000000)">
                <path d="M14.236,12.472 C15.21,12.472 16,13.262 16,14.236 C16,15.21 15.21,16 14.236,16 C13.263,16 12.472,15.21 12.472,14.236 C12.472,13.263 13.262,12.472 14.236,12.472 L14.236,12.472 Z M8,6.236 C8.973,6.236 9.764,7.026 9.764,8 C9.764,8.973 8.974,9.764 8,9.764 C7.027,9.764 6.236,8.974 6.236,8 C6.236,7.027 7.026,6.236 8,6.236 L8,6.236 Z M14.236,6.236 C15.21,6.236 16,7.026 16,8 C16,8.973 15.21,9.764 14.236,9.764 C13.263,9.764 12.472,8.974 12.472,8 C12.472,7.027 13.262,6.236 14.236,6.236 L14.236,6.236 Z M8,0 C8.973,0 9.764,0.79 9.764,1.764 C9.764,2.737 8.974,3.528 8,3.528 C7.027,3.528 6.236,2.738 6.236,1.764 C6.236,0.79 7.026,0 8,0 L8,0 Z M1.764,0 C2.737,0 3.528,0.79 3.528,1.764 C3.528,2.737 2.738,3.528 1.764,3.528 C0.79,3.528 0,2.738 0,1.764 C0,0.79 0.79,0 1.764,0 L1.764,0 Z M14.236,0 C15.21,0 16,0.79 16,1.764 C16,2.737 15.21,3.528 14.236,3.528 C13.263,3.528 12.472,2.738 12.472,1.764 C12.472,0.79 13.262,0 14.236,0 L14.236,0 Z" id="Shape"></path>
            </g>
        </g>
    </g>
</svg>