<?xml version="1.0" encoding="UTF-8"?>
<svg width="16px" height="16px" viewBox="0 0 16 16" version="1.1" xmlns="http://www.w3.org/2000/svg" xmlns:xlink="http://www.w3.org/1999/xlink">
    <!-- Generator: Sketch 39 (31667) - http://www.bohemiancoding.com/sketch -->
    <title>logolink_geeklist</title>
    <desc>Created with Sketch.</desc>
    <defs></defs>
    <g id="Page-1" stroke="none" stroke-width="1" fill="none" fill-rule="evenodd">
        <g id="Artboard" transform="translate(-362.000000, -59.000000)" fill="#0087D5">
            <g id="logolink_geeklist" transform="translate(362.000000, 59.000000)">
                <path d="M16,8 C16,12.418 12.418,16 8,16 C3.582,16 0,12.418 0,8 C0,3.582 3.582,0 8,0 C12.418,0 16,3.582 16,8 L16,8 Z M8,10.425 C7.743,10.555 7.396,10.619 6.96,10.619 C6.786,10.619 6.53,10.599 6.188,10.556 C5.846,10.516 5.588,10.496 5.416,10.496 C4.779,10.496 4.46,10.69 4.46,11.081 C4.46,11.311 4.604,11.491 4.892,11.624 C5.18,11.754 5.546,11.821 5.99,11.821 C6.65,11.821 7.473,11.491 8.01,11.001 L8.02,10.987 C8.558,11.481 9.348,11.821 10.01,11.821 C10.454,11.821 10.82,11.755 11.108,11.624 C11.396,11.492 11.54,11.311 11.54,11.081 C11.54,10.691 11.22,10.495 10.584,10.495 C10.411,10.495 10.154,10.515 9.814,10.555 C9.471,10.598 9.214,10.618 9.042,10.618 C8.604,10.618 8.257,10.553 8,10.423 L8,10.425 Z M8,4.522 C8.515,4.072 9.146,3.845 9.893,3.845 C10.485,3.845 10.981,3.955 11.38,4.178 L11.984,3.475 L13.051,4.445 L12.318,4.98 C12.574,5.367 12.701,5.824 12.701,6.35 C12.701,7.103 12.471,7.704 12.013,8.155 C11.555,8.605 10.976,8.83 10.276,8.83 C10.166,8.83 10.016,8.82 9.832,8.8 L9.58,8.76 C9.55,8.76 9.442,8.805 9.25,8.893 C9.06,8.981 8.964,9.073 8.964,9.167 C8.964,9.331 9.104,9.413 9.389,9.413 C9.517,9.413 9.729,9.383 10.031,9.321 C10.331,9.259 10.587,9.228 10.801,9.228 C12.301,9.228 13.051,9.832 13.051,11.038 C13.051,11.703 12.751,12.226 12.151,12.608 C11.551,12.988 10.827,13.178 9.981,13.178 C9.273,13.178 8.614,13.032 8.001,12.741 C7.389,13.031 6.729,13.177 6.021,13.177 C5.175,13.177 4.451,12.987 3.851,12.607 C3.251,12.225 2.951,11.702 2.951,11.037 C2.951,9.831 3.701,9.227 5.201,9.227 C5.415,9.227 5.671,9.259 5.973,9.321 C6.273,9.381 6.487,9.413 6.613,9.413 C6.898,9.413 7.04,9.331 7.04,9.166 C7.04,9.071 6.943,8.98 6.752,8.891 C6.562,8.803 6.452,8.758 6.422,8.758 L6.17,8.8 C5.984,8.82 5.836,8.83 5.725,8.83 C5.025,8.83 4.447,8.605 3.988,8.155 C3.53,7.705 3.3,7.103 3.3,6.35 C3.3,5.824 3.428,5.367 3.683,4.98 L2.949,4.444 L4.015,3.474 L4.619,4.178 C5.019,3.956 5.514,3.845 6.106,3.845 C6.854,3.845 7.486,4.071 7.999,4.522 L8,4.522 Z M8,8.565 C8.103,8.487 8.214,8.423 8.332,8.375 C8.212,8.295 8.102,8.212 8,8.123 C7.9,8.213 7.788,8.295 7.668,8.373 C7.786,8.423 7.898,8.487 8,8.565 L8,8.565 Z M7.21,6.095 C7.174,5.838 7.068,5.62 6.89,5.443 C6.67,5.221 6.38,5.11 6.027,5.11 C5.69,5.11 5.415,5.225 5.203,5.455 C4.993,5.685 4.886,5.967 4.886,6.301 C4.886,6.705 4.984,7.021 5.182,7.251 C5.379,7.481 5.662,7.597 6.027,7.597 C6.393,7.597 6.684,7.479 6.9,7.242 C7.074,7.052 7.178,6.812 7.212,6.522 C7.206,6.449 7.202,6.372 7.202,6.297 C7.202,6.229 7.206,6.163 7.21,6.097 L7.21,6.095 Z M8.79,6.522 C8.823,6.812 8.927,7.052 9.1,7.242 C9.316,7.478 9.607,7.596 9.973,7.596 C10.339,7.596 10.621,7.481 10.818,7.251 C11.016,7.021 11.115,6.705 11.115,6.301 C11.115,5.968 11.009,5.687 10.797,5.457 C10.585,5.227 10.31,5.111 9.973,5.111 C9.619,5.111 9.333,5.221 9.11,5.444 C8.933,5.621 8.826,5.838 8.79,6.096 C8.795,6.161 8.797,6.228 8.797,6.296 C8.797,6.373 8.794,6.449 8.789,6.523 L8.79,6.522 Z" id="Shape"></path>
            </g>
        </g>
    </g>
</svg>