<?xml version="1.0" encoding="UTF-8"?>
<svg width="16px" height="16px" viewBox="0 0 16 16" version="1.1" xmlns="http://www.w3.org/2000/svg" xmlns:xlink="http://www.w3.org/1999/xlink">
    <!-- Generator: Sketch 39 (31667) - http://www.bohemiancoding.com/sketch -->
    <title>logolink_codePen</title>
    <desc>Created with Sketch.</desc>
    <defs></defs>
    <g id="Page-1" stroke="none" stroke-width="1" fill="none" fill-rule="evenodd">
        <g id="Artboard" transform="translate(-140.000000, -59.000000)" fill="#112E48">
            <g id="logolink_codePen" transform="translate(140.000000, 59.000000)">
                <path d="M15.988,5.443 C15.984,5.423 15.981,5.403 15.976,5.385 L15.966,5.352 C15.96,5.335 15.954,5.318 15.946,5.302 C15.943,5.29 15.936,5.279 15.932,5.268 L15.909,5.223 L15.889,5.191 L15.859,5.151 L15.835,5.121 C15.825,5.108 15.813,5.095 15.801,5.083 L15.774,5.056 L15.734,5.024 L15.704,5 L15.692,4.99 L8.38,0.117 C8.15,-0.038 7.85,-0.038 7.62,0.117 L0.305,4.99 L0.296,5 C0.284,5.007 0.274,5.015 0.264,5.023 C0.25,5.033 0.237,5.043 0.224,5.055 L0.197,5.082 L0.163,5.119 L0.139,5.149 L0.109,5.189 C0.103,5.201 0.096,5.211 0.089,5.222 L0.066,5.267 L0.051,5.301 C0.044,5.317 0.039,5.334 0.033,5.351 L0.023,5.383 C0.018,5.403 0.013,5.421 0.011,5.441 L0.005,5.471 C0.002,5.5 0,5.53 0,5.56 L0,10.435 C0,10.465 0.002,10.495 0.006,10.525 L0.013,10.555 C0.016,10.575 0.019,10.595 0.026,10.613 L0.036,10.646 C0.042,10.664 0.046,10.681 0.054,10.696 L0.069,10.729 C0.075,10.745 0.083,10.759 0.092,10.776 L0.112,10.806 C0.12,10.822 0.13,10.836 0.142,10.848 C0.149,10.858 0.156,10.868 0.165,10.878 C0.175,10.89 0.185,10.903 0.199,10.914 C0.209,10.924 0.217,10.934 0.227,10.94 L0.267,10.973 L0.297,10.996 L0.307,11.006 L7.617,15.882 C7.733,15.96 7.865,15.999 7.999,15.998 C8.133,15.998 8.265,15.958 8.379,15.882 L15.693,11.007 L15.703,10.997 C15.715,10.99 15.725,10.982 15.735,10.974 C15.749,10.964 15.762,10.954 15.775,10.942 L15.802,10.915 L15.836,10.878 L15.86,10.848 L15.89,10.808 L15.91,10.776 L15.933,10.73 L15.948,10.697 L15.966,10.645 L15.976,10.612 C15.981,10.592 15.986,10.574 15.989,10.554 C15.989,10.544 15.992,10.534 15.993,10.524 C15.997,10.494 15.999,10.464 15.999,10.434 L15.999,5.564 C15.999,5.534 15.997,5.504 15.993,5.474 L15.986,5.444 L15.988,5.443 Z M8,9.626 L5.568,8 L8,6.374 L10.432,8 L8,9.626 L8,9.626 Z M7.312,5.18 L4.332,7.173 L1.926,5.563 L7.312,1.973 L7.312,5.179 L7.312,5.18 Z M3.095,8 L1.375,9.15 L1.375,6.85 L3.095,8 L3.095,8 Z M4.332,8.828 L7.312,10.821 L7.312,14.029 L1.926,10.439 L4.332,8.829 L4.332,8.828 Z M8.687,10.821 L11.667,8.828 L14.074,10.438 L8.687,14.028 L8.687,10.822 L8.687,10.821 Z M12.905,8 L14.625,6.85 L14.625,9.15 L12.905,8 L12.905,8 Z M11.668,7.173 L8.688,5.18 L8.688,1.97 L14.074,5.56 L11.668,7.17 L11.668,7.173 Z" id="Shape"></path>
            </g>
        </g>
    </g>
</svg>