<?xml version="1.0" encoding="UTF-8"?>
<svg width="16px" height="16px" viewBox="0 0 16 16" version="1.1" xmlns="http://www.w3.org/2000/svg" xmlns:xlink="http://www.w3.org/1999/xlink">
    <!-- Generator: Sketch 39 (31667) - http://www.bohemiancoding.com/sketch -->
    <title>logolink_quora</title>
    <desc>Created with Sketch.</desc>
    <defs></defs>
    <g id="Page-1" stroke="none" stroke-width="1" fill="none" fill-rule="evenodd">
        <g id="Artboard" transform="translate(-706.000000, -59.000000)" fill="#112E48">
            <g id="logolink_quora" transform="translate(706.000000, 59.000000)">
                <path d="M8.49,12.476 C7.936,11.386 7.286,10.283 6.017,10.283 C5.775,10.283 5.532,10.323 5.31,10.423 L4.88,9.563 C5.404,9.111 6.253,8.753 7.344,8.753 C9.041,8.753 9.912,9.573 10.604,10.615 C11.014,9.725 11.208,8.521 11.208,7.03 C11.208,3.306 10.044,1.394 7.324,1.394 C4.644,1.394 3.484,3.306 3.484,7.03 C3.484,10.734 4.644,12.626 7.324,12.626 C7.75,12.626 8.136,12.58 8.49,12.476 L8.49,12.476 Z M9.155,13.776 C8.567,13.933 7.943,14.02 7.325,14.02 C3.755,14.02 0.26,11.172 0.26,7.03 C0.26,2.85 3.754,0 7.324,0 C10.954,0 14.414,2.828 14.414,7.03 C14.414,9.367 13.324,11.266 11.739,12.494 C12.249,13.261 12.777,13.771 13.511,13.771 C14.311,13.771 14.635,13.153 14.689,12.667 L15.733,12.667 C15.793,13.314 15.47,16.001 12.553,16.001 C10.788,16.001 9.853,14.977 9.153,13.777 L9.155,13.776 Z" id="Shape"></path>
            </g>
        </g>
    </g>
</svg>