<?xml version="1.0" encoding="UTF-8"?>
<svg width="16px" height="16px" viewBox="0 0 16 16" version="1.1" xmlns="http://www.w3.org/2000/svg" xmlns:xlink="http://www.w3.org/1999/xlink">
    <!-- Generator: Sketch 39 (31667) - http://www.bohemiancoding.com/sketch -->
    <title>logolink_wordpress</title>
    <desc>Created with Sketch.</desc>
    <defs></defs>
    <g id="Page-1" stroke="none" stroke-width="1" fill="none" fill-rule="evenodd">
        <g id="Artboard" transform="translate(-805.000000, -59.000000)" fill="#0087D5">
            <g id="logolink_wordpress" transform="translate(805.000000, 59.000000)">
                <path d="M14.312,4.55 C14.872,5.574 15.192,6.75 15.192,8 C15.192,10.653 13.754,12.97 11.616,14.217 L13.813,7.865 C14.223,6.839 14.36,6.018 14.36,5.289 C14.36,5.023 14.342,4.777 14.312,4.549 L14.312,4.55 Z M8.992,4.626 C9.424,4.604 9.814,4.558 9.814,4.558 C10.202,4.511 10.156,3.942 9.769,3.964 C9.769,3.964 8.602,4.056 7.849,4.056 C7.144,4.056 5.956,3.964 5.956,3.964 C5.568,3.942 5.523,4.534 5.91,4.557 C5.91,4.557 6.278,4.602 6.666,4.624 L7.786,7.694 L6.212,12.414 L3.592,4.624 C4.026,4.602 4.416,4.556 4.416,4.556 C4.803,4.509 4.758,3.94 4.37,3.962 C4.37,3.962 3.205,4.054 2.453,4.054 C2.318,4.054 2.159,4.05 1.99,4.044 C3.276,2.1 5.487,0.81 8,0.81 C9.872,0.81 11.577,1.525 12.857,2.698 C12.827,2.696 12.797,2.692 12.764,2.692 C12.057,2.692 11.556,3.307 11.556,3.968 C11.556,4.561 11.898,5.063 12.262,5.655 C12.536,6.135 12.856,6.75 12.856,7.639 C12.856,8.254 12.619,8.969 12.308,9.964 L11.591,12.361 L8.991,4.628 L8.992,4.626 Z M8,15.193 C7.294,15.193 6.613,15.089 5.968,14.9 L8.126,8.63 L10.336,14.686 C10.352,14.721 10.369,14.754 10.388,14.786 C9.641,15.048 8.838,15.193 8,15.193 L8,15.193 Z M0.807,8 C0.807,6.957 1.031,5.967 1.43,5.073 L4.86,14.473 C2.463,13.307 0.808,10.847 0.808,8 L0.807,8 Z M8,0 C3.59,0 0,3.59 0,8 C0,12.41 3.59,16 8,16 C12.41,16 16,12.41 16,8 C16,3.59 12.41,0 8,0 L8,0 Z" id="Shape"></path>
            </g>
        </g>
    </g>
</svg>