<?xml version="1.0" encoding="UTF-8"?>
<svg width="12px" height="16px" viewBox="0 0 12 16" version="1.1" xmlns="http://www.w3.org/2000/svg" xmlns:xlink="http://www.w3.org/1999/xlink">
    <!-- Generator: Sketch 39 (31667) - http://www.bohemiancoding.com/sketch -->
    <title>logolink_foursquare</title>
    <desc>Created with Sketch.</desc>
    <defs></defs>
    <g id="Page-1" stroke="none" stroke-width="1" fill="none" fill-rule="evenodd">
        <g id="Artboard" transform="translate(-921.000000, -59.000000)" fill="#0087D5">
            <g id="logolink_foursquare" transform="translate(921.000000, 59.000000)">
                <path d="M9.822,2.31 L9.464,4.176 C9.421,4.378 9.167,4.591 8.931,4.591 L5.608,4.591 C5.234,4.591 4.966,4.847 4.966,5.221 L4.966,5.627 C4.966,6.001 5.236,6.267 5.61,6.267 L8.43,6.267 C8.693,6.267 8.953,6.557 8.895,6.837 C8.838,7.12 8.57,8.519 8.538,8.674 C8.505,8.828 8.328,9.094 8.014,9.094 L5.712,9.094 C5.292,9.094 5.166,9.147 4.886,9.496 C4.606,9.846 2.082,12.874 2.082,12.874 C2.057,12.904 2.032,12.894 2.032,12.864 L2.032,2.282 C2.032,2.042 2.239,1.762 2.55,1.762 L9.4,1.762 C9.65,1.762 9.886,1.999 9.822,2.309 L9.822,2.31 Z M10.122,9.63 C10.218,9.245 11.286,3.774 11.642,2.04 L10.122,9.63 Z M10.327,0 L1.792,0 C0.615,0 0.27,0.886 0.27,1.443 L0.27,15.003 C0.27,15.63 0.606,15.863 0.796,15.94 C0.986,16.017 1.509,16.082 1.823,15.72 C1.823,15.72 5.853,11.045 5.921,10.976 C6.027,10.871 6.027,10.871 6.131,10.871 L8.738,10.871 C9.833,10.871 10.008,10.091 10.124,9.631 C10.219,9.246 11.287,3.775 11.644,2.041 C11.916,0.713 11.58,0 10.326,0 L10.327,0 Z" id="Shape"></path>
            </g>
        </g>
    </g>
</svg>