<?xml version="1.0" encoding="UTF-8"?>
<svg width="14px" height="16px" viewBox="0 0 14 16" version="1.1" xmlns="http://www.w3.org/2000/svg" xmlns:xlink="http://www.w3.org/1999/xlink">
    <!-- Generator: Sketch 39 (31667) - http://www.bohemiancoding.com/sketch -->
    <title>logolink_stackOverflow</title>
    <desc>Created with Sketch.</desc>
    <defs></defs>
    <g id="Page-1" stroke="none" stroke-width="1" fill="none" fill-rule="evenodd">
        <g id="Artboard" transform="translate(-876.000000, -59.000000)" fill="#0087D5">
            <g id="logolink_stackOverflow" transform="translate(876.000000, 59.000000)">
                <path d="M11.658,14.577 L11.658,10.307 L13.081,10.307 L13.081,16 L0.23,16 L0.23,10.307 L1.65,10.307 L1.65,14.577 L11.656,14.577 L11.658,14.577 Z M3.075,13.154 L10.235,13.154 L10.235,11.73 L3.075,11.73 L3.075,13.154 L3.075,13.154 Z M3.248,9.919 L10.235,11.384 L10.535,10.004 L3.55,8.54 L3.248,9.92 L3.248,9.919 Z M4.154,6.554 L10.624,9.574 L11.226,8.279 L4.756,5.259 L4.154,6.554 L4.154,6.554 Z M5.964,3.364 L11.442,7.934 L12.348,6.856 L6.871,2.286 L5.966,3.363 L5.964,3.364 Z M9.502,0 L8.338,0.863 L12.608,6.598 L13.772,5.736 L9.5,0 L9.502,0 Z" id="Shape"></path>
            </g>
        </g>
    </g>
</svg>