<?xml version="1.0" encoding="UTF-8"?>
<svg width="14px" height="16px" viewBox="0 0 14 16" version="1.1" xmlns="http://www.w3.org/2000/svg" xmlns:xlink="http://www.w3.org/1999/xlink">
    <!-- Generator: Sketch 39 (31667) - http://www.bohemiancoding.com/sketch -->
    <title>logolink_viadeo</title>
    <desc>Created with Sketch.</desc>
    <defs></defs>
    <g id="Page-1" stroke="none" stroke-width="1" fill="none" fill-rule="evenodd">
        <g id="Artboard" transform="translate(-899.000000, -59.000000)" fill="#0087D5">
            <g id="logolink_viadeo" transform="translate(899.000000, 59.000000)">
                <path d="M5.742,14.658 L5.762,14.658 C6.534,14.658 7.242,14.471 7.887,14.098 C8.532,13.725 9.043,13.195 9.423,12.508 C9.801,11.823 9.991,11.083 9.991,10.288 C9.991,9.645 9.877,9.051 9.648,8.508 C10.028,8.428 10.488,8.272 10.97,7.975 C11.257,8.677 11.402,9.438 11.402,10.259 C11.402,11.791 10.876,13.132 9.824,14.279 C8.772,15.427 7.42,16 5.768,16 C4.108,16 2.753,15.427 1.701,14.28 C0.651,13.133 0.124,11.792 0.124,10.26 C0.124,8.738 0.622,7.42 1.618,6.303 C2.713,5.073 4.096,4.457 5.768,4.457 C6.472,4.457 7.124,4.567 7.725,4.785 C7.53,5.167 7.353,5.635 7.305,6.138 C6.828,5.938 6.315,5.838 5.765,5.838 C4.607,5.838 3.613,6.273 2.782,7.141 C1.952,8.009 1.536,9.059 1.536,10.291 C1.536,11.084 1.726,11.824 2.106,12.511 C2.484,13.196 2.996,13.726 3.64,14.099 C4.068,14.347 4.523,14.512 5.006,14.595 C9.143,12.992 8.656,5.152 8.626,4.721 L8.661,4.829 C11.091,11.316 5.793,14.657 5.793,14.657 C5.777,14.657 5.76,14.657 5.743,14.659 L5.742,14.658 Z M13.056,0.363 C12.38,1.801 11.126,2.068 11.126,2.068 C9.874,2.386 9.436,2.868 9.436,2.868 C8.184,4.128 9.17,5.656 9.17,5.656 C11.875,5.04 12.863,2.818 12.863,2.818 C12.743,4.311 9.523,6.075 9.523,6.075 C10.589,7.117 11.606,6.992 12.278,6.592 C13.168,6.062 13.596,4.902 13.596,4.902 C14.459,2.322 13.056,0.362 13.056,0.362 L13.056,0.363 Z M6.406,0 C7.736,2.236 8.46,4.243 8.623,4.72 L8.623,4.7 C8.295,1.255 6.404,0 6.404,0 L6.406,0 Z" id="Shape"></path>
            </g>
        </g>
    </g>
</svg>