<?xml version="1.0" encoding="UTF-8"?>
<svg width="16px" height="16px" viewBox="0 0 16 16" version="1.1" xmlns="http://www.w3.org/2000/svg" xmlns:xlink="http://www.w3.org/1999/xlink">
    <!-- Generator: Sketch 39 (31667) - http://www.bohemiancoding.com/sketch -->
    <title>logolink_joomla</title>
    <desc>Created with Sketch.</desc>
    <defs></defs>
    <g id="Page-1" stroke="none" stroke-width="1" fill="none" fill-rule="evenodd">
        <g id="Artboard" transform="translate(-558.000000, -59.000000)" fill="#112E48">
            <g id="logolink_joomla" transform="translate(558.000000, 59.000000)">
                <path d="M11.146,9.84 L9.48,11.508 L7.9,13.088 L7.592,13.398 C6.68,14.308 5.394,14.618 4.227,14.33 C4.009,15.28 3.157,15.99 2.14,15.99 C0.958,15.99 0,15.032 0,13.85 C0,12.838 0.703,11.99 1.646,11.767 C1.348,10.594 1.656,9.297 2.576,8.381 L2.696,8.261 L4.276,9.841 L4.154,9.961 C3.641,10.474 3.641,11.304 4.154,11.817 C4.668,12.332 5.502,12.331 6.012,11.819 L6.322,11.509 L7.9,9.93 L9.568,8.26 L11.146,9.84 L11.146,9.84 Z M11.762,14.276 C10.547,14.65 9.172,14.356 8.21,13.396 L8.09,13.274 L9.667,11.694 L9.787,11.816 C10.301,12.328 11.132,12.328 11.645,11.816 C12.155,11.306 12.157,10.476 11.642,9.962 L11.332,9.652 L9.755,8.072 L8.087,6.404 L9.667,4.824 L11.333,6.494 L12.911,8.074 L13.221,8.384 C14.131,9.291 14.444,10.569 14.161,11.731 C15.201,11.878 16.001,12.771 16.001,13.851 C16.001,15.033 15.041,15.991 13.861,15.991 C12.824,15.991 11.961,15.255 11.763,14.277 L11.762,14.276 Z M4.65,6.308 L6.322,4.638 L7.902,3.058 L8.21,2.751 C9.16,1.801 10.515,1.501 11.72,1.856 C11.862,0.813 12.757,0.01 13.84,0.01 C15.022,0.01 15.98,0.968 15.98,2.15 C15.98,3.237 15.17,4.135 14.12,4.273 C14.466,5.473 14.166,6.818 13.22,7.763 L13.1,7.886 L11.52,6.306 L11.642,6.184 C12.155,5.671 12.155,4.84 11.642,4.328 C11.132,3.818 10.302,3.816 9.788,4.33 L9.48,4.638 L7.9,6.218 L6.23,7.886 L4.65,6.308 L4.65,6.308 Z M2.882,8.073 L2.574,7.765 C1.62,6.811 1.324,5.448 1.686,4.239 C0.733,4.022 0.02,3.17 0.02,2.15 C0.02,0.97 0.98,0.01 2.16,0.01 C3.224,0.01 4.107,0.787 4.273,1.804 C5.427,1.534 6.691,1.848 7.593,2.748 L7.715,2.871 L6.135,4.451 L6.013,4.328 C5.5,3.816 4.669,3.816 4.156,4.328 C3.642,4.843 3.643,5.678 4.153,6.188 L4.463,6.496 L6.043,8.074 L7.713,9.744 L6.135,11.324 L4.462,9.654 L2.882,8.074 L2.882,8.073 Z" id="Shape"></path>
            </g>
        </g>
    </g>
</svg>