<?xml version="1.0" encoding="UTF-8"?>
<svg width="16px" height="16px" viewBox="0 0 16 16" version="1.1" xmlns="http://www.w3.org/2000/svg" xmlns:xlink="http://www.w3.org/1999/xlink">
    <!-- Generator: Sketch 39 (31667) - http://www.bohemiancoding.com/sketch -->
    <title>logolink_codeSchool</title>
    <desc>Created with Sketch.</desc>
    <defs></defs>
    <g id="Page-1" stroke="none" stroke-width="1" fill="none" fill-rule="evenodd">
        <g id="Artboard" transform="translate(-42.000000, -59.000000)" fill="#112E48">
            <g id="logolink_codeSchool" transform="translate(41.000000, 59.000000)">
                <path d="M9,14.555 C5.374,14.555 2.434,11.615 2.434,7.992 C2.434,4.367 5.374,1.43 9,1.43 C12.624,1.43 15.563,4.367 15.563,7.992 C15.563,11.616 12.633,14.555 8.999,14.555 L9,14.555 Z M9,-3.55271368e-15 C4.58,-3.55271368e-15 0.996,3.584 0.996,8 C0.996,12.416 4.582,16 9,16 C13.416,16 17,12.416 17,8 C17,3.584 13.424,-0.008 9,-3.55271368e-15 L9,-3.55271368e-15 Z M8.133,10.196 L5.798,8 L8.133,5.796 L8.133,3.74 L3.626,8 L8.133,12.253 L8.133,10.196 L8.133,10.196 Z M9.873,3.739 L9.873,5.795 L12.206,8 L9.871,10.196 L9.871,12.253 L14.38,8 L9.87,3.74 L9.873,3.739 Z" id="Shape"></path>
            </g>
        </g>
    </g>
</svg>