<?xml version="1.0" encoding="UTF-8"?>
<svg width="16px" height="16px" viewBox="0 0 16 16" version="1.1" xmlns="http://www.w3.org/2000/svg" xmlns:xlink="http://www.w3.org/1999/xlink">
    <!-- Generator: Sketch 39 (31667) - http://www.bohemiancoding.com/sketch -->
    <title>logolink_pinterest</title>
    <desc>Created with Sketch.</desc>
    <defs></defs>
    <g id="Page-1" stroke="none" stroke-width="1" fill="none" fill-rule="evenodd">
        <g id="Artboard" transform="translate(-681.000000, -59.000000)" fill="#0087D5">
            <g id="logolink_pinterest" transform="translate(681.000000, 59.000000)">
                <path d="M8,0 C3.582,0 0,3.582 0,8 C0,11.39 2.108,14.285 5.084,15.45 C5.014,14.817 4.951,13.846 5.112,13.155 C5.258,12.53 6.05,9.178 6.05,9.178 C6.05,9.178 5.81,8.698 5.81,7.99 C5.81,6.88 6.456,6.047 7.258,6.047 C7.941,6.047 8.27,6.56 8.27,7.174 C8.27,7.861 7.834,8.887 7.608,9.838 C7.418,10.635 8.008,11.283 8.793,11.283 C10.213,11.283 11.307,9.785 11.307,7.621 C11.307,5.706 9.931,4.367 7.965,4.367 C5.689,4.367 4.355,6.074 4.355,7.839 C4.355,8.526 4.618,9.263 4.948,9.664 C5.014,9.744 5.023,9.814 5.005,9.894 C4.945,10.146 4.809,10.69 4.782,10.801 C4.747,10.947 4.667,10.979 4.514,10.908 C3.516,10.443 2.89,8.982 2.89,7.808 C2.89,5.284 4.724,2.968 8.177,2.968 C10.951,2.968 13.109,4.945 13.109,7.588 C13.109,10.345 11.369,12.565 8.956,12.565 C8.146,12.565 7.384,12.143 7.123,11.645 L6.623,13.547 C6.443,14.242 5.956,15.113 5.629,15.644 C6.379,15.876 7.174,16.001 7.999,16.001 C12.416,16.001 15.999,12.419 15.999,8.001 C15.999,3.583 12.416,0.001 7.999,0.001 L8,0 Z" id="Shape"></path>
            </g>
        </g>
    </g>
</svg>