<?xml version="1.0" encoding="UTF-8"?>
<svg width="10px" height="16px" viewBox="0 0 10 16" version="1.1" xmlns="http://www.w3.org/2000/svg" xmlns:xlink="http://www.w3.org/1999/xlink">
    <!-- Generator: Sketch 39 (31667) - http://www.bohemiancoding.com/sketch -->
    <title>logolink_tumblr</title>
    <desc>Created with Sketch.</desc>
    <defs></defs>
    <g id="Page-1" stroke="none" stroke-width="1" fill="none" fill-rule="evenodd">
        <g id="Artboard" transform="translate(-981.000000, -59.000000)" fill="#0087D5">
            <g id="logolink_tumblr" transform="translate(981.000000, 59.000000)">
                <path d="M6.708,16 C3.312,16 2.021,13.496 2.021,11.726 L2.021,6.498 L0.403,6.498 L0.403,4.432 C2.83,3.557 3.412,1.368 3.55,0.12 C3.56,0.034 3.627,0 3.665,0 L6.01,0 L6.01,4.076 L9.21,4.076 L9.21,6.498 L5.997,6.498 L5.997,11.478 C6.007,12.145 6.247,13.058 7.469,13.058 L7.536,13.058 C7.96,13.046 8.53,12.922 8.826,12.78 L9.596,15.063 C9.308,15.487 8.002,15.979 6.826,15.999 L6.706,15.999 L6.708,16 Z" id="Shape"></path>
            </g>
        </g>
    </g>
</svg>