<?xml version="1.0" encoding="UTF-8"?>
<svg width="16px" height="10px" viewBox="0 0 16 10" version="1.1" xmlns="http://www.w3.org/2000/svg" xmlns:xlink="http://www.w3.org/1999/xlink">
    <!-- Generator: Sketch 39 (31667) - http://www.bohemiancoding.com/sketch -->
    <title>logolink_coursera</title>
    <desc>Created with Sketch.</desc>
    <defs></defs>
    <g id="Page-1" stroke="none" stroke-width="1" fill="none" fill-rule="evenodd">
        <g id="Artboard" transform="translate(-189.000000, -62.000000)" fill="#112E48">
            <g id="logolink_coursera" transform="translate(189.000000, 62.000000)">
                <path d="M15.996,4.87 C15.993,4.807 15.989,4.746 15.984,4.684 L15.984,4.68 C15.924,4.005 15.701,3.374 15.324,2.803 C15.154,2.549 14.961,2.318 14.744,2.111 C14.43,1.807 14.064,1.556 13.654,1.357 C13.034,1.06 12.349,0.911 11.618,0.911 C11.548,0.911 11.472,0.911 11.398,0.915 C10.884,0.938 10.388,1.035 9.921,1.207 C9.451,1.377 9.041,1.602 8.707,1.871 C8.639,1.925 8.565,1.991 8.487,2.065 L8.427,2.121 L8.35,2.204 L8.313,2.241 L8.295,2.261 L8.202,2.359 C8.132,2.436 8.066,2.514 8.005,2.591 L8,2.59 C7.872,2.746 7.753,2.908 7.666,3.053 C7.606,3.146 7.549,3.241 7.494,3.337 L6.73,4.883 L6.732,4.883 L6.692,4.963 L6.608,5.133 C6.44,5.473 6.261,5.811 6.06,6.09 C5.612,6.58 5.106,6.82 4.456,6.82 C4.411,6.82 4.364,6.82 4.316,6.816 C3.926,6.801 3.589,6.708 3.29,6.532 L3.198,6.472 C2.954,6.312 2.768,6.104 2.628,5.845 C2.471,5.551 2.401,5.251 2.411,4.932 L2.413,4.909 C2.433,4.402 2.627,4.009 3.016,3.667 C3.111,3.587 3.21,3.517 3.313,3.455 C3.328,3.445 3.343,3.438 3.357,3.43 C3.647,3.274 3.975,3.195 4.352,3.195 L4.47,3.199 C5.07,3.219 5.532,3.409 5.9,3.773 L7.054,1.7 C6.777,1.514 6.464,1.355 6.121,1.225 L6.081,1.211 C6.041,1.197 6.001,1.181 5.958,1.168 C5.592,1.046 5.208,0.971 4.814,0.938 C4.804,0.935 4.794,0.934 4.784,0.933 L4.6,0.919 C4.533,0.916 4.467,0.915 4.402,0.915 L4.365,0.915 C3.638,0.917 2.963,1.065 2.345,1.361 C1.655,1.694 1.093,2.181 0.677,2.805 C0.263,3.431 0.037,4.125 0.004,4.87 C0.002,4.933 0,4.996 0,5.058 C0,6.101 0.38,7.018 1.135,7.788 C1.923,8.594 2.948,9.028 4.18,9.08 C4.26,9.084 4.336,9.086 4.414,9.086 C5.111,9.086 5.754,8.962 6.334,8.714 C6.478,8.652 6.618,8.58 6.761,8.499 C6.841,8.453 6.914,8.406 6.987,8.355 L7.041,8.319 L7.131,8.256 C7.241,8.178 7.343,8.093 7.443,8.003 L7.477,7.97 C7.537,7.915 7.594,7.86 7.65,7.8 L7.856,7.566 L7.936,7.466 L7.972,7.413 L8.008,7.36 C8.316,6.843 9.318,4.96 9.318,4.96 L9.318,4.957 L9.378,4.842 L9.428,4.752 C9.575,4.482 9.682,4.292 9.823,4.092 L9.827,4.086 C10.157,3.608 10.723,3.266 11.391,3.21 C12.511,3.114 13.494,3.85 13.584,4.854 C13.674,5.858 12.838,6.75 11.718,6.847 C11.485,6.867 11.258,6.852 11.044,6.805 L11.039,6.807 C10.217,6.637 9.694,6.037 9.436,5.767 L8.357,7.75 C8.357,7.75 8.692,8.088 8.921,8.257 C9.151,8.425 9.449,8.591 9.686,8.694 C10.261,8.939 10.886,9.086 11.578,9.086 C11.658,9.086 11.642,9.086 11.725,9.083 C12.955,9.033 14.051,8.56 14.842,7.753 C15.592,6.986 15.998,6.111 16.002,5.075 L16.002,5.045 C16.002,4.985 16,4.929 15.998,4.87 L15.996,4.87 Z" id="Shape"></path>
            </g>
        </g>
    </g>
</svg>