<?xml version="1.0" encoding="UTF-8"?>
<svg width="10px" height="16px" viewBox="0 0 10 16" version="1.1" xmlns="http://www.w3.org/2000/svg" xmlns:xlink="http://www.w3.org/1999/xlink">
    <!-- Generator: Sketch 39 (31667) - http://www.bohemiancoding.com/sketch -->
    <title>logolink_kaggle</title>
    <desc>Created with Sketch.</desc>
    <defs></defs>
    <g id="Page-1" stroke="none" stroke-width="1" fill="none" fill-rule="evenodd">
        <g id="Artboard" transform="translate(-962.000000, -59.000000)" fill="#0087D5">
            <g id="logolink_kaggle" transform="translate(962.000000, 59.000000)">
                <path d="M9.55,15.906 C9.535,15.968 9.472,16 9.363,16 L7.27,16 C7.146,16 7.036,15.945 6.942,15.835 L3.49,11.442 L2.525,12.358 L2.525,15.765 C2.525,15.922 2.447,16 2.29,16 L0.67,16 C0.512,16 0.434,15.922 0.434,15.765 L0.434,0.235 C0.434,0.08 0.512,0 0.67,0 L2.29,0 C2.447,0 2.525,0.08 2.525,0.235 L2.525,9.797 L6.66,5.615 C6.77,5.505 6.88,5.451 6.99,5.451 L9.15,5.451 C9.245,5.451 9.307,5.491 9.34,5.569 C9.37,5.663 9.363,5.733 9.316,5.781 L4.946,10.009 L9.503,15.672 C9.566,15.735 9.581,15.814 9.55,15.908" id="Shape"></path>
            </g>
        </g>
    </g>
</svg>