<?xml version="1.0" encoding="UTF-8"?>
<svg width="16px" height="11px" viewBox="0 0 16 11" version="1.1" xmlns="http://www.w3.org/2000/svg" xmlns:xlink="http://www.w3.org/1999/xlink">
    <!-- Generator: Sketch 39 (31667) - http://www.bohemiancoding.com/sketch -->
    <title>logolink_behance</title>
    <desc>Created with Sketch.</desc>
    <defs></defs>
    <g id="Page-1" stroke="none" stroke-width="1" fill="none" fill-rule="evenodd">
        <g id="Artboard" transform="translate(-91.000000, -61.000000)" fill="#0087D5">
            <g id="logolink_behance" transform="translate(91.000000, 61.000000)">
                <path d="M4.64,0.987 C5.11,0.987 5.536,1.027 5.924,1.112 C6.31,1.194 6.639,1.33 6.918,1.518 C7.192,1.705 7.408,1.954 7.56,2.268 C7.71,2.578 7.786,2.965 7.786,3.423 C7.786,3.918 7.673,4.333 7.448,4.663 C7.222,4.993 6.888,5.265 6.444,5.475 C7.05,5.649 7.498,5.955 7.796,6.391 C8.096,6.831 8.241,7.356 8.241,7.971 C8.241,8.471 8.146,8.901 7.956,9.261 C7.763,9.628 7.5,9.925 7.176,10.154 C6.851,10.384 6.476,10.554 6.056,10.664 C5.643,10.774 5.212,10.829 4.771,10.829 L0,10.829 L0,0.989 L4.64,0.989 L4.64,0.987 Z M11.33,9.12 C11.623,9.406 12.047,9.55 12.596,9.55 C12.99,9.55 13.332,9.45 13.618,9.25 C13.902,9.053 14.074,8.84 14.141,8.62 L15.866,8.62 C15.589,9.477 15.168,10.09 14.596,10.458 C14.028,10.828 13.336,11.013 12.531,11.013 C11.971,11.013 11.465,10.923 11.011,10.743 C10.558,10.563 10.179,10.308 9.861,9.977 C9.551,9.645 9.309,9.251 9.137,8.789 C8.967,8.329 8.881,7.821 8.881,7.269 C8.881,6.737 8.971,6.239 9.144,5.779 C9.322,5.317 9.567,4.919 9.89,4.584 C10.213,4.249 10.597,3.984 11.044,3.79 C11.491,3.598 11.984,3.5 12.53,3.5 C13.133,3.5 13.66,3.617 14.114,3.853 C14.564,4.086 14.934,4.403 15.224,4.798 C15.516,5.192 15.722,5.644 15.852,6.151 C15.979,6.657 16.024,7.185 15.988,7.738 L10.845,7.738 C10.845,8.301 11.035,8.835 11.33,9.121 L11.33,9.12 Z M4.48,9.153 C4.693,9.153 4.896,9.133 5.087,9.091 C5.281,9.049 5.453,8.981 5.597,8.883 C5.743,8.787 5.863,8.657 5.95,8.49 C6.037,8.324 6.08,8.11 6.08,7.85 C6.08,7.344 5.937,6.984 5.653,6.765 C5.368,6.55 4.989,6.442 4.523,6.442 L2.167,6.442 L2.167,9.152 L4.48,9.152 L4.48,9.153 Z M13.58,5.376 C13.346,5.118 12.952,4.979 12.472,4.979 C12.159,4.979 11.9,5.031 11.692,5.139 C11.49,5.244 11.324,5.375 11.197,5.529 C11.071,5.689 10.985,5.855 10.935,6.033 C10.885,6.206 10.855,6.363 10.845,6.503 L14.03,6.503 C13.983,6.003 13.813,5.633 13.58,5.375 L13.58,5.376 Z M4.36,4.963 C4.744,4.963 5.062,4.873 5.313,4.687 C5.563,4.505 5.683,4.205 5.683,3.792 C5.683,3.562 5.643,3.374 5.563,3.227 C5.479,3.08 5.368,2.965 5.229,2.885 C5.089,2.801 4.932,2.743 4.749,2.712 C4.572,2.677 4.385,2.662 4.193,2.662 L2.167,2.662 L2.167,4.962 L4.36,4.962 L4.36,4.963 Z M10.445,1.647 L14.435,1.647 L14.435,2.619 L10.445,2.619 L10.445,1.646 L10.445,1.647 Z" id="Shape"></path>
            </g>
        </g>
    </g>
</svg>