<?xml version="1.0" encoding="UTF-8"?>
<svg width="16px" height="8px" viewBox="0 0 16 8" version="1.1" xmlns="http://www.w3.org/2000/svg" xmlns:xlink="http://www.w3.org/1999/xlink">
    <!-- Generator: Sketch 39 (31667) - http://www.bohemiancoding.com/sketch -->
    <title>logolink_flickr</title>
    <desc>Created with Sketch.</desc>
    <defs></defs>
    <g id="Page-1" stroke="none" stroke-width="1" fill="none" fill-rule="evenodd">
        <g id="Artboard" transform="translate(-337.000000, -63.000000)" fill="#112E48">
            <g id="logolink_flickr" transform="translate(337.000000, 63.000000)">
                <path d="M0,4 C0,6.05 1.662,7.71 3.71,7.71 C5.76,7.71 7.423,6.05 7.423,4 C7.423,1.95 5.76,0.29 3.71,0.29 C1.663,0.29 0,1.95 0,4 L0,4 Z M8.577,4 C8.577,6.05 10.239,7.71 12.289,7.71 C14.337,7.71 16,6.05 16,4 C16,1.95 14.338,0.29 12.29,0.29 C10.24,0.29 8.577,1.95 8.577,4 L8.577,4 Z" id="Shape"></path>
            </g>
        </g>
    </g>
</svg>