<?xml version="1.0" encoding="UTF-8"?>
<svg width="16px" height="16px" viewBox="0 0 16 16" version="1.1" xmlns="http://www.w3.org/2000/svg" xmlns:xlink="http://www.w3.org/1999/xlink">
    <!-- Generator: Sketch 39 (31667) - http://www.bohemiancoding.com/sketch -->
    <title>logolink_instacart</title>
    <desc>Created with Sketch.</desc>
    <defs></defs>
    <g id="Page-1" stroke="none" stroke-width="1" fill="none" fill-rule="evenodd">
        <g id="Artboard" transform="translate(-509.000000, -59.000000)" fill="#0087D5">
            <g id="logolink_instacart" transform="translate(509.000000, 59.000000)">
                <path d="M10.414,6.413 C11.361,7.365 12.134,8.923 11.692,9.848 C10.506,12.324 1.664,16.665 0.912,15.914 C0.162,15.164 4.506,6.317 6.982,5.131 C7.907,4.689 9.465,5.464 10.417,6.411 L10.414,6.414 L10.414,6.413 Z M15.1,5.368 C14.945,4.798 14.552,4.224 13.966,4.155 C12.892,4.031 11.198,5.93 11.319,6.381 C11.439,6.833 13.832,7.628 14.725,6.985 C15.185,6.655 15.251,5.939 15.1,5.369 L15.1,5.368 Z M11.772,0.105 C12.57,0.321 13.377,0.871 13.472,1.693 C13.647,3.199 10.984,5.573 10.352,5.403 C9.72,5.236 8.607,1.88 9.507,0.628 C9.97,-0.02 10.974,-0.11 11.773,0.102 L11.773,0.105 L11.772,0.105 Z" id="Shape"></path>
            </g>
        </g>
    </g>
</svg>