<?xml version="1.0" encoding="UTF-8"?>
<svg width="16px" height="12px" viewBox="0 0 16 12" version="1.1" xmlns="http://www.w3.org/2000/svg" xmlns:xlink="http://www.w3.org/1999/xlink">
    <!-- Generator: Sketch 39 (31667) - http://www.bohemiancoding.com/sketch -->
    <title>logolink_youtube</title>
    <desc>Created with Sketch.</desc>
    <defs></defs>
    <g id="Page-1" stroke="none" stroke-width="1" fill="none" fill-rule="evenodd">
        <g id="Artboard" transform="translate(-829.000000, -61.000000)" fill="#112E48">
            <g id="logolink_youtube" transform="translate(829.000000, 61.000000)">
                <path d="M0,5.345 C0,4.051 0.16,2.755 0.16,2.755 C0.16,2.755 0.316,1.655 0.796,1.168 C1.404,0.531 2.204,0.551 2.56,0.484 C3.84,0.36 8,0.324 8,0.324 C8,0.324 11.362,0.328 13.6,0.49 C13.914,0.528 14.596,0.53 15.204,1.168 C15.684,1.654 15.84,2.756 15.84,2.756 C15.84,2.756 16,4.05 16,5.346 L16,6.604 C16,7.9 15.84,9.194 15.84,9.194 C15.84,9.194 15.684,10.296 15.204,10.782 C14.596,11.42 13.914,11.422 13.6,11.46 C11.362,11.622 8,11.626 8,11.626 C8,11.626 3.84,11.589 2.56,11.466 C2.204,11.399 1.404,11.419 0.796,10.782 C0.316,10.295 0.16,9.195 0.16,9.195 C0.16,9.195 0,7.9 0,6.605 L0,5.345 L0,5.345 Z M6.348,8.075 L6.348,3.58 L10.671,5.835 L6.351,8.075 L6.349,8.075 L6.348,8.075 Z" id="Shape"></path>
            </g>
        </g>
    </g>
</svg>