<svg width="794" height="585" viewBox="0 0 794 585" fill="none" xmlns="http://www.w3.org/2000/svg">
<g clip-path="url(#clip0)">
<rect width="794" height="585" fill="white"/>
<path fill-rule="evenodd" clip-rule="evenodd" d="M88 215L88.0009 255H128V235.525H119.55V246.533H96.4504L96.4519 223.467H107.439V215H88Z" fill="#1F2E77"/>
<path fill-rule="evenodd" clip-rule="evenodd" d="M111.333 215V223.563H119.477V231.667H128V215H111.333Z" fill="#F9C8CA"/>
<path d="M226.302 239.732V231.398H227.454C230.172 231.398 231.306 232.82 231.306 235.466V235.61C231.306 238.274 230.082 239.732 227.49 239.732H226.302ZM223.386 242H227.58C232.098 242 234.348 239.426 234.348 235.574V235.43C234.348 231.578 232.116 229.13 227.598 229.13H223.386V242ZM238.751 242.198C240.227 242.198 241.055 241.622 241.595 240.866V242H244.133V235.862C244.133 233.306 242.495 232.37 240.191 232.37C237.887 232.37 236.123 233.36 235.961 235.592H238.427C238.535 234.782 239.003 234.26 240.029 234.26C241.217 234.26 241.559 234.872 241.559 235.988V236.366H240.497C237.617 236.366 235.601 237.194 235.601 239.39C235.601 241.37 237.041 242.198 238.751 242.198ZM239.525 240.38C238.571 240.38 238.157 239.93 238.157 239.246C238.157 238.238 239.039 237.914 240.551 237.914H241.559V238.706C241.559 239.75 240.677 240.38 239.525 240.38ZM249.793 242.198C252.277 242.198 253.753 241.136 253.753 239.102C253.753 237.086 252.457 236.492 250.099 236.15C248.731 235.952 248.281 235.718 248.281 235.124C248.281 234.548 248.767 234.152 249.613 234.152C250.513 234.152 250.945 234.512 251.089 235.286H253.483C253.249 233.126 251.683 232.37 249.595 232.37C247.669 232.37 245.869 233.342 245.869 235.304C245.869 237.14 246.841 237.86 249.343 238.238C250.693 238.436 251.251 238.706 251.251 239.354C251.251 240.002 250.783 240.38 249.775 240.38C248.641 240.38 248.227 239.894 248.119 239.048H245.689C245.779 241.082 247.255 242.198 249.793 242.198ZM255.408 242H258.018V236.564C258.018 235.178 258.864 234.494 259.98 234.494C261.132 234.494 261.636 235.106 261.636 236.384V242H264.246V236.006C264.246 233.486 262.932 232.37 261.078 232.37C259.512 232.37 258.486 233.144 258.018 234.08V228.32H255.408V242ZM272.098 242.198C274.438 242.198 276.202 240.452 276.202 237.338V237.194C276.202 234.08 274.402 232.37 272.098 232.37C270.712 232.37 269.614 233.162 269.092 234.062V228.32H266.482V242H269.092V240.506C269.578 241.478 270.64 242.198 272.098 242.198ZM271.324 240.164C269.902 240.164 269.002 239.246 269.002 237.356V237.212C269.002 235.322 269.938 234.368 271.306 234.368C272.62 234.368 273.556 235.304 273.556 237.212V237.356C273.556 239.192 272.764 240.164 271.324 240.164ZM282.335 240.218C280.859 240.218 280.031 239.138 280.031 237.338V237.194C280.031 235.394 280.895 234.35 282.335 234.35C283.793 234.35 284.639 235.43 284.639 237.23V237.356C284.639 239.138 283.793 240.218 282.335 240.218ZM282.317 242.198C285.143 242.198 287.285 240.308 287.285 237.338V237.194C287.285 234.26 285.161 232.37 282.335 232.37C279.509 232.37 277.367 234.296 277.367 237.248V237.392C277.367 240.326 279.509 242.198 282.317 242.198ZM291.573 242.198C293.049 242.198 293.877 241.622 294.417 240.866V242H296.955V235.862C296.955 233.306 295.317 232.37 293.013 232.37C290.709 232.37 288.945 233.36 288.783 235.592H291.249C291.357 234.782 291.825 234.26 292.851 234.26C294.039 234.26 294.381 234.872 294.381 235.988V236.366H293.319C290.439 236.366 288.423 237.194 288.423 239.39C288.423 241.37 289.863 242.198 291.573 242.198ZM292.347 240.38C291.393 240.38 290.979 239.93 290.979 239.246C290.979 238.238 291.861 237.914 293.373 237.914H294.381V238.706C294.381 239.75 293.499 240.38 292.347 240.38ZM299.195 242H301.805V237.284C301.805 235.484 302.921 234.854 304.847 234.872V232.442C303.317 232.46 302.399 233.126 301.805 234.386V232.586H299.195V242ZM309.912 242.198C311.298 242.198 312.45 241.388 312.936 240.434V242H315.528V228.32H312.936V233.99C312.414 233.036 311.478 232.37 309.966 232.37C307.608 232.37 305.826 234.188 305.826 237.284V237.428C305.826 240.56 307.626 242.198 309.912 242.198ZM310.686 240.164C309.39 240.164 308.49 239.246 308.49 237.374V237.23C308.49 235.358 309.3 234.368 310.758 234.368C312.18 234.368 313.008 235.322 313.008 237.194V237.338C313.008 239.246 312.054 240.164 310.686 240.164Z" fill="#A5ABC9"/>
<path d="M355.772 242.162C358.418 242.162 360.002 240.758 360.002 237.842V229.13H357.068V237.806C357.068 239.282 356.348 239.84 355.25 239.84C354.494 239.84 354.062 239.696 353.63 239.534V241.766C354.08 242 354.656 242.162 355.772 242.162ZM366.683 240.218C365.207 240.218 364.379 239.138 364.379 237.338V237.194C364.379 235.394 365.243 234.35 366.683 234.35C368.141 234.35 368.987 235.43 368.987 237.23V237.356C368.987 239.138 368.141 240.218 366.683 240.218ZM366.665 242.198C369.491 242.198 371.633 240.308 371.633 237.338V237.194C371.633 234.26 369.509 232.37 366.683 232.37C363.857 232.37 361.715 234.296 361.715 237.248V237.392C361.715 240.326 363.857 242.198 366.665 242.198ZM378.998 242.198C381.338 242.198 383.102 240.452 383.102 237.338V237.194C383.102 234.08 381.302 232.37 378.998 232.37C377.612 232.37 376.514 233.162 375.992 234.062V228.32H373.382V242H375.992V240.506C376.478 241.478 377.54 242.198 378.998 242.198ZM378.224 240.164C376.802 240.164 375.902 239.246 375.902 237.356V237.212C375.902 235.322 376.838 234.368 378.206 234.368C379.52 234.368 380.456 235.304 380.456 237.212V237.356C380.456 239.192 379.664 240.164 378.224 240.164ZM388.263 242.198C390.747 242.198 392.223 241.136 392.223 239.102C392.223 237.086 390.927 236.492 388.569 236.15C387.201 235.952 386.751 235.718 386.751 235.124C386.751 234.548 387.237 234.152 388.083 234.152C388.983 234.152 389.415 234.512 389.559 235.286H391.953C391.719 233.126 390.153 232.37 388.065 232.37C386.139 232.37 384.339 233.342 384.339 235.304C384.339 237.14 385.311 237.86 387.813 238.238C389.163 238.436 389.721 238.706 389.721 239.354C389.721 240.002 389.253 240.38 388.245 240.38C387.111 240.38 386.697 239.894 386.589 239.048H384.159C384.249 241.082 385.725 242.198 388.263 242.198Z" fill="#A5ABC9"/>
<path d="M433.302 239.732V231.398H434.454C437.172 231.398 438.306 232.82 438.306 235.466V235.61C438.306 238.274 437.082 239.732 434.49 239.732H433.302ZM430.386 242H434.58C439.098 242 441.348 239.426 441.348 235.574V235.43C441.348 231.578 439.116 229.13 434.598 229.13H430.386V242ZM443.285 242H445.877V232.586H443.285V242ZM444.563 231.308C445.409 231.308 446.057 230.696 446.057 229.886C446.057 229.076 445.409 228.464 444.563 228.464C443.735 228.464 443.087 229.076 443.087 229.886C443.087 230.696 443.735 231.308 444.563 231.308ZM451.695 242.198C454.179 242.198 455.655 241.136 455.655 239.102C455.655 237.086 454.359 236.492 452.001 236.15C450.633 235.952 450.183 235.718 450.183 235.124C450.183 234.548 450.669 234.152 451.515 234.152C452.415 234.152 452.847 234.512 452.991 235.286H455.385C455.151 233.126 453.585 232.37 451.497 232.37C449.571 232.37 447.771 233.342 447.771 235.304C447.771 237.14 448.743 237.86 451.245 238.238C452.595 238.436 453.153 238.706 453.153 239.354C453.153 240.002 452.685 240.38 451.677 240.38C450.543 240.38 450.129 239.894 450.021 239.048H447.591C447.681 241.082 449.157 242.198 451.695 242.198ZM461.576 242.198C464.312 242.198 465.932 240.65 466.076 238.418H463.718C463.592 239.624 462.746 240.236 461.702 240.236C460.244 240.236 459.398 239.264 459.398 237.374V237.23C459.398 235.43 460.298 234.422 461.648 234.422C462.71 234.422 463.376 234.926 463.556 236.024H466.022C465.788 233.324 463.772 232.37 461.594 232.37C458.912 232.37 456.734 234.224 456.734 237.266V237.41C456.734 240.488 458.822 242.198 461.576 242.198ZM472.108 240.218C470.632 240.218 469.804 239.138 469.804 237.338V237.194C469.804 235.394 470.668 234.35 472.108 234.35C473.566 234.35 474.412 235.43 474.412 237.23V237.356C474.412 239.138 473.566 240.218 472.108 240.218ZM472.09 242.198C474.916 242.198 477.058 240.308 477.058 237.338V237.194C477.058 234.26 474.934 232.37 472.108 232.37C469.282 232.37 467.14 234.296 467.14 237.248V237.392C467.14 240.326 469.282 242.198 472.09 242.198ZM480.995 242H483.929L487.349 232.586H484.829L482.597 239.318L480.347 232.586H477.557L480.995 242ZM492.638 242.198C495.212 242.198 496.832 241.064 497.138 239.03H494.672C494.51 239.822 493.916 240.344 492.71 240.344C491.288 240.344 490.442 239.444 490.37 237.878H497.156V237.158C497.156 233.792 494.996 232.37 492.566 232.37C489.83 232.37 487.724 234.296 487.724 237.266V237.41C487.724 240.416 489.794 242.198 492.638 242.198ZM490.406 236.276C490.604 234.944 491.396 234.17 492.566 234.17C493.808 234.17 494.528 234.854 494.618 236.276H490.406ZM498.865 242H501.475V237.284C501.475 235.484 502.591 234.854 504.517 234.872V232.442C502.987 232.46 502.069 233.126 501.475 234.386V232.586H498.865V242Z" fill="#1F2E77"/>
<path d="M545.906 242H548.84V231.398H552.314V229.13H542.432V231.398H545.906V242ZM556.877 242.198C559.451 242.198 561.071 241.064 561.377 239.03H558.911C558.749 239.822 558.155 240.344 556.949 240.344C555.527 240.344 554.681 239.444 554.609 237.878H561.395V237.158C561.395 233.792 559.235 232.37 556.805 232.37C554.069 232.37 551.963 234.296 551.963 237.266V237.41C551.963 240.416 554.033 242.198 556.877 242.198ZM554.645 236.276C554.843 234.944 555.635 234.17 556.805 234.17C558.047 234.17 558.767 234.854 558.857 236.276H554.645ZM563.103 242H565.713V236.438C565.713 235.16 566.523 234.512 567.531 234.512C568.449 234.512 569.007 235.052 569.007 236.258V242H571.599V236.438C571.599 235.16 572.409 234.512 573.417 234.512C574.353 234.512 574.893 235.052 574.893 236.258V242H577.485V235.97C577.485 233.468 576.135 232.37 574.389 232.37C573.201 232.37 571.977 232.874 571.221 234.008C570.771 232.892 569.835 232.37 568.593 232.37C567.189 232.37 566.181 233.144 565.713 234.026V232.586H563.103V242ZM579.715 245.204H582.325V240.56C582.811 241.478 583.873 242.198 585.331 242.198C587.671 242.198 589.435 240.452 589.435 237.338V237.194C589.435 234.08 587.635 232.37 585.331 232.37C583.945 232.37 582.847 233.162 582.325 234.062V232.586H579.715V245.204ZM584.557 240.164C583.135 240.164 582.235 239.246 582.235 237.356V237.212C582.235 235.322 583.171 234.368 584.539 234.368C585.853 234.368 586.789 235.304 586.789 237.212V237.356C586.789 239.192 585.997 240.164 584.557 240.164ZM591.247 242H593.839V228.32H591.247V242ZM598.758 242.198C600.234 242.198 601.062 241.622 601.602 240.866V242H604.14V235.862C604.14 233.306 602.502 232.37 600.198 232.37C597.894 232.37 596.13 233.36 595.968 235.592H598.434C598.542 234.782 599.01 234.26 600.036 234.26C601.224 234.26 601.566 234.872 601.566 235.988V236.366H600.504C597.624 236.366 595.608 237.194 595.608 239.39C595.608 241.37 597.048 242.198 598.758 242.198ZM599.532 240.38C598.578 240.38 598.164 239.93 598.164 239.246C598.164 238.238 599.046 237.914 600.558 237.914H601.566V238.706C601.566 239.75 600.684 240.38 599.532 240.38ZM609.819 242.18C610.521 242.18 611.043 242.054 611.403 241.928V239.912C611.097 240.038 610.809 240.092 610.413 240.092C609.747 240.092 609.369 239.732 609.369 238.976V234.44H611.349V232.586H609.369V230.552H606.777V232.586H605.571V234.44H606.777V239.21C606.777 241.172 607.839 242.18 609.819 242.18ZM617.504 242.198C620.078 242.198 621.698 241.064 622.004 239.03H619.538C619.376 239.822 618.782 240.344 617.576 240.344C616.154 240.344 615.308 239.444 615.236 237.878H622.022V237.158C622.022 233.792 619.862 232.37 617.432 232.37C614.696 232.37 612.59 234.296 612.59 237.266V237.41C612.59 240.416 614.66 242.198 617.504 242.198ZM615.272 236.276C615.47 234.944 616.262 234.17 617.432 234.17C618.674 234.17 619.394 234.854 619.484 236.276H615.272ZM627.238 242.198C629.722 242.198 631.198 241.136 631.198 239.102C631.198 237.086 629.902 236.492 627.544 236.15C626.176 235.952 625.726 235.718 625.726 235.124C625.726 234.548 626.212 234.152 627.058 234.152C627.958 234.152 628.39 234.512 628.534 235.286H630.928C630.694 233.126 629.128 232.37 627.04 232.37C625.114 232.37 623.314 233.342 623.314 235.304C623.314 237.14 624.286 237.86 626.788 238.238C628.138 238.436 628.696 238.706 628.696 239.354C628.696 240.002 628.228 240.38 627.22 240.38C626.086 240.38 625.672 239.894 625.564 239.048H623.134C623.224 241.082 624.7 242.198 627.238 242.198Z" fill="#A5ABC9"/>
<path d="M668.378 242H671.114L671.996 239.138H676.658L677.54 242H680.582L676.406 229.13H672.608L668.378 242ZM674.336 231.506L676.028 237.068H672.626L674.336 231.506ZM682.107 242H684.717V236.564C684.717 235.178 685.563 234.494 686.679 234.494C687.831 234.494 688.335 235.106 688.335 236.384V242H690.945V236.006C690.945 233.486 689.631 232.37 687.777 232.37C686.211 232.37 685.185 233.144 684.717 234.08V232.586H682.107V242ZM695.719 242.198C697.195 242.198 698.023 241.622 698.563 240.866V242H701.101V235.862C701.101 233.306 699.463 232.37 697.159 232.37C694.855 232.37 693.091 233.36 692.929 235.592H695.395C695.503 234.782 695.971 234.26 696.997 234.26C698.185 234.26 698.527 234.872 698.527 235.988V236.366H697.465C694.585 236.366 692.569 237.194 692.569 239.39C692.569 241.37 694.009 242.198 695.719 242.198ZM696.493 240.38C695.539 240.38 695.125 239.93 695.125 239.246C695.125 238.238 696.007 237.914 697.519 237.914H698.527V238.706C698.527 239.75 697.645 240.38 696.493 240.38ZM703.413 242H706.005V228.32H703.413V242ZM709.574 245.204H712.094L717.188 232.586H714.686L712.58 238.238L710.294 232.586H707.486L711.23 241.046L709.574 245.204ZM722.213 242.18C722.915 242.18 723.437 242.054 723.797 241.928V239.912C723.491 240.038 723.203 240.092 722.807 240.092C722.141 240.092 721.763 239.732 721.763 238.976V234.44H723.743V232.586H721.763V230.552H719.171V232.586H717.965V234.44H719.171V239.21C719.171 241.172 720.233 242.18 722.213 242.18ZM725.632 242H728.224V232.586H725.632V242ZM726.91 231.308C727.756 231.308 728.404 230.696 728.404 229.886C728.404 229.076 727.756 228.464 726.91 228.464C726.082 228.464 725.434 229.076 725.434 229.886C725.434 230.696 726.082 231.308 726.91 231.308ZM734.889 242.198C737.625 242.198 739.245 240.65 739.389 238.418H737.031C736.905 239.624 736.059 240.236 735.015 240.236C733.557 240.236 732.711 239.264 732.711 237.374V237.23C732.711 235.43 733.611 234.422 734.961 234.422C736.023 234.422 736.689 234.926 736.869 236.024H739.335C739.101 233.324 737.085 232.37 734.907 232.37C732.225 232.37 730.047 234.224 730.047 237.266V237.41C730.047 240.488 732.135 242.198 734.889 242.198ZM744.537 242.198C747.021 242.198 748.497 241.136 748.497 239.102C748.497 237.086 747.201 236.492 744.843 236.15C743.475 235.952 743.025 235.718 743.025 235.124C743.025 234.548 743.511 234.152 744.357 234.152C745.257 234.152 745.689 234.512 745.833 235.286H748.227C747.993 233.126 746.427 232.37 744.339 232.37C742.413 232.37 740.613 233.342 740.613 235.304C740.613 237.14 741.585 237.86 744.087 238.238C745.437 238.436 745.995 238.706 745.995 239.354C745.995 240.002 745.527 240.38 744.519 240.38C743.385 240.38 742.971 239.894 742.863 239.048H740.433C740.523 241.082 741.999 242.198 744.537 242.198Z" fill="#A5ABC9"/>
<rect x="20" y="270" width="750" height="1" fill="#D2D5E4"/>
<rect x="21" y="201" width="750" height="1" fill="#D2D5E4"/>
<rect x="21" y="293" width="752" height="61" rx="2" fill="#FFF1F3"/>
<circle cx="49" cy="323.5" r="12" fill="#F66F81"/>
<path d="M51.1493 325.839L49.674 328.939C49.6461 328.997 49.6043 329.048 49.5523 329.087C49.5003 329.126 49.4397 329.152 49.3755 329.162C49.3114 329.172 49.2458 329.166 49.1843 329.145C49.1228 329.125 49.0674 329.089 49.0227 329.042L46.6613 326.549C46.5983 326.483 46.5142 326.44 46.4233 326.428L43.0187 325.983C42.9544 325.974 42.8931 325.95 42.8401 325.913C42.7871 325.875 42.744 325.826 42.7145 325.768C42.6851 325.71 42.6701 325.646 42.671 325.581C42.6718 325.516 42.6884 325.452 42.7193 325.395L44.3607 322.379C44.4043 322.299 44.4189 322.205 44.402 322.115L43.7733 318.74C43.7614 318.676 43.7652 318.61 43.7844 318.548C43.8037 318.486 43.8377 318.43 43.8837 318.384C43.9297 318.338 43.9861 318.304 44.0482 318.284C44.1103 318.265 44.1761 318.261 44.24 318.273L47.6153 318.902C47.7055 318.919 47.7987 318.904 47.8793 318.861L50.8953 317.219C50.9524 317.188 51.0162 317.172 51.0811 317.171C51.146 317.17 51.2102 317.185 51.268 317.215C51.3258 317.244 51.3756 317.287 51.413 317.341C51.4504 317.394 51.4743 317.455 51.4827 317.519L51.928 320.923C51.94 321.014 51.9828 321.098 52.0493 321.161L54.542 323.523C54.5891 323.567 54.6246 323.623 54.6455 323.684C54.6664 323.746 54.6719 323.811 54.6618 323.876C54.6516 323.94 54.626 324 54.5871 324.052C54.5482 324.104 54.4973 324.146 54.4387 324.174L51.3387 325.649C51.2557 325.689 51.1888 325.756 51.1493 325.839ZM51.6807 327.123L52.6233 326.181L55.452 329.009L54.5087 329.952L51.6807 327.123Z" fill="white"/>
<path d="M73.168 320H80.728V318.278H76.836L78.726 316.43C79.888 315.31 80.658 314.218 80.658 312.888C80.658 311.082 79.398 309.85 77.186 309.85C74.946 309.85 73.546 311.11 73.434 313.42H75.492C75.646 312.104 76.206 311.586 77.088 311.586C77.956 311.586 78.418 312.118 78.418 312.944C78.418 313.854 77.802 314.736 76.836 315.758L73.168 319.636V320ZM85.6808 320.154C88.1168 320.154 89.5588 318.964 89.5588 317.088C89.5588 315.814 88.7748 314.988 87.6128 314.736C88.6068 314.386 89.2648 313.686 89.2648 312.566C89.2648 310.998 87.9768 309.85 85.7788 309.85C83.4968 309.85 82.1948 311.194 82.0828 313.028H84.0848C84.1968 312.09 84.7848 311.516 85.7368 311.516C86.6608 311.516 87.1228 312.048 87.1228 312.762C87.1228 313.616 86.6468 314.092 85.5968 314.092H84.8688V315.604H85.6528C86.7308 315.604 87.2628 316.094 87.2628 317.046C87.2628 317.942 86.7308 318.488 85.5968 318.488C84.3928 318.488 83.8748 317.788 83.7908 316.822H81.7468C81.8308 318.852 83.1328 320.154 85.6808 320.154ZM94.9315 320.154C97.3115 320.154 98.7815 318.768 98.7815 316.71C98.7815 314.694 97.3675 313.462 95.4775 313.462C94.2735 313.462 93.5175 313.966 93.0555 314.708C93.1115 312.65 93.8815 311.558 95.1275 311.558C95.9955 311.558 96.3315 311.964 96.4715 312.622H98.5715C98.3475 310.788 97.0875 309.85 95.0995 309.85C92.6495 309.85 90.8155 311.74 90.8155 315.128V315.38C90.8155 318.11 91.9075 320.154 94.9315 320.154ZM94.9035 318.516C93.8955 318.516 93.1955 317.816 93.1955 316.668C93.1955 315.674 93.8955 314.96 94.9035 314.96C95.9255 314.96 96.5555 315.688 96.5555 316.738C96.5555 317.788 95.8975 318.516 94.9035 318.516ZM103.345 320H105.375V315.772C105.375 314.694 106.033 314.162 106.901 314.162C107.797 314.162 108.189 314.638 108.189 315.632V320H110.219V315.338C110.219 313.378 109.197 312.51 107.755 312.51C106.537 312.51 105.739 313.112 105.375 313.84V312.678H103.345V320ZM115.333 320.154C117.335 320.154 118.595 319.272 118.833 317.69H116.915C116.789 318.306 116.327 318.712 115.389 318.712C114.283 318.712 113.625 318.012 113.569 316.794H118.847V316.234C118.847 313.616 117.167 312.51 115.277 312.51C113.149 312.51 111.511 314.008 111.511 316.318V316.43C111.511 318.768 113.12 320.154 115.333 320.154ZM113.597 315.548C113.751 314.512 114.367 313.91 115.277 313.91C116.243 313.91 116.803 314.442 116.873 315.548H113.597ZM121.593 320H123.609L124.953 315.408L126.199 320H128.187L130.497 312.678H128.551L127.165 317.606L125.877 312.678H124.211L122.797 317.606L121.495 312.678H119.367L121.593 320ZM138.027 320.154C140.155 320.154 141.415 318.95 141.526 317.214H139.693C139.595 318.152 138.937 318.628 138.125 318.628C136.991 318.628 136.333 317.872 136.333 316.402V316.29C136.333 314.89 137.033 314.106 138.083 314.106C138.909 314.106 139.427 314.498 139.567 315.352H141.485C141.303 313.252 139.735 312.51 138.041 312.51C135.955 312.51 134.261 313.952 134.261 316.318V316.43C134.261 318.824 135.885 320.154 138.027 320.154ZM144.776 320.154C145.924 320.154 146.568 319.706 146.988 319.118V320H148.962V315.226C148.962 313.238 147.688 312.51 145.896 312.51C144.104 312.51 142.732 313.28 142.606 315.016H144.524C144.608 314.386 144.972 313.98 145.77 313.98C146.694 313.98 146.96 314.456 146.96 315.324V315.618H146.134C143.894 315.618 142.326 316.262 142.326 317.97C142.326 319.51 143.446 320.154 144.776 320.154ZM145.378 318.74C144.636 318.74 144.314 318.39 144.314 317.858C144.314 317.074 145 316.822 146.176 316.822H146.96V317.438C146.96 318.25 146.274 318.74 145.378 318.74ZM150.705 320H152.735V315.772C152.735 314.694 153.393 314.162 154.261 314.162C155.157 314.162 155.549 314.638 155.549 315.632V320H157.579V315.338C157.579 313.378 156.557 312.51 155.115 312.51C153.897 312.51 153.099 313.112 152.735 313.84V312.678H150.705V320ZM162.062 320.154C163.14 320.154 164.036 319.524 164.414 318.782V320H166.43V309.36H164.414V313.77C164.008 313.028 163.28 312.51 162.104 312.51C160.27 312.51 158.884 313.924 158.884 316.332V316.444C158.884 318.88 160.284 320.154 162.062 320.154ZM162.664 318.572C161.656 318.572 160.956 317.858 160.956 316.402V316.29C160.956 314.834 161.586 314.064 162.72 314.064C163.826 314.064 164.47 314.806 164.47 316.262V316.374C164.47 317.858 163.728 318.572 162.664 318.572ZM168.288 320H170.304V312.678H168.288V320ZM169.282 311.684C169.94 311.684 170.444 311.208 170.444 310.578C170.444 309.948 169.94 309.472 169.282 309.472C168.638 309.472 168.134 309.948 168.134 310.578C168.134 311.208 168.638 311.684 169.282 311.684ZM174.913 320.154C175.991 320.154 176.887 319.524 177.265 318.782V320H179.281V309.36H177.265V313.77C176.859 313.028 176.131 312.51 174.955 312.51C173.121 312.51 171.735 313.924 171.735 316.332V316.444C171.735 318.88 173.135 320.154 174.913 320.154ZM175.515 318.572C174.507 318.572 173.807 317.858 173.807 316.402V316.29C173.807 314.834 174.437 314.064 175.571 314.064C176.677 314.064 177.321 314.806 177.321 316.262V316.374C177.321 317.858 176.579 318.572 175.515 318.572ZM183.058 320.154C184.206 320.154 184.85 319.706 185.27 319.118V320H187.244V315.226C187.244 313.238 185.97 312.51 184.178 312.51C182.386 312.51 181.014 313.28 180.888 315.016H182.806C182.89 314.386 183.254 313.98 184.052 313.98C184.976 313.98 185.242 314.456 185.242 315.324V315.618H184.416C182.176 315.618 180.608 316.262 180.608 317.97C180.608 319.51 181.728 320.154 183.058 320.154ZM183.66 318.74C182.918 318.74 182.596 318.39 182.596 317.858C182.596 317.074 183.282 316.822 184.458 316.822H185.242V317.438C185.242 318.25 184.556 318.74 183.66 318.74ZM191.66 320.14C192.206 320.14 192.612 320.042 192.892 319.944V318.376C192.654 318.474 192.43 318.516 192.122 318.516C191.604 318.516 191.31 318.236 191.31 317.648V314.12H192.85V312.678H191.31V311.096H189.294V312.678H188.356V314.12H189.294V317.83C189.294 319.356 190.12 320.14 191.66 320.14ZM197.637 320.154C199.639 320.154 200.899 319.272 201.137 317.69H199.219C199.093 318.306 198.631 318.712 197.693 318.712C196.587 318.712 195.929 318.012 195.873 316.794H201.151V316.234C201.151 313.616 199.471 312.51 197.581 312.51C195.453 312.51 193.815 314.008 193.815 316.318V316.43C193.815 318.768 195.425 320.154 197.637 320.154ZM195.901 315.548C196.055 314.512 196.671 313.91 197.581 313.91C198.547 313.91 199.107 314.442 199.177 315.548H195.901ZM205.208 320.154C207.14 320.154 208.288 319.328 208.288 317.746C208.288 316.178 207.28 315.716 205.446 315.45C204.382 315.296 204.032 315.114 204.032 314.652C204.032 314.204 204.41 313.896 205.068 313.896C205.768 313.896 206.104 314.176 206.216 314.778H208.078C207.896 313.098 206.678 312.51 205.054 312.51C203.556 312.51 202.156 313.266 202.156 314.792C202.156 316.22 202.912 316.78 204.858 317.074C205.908 317.228 206.342 317.438 206.342 317.942C206.342 318.446 205.978 318.74 205.194 318.74C204.312 318.74 203.99 318.362 203.906 317.704H202.016C202.086 319.286 203.234 320.154 205.208 320.154ZM212.735 320H214.751V312.678H212.735V320ZM213.729 311.684C214.387 311.684 214.891 311.208 214.891 310.578C214.891 309.948 214.387 309.472 213.729 309.472C213.085 309.472 212.581 309.948 212.581 310.578C212.581 311.208 213.085 311.684 213.729 311.684ZM216.617 320H218.647V315.772C218.647 314.694 219.305 314.162 220.173 314.162C221.069 314.162 221.461 314.638 221.461 315.632V320H223.491V315.338C223.491 313.378 222.469 312.51 221.027 312.51C219.809 312.51 219.011 313.112 218.647 313.84V312.678H216.617V320ZM231.75 318.614C230.602 318.614 229.958 317.774 229.958 316.374V316.262C229.958 314.862 230.63 314.05 231.75 314.05C232.884 314.05 233.542 314.89 233.542 316.29V316.388C233.542 317.774 232.884 318.614 231.75 318.614ZM231.736 320.154C233.934 320.154 235.6 318.684 235.6 316.374V316.262C235.6 313.98 233.948 312.51 231.75 312.51C229.552 312.51 227.886 314.008 227.886 316.304V316.416C227.886 318.698 229.552 320.154 231.736 320.154ZM239.396 320.154C240.6 320.154 241.342 319.594 241.72 318.852V320H243.736V312.678H241.72V316.976C241.72 318.054 241.048 318.586 240.194 318.586C239.326 318.586 238.92 318.11 238.92 317.116V312.678H236.904V317.396C236.904 319.314 237.968 320.154 239.396 320.154ZM245.533 320H247.563V316.332C247.563 314.932 248.431 314.442 249.929 314.456V312.566C248.739 312.58 248.025 313.098 247.563 314.078V312.678H245.533V320ZM257.039 320.14C257.585 320.14 257.991 320.042 258.271 319.944V318.376C258.033 318.474 257.809 318.516 257.501 318.516C256.983 318.516 256.689 318.236 256.689 317.648V314.12H258.229V312.678H256.689V311.096H254.673V312.678H253.735V314.12H254.673V317.83C254.673 319.356 255.499 320.14 257.039 320.14ZM261.684 320.154C262.832 320.154 263.476 319.706 263.896 319.118V320H265.87V315.226C265.87 313.238 264.596 312.51 262.804 312.51C261.012 312.51 259.64 313.28 259.514 315.016H261.432C261.516 314.386 261.88 313.98 262.678 313.98C263.602 313.98 263.868 314.456 263.868 315.324V315.618H263.042C260.802 315.618 259.234 316.262 259.234 317.97C259.234 319.51 260.354 320.154 261.684 320.154ZM262.286 318.74C261.544 318.74 261.222 318.39 261.222 317.858C261.222 317.074 261.908 316.822 263.084 316.822H263.868V317.438C263.868 318.25 263.182 318.74 262.286 318.74ZM267.669 320H269.685V309.36H267.669V320ZM274.911 320.154C276.913 320.154 278.173 319.272 278.411 317.69H276.493C276.367 318.306 275.905 318.712 274.967 318.712C273.861 318.712 273.203 318.012 273.147 316.794H278.425V316.234C278.425 313.616 276.745 312.51 274.855 312.51C272.727 312.51 271.089 314.008 271.089 316.318V316.43C271.089 318.768 272.699 320.154 274.911 320.154ZM273.175 315.548C273.329 314.512 273.945 313.91 274.855 313.91C275.821 313.91 276.381 314.442 276.451 315.548H273.175ZM279.753 320H281.783V315.772C281.783 314.694 282.441 314.162 283.309 314.162C284.205 314.162 284.597 314.638 284.597 315.632V320H286.627V315.338C286.627 313.378 285.605 312.51 284.163 312.51C282.945 312.51 282.147 313.112 281.783 313.84V312.678H279.753V320ZM291.041 320.14C291.587 320.14 291.993 320.042 292.273 319.944V318.376C292.035 318.474 291.811 318.516 291.503 318.516C290.985 318.516 290.691 318.236 290.691 317.648V314.12H292.231V312.678H290.691V311.096H288.675V312.678H287.737V314.12H288.675V317.83C288.675 319.356 289.501 320.14 291.041 320.14ZM296.748 322.492H298.778V318.88C299.156 319.594 299.982 320.154 301.116 320.154C302.936 320.154 304.308 318.796 304.308 316.374V316.262C304.308 313.84 302.908 312.51 301.116 312.51C300.038 312.51 299.184 313.126 298.778 313.826V312.678H296.748V322.492ZM300.514 318.572C299.408 318.572 298.708 317.858 298.708 316.388V316.276C298.708 314.806 299.436 314.064 300.5 314.064C301.522 314.064 302.25 314.792 302.25 316.276V316.388C302.25 317.816 301.634 318.572 300.514 318.572ZM309.078 318.614C307.93 318.614 307.286 317.774 307.286 316.374V316.262C307.286 314.862 307.958 314.05 309.078 314.05C310.212 314.05 310.87 314.89 310.87 316.29V316.388C310.87 317.774 310.212 318.614 309.078 318.614ZM309.064 320.154C311.262 320.154 312.928 318.684 312.928 316.374V316.262C312.928 313.98 311.276 312.51 309.078 312.51C306.88 312.51 305.214 314.008 305.214 316.304V316.416C305.214 318.698 306.88 320.154 309.064 320.154ZM317.705 318.614C316.557 318.614 315.913 317.774 315.913 316.374V316.262C315.913 314.862 316.585 314.05 317.705 314.05C318.839 314.05 319.497 314.89 319.497 316.29V316.388C319.497 317.774 318.839 318.614 317.705 318.614ZM317.691 320.154C319.889 320.154 321.555 318.684 321.555 316.374V316.262C321.555 313.98 319.903 312.51 317.705 312.51C315.507 312.51 313.841 314.008 313.841 316.304V316.416C313.841 318.698 315.507 320.154 317.691 320.154ZM322.972 320H324.988V309.36H322.972V320ZM332.617 320.14C333.163 320.14 333.569 320.042 333.849 319.944V318.376C333.611 318.474 333.387 318.516 333.079 318.516C332.561 318.516 332.267 318.236 332.267 317.648V314.12H333.807V312.678H332.267V311.096H330.251V312.678H329.313V314.12H330.251V317.83C330.251 319.356 331.077 320.14 332.617 320.14ZM335.22 320H337.25V315.772C337.25 314.694 337.908 314.162 338.776 314.162C339.672 314.162 340.064 314.638 340.064 315.632V320H342.094V315.338C342.094 313.378 341.072 312.51 339.63 312.51C338.412 312.51 337.614 313.112 337.25 313.84V309.36H335.22V320ZM343.89 320H345.906V312.678H343.89V320ZM344.884 311.684C345.542 311.684 346.046 311.208 346.046 310.578C346.046 309.948 345.542 309.472 344.884 309.472C344.24 309.472 343.736 309.948 343.736 310.578C343.736 311.208 344.24 311.684 344.884 311.684ZM350.431 320.154C352.363 320.154 353.511 319.328 353.511 317.746C353.511 316.178 352.503 315.716 350.669 315.45C349.605 315.296 349.255 315.114 349.255 314.652C349.255 314.204 349.633 313.896 350.291 313.896C350.991 313.896 351.327 314.176 351.439 314.778H353.301C353.119 313.098 351.901 312.51 350.277 312.51C348.779 312.51 347.379 313.266 347.379 314.792C347.379 316.22 348.135 316.78 350.081 317.074C351.131 317.228 351.565 317.438 351.565 317.942C351.565 318.446 351.201 318.74 350.417 318.74C349.535 318.74 349.213 318.362 349.129 317.704H347.239C347.309 319.286 348.457 320.154 350.431 320.154ZM359.456 320H361.472L362.816 315.408L364.062 320H366.05L368.36 312.678H366.414L365.028 317.606L363.74 312.678H362.074L360.66 317.606L359.358 312.678H357.23L359.456 320ZM372.569 320.154C374.571 320.154 375.831 319.272 376.069 317.69H374.151C374.025 318.306 373.563 318.712 372.625 318.712C371.519 318.712 370.861 318.012 370.805 316.794H376.083V316.234C376.083 313.616 374.403 312.51 372.513 312.51C370.385 312.51 368.747 314.008 368.747 316.318V316.43C368.747 318.768 370.357 320.154 372.569 320.154ZM370.833 315.548C370.987 314.512 371.603 313.91 372.513 313.91C373.479 313.91 374.039 314.442 374.109 315.548H370.833ZM380.786 320.154C382.788 320.154 384.048 319.272 384.286 317.69H382.368C382.242 318.306 381.78 318.712 380.842 318.712C379.736 318.712 379.078 318.012 379.022 316.794H384.3V316.234C384.3 313.616 382.62 312.51 380.73 312.51C378.602 312.51 376.964 314.008 376.964 316.318V316.43C376.964 318.768 378.574 320.154 380.786 320.154ZM379.05 315.548C379.204 314.512 379.82 313.91 380.73 313.91C381.696 313.91 382.256 314.442 382.326 315.548H379.05ZM385.628 320H387.658V316.542L390.08 320H392.376L389.506 316.01L392.166 312.678H390.01L387.658 315.772V309.36H385.628V320Z" fill="#F66F81"/>
<path d="M75.844 339H76.888V331.272H79.384V330.42H73.348V331.272H75.844V339ZM80.7346 339H81.7306V335.196C81.7306 334.068 82.5586 333.48 83.4826 333.48C84.4906 333.48 84.9586 333.972 84.9586 335.076V339H85.9546V335.148C85.9546 333.324 85.0426 332.616 83.7466 332.616C82.7146 332.616 82.0186 333.132 81.7306 333.72V329.724H80.7346V339ZM90.4744 339.108C91.8904 339.108 92.9344 338.448 93.1504 337.188H92.1544C92.0224 337.92 91.4584 338.28 90.4864 338.28C89.2024 338.28 88.5184 337.488 88.4704 336.06H93.1984V335.736C93.1984 333.492 91.8304 332.616 90.3784 332.616C88.6504 332.616 87.4384 333.936 87.4384 335.832V335.928C87.4384 337.86 88.6984 339.108 90.4744 339.108ZM88.5064 335.256C88.6744 334.14 89.3584 333.444 90.3784 333.444C91.4104 333.444 92.0824 333.96 92.1784 335.256H88.5064ZM96.7293 339.108C98.2533 339.108 99.0333 338.34 99.0333 337.2C99.0333 335.868 98.1213 335.58 96.8253 335.34C95.6733 335.136 95.3613 334.908 95.3613 334.344C95.3613 333.804 95.8293 333.444 96.5493 333.444C97.3413 333.444 97.7253 333.744 97.8693 334.428H98.8293C98.6613 333.072 97.6893 332.616 96.5613 332.616C95.5773 332.616 94.4373 333.216 94.4373 334.38C94.4373 335.472 94.9893 335.928 96.6213 336.228C97.5933 336.408 98.0853 336.624 98.0853 337.284C98.0853 337.956 97.6653 338.28 96.7173 338.28C95.7093 338.28 95.3133 337.812 95.2413 337.068H94.2693C94.3293 338.352 95.2293 339.108 96.7293 339.108ZM103.119 339.108C104.535 339.108 105.579 338.448 105.795 337.188H104.799C104.667 337.92 104.103 338.28 103.131 338.28C101.847 338.28 101.163 337.488 101.115 336.06H105.843V335.736C105.843 333.492 104.475 332.616 103.023 332.616C101.295 332.616 100.083 333.936 100.083 335.832V335.928C100.083 337.86 101.343 339.108 103.119 339.108ZM101.151 335.256C101.319 334.14 102.003 333.444 103.023 333.444C104.055 333.444 104.727 333.96 104.823 335.256H101.151ZM110.547 341.184H111.543V337.968C111.903 338.592 112.635 339.108 113.667 339.108C115.395 339.108 116.523 337.788 116.523 335.868V335.772C116.523 333.816 115.311 332.616 113.667 332.616C112.755 332.616 111.903 333.168 111.543 333.78V332.724H110.547V341.184ZM113.571 338.28C112.347 338.28 111.507 337.524 111.507 335.916V335.82C111.507 334.212 112.395 333.444 113.559 333.444C114.615 333.444 115.491 334.236 115.491 335.82V335.916C115.491 337.44 114.819 338.28 113.571 338.28ZM120.639 339.108C122.055 339.108 123.099 338.448 123.315 337.188H122.319C122.187 337.92 121.623 338.28 120.651 338.28C119.367 338.28 118.683 337.488 118.635 336.06H123.363V335.736C123.363 333.492 121.995 332.616 120.543 332.616C118.815 332.616 117.603 333.936 117.603 335.832V335.928C117.603 337.86 118.863 339.108 120.639 339.108ZM118.671 335.256C118.839 334.14 119.523 333.444 120.543 333.444C121.575 333.444 122.247 333.96 122.343 335.256H118.671ZM127.507 338.28C126.235 338.28 125.455 337.344 125.455 335.916V335.82C125.455 334.38 126.247 333.444 127.507 333.444C128.755 333.444 129.559 334.38 129.559 335.832V335.916C129.559 337.332 128.767 338.28 127.507 338.28ZM127.495 339.108C129.283 339.108 130.591 337.8 130.591 335.904V335.808C130.591 333.924 129.283 332.616 127.507 332.616C125.731 332.616 124.423 333.936 124.423 335.82V335.916C124.423 337.752 125.707 339.108 127.495 339.108ZM132.133 341.184H133.129V337.968C133.489 338.592 134.221 339.108 135.253 339.108C136.981 339.108 138.109 337.788 138.109 335.868V335.772C138.109 333.816 136.897 332.616 135.253 332.616C134.341 332.616 133.489 333.168 133.129 333.78V332.724H132.133V341.184ZM135.157 338.28C133.933 338.28 133.093 337.524 133.093 335.916V335.82C133.093 334.212 133.981 333.444 135.145 333.444C136.201 333.444 137.077 334.236 137.077 335.82V335.916C137.077 337.44 136.405 338.28 135.157 338.28ZM139.68 339H140.688V329.724H139.68V339ZM145.295 339.108C146.711 339.108 147.755 338.448 147.971 337.188H146.975C146.843 337.92 146.279 338.28 145.307 338.28C144.023 338.28 143.339 337.488 143.291 336.06H148.019V335.736C148.019 333.492 146.651 332.616 145.199 332.616C143.471 332.616 142.259 333.936 142.259 335.832V335.928C142.259 337.86 143.519 339.108 145.295 339.108ZM143.327 335.256C143.495 334.14 144.179 333.444 145.199 333.444C146.231 333.444 146.903 333.96 146.999 335.256H143.327ZM154.295 339.108C155.219 339.108 155.783 338.796 156.251 338.208V339H157.247V334.86C157.247 333.108 156.155 332.616 154.955 332.616C153.743 332.616 152.603 333.144 152.471 334.572H153.467C153.563 333.804 154.043 333.444 154.907 333.444C155.867 333.444 156.251 333.864 156.251 334.86V335.316H155.351C153.743 335.316 152.207 335.808 152.207 337.26C152.207 338.544 153.131 339.108 154.295 339.108ZM154.391 338.316C153.515 338.316 153.203 337.908 153.203 337.26C153.203 336.336 154.127 336.024 155.387 336.024H156.251V336.804C156.251 337.776 155.447 338.316 154.391 338.316ZM159.203 339H160.199V335.556C160.199 334.008 161.003 333.612 162.263 333.552V332.616C161.135 332.652 160.595 333.144 160.199 333.852V332.724H159.203V339ZM166.107 339.108C167.523 339.108 168.567 338.448 168.783 337.188H167.787C167.655 337.92 167.091 338.28 166.119 338.28C164.835 338.28 164.151 337.488 164.103 336.06H168.831V335.736C168.831 333.492 167.463 332.616 166.011 332.616C164.283 332.616 163.071 333.936 163.071 335.832V335.928C163.071 337.86 164.331 339.108 166.107 339.108ZM164.139 335.256C164.307 334.14 164.991 333.444 166.011 333.444C167.043 333.444 167.715 333.96 167.811 335.256H164.139ZM175.107 339.108C176.031 339.108 176.595 338.796 177.063 338.208V339H178.059V334.86C178.059 333.108 176.967 332.616 175.767 332.616C174.555 332.616 173.415 333.144 173.283 334.572H174.279C174.375 333.804 174.855 333.444 175.719 333.444C176.679 333.444 177.063 333.864 177.063 334.86V335.316H176.163C174.555 335.316 173.019 335.808 173.019 337.26C173.019 338.544 173.943 339.108 175.107 339.108ZM175.203 338.316C174.327 338.316 174.015 337.908 174.015 337.26C174.015 336.336 174.939 336.024 176.199 336.024H177.063V336.804C177.063 337.776 176.259 338.316 175.203 338.316ZM180.04 339H181.048V329.724H180.04V339ZM183.11 339H184.118V329.724H183.11V339ZM191.948 338.28C190.676 338.28 189.896 337.344 189.896 335.916V335.82C189.896 334.38 190.688 333.444 191.948 333.444C193.196 333.444 194 334.38 194 335.832V335.916C194 337.332 193.208 338.28 191.948 338.28ZM191.936 339.108C193.724 339.108 195.032 337.8 195.032 335.904V335.808C195.032 333.924 193.724 332.616 191.948 332.616C190.172 332.616 188.864 333.936 188.864 335.82V335.916C188.864 337.752 190.148 339.108 191.936 339.108ZM196.574 341.184H197.57V337.968C197.93 338.592 198.662 339.108 199.694 339.108C201.422 339.108 202.55 337.788 202.55 335.868V335.772C202.55 333.816 201.338 332.616 199.694 332.616C198.782 332.616 197.93 333.168 197.57 333.78V332.724H196.574V341.184ZM199.598 338.28C198.374 338.28 197.534 337.524 197.534 335.916V335.82C197.534 334.212 198.422 333.444 199.586 333.444C200.642 333.444 201.518 334.236 201.518 335.82V335.916C201.518 337.44 200.846 338.28 199.598 338.28ZM206.666 339.108C208.082 339.108 209.126 338.448 209.342 337.188H208.346C208.214 337.92 207.65 338.28 206.678 338.28C205.394 338.28 204.71 337.488 204.662 336.06H209.39V335.736C209.39 333.492 208.022 332.616 206.57 332.616C204.842 332.616 203.63 333.936 203.63 335.832V335.928C203.63 337.86 204.89 339.108 206.666 339.108ZM204.698 335.256C204.866 334.14 205.55 333.444 206.57 333.444C207.602 333.444 208.274 333.96 208.37 335.256H204.698ZM210.918 339H211.914V335.196C211.914 334.068 212.742 333.48 213.666 333.48C214.674 333.48 215.142 333.972 215.142 335.076V339H216.138V335.148C216.138 333.324 215.226 332.616 213.93 332.616C212.898 332.616 212.202 333.132 211.914 333.72V332.724H210.918V339ZM223.174 339.084C223.582 339.084 223.822 339.024 224.026 338.952V338.112C223.81 338.196 223.57 338.244 223.258 338.244C222.754 338.244 222.478 337.944 222.478 337.332V333.564H223.942V332.724H222.478V331.296H221.482V332.724H220.582V333.564H221.482V337.428C221.482 338.412 222.034 339.084 223.174 339.084ZM228.147 338.28C226.875 338.28 226.095 337.344 226.095 335.916V335.82C226.095 334.38 226.887 333.444 228.147 333.444C229.395 333.444 230.199 334.38 230.199 335.832V335.916C230.199 337.332 229.407 338.28 228.147 338.28ZM228.135 339.108C229.923 339.108 231.231 337.8 231.231 335.904V335.808C231.231 333.924 229.923 332.616 228.147 332.616C226.371 332.616 225.063 333.936 225.063 335.82V335.916C225.063 337.752 226.347 339.108 228.135 339.108ZM235.949 339H236.945V335.196C236.945 334.068 237.773 333.48 238.697 333.48C239.705 333.48 240.173 333.972 240.173 335.076V339H241.169V335.148C241.169 333.324 240.257 332.616 238.961 332.616C237.929 332.616 237.233 333.132 236.945 333.72V332.724H235.949V339ZM245.689 339.108C247.105 339.108 248.149 338.448 248.365 337.188H247.369C247.237 337.92 246.673 338.28 245.701 338.28C244.417 338.28 243.733 337.488 243.685 336.06H248.413V335.736C248.413 333.492 247.045 332.616 245.593 332.616C243.865 332.616 242.653 333.936 242.653 335.832V335.928C242.653 337.86 243.913 339.108 245.689 339.108ZM243.721 335.256C243.889 334.14 244.573 333.444 245.593 333.444C246.625 333.444 247.297 333.96 247.393 335.256H243.721ZM251.143 339H252.235L253.699 334.296L255.007 339H256.111L258.067 332.724H257.047L255.571 337.776L254.143 332.724H253.279L251.755 337.776L250.291 332.724H249.211L251.143 339ZM265.202 338.28C263.93 338.28 263.15 337.344 263.15 335.916V335.82C263.15 334.38 263.942 333.444 265.202 333.444C266.45 333.444 267.254 334.38 267.254 335.832V335.916C267.254 337.332 266.462 338.28 265.202 338.28ZM265.19 339.108C266.978 339.108 268.286 337.8 268.286 335.904V335.808C268.286 333.924 266.978 332.616 265.202 332.616C263.426 332.616 262.118 333.936 262.118 335.82V335.916C262.118 337.752 263.402 339.108 265.19 339.108ZM269.828 341.184H270.824V337.968C271.184 338.592 271.916 339.108 272.948 339.108C274.676 339.108 275.804 337.788 275.804 335.868V335.772C275.804 333.816 274.592 332.616 272.948 332.616C272.036 332.616 271.184 333.168 270.824 333.78V332.724H269.828V341.184ZM272.852 338.28C271.628 338.28 270.788 337.524 270.788 335.916V335.82C270.788 334.212 271.676 333.444 272.84 333.444C273.896 333.444 274.772 334.236 274.772 335.82V335.916C274.772 337.44 274.1 338.28 272.852 338.28ZM277.352 341.184H278.348V337.968C278.708 338.592 279.44 339.108 280.472 339.108C282.2 339.108 283.328 337.788 283.328 335.868V335.772C283.328 333.816 282.116 332.616 280.472 332.616C279.56 332.616 278.708 333.168 278.348 333.78V332.724H277.352V341.184ZM280.376 338.28C279.152 338.28 278.312 337.524 278.312 335.916V335.82C278.312 334.212 279.2 333.444 280.364 333.444C281.42 333.444 282.296 334.236 282.296 335.82V335.916C282.296 337.44 281.624 338.28 280.376 338.28ZM287.491 338.28C286.219 338.28 285.439 337.344 285.439 335.916V335.82C285.439 334.38 286.231 333.444 287.491 333.444C288.739 333.444 289.543 334.38 289.543 335.832V335.916C289.543 337.332 288.751 338.28 287.491 338.28ZM287.479 339.108C289.267 339.108 290.575 337.8 290.575 335.904V335.808C290.575 333.924 289.267 332.616 287.491 332.616C285.715 332.616 284.407 333.936 284.407 335.82V335.916C284.407 337.752 285.691 339.108 287.479 339.108ZM292.117 339H293.113V335.556C293.113 334.008 293.917 333.612 295.177 333.552V332.616C294.049 332.652 293.509 333.144 293.113 333.852V332.724H292.117V339ZM298.596 339.084C299.004 339.084 299.244 339.024 299.448 338.952V338.112C299.232 338.196 298.992 338.244 298.68 338.244C298.176 338.244 297.9 337.944 297.9 337.332V333.564H299.364V332.724H297.9V331.296H296.904V332.724H296.004V333.564H296.904V337.428C296.904 338.412 297.456 339.084 298.596 339.084ZM303.077 339.108C304.085 339.108 304.781 338.592 305.069 338.004V339H306.065V332.724H305.069V336.528C305.069 337.656 304.229 338.244 303.341 338.244C302.357 338.244 301.889 337.752 301.889 336.648V332.724H300.893V336.696C300.893 338.424 301.829 339.108 303.077 339.108ZM308.078 339H309.074V335.196C309.074 334.068 309.902 333.48 310.826 333.48C311.834 333.48 312.302 333.972 312.302 335.076V339H313.298V335.148C313.298 333.324 312.386 332.616 311.09 332.616C310.058 332.616 309.362 333.132 309.074 333.72V332.724H308.078V339ZM315.274 339H316.27V332.724H315.274V339ZM315.754 331.416C316.114 331.416 316.414 331.116 316.414 330.756C316.414 330.396 316.114 330.096 315.754 330.096C315.394 330.096 315.094 330.396 315.094 330.756C315.094 331.116 315.394 331.416 315.754 331.416ZM320.217 339.084C320.625 339.084 320.865 339.024 321.069 338.952V338.112C320.853 338.196 320.613 338.244 320.301 338.244C319.797 338.244 319.521 337.944 319.521 337.332V333.564H320.985V332.724H319.521V331.296H318.525V332.724H317.625V333.564H318.525V337.428C318.525 338.412 319.077 339.084 320.217 339.084ZM322.598 339H323.594V332.724H322.598V339ZM323.078 331.416C323.438 331.416 323.738 331.116 323.738 330.756C323.738 330.396 323.438 330.096 323.078 330.096C322.718 330.096 322.418 330.396 322.418 330.756C322.418 331.116 322.718 331.416 323.078 331.416ZM328.201 339.108C329.617 339.108 330.661 338.448 330.877 337.188H329.881C329.749 337.92 329.185 338.28 328.213 338.28C326.929 338.28 326.245 337.488 326.197 336.06H330.925V335.736C330.925 333.492 329.557 332.616 328.105 332.616C326.377 332.616 325.165 333.936 325.165 335.832V335.928C325.165 337.86 326.425 339.108 328.201 339.108ZM326.233 335.256C326.401 334.14 327.085 333.444 328.105 333.444C329.137 333.444 329.809 333.96 329.905 335.256H326.233ZM334.456 339.108C335.98 339.108 336.76 338.34 336.76 337.2C336.76 335.868 335.848 335.58 334.552 335.34C333.4 335.136 333.088 334.908 333.088 334.344C333.088 333.804 333.556 333.444 334.276 333.444C335.068 333.444 335.452 333.744 335.596 334.428H336.556C336.388 333.072 335.416 332.616 334.288 332.616C333.304 332.616 332.164 333.216 332.164 334.38C332.164 335.472 332.716 335.928 334.348 336.228C335.32 336.408 335.812 336.624 335.812 337.284C335.812 337.956 335.392 338.28 334.444 338.28C333.436 338.28 333.04 337.812 332.968 337.068H331.996C332.056 338.352 332.956 339.108 334.456 339.108ZM338.35 340.476L339.826 337.968L338.854 337.512L337.702 340.14L338.35 340.476ZM347.408 339.108C348.824 339.108 349.868 338.448 350.084 337.188H349.088C348.956 337.92 348.392 338.28 347.42 338.28C346.136 338.28 345.452 337.488 345.404 336.06H350.132V335.736C350.132 333.492 348.764 332.616 347.312 332.616C345.584 332.616 344.372 333.936 344.372 335.832V335.928C344.372 337.86 345.632 339.108 347.408 339.108ZM345.44 335.256C345.608 334.14 346.292 333.444 347.312 333.444C348.344 333.444 349.016 333.96 349.112 335.256H345.44ZM351.66 339H352.656V335.196C352.656 334.068 353.484 333.48 354.408 333.48C355.416 333.48 355.884 333.972 355.884 335.076V339H356.88V335.148C356.88 333.324 355.968 332.616 354.672 332.616C353.64 332.616 352.944 333.132 352.656 333.72V332.724H351.66V339ZM361.34 341.292C363.092 341.292 364.328 340.404 364.34 338.58V332.724H363.344V333.732C362.984 333.12 362.336 332.616 361.292 332.616C359.564 332.616 358.364 334.032 358.364 335.736V335.82C358.364 337.548 359.576 338.796 361.22 338.796C362.132 338.796 362.984 338.22 363.344 337.608V338.52C363.344 339.864 362.564 340.452 361.328 340.452C360.26 340.452 359.66 340.08 359.516 339.36H358.496C358.664 340.416 359.48 341.292 361.34 341.292ZM361.328 337.968C360.272 337.968 359.396 337.152 359.396 335.784V335.688C359.396 334.368 360.14 333.444 361.388 333.444C362.612 333.444 363.38 334.26 363.38 335.664V335.748C363.38 337.152 362.492 337.968 361.328 337.968ZM367.928 339.108C368.852 339.108 369.416 338.796 369.884 338.208V339H370.88V334.86C370.88 333.108 369.788 332.616 368.588 332.616C367.376 332.616 366.236 333.144 366.104 334.572H367.1C367.196 333.804 367.676 333.444 368.54 333.444C369.5 333.444 369.884 333.864 369.884 334.86V335.316H368.984C367.376 335.316 365.84 335.808 365.84 337.26C365.84 338.544 366.764 339.108 367.928 339.108ZM368.024 338.316C367.148 338.316 366.836 337.908 366.836 337.26C366.836 336.336 367.76 336.024 369.02 336.024H369.884V336.804C369.884 337.776 369.08 338.316 368.024 338.316ZM375.344 341.292C377.096 341.292 378.332 340.404 378.344 338.58V332.724H377.348V333.732C376.988 333.12 376.34 332.616 375.296 332.616C373.568 332.616 372.368 334.032 372.368 335.736V335.82C372.368 337.548 373.58 338.796 375.224 338.796C376.136 338.796 376.988 338.22 377.348 337.608V338.52C377.348 339.864 376.568 340.452 375.332 340.452C374.264 340.452 373.664 340.08 373.52 339.36H372.5C372.668 340.416 373.484 341.292 375.344 341.292ZM375.332 337.968C374.276 337.968 373.4 337.152 373.4 335.784V335.688C373.4 334.368 374.144 333.444 375.392 333.444C376.616 333.444 377.384 334.26 377.384 335.664V335.748C377.384 337.152 376.496 337.968 375.332 337.968ZM382.928 339.108C384.344 339.108 385.388 338.448 385.604 337.188H384.608C384.476 337.92 383.912 338.28 382.94 338.28C381.656 338.28 380.972 337.488 380.924 336.06H385.652V335.736C385.652 333.492 384.284 332.616 382.832 332.616C381.104 332.616 379.892 333.936 379.892 335.832V335.928C379.892 337.86 381.152 339.108 382.928 339.108ZM380.96 335.256C381.128 334.14 381.812 333.444 382.832 333.444C383.864 333.444 384.536 333.96 384.632 335.256H380.96ZM391.616 339H392.708L394.172 334.296L395.48 339H396.584L398.54 332.724H397.52L396.044 337.776L394.616 332.724H393.752L392.228 337.776L390.764 332.724H389.684L391.616 339ZM399.907 339H400.903V332.724H399.907V339ZM400.387 331.416C400.747 331.416 401.047 331.116 401.047 330.756C401.047 330.396 400.747 330.096 400.387 330.096C400.027 330.096 399.727 330.396 399.727 330.756C399.727 331.116 400.027 331.416 400.387 331.416ZM404.85 339.084C405.258 339.084 405.498 339.024 405.702 338.952V338.112C405.486 338.196 405.246 338.244 404.934 338.244C404.43 338.244 404.154 337.944 404.154 337.332V333.564H405.618V332.724H404.154V331.296H403.158V332.724H402.258V333.564H403.158V337.428C403.158 338.412 403.71 339.084 404.85 339.084ZM407.207 339H408.203V335.196C408.203 334.068 409.031 333.48 409.955 333.48C410.963 333.48 411.431 333.972 411.431 335.076V339H412.427V335.148C412.427 333.324 411.515 332.616 410.219 332.616C409.187 332.616 408.491 333.132 408.203 333.72V329.724H407.207V339ZM419.463 339.084C419.871 339.084 420.111 339.024 420.315 338.952V338.112C420.099 338.196 419.859 338.244 419.547 338.244C419.043 338.244 418.767 337.944 418.767 337.332V333.564H420.231V332.724H418.767V331.296H417.771V332.724H416.871V333.564H417.771V337.428C417.771 338.412 418.323 339.084 419.463 339.084ZM421.821 339H422.817V335.196C422.817 334.068 423.645 333.48 424.569 333.48C425.577 333.48 426.045 333.972 426.045 335.076V339H427.041V335.148C427.041 333.324 426.129 332.616 424.833 332.616C423.801 332.616 423.105 333.132 422.817 333.72V329.724H421.821V339ZM431.56 339.108C432.976 339.108 434.02 338.448 434.236 337.188H433.24C433.108 337.92 432.544 338.28 431.572 338.28C430.288 338.28 429.604 337.488 429.556 336.06H434.284V335.736C434.284 333.492 432.916 332.616 431.464 332.616C429.736 332.616 428.524 333.936 428.524 335.832V335.928C428.524 337.86 429.784 339.108 431.56 339.108ZM429.592 335.256C429.76 334.14 430.444 333.444 431.464 333.444C432.496 333.444 433.168 333.96 433.264 335.256H429.592ZM435.813 339H436.809V335.16C436.809 334.032 437.649 333.48 438.465 333.48C439.329 333.48 439.797 333.936 439.797 335.04V339H440.793V335.16C440.793 334.032 441.633 333.48 442.449 333.48C443.313 333.48 443.781 333.936 443.781 335.04V339H444.777V335.112C444.777 333.288 443.793 332.616 442.665 332.616C441.885 332.616 440.949 332.976 440.517 333.792C440.193 332.952 439.485 332.616 438.681 332.616C437.781 332.616 437.097 333.096 436.809 333.684V332.724H435.813V339ZM449.91 339H450.906V335.196C450.906 334.068 451.734 333.48 452.658 333.48C453.666 333.48 454.134 333.972 454.134 335.076V339H455.13V335.148C455.13 333.324 454.218 332.616 452.922 332.616C451.89 332.616 451.194 333.132 450.906 333.72V332.724H449.91V339ZM459.698 338.28C458.426 338.28 457.646 337.344 457.646 335.916V335.82C457.646 334.38 458.438 333.444 459.698 333.444C460.946 333.444 461.75 334.38 461.75 335.832V335.916C461.75 337.332 460.958 338.28 459.698 338.28ZM459.686 339.108C461.474 339.108 462.782 337.8 462.782 335.904V335.808C462.782 333.924 461.474 332.616 459.698 332.616C457.922 332.616 456.614 333.936 456.614 335.82V335.916C456.614 337.752 457.898 339.108 459.686 339.108ZM465.467 339H466.559L468.023 334.296L469.331 339H470.435L472.391 332.724H471.371L469.895 337.776L468.467 332.724H467.603L466.079 337.776L464.615 332.724H463.535L465.467 339ZM474.443 339.06C474.863 339.06 475.211 338.724 475.211 338.292C475.211 337.86 474.863 337.524 474.443 337.524C474.023 337.524 473.675 337.86 473.675 338.292C473.675 338.724 474.023 339.06 474.443 339.06ZM474.071 336.576H474.839L475.007 330.42H473.903L474.071 336.576Z" fill="#10173D"/>
<path d="M567 311C567 309.895 567.895 309 569 309H755C756.105 309 757 309.895 757 311V336C757 337.105 756.105 338 755 338H569C567.895 338 567 337.105 567 336V311Z" fill="#4864C9"/>
<path d="M584.269 317.2V327H588.161C589.505 327 590.625 326.524 591.521 325.586C592.431 324.648 592.879 323.486 592.879 322.1C592.879 320.714 592.431 319.552 591.521 318.614C590.625 317.676 589.505 317.2 588.161 317.2H584.269ZM586.201 325.152V319.048H588.161C589.015 319.048 589.701 319.328 590.233 319.902C590.765 320.462 591.031 321.19 591.031 322.1C591.031 323.01 590.765 323.738 590.233 324.312C589.701 324.872 589.015 325.152 588.161 325.152H586.201ZM595.062 319.16C595.678 319.16 596.182 318.656 596.182 318.054C596.182 317.452 595.678 316.934 595.062 316.934C594.46 316.934 593.956 317.452 593.956 318.054C593.956 318.656 594.46 319.16 595.062 319.16ZM595.972 327V320H594.166V327H595.972ZM599.236 321.988C599.236 321.638 599.586 321.414 600.048 321.414C600.566 321.414 600.944 321.652 601.168 322.128L602.708 321.288C602.162 320.336 601.182 319.804 600.048 319.804C599.292 319.804 598.662 320 598.144 320.406C597.64 320.798 597.388 321.344 597.388 322.03C597.388 323.486 598.69 323.92 599.726 324.186C600.44 324.368 601 324.578 601 324.956C601 325.362 600.678 325.558 600.034 325.558C599.32 325.558 598.872 325.25 598.662 324.648L597.094 325.53C597.612 326.636 598.592 327.196 600.034 327.196C600.832 327.196 601.504 327 602.036 326.622C602.582 326.23 602.848 325.67 602.848 324.956C602.862 323.458 601.532 322.968 600.51 322.758C599.796 322.576 599.236 322.366 599.236 321.988ZM607.246 327.196C608.604 327.196 609.794 326.482 610.41 325.376L608.842 324.48C608.562 325.054 607.96 325.404 607.232 325.404C606.686 325.404 606.238 325.222 605.888 324.872C605.538 324.508 605.356 324.046 605.356 323.5C605.356 322.38 606.154 321.582 607.232 321.582C607.946 321.582 608.548 321.946 608.828 322.52L610.382 321.61C609.808 320.504 608.604 319.804 607.246 319.804C606.196 319.804 605.314 320.154 604.6 320.868C603.9 321.582 603.55 322.45 603.55 323.5C603.55 324.55 603.9 325.418 604.6 326.132C605.314 326.846 606.196 327.196 607.246 327.196ZM617.22 326.132C617.934 325.418 618.298 324.536 618.298 323.5C618.298 322.464 617.934 321.596 617.22 320.882C616.506 320.168 615.624 319.804 614.588 319.804C613.552 319.804 612.67 320.168 611.956 320.882C611.242 321.596 610.892 322.464 610.892 323.5C610.892 324.536 611.242 325.418 611.956 326.132C612.67 326.846 613.552 327.196 614.588 327.196C615.624 327.196 616.506 326.846 617.22 326.132ZM613.23 324.886C612.88 324.522 612.698 324.06 612.698 323.5C612.698 322.94 612.88 322.478 613.23 322.114C613.594 321.75 614.042 321.568 614.588 321.568C615.134 321.568 615.582 321.75 615.946 322.114C616.31 322.478 616.492 322.94 616.492 323.5C616.492 324.06 616.31 324.522 615.946 324.886C615.582 325.25 615.134 325.432 614.588 325.432C614.042 325.432 613.594 325.25 613.23 324.886ZM622.193 324.9L620.499 320H618.511L621.171 327H623.229L625.889 320H623.901L622.193 324.9ZM633.29 324.242C633.332 323.976 633.36 323.738 633.36 323.5C633.36 322.45 633.024 321.582 632.352 320.868C631.694 320.154 630.84 319.804 629.818 319.804C628.74 319.804 627.844 320.154 627.158 320.868C626.472 321.568 626.122 322.45 626.122 323.5C626.122 324.564 626.472 325.446 627.172 326.146C627.872 326.846 628.796 327.196 629.958 327.196C631.302 327.196 632.324 326.692 633.01 325.698L631.554 324.858C631.204 325.32 630.672 325.558 629.986 325.558C628.908 325.558 628.25 325.124 628.012 324.242H633.29ZM627.984 322.842C628.194 321.946 628.852 321.428 629.818 321.428C630.644 321.428 631.344 321.89 631.554 322.842H627.984ZM636.427 320H634.621V327H636.427V323.654C636.427 322.982 636.637 322.506 637.071 322.212C637.505 321.918 638.009 321.806 638.555 321.876V319.86C637.603 319.86 636.763 320.308 636.427 321.204V320ZM647.115 320H645.533V318.04L643.727 318.586V320H642.509V321.736H643.727V324.648C643.727 326.566 644.637 327.28 647.115 327V325.362C646.079 325.418 645.533 325.404 645.533 324.648V321.736H647.115V320ZM652.281 319.804C651.329 319.804 650.629 320.126 650.195 320.784V317.2H648.389V327H650.195V323.22C650.195 322.058 650.797 321.484 651.735 321.484C652.575 321.484 653.121 321.988 653.121 322.926V327H654.927V322.702C654.927 321.792 654.675 321.092 654.171 320.574C653.681 320.056 653.051 319.804 652.281 319.804ZM663.273 324.242C663.315 323.976 663.343 323.738 663.343 323.5C663.343 322.45 663.007 321.582 662.335 320.868C661.677 320.154 660.823 319.804 659.801 319.804C658.723 319.804 657.827 320.154 657.141 320.868C656.455 321.568 656.105 322.45 656.105 323.5C656.105 324.564 656.455 325.446 657.155 326.146C657.855 326.846 658.779 327.196 659.941 327.196C661.285 327.196 662.307 326.692 662.993 325.698L661.537 324.858C661.187 325.32 660.655 325.558 659.969 325.558C658.891 325.558 658.233 325.124 657.995 324.242H663.273ZM657.967 322.842C658.177 321.946 658.835 321.428 659.801 321.428C660.627 321.428 661.327 321.89 661.537 322.842H657.967ZM671.435 327.196C672.793 327.196 673.983 326.482 674.599 325.376L673.031 324.48C672.751 325.054 672.149 325.404 671.421 325.404C670.875 325.404 670.427 325.222 670.077 324.872C669.727 324.508 669.545 324.046 669.545 323.5C669.545 322.38 670.343 321.582 671.421 321.582C672.135 321.582 672.737 321.946 673.017 322.52L674.571 321.61C673.997 320.504 672.793 319.804 671.435 319.804C670.385 319.804 669.503 320.154 668.789 320.868C668.089 321.582 667.739 322.45 667.739 323.5C667.739 324.55 668.089 325.418 668.789 326.132C669.503 326.846 670.385 327.196 671.435 327.196ZM680.765 320.826C680.219 320.14 679.463 319.804 678.483 319.804C677.545 319.804 676.747 320.168 676.075 320.882C675.417 321.596 675.081 322.464 675.081 323.5C675.081 324.536 675.417 325.418 676.075 326.132C676.747 326.846 677.545 327.196 678.483 327.196C679.463 327.196 680.219 326.86 680.765 326.174V327H682.571V320H680.765V320.826ZM677.433 324.928C677.069 324.55 676.887 324.074 676.887 323.5C676.887 322.926 677.069 322.45 677.433 322.086C677.797 321.708 678.259 321.526 678.819 321.526C679.379 321.526 679.841 321.708 680.205 322.086C680.583 322.45 680.765 322.926 680.765 323.5C680.765 324.074 680.583 324.55 680.205 324.928C679.841 325.292 679.379 325.474 678.819 325.474C678.259 325.474 677.797 325.292 677.433 324.928ZM688.101 319.804C687.149 319.804 686.449 320.126 686.015 320.784V320H684.209V327H686.015V323.22C686.015 322.058 686.617 321.484 687.555 321.484C688.395 321.484 688.941 321.988 688.941 322.926V327H690.747V322.702C690.747 321.792 690.495 321.092 689.991 320.574C689.501 320.056 688.871 319.804 688.101 319.804ZM697.595 320.826C697.063 320.14 696.307 319.804 695.327 319.804C694.389 319.804 693.577 320.168 692.905 320.882C692.247 321.596 691.911 322.464 691.911 323.5C691.911 324.536 692.247 325.418 692.905 326.132C693.577 326.846 694.389 327.196 695.327 327.196C696.307 327.196 697.063 326.86 697.595 326.174V327H699.401V317.2H697.595V320.826ZM694.263 324.928C693.899 324.55 693.717 324.074 693.717 323.5C693.717 322.926 693.899 322.45 694.263 322.086C694.641 321.708 695.103 321.526 695.663 321.526C696.223 321.526 696.685 321.708 697.049 322.086C697.413 322.45 697.595 322.926 697.595 323.5C697.595 324.074 697.413 324.55 697.049 324.928C696.685 325.292 696.223 325.474 695.663 325.474C695.103 325.474 694.641 325.292 694.263 324.928ZM701.949 319.16C702.565 319.16 703.069 318.656 703.069 318.054C703.069 317.452 702.565 316.934 701.949 316.934C701.347 316.934 700.843 317.452 700.843 318.054C700.843 318.656 701.347 319.16 701.949 319.16ZM702.859 327V320H701.053V327H702.859ZM709.818 320.826C709.286 320.14 708.53 319.804 707.55 319.804C706.612 319.804 705.8 320.168 705.128 320.882C704.47 321.596 704.134 322.464 704.134 323.5C704.134 324.536 704.47 325.418 705.128 326.132C705.8 326.846 706.612 327.196 707.55 327.196C708.53 327.196 709.286 326.86 709.818 326.174V327H711.624V317.2H709.818V320.826ZM706.486 324.928C706.122 324.55 705.94 324.074 705.94 323.5C705.94 322.926 706.122 322.45 706.486 322.086C706.864 321.708 707.326 321.526 707.886 321.526C708.446 321.526 708.908 321.708 709.272 322.086C709.636 322.45 709.818 322.926 709.818 323.5C709.818 324.074 709.636 324.55 709.272 324.928C708.908 325.292 708.446 325.474 707.886 325.474C707.326 325.474 706.864 325.292 706.486 324.928ZM718.595 320.826C718.049 320.14 717.293 319.804 716.313 319.804C715.375 319.804 714.577 320.168 713.905 320.882C713.247 321.596 712.911 322.464 712.911 323.5C712.911 324.536 713.247 325.418 713.905 326.132C714.577 326.846 715.375 327.196 716.313 327.196C717.293 327.196 718.049 326.86 718.595 326.174V327H720.401V320H718.595V320.826ZM715.263 324.928C714.899 324.55 714.717 324.074 714.717 323.5C714.717 322.926 714.899 322.45 715.263 322.086C715.627 321.708 716.089 321.526 716.649 321.526C717.209 321.526 717.671 321.708 718.035 322.086C718.413 322.45 718.595 322.926 718.595 323.5C718.595 324.074 718.413 324.55 718.035 324.928C717.671 325.292 717.209 325.474 716.649 325.474C716.089 325.474 715.627 325.292 715.263 324.928ZM726.043 320H724.461V318.04L722.655 318.586V320H721.437V321.736H722.655V324.648C722.655 326.566 723.565 327.28 726.043 327V325.362C725.007 325.418 724.461 325.404 724.461 324.648V321.736H726.043V320ZM733.901 324.242C733.943 323.976 733.971 323.738 733.971 323.5C733.971 322.45 733.635 321.582 732.963 320.868C732.305 320.154 731.451 319.804 730.429 319.804C729.351 319.804 728.455 320.154 727.769 320.868C727.083 321.568 726.733 322.45 726.733 323.5C726.733 324.564 727.083 325.446 727.783 326.146C728.483 326.846 729.407 327.196 730.569 327.196C731.913 327.196 732.935 326.692 733.621 325.698L732.165 324.858C731.815 325.32 731.283 325.558 730.597 325.558C729.519 325.558 728.861 325.124 728.623 324.242H733.901ZM728.595 322.842C728.805 321.946 729.463 321.428 730.429 321.428C731.255 321.428 731.955 321.89 732.165 322.842H728.595ZM736.625 321.988C736.625 321.638 736.975 321.414 737.437 321.414C737.955 321.414 738.333 321.652 738.557 322.128L740.097 321.288C739.551 320.336 738.571 319.804 737.437 319.804C736.681 319.804 736.051 320 735.533 320.406C735.029 320.798 734.777 321.344 734.777 322.03C734.777 323.486 736.079 323.92 737.115 324.186C737.829 324.368 738.389 324.578 738.389 324.956C738.389 325.362 738.067 325.558 737.423 325.558C736.709 325.558 736.261 325.25 736.051 324.648L734.483 325.53C735.001 326.636 735.981 327.196 737.423 327.196C738.221 327.196 738.893 327 739.425 326.622C739.971 326.23 740.237 325.67 740.237 324.956C740.251 323.458 738.921 322.968 737.899 322.758C737.185 322.576 736.625 322.366 736.625 321.988Z" fill="white"/>
</g>
<defs>
<clipPath id="clip0">
<rect width="794" height="585" fill="white"/>
</clipPath>
</defs>
</svg>
