<svg width="794" height="585" viewBox="0 0 794 585" fill="none" xmlns="http://www.w3.org/2000/svg">
<rect width="794" height="585" fill="white"/>
<rect x="21.5" y="130.5" width="751" height="323" rx="1.5" fill="white"/>
<path d="M57.272 171.362C58.55 170.084 59.18 168.536 59.18 166.7C59.18 164.864 58.55 163.316 57.272 162.056C55.994 160.778 54.446 160.148 52.628 160.148C50.81 160.148 49.262 160.778 47.984 162.056C46.724 163.316 46.094 164.864 46.094 166.7C46.094 168.536 46.724 170.084 47.984 171.362C49.262 172.622 50.81 173.252 52.628 173.252C54.446 173.252 55.994 172.622 57.272 171.362ZM49.73 169.67C48.956 168.896 48.56 167.906 48.56 166.7C48.56 165.494 48.956 164.504 49.73 163.73C50.504 162.956 51.476 162.56 52.628 162.56C53.78 162.56 54.752 162.956 55.526 163.73C56.3 164.504 56.696 165.494 56.696 166.7C56.696 167.906 56.3 168.896 55.526 169.67C54.752 170.444 53.78 170.822 52.628 170.822C51.476 170.822 50.504 170.444 49.73 169.67ZM70.6459 159.968C67.8559 159.806 66.4159 161.192 66.4159 163.73V164H63.7519V163.91C63.7519 162.794 64.3819 162.29 65.6599 162.38V160.148C62.8519 159.986 61.4299 161.372 61.4299 163.91V164H60.1339V166.232H61.4299V173H63.7519V166.232H66.4159V173H68.7379V166.232H70.6459V164H68.7379V163.73C68.7379 162.614 69.3679 162.11 70.6459 162.2V159.968ZM74.0383 164H71.7163V173H74.0383V168.698C74.0383 167.834 74.3083 167.222 74.8663 166.844C75.4243 166.466 76.0723 166.322 76.7743 166.412V163.82C75.5503 163.82 74.4703 164.396 74.0383 165.548V164ZM86.5463 169.454C86.6003 169.112 86.6363 168.806 86.6363 168.5C86.6363 167.15 86.2043 166.034 85.3403 165.116C84.4943 164.198 83.3963 163.748 82.0823 163.748C80.6963 163.748 79.5443 164.198 78.6623 165.116C77.7803 166.016 77.3303 167.15 77.3303 168.5C77.3303 169.868 77.7803 171.002 78.6803 171.902C79.5803 172.802 80.7683 173.252 82.2623 173.252C83.9903 173.252 85.3043 172.604 86.1863 171.326L84.3143 170.246C83.8643 170.84 83.1803 171.146 82.2983 171.146C80.9123 171.146 80.0663 170.588 79.7603 169.454H86.5463ZM79.7243 167.654C79.9943 166.502 80.8403 165.836 82.0823 165.836C83.1443 165.836 84.0443 166.43 84.3143 167.654H79.7243ZM90.0478 166.556C90.0478 166.106 90.4978 165.818 91.0918 165.818C91.7578 165.818 92.2438 166.124 92.5318 166.736L94.5118 165.656C93.8098 164.432 92.5498 163.748 91.0918 163.748C90.1198 163.748 89.3098 164 88.6438 164.522C87.9958 165.026 87.6718 165.728 87.6718 166.61C87.6718 168.482 89.3458 169.04 90.6778 169.382C91.5957 169.616 92.3158 169.886 92.3158 170.372C92.3158 170.894 91.9018 171.146 91.0738 171.146C90.1558 171.146 89.5798 170.75 89.3098 169.976L87.2938 171.11C87.9598 172.532 89.2197 173.252 91.0738 173.252C92.0998 173.252 92.9638 173 93.6478 172.514C94.3498 172.01 94.6918 171.29 94.6918 170.372C94.7098 168.446 92.9998 167.816 91.6858 167.546C90.7678 167.312 90.0478 167.042 90.0478 166.556Z" fill="#709DFF"/>
<g clip-path="url(#clip0)">
<path d="M318.08 196H319.752L320.291 194.251H323.14L323.679 196H325.538L322.986 188.135H320.665L318.08 196ZM321.721 189.587L322.755 192.986H320.676L321.721 189.587ZM331.01 196.11C331.439 196.11 331.758 196.033 331.978 195.956V194.724C331.791 194.801 331.615 194.834 331.373 194.834C330.966 194.834 330.735 194.614 330.735 194.152V191.38H331.945V190.247H330.735V189.004H329.151V190.247H328.414V191.38H329.151V194.295C329.151 195.494 329.8 196.11 331.01 196.11ZM333.055 196H334.65V193.118C334.65 192.018 335.332 191.633 336.509 191.644V190.159C335.574 190.17 335.013 190.577 334.65 191.347V190.247H333.055V196ZM339 196.121C339.902 196.121 340.408 195.769 340.738 195.307V196H342.289V192.249C342.289 190.687 341.288 190.115 339.88 190.115C338.472 190.115 337.394 190.72 337.295 192.084H338.802C338.868 191.589 339.154 191.27 339.781 191.27C340.507 191.27 340.716 191.644 340.716 192.326V192.557H340.067C338.307 192.557 337.075 193.063 337.075 194.405C337.075 195.615 337.955 196.121 339 196.121ZM339.473 195.01C338.89 195.01 338.637 194.735 338.637 194.317C338.637 193.701 339.176 193.503 340.1 193.503H340.716V193.987C340.716 194.625 340.177 195.01 339.473 195.01ZM343.702 196H345.286V190.247H343.702V196ZM344.483 189.466C345 189.466 345.396 189.092 345.396 188.597C345.396 188.102 345 187.728 344.483 187.728C343.977 187.728 343.581 188.102 343.581 188.597C343.581 189.092 343.977 189.466 344.483 189.466ZM348.852 196.11C349.281 196.11 349.6 196.033 349.82 195.956V194.724C349.633 194.801 349.457 194.834 349.215 194.834C348.808 194.834 348.577 194.614 348.577 194.152V191.38H349.787V190.247H348.577V189.004H346.993V190.247H346.256V191.38H346.993V194.295C346.993 195.494 347.642 196.11 348.852 196.11ZM353.549 196.121C355.122 196.121 356.112 195.428 356.299 194.185H354.792C354.693 194.669 354.33 194.988 353.593 194.988C352.724 194.988 352.207 194.438 352.163 193.481H356.31V193.041C356.31 190.984 354.99 190.115 353.505 190.115C351.833 190.115 350.546 191.292 350.546 193.107V193.195C350.546 195.032 351.811 196.121 353.549 196.121ZM352.185 192.502C352.306 191.688 352.79 191.215 353.505 191.215C354.264 191.215 354.704 191.633 354.759 192.502H352.185ZM357.354 196H358.949V193.118C358.949 192.018 359.631 191.633 360.808 191.644V190.159C359.873 190.17 359.312 190.577 358.949 191.347V190.247H357.354V196Z" fill="#9FA2B1"/>
<path d="M391.529 196.121C393.465 196.121 394.862 195.12 395.06 193.173H393.311C393.168 194.185 392.486 194.68 391.507 194.68C390.209 194.68 389.461 193.734 389.461 192.106V192.018C389.461 190.39 390.253 189.422 391.496 189.422C392.486 189.422 393.014 189.928 393.146 190.874H394.972C394.785 188.938 393.377 188.014 391.485 188.014C389.252 188.014 387.58 189.642 387.58 192.029V192.117C387.58 194.537 388.955 196.121 391.529 196.121ZM398.756 194.911C397.854 194.911 397.348 194.251 397.348 193.151V193.063C397.348 191.963 397.876 191.325 398.756 191.325C399.647 191.325 400.164 191.985 400.164 193.085V193.162C400.164 194.251 399.647 194.911 398.756 194.911ZM398.745 196.121C400.472 196.121 401.781 194.966 401.781 193.151V193.063C401.781 191.27 400.483 190.115 398.756 190.115C397.029 190.115 395.72 191.292 395.72 193.096V193.184C395.72 194.977 397.029 196.121 398.745 196.121ZM402.85 196H404.445V192.678C404.445 191.831 404.962 191.413 405.644 191.413C406.348 191.413 406.656 191.787 406.656 192.568V196H408.251V192.337C408.251 190.797 407.448 190.115 406.315 190.115C405.358 190.115 404.731 190.588 404.445 191.16V190.247H402.85V196ZM411.719 196.11C412.148 196.11 412.467 196.033 412.687 195.956V194.724C412.5 194.801 412.324 194.834 412.082 194.834C411.675 194.834 411.444 194.614 411.444 194.152V191.38H412.654V190.247H411.444V189.004H409.86V190.247H409.123V191.38H409.86V194.295C409.86 195.494 410.509 196.11 411.719 196.11ZM415.369 196.121C416.271 196.121 416.777 195.769 417.107 195.307V196H418.658V192.249C418.658 190.687 417.657 190.115 416.249 190.115C414.841 190.115 413.763 190.72 413.664 192.084H415.171C415.237 191.589 415.523 191.27 416.15 191.27C416.876 191.27 417.085 191.644 417.085 192.326V192.557H416.436C414.676 192.557 413.444 193.063 413.444 194.405C413.444 195.615 414.324 196.121 415.369 196.121ZM415.842 195.01C415.259 195.01 415.006 194.735 415.006 194.317C415.006 193.701 415.545 193.503 416.469 193.503H417.085V193.987C417.085 194.625 416.546 195.01 415.842 195.01ZM422.634 196.121C424.306 196.121 425.296 195.175 425.384 193.811H423.943C423.866 194.548 423.349 194.922 422.711 194.922C421.82 194.922 421.303 194.328 421.303 193.173V193.085C421.303 191.985 421.853 191.369 422.678 191.369C423.327 191.369 423.734 191.677 423.844 192.348H425.351C425.208 190.698 423.976 190.115 422.645 190.115C421.006 190.115 419.675 191.248 419.675 193.107V193.195C419.675 195.076 420.951 196.121 422.634 196.121ZM428.488 196.11C428.917 196.11 429.236 196.033 429.456 195.956V194.724C429.269 194.801 429.093 194.834 428.851 194.834C428.444 194.834 428.213 194.614 428.213 194.152V191.38H429.423V190.247H428.213V189.004H426.629V190.247H425.892V191.38H426.629V194.295C426.629 195.494 427.278 196.11 428.488 196.11ZM432.469 189.466H433.624L434.768 187.717H433.096L432.469 189.466ZM433.184 196.121C434.757 196.121 435.747 195.428 435.934 194.185H434.427C434.328 194.669 433.965 194.988 433.228 194.988C432.359 194.988 431.842 194.438 431.798 193.481H435.945V193.041C435.945 190.984 434.625 190.115 433.14 190.115C431.468 190.115 430.181 191.292 430.181 193.107V193.195C430.181 195.032 431.446 196.121 433.184 196.121ZM431.82 192.502C431.941 191.688 432.425 191.215 433.14 191.215C433.899 191.215 434.339 191.633 434.394 192.502H431.82ZM439.133 196.121C440.651 196.121 441.553 195.472 441.553 194.229C441.553 192.997 440.761 192.634 439.32 192.425C438.484 192.304 438.209 192.161 438.209 191.798C438.209 191.446 438.506 191.204 439.023 191.204C439.573 191.204 439.837 191.424 439.925 191.897H441.388C441.245 190.577 440.288 190.115 439.012 190.115C437.835 190.115 436.735 190.709 436.735 191.908C436.735 193.03 437.329 193.47 438.858 193.701C439.683 193.822 440.024 193.987 440.024 194.383C440.024 194.779 439.738 195.01 439.122 195.01C438.429 195.01 438.176 194.713 438.11 194.196H436.625C436.68 195.439 437.582 196.121 439.133 196.121Z" fill="#9FA2B1"/>
<path d="M463.626 196H465.397V192.964H466.167L468.048 196H469.94L467.861 192.656C468.785 192.381 469.478 191.754 469.478 190.566V190.522C469.478 188.894 468.301 188.135 466.442 188.135H463.626V196ZM465.397 191.754V189.499H466.398C467.256 189.499 467.74 189.774 467.74 190.577V190.621C467.74 191.38 467.289 191.754 466.398 191.754H465.397ZM472.595 189.466H473.75L474.894 187.717H473.222L472.595 189.466ZM473.31 196.121C474.883 196.121 475.873 195.428 476.06 194.185H474.553C474.454 194.669 474.091 194.988 473.354 194.988C472.485 194.988 471.968 194.438 471.924 193.481H476.071V193.041C476.071 190.984 474.751 190.115 473.266 190.115C471.594 190.115 470.307 191.292 470.307 193.107V193.195C470.307 195.032 471.572 196.121 473.31 196.121ZM471.946 192.502C472.067 191.688 472.551 191.215 473.266 191.215C474.025 191.215 474.465 191.633 474.52 192.502H471.946ZM477.115 197.958H478.71V195.12C479.007 195.681 479.656 196.121 480.547 196.121C481.977 196.121 483.055 195.054 483.055 193.151V193.063C483.055 191.16 481.955 190.115 480.547 190.115C479.7 190.115 479.029 190.599 478.71 191.149V190.247H477.115V197.958ZM480.074 194.878C479.205 194.878 478.655 194.317 478.655 193.162V193.074C478.655 191.919 479.227 191.336 480.063 191.336C480.866 191.336 481.438 191.908 481.438 193.074V193.162C481.438 194.284 480.954 194.878 480.074 194.878ZM486.803 194.911C485.901 194.911 485.395 194.251 485.395 193.151V193.063C485.395 191.963 485.923 191.325 486.803 191.325C487.694 191.325 488.211 191.985 488.211 193.085V193.162C488.211 194.251 487.694 194.911 486.803 194.911ZM486.792 196.121C488.519 196.121 489.828 194.966 489.828 193.151V193.063C489.828 191.27 488.53 190.115 486.803 190.115C485.076 190.115 483.767 191.292 483.767 193.096V193.184C483.767 194.977 485.076 196.121 486.792 196.121ZM490.897 196H492.492V192.678C492.492 191.831 493.009 191.413 493.691 191.413C494.395 191.413 494.703 191.787 494.703 192.568V196H496.298V192.337C496.298 190.797 495.495 190.115 494.362 190.115C493.405 190.115 492.778 190.588 492.492 191.16V190.247H490.897V196ZM499.82 196.121C500.667 196.121 501.371 195.626 501.668 195.043V196H503.252V187.64H501.668V191.105C501.349 190.522 500.777 190.115 499.853 190.115C498.412 190.115 497.323 191.226 497.323 193.118V193.206C497.323 195.12 498.423 196.121 499.82 196.121ZM500.293 194.878C499.501 194.878 498.951 194.317 498.951 193.173V193.085C498.951 191.941 499.446 191.336 500.337 191.336C501.206 191.336 501.712 191.919 501.712 193.063V193.151C501.712 194.317 501.129 194.878 500.293 194.878ZM506.582 196.121C507.528 196.121 508.111 195.681 508.408 195.098V196H509.992V190.247H508.408V193.624C508.408 194.471 507.88 194.889 507.209 194.889C506.527 194.889 506.208 194.515 506.208 193.734V190.247H504.624V193.954C504.624 195.461 505.46 196.121 506.582 196.121ZM513.494 196.121C515.012 196.121 515.914 195.472 515.914 194.229C515.914 192.997 515.122 192.634 513.681 192.425C512.845 192.304 512.57 192.161 512.57 191.798C512.57 191.446 512.867 191.204 513.384 191.204C513.934 191.204 514.198 191.424 514.286 191.897H515.749C515.606 190.577 514.649 190.115 513.373 190.115C512.196 190.115 511.096 190.709 511.096 191.908C511.096 193.03 511.69 193.47 513.219 193.701C514.044 193.822 514.385 193.987 514.385 194.383C514.385 194.779 514.099 195.01 513.483 195.01C512.79 195.01 512.537 194.713 512.471 194.196H510.986C511.041 195.439 511.943 196.121 513.494 196.121Z" fill="#9FA2B1"/>
<path d="M536.429 196H541.731V194.614H538.2V192.656H540.884V191.358H538.2V189.521H541.555V188.135H536.429V196ZM542.828 196H544.423V192.678C544.423 191.831 544.94 191.413 545.622 191.413C546.326 191.413 546.634 191.787 546.634 192.568V196H548.229V192.337C548.229 190.797 547.426 190.115 546.293 190.115C545.336 190.115 544.709 190.588 544.423 191.16V190.247H542.828V196ZM552.034 197.958H553.629V195.12C553.926 195.681 554.575 196.121 555.466 196.121C556.896 196.121 557.974 195.054 557.974 193.151V193.063C557.974 191.16 556.874 190.115 555.466 190.115C554.619 190.115 553.948 190.599 553.629 191.149V190.247H552.034V197.958ZM554.993 194.878C554.124 194.878 553.574 194.317 553.574 193.162V193.074C553.574 191.919 554.146 191.336 554.982 191.336C555.785 191.336 556.357 191.908 556.357 193.074V193.162C556.357 194.284 555.873 194.878 554.993 194.878ZM559.038 196H560.633V193.118C560.633 192.018 561.315 191.633 562.492 191.644V190.159C561.557 190.17 560.996 190.577 560.633 191.347V190.247H559.038V196ZM566.116 194.911C565.214 194.911 564.708 194.251 564.708 193.151V193.063C564.708 191.963 565.236 191.325 566.116 191.325C567.007 191.325 567.524 191.985 567.524 193.085V193.162C567.524 194.251 567.007 194.911 566.116 194.911ZM566.105 196.121C567.832 196.121 569.141 194.966 569.141 193.151V193.063C569.141 191.27 567.843 190.115 566.116 190.115C564.389 190.115 563.08 191.292 563.08 193.096V193.184C563.08 194.977 564.389 196.121 566.105 196.121ZM572.817 196.121C574.489 196.121 575.479 195.175 575.567 193.811H574.126C574.049 194.548 573.532 194.922 572.894 194.922C572.003 194.922 571.486 194.328 571.486 193.173V193.085C571.486 191.985 572.036 191.369 572.861 191.369C573.51 191.369 573.917 191.677 574.027 192.348H575.534C575.391 190.698 574.159 190.115 572.828 190.115C571.189 190.115 569.858 191.248 569.858 193.107V193.195C569.858 195.076 571.134 196.121 572.817 196.121ZM579.22 196.121C580.793 196.121 581.783 195.428 581.97 194.185H580.463C580.364 194.669 580.001 194.988 579.264 194.988C578.395 194.988 577.878 194.438 577.834 193.481H581.981V193.041C581.981 190.984 580.661 190.115 579.176 190.115C577.504 190.115 576.217 191.292 576.217 193.107V193.195C576.217 195.032 577.482 196.121 579.22 196.121ZM577.856 192.502C577.977 191.688 578.461 191.215 579.176 191.215C579.935 191.215 580.375 191.633 580.43 192.502H577.856ZM585.169 196.121C586.687 196.121 587.589 195.472 587.589 194.229C587.589 192.997 586.797 192.634 585.356 192.425C584.52 192.304 584.245 192.161 584.245 191.798C584.245 191.446 584.542 191.204 585.059 191.204C585.609 191.204 585.873 191.424 585.961 191.897H587.424C587.281 190.577 586.324 190.115 585.048 190.115C583.871 190.115 582.771 190.709 582.771 191.908C582.771 193.03 583.365 193.47 584.894 193.701C585.719 193.822 586.06 193.987 586.06 194.383C586.06 194.779 585.774 195.01 585.158 195.01C584.465 195.01 584.212 194.713 584.146 194.196H582.661C582.716 195.439 583.618 196.121 585.169 196.121ZM590.69 196.121C592.208 196.121 593.11 195.472 593.11 194.229C593.11 192.997 592.318 192.634 590.877 192.425C590.041 192.304 589.766 192.161 589.766 191.798C589.766 191.446 590.063 191.204 590.58 191.204C591.13 191.204 591.394 191.424 591.482 191.897H592.945C592.802 190.577 591.845 190.115 590.569 190.115C589.392 190.115 588.292 190.709 588.292 191.908C588.292 193.03 588.886 193.47 590.415 193.701C591.24 193.822 591.581 193.987 591.581 194.383C591.581 194.779 591.295 195.01 590.679 195.01C589.986 195.01 589.733 194.713 589.667 194.196H588.182C588.237 195.439 589.139 196.121 590.69 196.121Z" fill="#9FA2B1"/>
<path d="M616.644 196H618.415V192.964H619.185L621.066 196H622.958L620.879 192.656C621.803 192.381 622.496 191.754 622.496 190.566V190.522C622.496 188.894 621.319 188.135 619.46 188.135H616.644V196ZM618.415 191.754V189.499H619.416C620.274 189.499 620.758 189.774 620.758 190.577V190.621C620.758 191.38 620.307 191.754 619.416 191.754H618.415ZM626.328 196.121C627.901 196.121 628.891 195.428 629.078 194.185H627.571C627.472 194.669 627.109 194.988 626.372 194.988C625.503 194.988 624.986 194.438 624.942 193.481H629.089V193.041C629.089 190.984 627.769 190.115 626.284 190.115C624.612 190.115 623.325 191.292 623.325 193.107V193.195C623.325 195.032 624.59 196.121 626.328 196.121ZM624.964 192.502C625.085 191.688 625.569 191.215 626.284 191.215C627.043 191.215 627.483 191.633 627.538 192.502H624.964ZM632.74 196.121C634.412 196.121 635.402 195.175 635.49 193.811H634.049C633.972 194.548 633.455 194.922 632.817 194.922C631.926 194.922 631.409 194.328 631.409 193.173V193.085C631.409 191.985 631.959 191.369 632.784 191.369C633.433 191.369 633.84 191.677 633.95 192.348H635.457C635.314 190.698 634.082 190.115 632.751 190.115C631.112 190.115 629.781 191.248 629.781 193.107V193.195C629.781 195.076 631.057 196.121 632.74 196.121ZM636.493 196H638.088V193.118C638.088 192.018 638.77 191.633 639.947 191.644V190.159C639.012 190.17 638.451 190.577 638.088 191.347V190.247H636.493V196ZM642.908 196.121C643.854 196.121 644.437 195.681 644.734 195.098V196H646.318V190.247H644.734V193.624C644.734 194.471 644.206 194.889 643.535 194.889C642.853 194.889 642.534 194.515 642.534 193.734V190.247H640.95V193.954C640.95 195.461 641.786 196.121 642.908 196.121ZM649.83 196.11C650.259 196.11 650.578 196.033 650.798 195.956V194.724C650.611 194.801 650.435 194.834 650.193 194.834C649.786 194.834 649.555 194.614 649.555 194.152V191.38H650.765V190.247H649.555V189.004H647.971V190.247H647.234V191.38H647.971V194.295C647.971 195.494 648.62 196.11 649.83 196.11ZM653.811 189.466H654.966L656.11 187.717H654.438L653.811 189.466ZM654.526 196.121C656.099 196.121 657.089 195.428 657.276 194.185H655.769C655.67 194.669 655.307 194.988 654.57 194.988C653.701 194.988 653.184 194.438 653.14 193.481H657.287V193.041C657.287 190.984 655.967 190.115 654.482 190.115C652.81 190.115 651.523 191.292 651.523 193.107V193.195C651.523 195.032 652.788 196.121 654.526 196.121ZM653.162 192.502C653.283 191.688 653.767 191.215 654.482 191.215C655.241 191.215 655.681 191.633 655.736 192.502H653.162ZM660.475 196.121C661.993 196.121 662.895 195.472 662.895 194.229C662.895 192.997 662.103 192.634 660.662 192.425C659.826 192.304 659.551 192.161 659.551 191.798C659.551 191.446 659.848 191.204 660.365 191.204C660.915 191.204 661.179 191.424 661.267 191.897H662.73C662.587 190.577 661.63 190.115 660.354 190.115C659.177 190.115 658.077 190.709 658.077 191.908C658.077 193.03 658.671 193.47 660.2 193.701C661.025 193.822 661.366 193.987 661.366 194.383C661.366 194.779 661.08 195.01 660.464 195.01C659.771 195.01 659.518 194.713 659.452 194.196H657.967C658.022 195.439 658.924 196.121 660.475 196.121Z" fill="#9FA2B1"/>
<path d="M697.384 187.607H698.583L699.694 186.078H697.967L697.384 187.607ZM695.426 196H700.728V194.614H697.197V192.656H699.881V191.358H697.197V189.521H700.552V188.135H695.426V196ZM704.432 196.121C706.104 196.121 707.094 195.175 707.182 193.811H705.741C705.664 194.548 705.147 194.922 704.509 194.922C703.618 194.922 703.101 194.328 703.101 193.173V193.085C703.101 191.985 703.651 191.369 704.476 191.369C705.125 191.369 705.532 191.677 705.642 192.348H707.149C707.006 190.698 705.774 190.115 704.443 190.115C702.804 190.115 701.473 191.248 701.473 193.107V193.195C701.473 195.076 702.749 196.121 704.432 196.121ZM709.735 196.121C710.637 196.121 711.143 195.769 711.473 195.307V196H713.024V192.249C713.024 190.687 712.023 190.115 710.615 190.115C709.207 190.115 708.129 190.72 708.03 192.084H709.537C709.603 191.589 709.889 191.27 710.516 191.27C711.242 191.27 711.451 191.644 711.451 192.326V192.557H710.802C709.042 192.557 707.81 193.063 707.81 194.405C707.81 195.615 708.69 196.121 709.735 196.121ZM710.208 195.01C709.625 195.01 709.372 194.735 709.372 194.317C709.372 193.701 709.911 193.503 710.835 193.503H711.451V193.987C711.451 194.625 710.912 195.01 710.208 195.01ZM714.393 196H715.988V193.118C715.988 192.018 716.67 191.633 717.847 191.644V190.159C716.912 190.17 716.351 190.577 715.988 191.347V190.247H714.393V196ZM721.049 196.11C721.478 196.11 721.797 196.033 722.017 195.956V194.724C721.83 194.801 721.654 194.834 721.412 194.834C721.005 194.834 720.774 194.614 720.774 194.152V191.38H721.984V190.247H720.774V189.004H719.19V190.247H718.453V191.38H719.19V194.295C719.19 195.494 719.839 196.11 721.049 196.11ZM725.03 189.466H726.185L727.329 187.717H725.657L725.03 189.466ZM725.745 196.121C727.318 196.121 728.308 195.428 728.495 194.185H726.988C726.889 194.669 726.526 194.988 725.789 194.988C724.92 194.988 724.403 194.438 724.359 193.481H728.506V193.041C728.506 190.984 727.186 190.115 725.701 190.115C724.029 190.115 722.742 191.292 722.742 193.107V193.195C722.742 195.032 724.007 196.121 725.745 196.121ZM724.381 192.502C724.502 191.688 724.986 191.215 725.701 191.215C726.46 191.215 726.9 191.633 726.955 192.502H724.381ZM731.694 196.121C733.212 196.121 734.114 195.472 734.114 194.229C734.114 192.997 733.322 192.634 731.881 192.425C731.045 192.304 730.77 192.161 730.77 191.798C730.77 191.446 731.067 191.204 731.584 191.204C732.134 191.204 732.398 191.424 732.486 191.897H733.949C733.806 190.577 732.849 190.115 731.573 190.115C730.396 190.115 729.296 190.709 729.296 191.908C729.296 193.03 729.89 193.47 731.419 193.701C732.244 193.822 732.585 193.987 732.585 194.383C732.585 194.779 732.299 195.01 731.683 195.01C730.99 195.01 730.737 194.713 730.671 194.196H729.186C729.241 195.439 730.143 196.121 731.694 196.121Z" fill="#9FA2B1"/>
<line x1="45" y1="213.5" x2="863" y2="213.5" stroke="#F3F3F5"/>
<circle cx="54" cy="239" r="5" fill="#709DFF"/>
<path d="M74.346 243.236V236.754H75.242C77.356 236.754 78.238 237.86 78.238 239.918V240.03C78.238 242.102 77.286 243.236 75.27 243.236H74.346ZM72.078 245H75.34C78.854 245 80.604 242.998 80.604 240.002V239.89C80.604 236.894 78.868 234.99 75.354 234.99H72.078V245ZM84.0282 245.154C85.1762 245.154 85.8202 244.706 86.2402 244.118V245H88.2142V240.226C88.2142 238.238 86.9402 237.51 85.1482 237.51C83.3562 237.51 81.9842 238.28 81.8582 240.016H83.7762C83.8602 239.386 84.2242 238.98 85.0222 238.98C85.9462 238.98 86.2122 239.456 86.2122 240.324V240.618H85.3862C83.1462 240.618 81.5782 241.262 81.5782 242.97C81.5782 244.51 82.6982 245.154 84.0282 245.154ZM84.6302 243.74C83.8882 243.74 83.5662 243.39 83.5662 242.858C83.5662 242.074 84.2522 241.822 85.4282 241.822H86.2122V242.438C86.2122 243.25 85.5262 243.74 84.6302 243.74ZM92.6305 245.14C93.1765 245.14 93.5825 245.042 93.8625 244.944V243.376C93.6245 243.474 93.4005 243.516 93.0925 243.516C92.5745 243.516 92.2805 243.236 92.2805 242.648V239.12H93.8205V237.678H92.2805V236.096H90.2645V237.678H89.3265V239.12H90.2645V242.83C90.2645 244.356 91.0905 245.14 92.6305 245.14ZM97.2763 245.154C98.4243 245.154 99.0683 244.706 99.4883 244.118V245H101.462V240.226C101.462 238.238 100.188 237.51 98.3963 237.51C96.6043 237.51 95.2323 238.28 95.1063 240.016H97.0243C97.1083 239.386 97.4723 238.98 98.2703 238.98C99.1943 238.98 99.4603 239.456 99.4603 240.324V240.618H98.6343C96.3943 240.618 94.8263 241.262 94.8263 242.97C94.8263 244.51 95.9463 245.154 97.2763 245.154ZM97.8783 243.74C97.1363 243.74 96.8143 243.39 96.8143 242.858C96.8143 242.074 97.5003 241.822 98.6763 241.822H99.4603V242.438C99.4603 243.25 98.7743 243.74 97.8783 243.74ZM109.99 245.154C112.356 245.154 113.812 243.74 113.812 241.962C113.812 239.89 112.566 239.232 110.144 238.924C108.604 238.7 108.282 238.364 108.282 237.65C108.282 236.978 108.786 236.516 109.78 236.516C110.774 236.516 111.306 236.936 111.446 237.846H113.532C113.35 235.858 112.034 234.85 109.78 234.85C107.568 234.85 106.14 236.124 106.14 237.832C106.14 239.764 107.19 240.534 109.752 240.87C111.222 241.094 111.642 241.374 111.642 242.172C111.642 242.956 110.984 243.502 109.99 243.502C108.506 243.502 108.128 242.76 108.03 241.864H105.86C105.986 243.866 107.246 245.154 109.99 245.154ZM118.581 245.154C120.709 245.154 121.969 243.95 122.081 242.214H120.247C120.149 243.152 119.491 243.628 118.679 243.628C117.545 243.628 116.887 242.872 116.887 241.402V241.29C116.887 239.89 117.587 239.106 118.637 239.106C119.463 239.106 119.981 239.498 120.121 240.352H122.039C121.857 238.252 120.289 237.51 118.595 237.51C116.509 237.51 114.815 238.952 114.815 241.318V241.43C114.815 243.824 116.439 245.154 118.581 245.154ZM123.413 245H125.429V237.678H123.413V245ZM124.407 236.684C125.065 236.684 125.569 236.208 125.569 235.578C125.569 234.948 125.065 234.472 124.407 234.472C123.763 234.472 123.259 234.948 123.259 235.578C123.259 236.208 123.763 236.684 124.407 236.684ZM130.668 245.154C132.67 245.154 133.93 244.272 134.168 242.69H132.25C132.124 243.306 131.662 243.712 130.724 243.712C129.618 243.712 128.96 243.012 128.904 241.794H134.182V241.234C134.182 238.616 132.502 237.51 130.612 237.51C128.484 237.51 126.846 239.008 126.846 241.318V241.43C126.846 243.768 128.456 245.154 130.668 245.154ZM128.932 240.548C129.086 239.512 129.702 238.91 130.612 238.91C131.578 238.91 132.138 239.442 132.208 240.548H128.932ZM135.511 245H137.541V240.772C137.541 239.694 138.199 239.162 139.067 239.162C139.963 239.162 140.355 239.638 140.355 240.632V245H142.385V240.338C142.385 238.378 141.363 237.51 139.921 237.51C138.703 237.51 137.905 238.112 137.541 238.84V237.678H135.511V245ZM146.799 245.14C147.345 245.14 147.751 245.042 148.031 244.944V243.376C147.793 243.474 147.569 243.516 147.261 243.516C146.743 243.516 146.449 243.236 146.449 242.648V239.12H147.989V237.678H146.449V236.096H144.433V237.678H143.495V239.12H144.433V242.83C144.433 244.356 145.259 245.14 146.799 245.14ZM149.458 245H151.474V237.678H149.458V245ZM150.452 236.684C151.11 236.684 151.614 236.208 151.614 235.578C151.614 234.948 151.11 234.472 150.452 234.472C149.808 234.472 149.304 234.948 149.304 235.578C149.304 236.208 149.808 236.684 150.452 236.684ZM155.999 245.154C157.931 245.154 159.079 244.328 159.079 242.746C159.079 241.178 158.071 240.716 156.237 240.45C155.173 240.296 154.823 240.114 154.823 239.652C154.823 239.204 155.201 238.896 155.859 238.896C156.559 238.896 156.895 239.176 157.007 239.778H158.869C158.687 238.098 157.469 237.51 155.845 237.51C154.347 237.51 152.947 238.266 152.947 239.792C152.947 241.22 153.703 241.78 155.649 242.074C156.699 242.228 157.133 242.438 157.133 242.942C157.133 243.446 156.769 243.74 155.985 243.74C155.103 243.74 154.781 243.362 154.697 242.704H152.807C152.877 244.286 154.025 245.154 155.999 245.154ZM163.041 245.14C163.587 245.14 163.993 245.042 164.273 244.944V243.376C164.035 243.474 163.811 243.516 163.503 243.516C162.985 243.516 162.691 243.236 162.691 242.648V239.12H164.231V237.678H162.691V236.096H160.675V237.678H159.737V239.12H160.675V242.83C160.675 244.356 161.501 245.14 163.041 245.14Z" fill="#404564"/>
<path d="M74.564 266.132C76.544 266.132 77.852 264.968 77.852 263.144C77.852 261.32 76.784 260.252 75.224 260.252C74.252 260.252 73.652 260.636 73.316 261.044L73.352 258.896H77.336V257.42H71.9L71.78 262.304H72.86C73.208 261.908 73.7 261.62 74.504 261.62C75.368 261.62 75.896 262.196 75.896 263.12C75.896 264.032 75.428 264.644 74.552 264.644C73.568 264.644 73.28 264.164 73.172 263.444H71.384C71.468 264.98 72.452 266.132 74.564 266.132ZM78.4682 266H84.9482V264.524H81.6122L83.2322 262.94C84.2282 261.98 84.8882 261.044 84.8882 259.904C84.8882 258.356 83.8082 257.3 81.9122 257.3C79.9922 257.3 78.7922 258.38 78.6962 260.36H80.4602C80.5922 259.232 81.0722 258.788 81.8282 258.788C82.5722 258.788 82.9682 259.244 82.9682 259.952C82.9682 260.732 82.4402 261.488 81.6122 262.364L78.4682 265.688V266ZM91.7097 266.132C93.5337 266.132 94.6137 265.1 94.7097 263.612H93.1377C93.0537 264.416 92.4897 264.824 91.7937 264.824C90.8217 264.824 90.2577 264.176 90.2577 262.916V262.82C90.2577 261.62 90.8577 260.948 91.7577 260.948C92.4657 260.948 92.9097 261.284 93.0297 262.016H94.6737C94.5177 260.216 93.1737 259.58 91.7217 259.58C89.9337 259.58 88.4817 260.816 88.4817 262.844V262.94C88.4817 264.992 89.8737 266.132 91.7097 266.132ZM97.4952 266.132C98.4792 266.132 99.0312 265.748 99.3912 265.244V266H101.083V261.908C101.083 260.204 99.9912 259.58 98.4552 259.58C96.9192 259.58 95.7432 260.24 95.6352 261.728H97.2792C97.3512 261.188 97.6632 260.84 98.3472 260.84C99.1392 260.84 99.3672 261.248 99.3672 261.992V262.244H98.6592C96.7392 262.244 95.3952 262.796 95.3952 264.26C95.3952 265.58 96.3552 266.132 97.4952 266.132ZM98.0112 264.92C97.3752 264.92 97.0992 264.62 97.0992 264.164C97.0992 263.492 97.6872 263.276 98.6952 263.276H99.3672V263.804C99.3672 264.5 98.7792 264.92 98.0112 264.92ZM102.577 266H104.317V262.376C104.317 261.452 104.881 260.996 105.625 260.996C106.393 260.996 106.729 261.404 106.729 262.256V266H108.469V262.004C108.469 260.324 107.593 259.58 106.357 259.58C105.313 259.58 104.629 260.096 104.317 260.72V259.724H102.577V266ZM112.311 266.132C113.235 266.132 114.003 265.592 114.327 264.956V266H116.055V256.88H114.327V260.66C113.979 260.024 113.355 259.58 112.347 259.58C110.775 259.58 109.587 260.792 109.587 262.856V262.952C109.587 265.04 110.787 266.132 112.311 266.132ZM112.827 264.776C111.963 264.776 111.363 264.164 111.363 262.916V262.82C111.363 261.572 111.903 260.912 112.875 260.912C113.823 260.912 114.375 261.548 114.375 262.796V262.892C114.375 264.164 113.739 264.776 112.827 264.776ZM117.648 266H119.376V259.724H117.648V266ZM118.5 258.872C119.064 258.872 119.496 258.464 119.496 257.924C119.496 257.384 119.064 256.976 118.5 256.976C117.948 256.976 117.516 257.384 117.516 257.924C117.516 258.464 117.948 258.872 118.5 258.872ZM123.327 266.132C124.251 266.132 125.019 265.592 125.343 264.956V266H127.071V256.88H125.343V260.66C124.995 260.024 124.371 259.58 123.363 259.58C121.791 259.58 120.603 260.792 120.603 262.856V262.952C120.603 265.04 121.803 266.132 123.327 266.132ZM123.843 264.776C122.979 264.776 122.379 264.164 122.379 262.916V262.82C122.379 261.572 122.919 260.912 123.891 260.912C124.839 260.912 125.391 261.548 125.391 262.796V262.892C125.391 264.164 124.755 264.776 123.843 264.776ZM130.308 266.132C131.292 266.132 131.844 265.748 132.204 265.244V266H133.896V261.908C133.896 260.204 132.804 259.58 131.268 259.58C129.732 259.58 128.556 260.24 128.448 261.728H130.092C130.164 261.188 130.476 260.84 131.16 260.84C131.952 260.84 132.18 261.248 132.18 261.992V262.244H131.472C129.552 262.244 128.208 262.796 128.208 264.26C128.208 265.58 129.168 266.132 130.308 266.132ZM130.824 264.92C130.188 264.92 129.912 264.62 129.912 264.164C129.912 263.492 130.5 263.276 131.508 263.276H132.18V263.804C132.18 264.5 131.592 264.92 130.824 264.92ZM137.681 266.12C138.149 266.12 138.497 266.036 138.737 265.952V264.608C138.533 264.692 138.341 264.728 138.077 264.728C137.633 264.728 137.381 264.488 137.381 263.984V260.96H138.701V259.724H137.381V258.368H135.653V259.724H134.849V260.96H135.653V264.14C135.653 265.448 136.361 266.12 137.681 266.12ZM142.251 266.132C143.907 266.132 144.891 265.424 144.891 264.068C144.891 262.724 144.027 262.328 142.455 262.1C141.543 261.968 141.243 261.812 141.243 261.416C141.243 261.032 141.567 260.768 142.131 260.768C142.731 260.768 143.019 261.008 143.115 261.524H144.711C144.555 260.084 143.511 259.58 142.119 259.58C140.835 259.58 139.635 260.228 139.635 261.536C139.635 262.76 140.283 263.24 141.951 263.492C142.851 263.624 143.223 263.804 143.223 264.236C143.223 264.668 142.911 264.92 142.239 264.92C141.483 264.92 141.207 264.596 141.135 264.032H139.515C139.575 265.388 140.559 266.132 142.251 266.132Z" fill="#5C89EB"/>
<path d="M335.043 243.84L335.587 245.728L337.699 245.136V254H339.907V242.8H337.987L335.043 243.84ZM346.095 254.224C347.503 254.224 348.607 253.696 349.391 252.64C350.175 251.568 350.575 250.16 350.575 248.4C350.575 246.64 350.175 245.232 349.391 244.176C348.607 243.104 347.503 242.576 346.095 242.576C344.703 242.576 343.599 243.104 342.799 244.176C342.015 245.232 341.615 246.64 341.615 248.4C341.615 250.16 342.015 251.568 342.799 252.64C343.599 253.696 344.703 254.224 346.095 254.224ZM348.383 248.4C348.383 250.768 347.583 252.064 346.095 252.064C344.607 252.064 343.823 250.784 343.823 248.4C343.823 246.016 344.607 244.72 346.095 244.72C347.583 244.72 348.383 246.016 348.383 248.4Z" fill="#F66F81"/>
<path d="M418.693 254V251.872H414.485L416.677 249.68C417.909 248.448 418.517 247.264 418.517 246.096C418.517 245.024 418.149 244.16 417.429 243.536C416.709 242.896 415.829 242.576 414.821 242.576C413.237 242.576 411.829 243.408 411.125 244.944L412.981 246.032C413.381 245.152 414.005 244.72 414.853 244.72C415.701 244.72 416.309 245.296 416.309 246.176C416.309 246.768 415.877 247.52 415.029 248.416L411.205 252.352V254H418.693ZM419.215 243.84L419.759 245.728L421.871 245.136V254H424.079V242.8H422.159L419.215 243.84Z" fill="#404564"/>
<path d="M496.385 244.624V242.8H489.345V244.864H493.729L491.521 247.744L492.369 249.024H492.849C493.985 249.024 494.641 249.632 494.641 250.544C494.641 251.488 493.985 252.064 492.849 252.064C491.825 252.064 491.169 251.632 490.897 250.768L489.009 251.856C489.633 253.408 491.105 254.224 492.849 254.224C493.969 254.224 494.913 253.904 495.681 253.248C496.465 252.592 496.849 251.696 496.849 250.544C496.849 248.96 495.809 247.792 494.289 247.344L496.385 244.624Z" fill="#404564"/>
<path d="M568.001 254.224C569.409 254.224 570.513 253.696 571.297 252.64C572.081 251.568 572.481 250.16 572.481 248.4C572.481 246.64 572.081 245.232 571.297 244.176C570.513 243.104 569.409 242.576 568.001 242.576C566.609 242.576 565.505 243.104 564.705 244.176C563.921 245.232 563.521 246.64 563.521 248.4C563.521 250.16 563.921 251.568 564.705 252.64C565.505 253.696 566.609 254.224 568.001 254.224ZM570.289 248.4C570.289 250.768 569.489 252.064 568.001 252.064C566.513 252.064 565.729 250.784 565.729 248.4C565.729 246.016 566.513 244.72 568.001 244.72C569.489 244.72 570.289 246.016 570.289 248.4Z" fill="#404564"/>
<path d="M647.124 250.16V248.176H638.884V250.16H647.124Z" fill="#CFD1D8"/>
<path d="M710.535 243.84L711.079 245.728L713.191 245.136V254H715.399V242.8H713.479L710.535 243.84ZM723.555 248.176C724.339 247.616 724.723 246.848 724.723 245.856C724.723 244.816 724.371 244.016 723.683 243.44C722.995 242.864 722.131 242.576 721.091 242.576C720.051 242.576 719.187 242.864 718.483 243.44C717.795 244.016 717.443 244.816 717.443 245.856C717.443 246.832 717.827 247.616 718.611 248.176C717.587 248.8 717.075 249.696 717.075 250.88C717.075 252.944 718.595 254.224 721.091 254.224C723.571 254.224 725.107 252.944 725.107 250.88C725.107 249.696 724.595 248.8 723.555 248.176ZM722.131 245.008C722.403 245.248 722.531 245.568 722.531 245.968C722.531 246.368 722.403 246.704 722.131 246.944C721.859 247.184 721.523 247.296 721.091 247.296C720.659 247.296 720.323 247.184 720.051 246.944C719.779 246.704 719.651 246.368 719.651 245.968C719.651 245.568 719.779 245.248 720.051 245.008C720.323 244.768 720.659 244.656 721.091 244.656C721.523 244.656 721.859 244.768 722.131 245.008ZM722.915 250.592C722.915 251.568 722.179 252.144 721.091 252.144C720.003 252.144 719.267 251.568 719.267 250.592C719.267 249.632 720.003 249.056 721.091 249.056C722.179 249.056 722.915 249.632 722.915 250.592Z" fill="#404564"/>
<line x1="45" y1="285.5" x2="863" y2="285.5" stroke="#F3F3F5"/>
<line x1="45" y1="285.5" x2="863" y2="285.5" stroke="#F3F3F5"/>
<path d="M49 311C49 313.761 51.2386 316 54 316V306C51.2386 306 49 308.239 49 311Z" fill="#FFBD2E"/>
<circle cx="54" cy="311" r="4" stroke="#FFBD2E" stroke-width="2"/>
<path d="M73.156 317.126C75.214 317.126 76.446 316.034 76.446 313.766V306.99H74.164V313.738C74.164 314.886 73.604 315.32 72.75 315.32C72.162 315.32 71.826 315.208 71.49 315.082V316.818C71.84 317 72.288 317.126 73.156 317.126ZM80.2001 317.154C81.3481 317.154 81.9921 316.706 82.4121 316.118V317H84.3861V312.226C84.3861 310.238 83.1121 309.51 81.3201 309.51C79.5281 309.51 78.1561 310.28 78.0301 312.016H79.9481C80.0321 311.386 80.3961 310.98 81.1941 310.98C82.1181 310.98 82.3841 311.456 82.3841 312.324V312.618H81.5581C79.3181 312.618 77.7501 313.262 77.7501 314.97C77.7501 316.51 78.8701 317.154 80.2001 317.154ZM80.8021 315.74C80.0601 315.74 79.7381 315.39 79.7381 314.858C79.7381 314.074 80.4241 313.822 81.6001 313.822H82.3841V314.438C82.3841 315.25 81.6981 315.74 80.8021 315.74ZM87.8973 317H90.1793L92.8393 309.678H90.8793L89.1433 314.914L87.3933 309.678H85.2233L87.8973 317ZM95.704 317.154C96.852 317.154 97.496 316.706 97.916 316.118V317H99.89V312.226C99.89 310.238 98.616 309.51 96.824 309.51C95.032 309.51 93.66 310.28 93.534 312.016H95.452C95.536 311.386 95.9 310.98 96.698 310.98C97.622 310.98 97.888 311.456 97.888 312.324V312.618H97.062C94.822 312.618 93.254 313.262 93.254 314.97C93.254 316.51 94.374 317.154 95.704 317.154ZM96.306 315.74C95.564 315.74 95.242 315.39 95.242 314.858C95.242 314.074 95.928 313.822 97.104 313.822H97.888V314.438C97.888 315.25 97.202 315.74 96.306 315.74ZM104.292 317.154C106.224 317.154 107.372 316.328 107.372 314.746C107.372 313.178 106.364 312.716 104.53 312.45C103.466 312.296 103.116 312.114 103.116 311.652C103.116 311.204 103.494 310.896 104.152 310.896C104.852 310.896 105.188 311.176 105.3 311.778H107.162C106.98 310.098 105.762 309.51 104.138 309.51C102.64 309.51 101.24 310.266 101.24 311.792C101.24 313.22 101.996 313.78 103.942 314.074C104.992 314.228 105.426 314.438 105.426 314.942C105.426 315.446 105.062 315.74 104.278 315.74C103.396 315.74 103.074 315.362 102.99 314.704H101.1C101.17 316.286 102.318 317.154 104.292 317.154ZM111.978 317.154C114.106 317.154 115.366 315.95 115.478 314.214H113.644C113.546 315.152 112.888 315.628 112.076 315.628C110.942 315.628 110.284 314.872 110.284 313.402V313.29C110.284 311.89 110.984 311.106 112.034 311.106C112.86 311.106 113.378 311.498 113.518 312.352H115.436C115.254 310.252 113.686 309.51 111.992 309.51C109.906 309.51 108.212 310.952 108.212 313.318V313.43C108.212 315.824 109.836 317.154 111.978 317.154ZM116.753 317H118.783V313.332C118.783 311.932 119.651 311.442 121.149 311.456V309.566C119.959 309.58 119.245 310.098 118.783 311.078V309.678H116.753V317ZM122.538 317H124.554V309.678H122.538V317ZM123.532 308.684C124.19 308.684 124.694 308.208 124.694 307.578C124.694 306.948 124.19 306.472 123.532 306.472C122.888 306.472 122.384 306.948 122.384 307.578C122.384 308.208 122.888 308.684 123.532 308.684ZM126.419 319.492H128.449V315.88C128.827 316.594 129.653 317.154 130.787 317.154C132.607 317.154 133.979 315.796 133.979 313.374V313.262C133.979 310.84 132.579 309.51 130.787 309.51C129.709 309.51 128.855 310.126 128.449 310.826V309.678H126.419V319.492ZM130.185 315.572C129.079 315.572 128.379 314.858 128.379 313.388V313.276C128.379 311.806 129.107 311.064 130.171 311.064C131.193 311.064 131.921 311.792 131.921 313.276V313.388C131.921 314.816 131.305 315.572 130.185 315.572ZM138.008 317.14C138.553 317.14 138.96 317.042 139.24 316.944V315.376C139.002 315.474 138.778 315.516 138.47 315.516C137.952 315.516 137.658 315.236 137.658 314.648V311.12H139.198V309.678H137.658V308.096H135.642V309.678H134.704V311.12H135.642V314.83C135.642 316.356 136.468 317.14 138.008 317.14ZM143.896 317H150.644V315.236H146.15V312.744H149.566V311.092H146.15V308.754H150.42V306.99H143.896V317ZM152.041 317H154.071V312.772C154.071 311.694 154.729 311.162 155.597 311.162C156.493 311.162 156.885 311.638 156.885 312.632V317H158.915V312.338C158.915 310.378 157.893 309.51 156.451 309.51C155.233 309.51 154.435 310.112 154.071 310.84V309.678H152.041V317ZM163.902 319.702C166.31 319.702 167.752 318.596 167.766 316.426V309.678H165.75V310.77C165.33 310.028 164.616 309.51 163.426 309.51C161.606 309.51 160.206 310.98 160.206 313.08V313.178C160.206 315.348 161.62 316.678 163.398 316.678C164.476 316.678 165.344 316.034 165.75 315.32V316.426C165.75 317.574 165.134 318.218 163.902 318.218C162.866 318.218 162.404 317.798 162.278 317.154H160.262C160.458 318.666 161.536 319.702 163.902 319.702ZM164 315.152C162.992 315.152 162.278 314.396 162.278 313.178V313.066C162.278 311.862 162.908 311.05 164.042 311.05C165.148 311.05 165.806 311.806 165.806 313.052V313.15C165.806 314.396 165.064 315.152 164 315.152ZM169.61 317H171.626V309.678H169.61V317ZM170.604 308.684C171.262 308.684 171.766 308.208 171.766 307.578C171.766 306.948 171.262 306.472 170.604 306.472C169.96 306.472 169.456 306.948 169.456 307.578C169.456 308.208 169.96 308.684 170.604 308.684ZM173.492 317H175.522V312.772C175.522 311.694 176.18 311.162 177.048 311.162C177.944 311.162 178.336 311.638 178.336 312.632V317H180.366V312.338C180.366 310.378 179.344 309.51 177.902 309.51C176.684 309.51 175.886 310.112 175.522 310.84V309.678H173.492V317ZM185.479 317.154C187.481 317.154 188.741 316.272 188.979 314.69H187.061C186.935 315.306 186.473 315.712 185.535 315.712C184.429 315.712 183.771 315.012 183.715 313.794H188.993V313.234C188.993 310.616 187.313 309.51 185.423 309.51C183.295 309.51 181.657 311.008 181.657 313.318V313.43C181.657 315.768 183.267 317.154 185.479 317.154ZM183.743 312.548C183.897 311.512 184.513 310.91 185.423 310.91C186.389 310.91 186.949 311.442 187.019 312.548H183.743ZM193.696 317.154C195.698 317.154 196.958 316.272 197.196 314.69H195.278C195.152 315.306 194.69 315.712 193.752 315.712C192.646 315.712 191.988 315.012 191.932 313.794H197.21V313.234C197.21 310.616 195.53 309.51 193.64 309.51C191.512 309.51 189.874 311.008 189.874 313.318V313.43C189.874 315.768 191.484 317.154 193.696 317.154ZM191.96 312.548C192.114 311.512 192.73 310.91 193.64 310.91C194.606 310.91 195.166 311.442 195.236 312.548H191.96ZM198.539 317H200.569V313.332C200.569 311.932 201.437 311.442 202.935 311.456V309.566C201.745 309.58 201.031 310.098 200.569 311.078V309.678H198.539V317Z" fill="#404564"/>
<path d="M71.144 338H77.624V336.524H74.288L75.908 334.94C76.904 333.98 77.564 333.044 77.564 331.904C77.564 330.356 76.484 329.3 74.588 329.3C72.668 329.3 71.468 330.38 71.372 332.36H73.136C73.268 331.232 73.748 330.788 74.504 330.788C75.248 330.788 75.644 331.244 75.644 331.952C75.644 332.732 75.116 333.488 74.288 334.364L71.144 337.688V338ZM79.5427 338H81.5227L84.5947 329.636V329.42H78.3787V330.992H82.1587L79.5427 338ZM91.0183 338.132C92.8423 338.132 93.9223 337.1 94.0182 335.612H92.4463C92.3623 336.416 91.7983 336.824 91.1023 336.824C90.1303 336.824 89.5663 336.176 89.5663 334.916V334.82C89.5663 333.62 90.1663 332.948 91.0663 332.948C91.7743 332.948 92.2183 333.284 92.3383 334.016H93.9823C93.8263 332.216 92.4823 331.58 91.0303 331.58C89.2423 331.58 87.7903 332.816 87.7903 334.844V334.94C87.7903 336.992 89.1823 338.132 91.0183 338.132ZM96.8038 338.132C97.7878 338.132 98.3398 337.748 98.6998 337.244V338H100.392V333.908C100.392 332.204 99.2998 331.58 97.7638 331.58C96.2278 331.58 95.0518 332.24 94.9438 333.728H96.5878C96.6598 333.188 96.9718 332.84 97.6558 332.84C98.4478 332.84 98.6758 333.248 98.6758 333.992V334.244H97.9678C96.0478 334.244 94.7038 334.796 94.7038 336.26C94.7038 337.58 95.6638 338.132 96.8038 338.132ZM97.3198 336.92C96.6838 336.92 96.4078 336.62 96.4078 336.164C96.4078 335.492 96.9958 335.276 98.0038 335.276H98.6758V335.804C98.6758 336.5 98.0878 336.92 97.3198 336.92ZM101.885 338H103.625V334.376C103.625 333.452 104.189 332.996 104.933 332.996C105.701 332.996 106.037 333.404 106.037 334.256V338H107.777V334.004C107.777 332.324 106.901 331.58 105.665 331.58C104.621 331.58 103.937 332.096 103.625 332.72V331.724H101.885V338ZM111.62 338.132C112.544 338.132 113.312 337.592 113.636 336.956V338H115.364V328.88H113.636V332.66C113.288 332.024 112.664 331.58 111.656 331.58C110.084 331.58 108.896 332.792 108.896 334.856V334.952C108.896 337.04 110.096 338.132 111.62 338.132ZM112.136 336.776C111.272 336.776 110.672 336.164 110.672 334.916V334.82C110.672 333.572 111.212 332.912 112.184 332.912C113.132 332.912 113.684 333.548 113.684 334.796V334.892C113.684 336.164 113.048 336.776 112.136 336.776ZM116.957 338H118.685V331.724H116.957V338ZM117.809 330.872C118.373 330.872 118.805 330.464 118.805 329.924C118.805 329.384 118.373 328.976 117.809 328.976C117.257 328.976 116.825 329.384 116.825 329.924C116.825 330.464 117.257 330.872 117.809 330.872ZM122.636 338.132C123.56 338.132 124.328 337.592 124.652 336.956V338H126.38V328.88H124.652V332.66C124.304 332.024 123.68 331.58 122.672 331.58C121.1 331.58 119.912 332.792 119.912 334.856V334.952C119.912 337.04 121.112 338.132 122.636 338.132ZM123.152 336.776C122.288 336.776 121.688 336.164 121.688 334.916V334.82C121.688 333.572 122.228 332.912 123.2 332.912C124.148 332.912 124.7 333.548 124.7 334.796V334.892C124.7 336.164 124.064 336.776 123.152 336.776ZM129.616 338.132C130.6 338.132 131.152 337.748 131.512 337.244V338H133.204V333.908C133.204 332.204 132.112 331.58 130.576 331.58C129.04 331.58 127.864 332.24 127.756 333.728H129.4C129.472 333.188 129.784 332.84 130.468 332.84C131.26 332.84 131.488 333.248 131.488 333.992V334.244H130.78C128.86 334.244 127.516 334.796 127.516 336.26C127.516 337.58 128.476 338.132 129.616 338.132ZM130.132 336.92C129.496 336.92 129.22 336.62 129.22 336.164C129.22 335.492 129.808 335.276 130.816 335.276H131.488V335.804C131.488 336.5 130.9 336.92 130.132 336.92ZM136.99 338.12C137.458 338.12 137.806 338.036 138.046 337.952V336.608C137.842 336.692 137.65 336.728 137.386 336.728C136.942 336.728 136.69 336.488 136.69 335.984V332.96H138.01V331.724H136.69V330.368H134.962V331.724H134.158V332.96H134.962V336.14C134.962 337.448 135.67 338.12 136.99 338.12ZM141.56 338.132C143.216 338.132 144.2 337.424 144.2 336.068C144.2 334.724 143.336 334.328 141.764 334.1C140.852 333.968 140.552 333.812 140.552 333.416C140.552 333.032 140.876 332.768 141.44 332.768C142.04 332.768 142.328 333.008 142.424 333.524H144.02C143.864 332.084 142.82 331.58 141.428 331.58C140.144 331.58 138.944 332.228 138.944 333.536C138.944 334.76 139.592 335.24 141.26 335.492C142.16 335.624 142.532 335.804 142.532 336.236C142.532 336.668 142.22 336.92 141.548 336.92C140.792 336.92 140.516 336.596 140.444 336.032H138.824C138.884 337.388 139.868 338.132 141.56 338.132Z" fill="#EBA91A"/>
<path d="M335.043 315.84L335.587 317.728L337.699 317.136V326H339.907V314.8H337.987L335.043 315.84ZM346.095 326.224C347.503 326.224 348.607 325.696 349.391 324.64C350.175 323.568 350.575 322.16 350.575 320.4C350.575 318.64 350.175 317.232 349.391 316.176C348.607 315.104 347.503 314.576 346.095 314.576C344.703 314.576 343.599 315.104 342.799 316.176C342.015 317.232 341.615 318.64 341.615 320.4C341.615 322.16 342.015 323.568 342.799 324.64C343.599 325.696 344.703 326.224 346.095 326.224ZM348.383 320.4C348.383 322.768 347.583 324.064 346.095 324.064C344.607 324.064 343.823 322.784 343.823 320.4C343.823 318.016 344.607 316.72 346.095 316.72C347.583 316.72 348.383 318.016 348.383 320.4Z" fill="#F66F81"/>
<path d="M410.832 315.84L411.376 317.728L413.488 317.136V326H415.696V314.8H413.776L410.832 315.84ZM424.764 326V323.872H420.556L422.748 321.68C423.98 320.448 424.588 319.264 424.588 318.096C424.588 317.024 424.22 316.16 423.5 315.536C422.78 314.896 421.9 314.576 420.892 314.576C419.308 314.576 417.9 315.408 417.196 316.944L419.052 318.032C419.452 317.152 420.076 316.72 420.924 316.72C421.772 316.72 422.38 317.296 422.38 318.176C422.38 318.768 421.948 319.52 421.1 320.416L417.276 324.352V326H424.764Z" fill="#404564"/>
<path d="M496.385 316.624V314.8H489.345V316.864H493.729L491.521 319.744L492.369 321.024H492.849C493.985 321.024 494.641 321.632 494.641 322.544C494.641 323.488 493.985 324.064 492.849 324.064C491.825 324.064 491.169 323.632 490.897 322.768L489.009 323.856C489.633 325.408 491.105 326.224 492.849 326.224C493.969 326.224 494.913 325.904 495.681 325.248C496.465 324.592 496.849 323.696 496.849 322.544C496.849 320.96 495.809 319.792 494.289 319.344L496.385 316.624Z" fill="#404564"/>
<path d="M568.001 326.224C569.409 326.224 570.513 325.696 571.297 324.64C572.081 323.568 572.481 322.16 572.481 320.4C572.481 318.64 572.081 317.232 571.297 316.176C570.513 315.104 569.409 314.576 568.001 314.576C566.609 314.576 565.505 315.104 564.705 316.176C563.921 317.232 563.521 318.64 563.521 320.4C563.521 322.16 563.921 323.568 564.705 324.64C565.505 325.696 566.609 326.224 568.001 326.224ZM570.289 320.4C570.289 322.768 569.489 324.064 568.001 324.064C566.513 324.064 565.729 322.784 565.729 320.4C565.729 318.016 566.513 316.72 568.001 316.72C569.489 316.72 570.289 318.016 570.289 320.4Z" fill="#404564"/>
<path d="M647.124 322.16V320.176H638.884V322.16H647.124Z" fill="#CFD1D8"/>
<path d="M721.67 326V323.872H717.462L719.654 321.68C720.886 320.448 721.494 319.264 721.494 318.096C721.494 317.024 721.126 316.16 720.406 315.536C719.686 314.896 718.806 314.576 717.798 314.576C716.214 314.576 714.806 315.408 714.102 316.944L715.958 318.032C716.358 317.152 716.982 316.72 717.83 316.72C718.678 316.72 719.286 317.296 719.286 318.176C719.286 318.768 718.854 319.52 718.006 320.416L714.182 324.352V326H721.67Z" fill="#404564"/>
<line x1="45" y1="357.5" x2="863" y2="357.5" stroke="#F3F3F5"/>
<line x1="45" y1="357.5" x2="863" y2="357.5" stroke="#F3F3F5"/>
<circle cx="54" cy="383" r="4" stroke="#CFD1D8" stroke-width="2"/>
<path d="M71.294 389H73.422L74.108 386.774H77.734L78.42 389H80.786L77.538 378.99H74.584L71.294 389ZM75.928 380.838L77.244 385.164H74.598L75.928 380.838ZM85.0851 389.154C87.2131 389.154 88.4731 387.95 88.5851 386.214H86.7511C86.6531 387.152 85.9951 387.628 85.1831 387.628C84.0491 387.628 83.3911 386.872 83.3911 385.402V385.29C83.3911 383.89 84.0911 383.106 85.1411 383.106C85.9671 383.106 86.4851 383.498 86.6251 384.352H88.5431C88.3611 382.252 86.7931 381.51 85.0991 381.51C83.0131 381.51 81.3191 382.952 81.3191 385.318V385.43C81.3191 387.824 82.9431 389.154 85.0851 389.154ZM93.1788 389.154C95.3068 389.154 96.5668 387.95 96.6788 386.214H94.8448C94.7468 387.152 94.0888 387.628 93.2768 387.628C92.1428 387.628 91.4848 386.872 91.4848 385.402V385.29C91.4848 383.89 92.1848 383.106 93.2348 383.106C94.0608 383.106 94.5788 383.498 94.7188 384.352H96.6368C96.4548 382.252 94.8868 381.51 93.1928 381.51C91.1068 381.51 89.4128 382.952 89.4128 385.318V385.43C89.4128 387.824 91.0368 389.154 93.1788 389.154ZM101.371 387.614C100.223 387.614 99.5786 386.774 99.5786 385.374V385.262C99.5786 383.862 100.251 383.05 101.371 383.05C102.505 383.05 103.163 383.89 103.163 385.29V385.388C103.163 386.774 102.505 387.614 101.371 387.614ZM101.357 389.154C103.555 389.154 105.221 387.684 105.221 385.374V385.262C105.221 382.98 103.569 381.51 101.371 381.51C99.1726 381.51 97.5066 383.008 97.5066 385.304V385.416C97.5066 387.698 99.1726 389.154 101.357 389.154ZM109.018 389.154C110.222 389.154 110.964 388.594 111.342 387.852V389H113.358V381.678H111.342V385.976C111.342 387.054 110.67 387.586 109.816 387.586C108.948 387.586 108.542 387.11 108.542 386.116V381.678H106.526V386.396C106.526 388.314 107.59 389.154 109.018 389.154ZM115.154 389H117.184V384.772C117.184 383.694 117.842 383.162 118.71 383.162C119.606 383.162 119.998 383.638 119.998 384.632V389H122.028V384.338C122.028 382.378 121.006 381.51 119.564 381.51C118.346 381.51 117.548 382.112 117.184 382.84V381.678H115.154V389ZM126.441 389.14C126.987 389.14 127.393 389.042 127.673 388.944V387.376C127.435 387.474 127.211 387.516 126.903 387.516C126.385 387.516 126.091 387.236 126.091 386.648V383.12H127.631V381.678H126.091V380.096H124.075V381.678H123.137V383.12H124.075V386.83C124.075 388.356 124.901 389.14 126.441 389.14ZM132.33 389H139.078V387.236H134.584V384.744H138V383.092H134.584V380.754H138.854V378.99H132.33V389ZM139.884 389H141.97L143.552 386.536L145.092 389H147.43L144.854 385.108L147.192 381.678H145.092L143.748 383.876L142.376 381.678H140.052L142.39 385.262L139.884 389ZM151.395 389.154C153.397 389.154 154.657 388.272 154.895 386.69H152.977C152.851 387.306 152.389 387.712 151.451 387.712C150.345 387.712 149.687 387.012 149.631 385.794H154.909V385.234C154.909 382.616 153.229 381.51 151.339 381.51C149.211 381.51 147.573 383.008 147.573 385.318V385.43C147.573 387.768 149.183 389.154 151.395 389.154ZM149.659 384.548C149.813 383.512 150.429 382.91 151.339 382.91C152.305 382.91 152.865 383.442 152.935 384.548H149.659ZM159.556 389.154C161.684 389.154 162.944 387.95 163.056 386.214H161.222C161.124 387.152 160.466 387.628 159.654 387.628C158.52 387.628 157.862 386.872 157.862 385.402V385.29C157.862 383.89 158.562 383.106 159.612 383.106C160.438 383.106 160.956 383.498 161.096 384.352H163.014C162.832 382.252 161.264 381.51 159.57 381.51C157.484 381.51 155.79 382.952 155.79 385.318V385.43C155.79 387.824 157.414 389.154 159.556 389.154ZM166.768 389.154C167.972 389.154 168.714 388.594 169.092 387.852V389H171.108V381.678H169.092V385.976C169.092 387.054 168.42 387.586 167.566 387.586C166.698 387.586 166.292 387.11 166.292 386.116V381.678H164.276V386.396C164.276 388.314 165.34 389.154 166.768 389.154ZM175.578 389.14C176.124 389.14 176.53 389.042 176.81 388.944V387.376C176.572 387.474 176.348 387.516 176.04 387.516C175.522 387.516 175.228 387.236 175.228 386.648V383.12H176.768V381.678H175.228V380.096H173.212V381.678H172.274V383.12H173.212V386.83C173.212 388.356 174.038 389.14 175.578 389.14ZM178.237 389H180.253V381.678H178.237V389ZM179.231 380.684C179.889 380.684 180.393 380.208 180.393 379.578C180.393 378.948 179.889 378.472 179.231 378.472C178.587 378.472 178.083 378.948 178.083 379.578C178.083 380.208 178.587 380.684 179.231 380.684ZM184.093 389H186.375L189.035 381.678H187.075L185.339 386.914L183.589 381.678H181.419L184.093 389ZM193.149 389.154C195.151 389.154 196.411 388.272 196.649 386.69H194.731C194.605 387.306 194.143 387.712 193.205 387.712C192.099 387.712 191.441 387.012 191.385 385.794H196.663V385.234C196.663 382.616 194.983 381.51 193.093 381.51C190.965 381.51 189.327 383.008 189.327 385.318V385.43C189.327 387.768 190.937 389.154 193.149 389.154ZM191.413 384.548C191.567 383.512 192.183 382.91 193.093 382.91C194.059 382.91 194.619 383.442 194.689 384.548H191.413Z" fill="#404564"/>
<path d="M73.868 408.488V402.932H74.636C76.448 402.932 77.204 403.88 77.204 405.644V405.74C77.204 407.516 76.388 408.488 74.66 408.488H73.868ZM71.924 410H74.72C77.732 410 79.232 408.284 79.232 405.716V405.62C79.232 403.052 77.744 401.42 74.732 401.42H71.924V410ZM80.475 410H82.215V406.856C82.215 405.656 82.959 405.236 84.243 405.248V403.628C83.223 403.64 82.611 404.084 82.215 404.924V403.724H80.475V410ZM86.96 410.132C87.944 410.132 88.496 409.748 88.856 409.244V410H90.548V405.908C90.548 404.204 89.456 403.58 87.92 403.58C86.384 403.58 85.208 404.24 85.1 405.728H86.744C86.816 405.188 87.128 404.84 87.812 404.84C88.604 404.84 88.832 405.248 88.832 405.992V406.244H88.124C86.204 406.244 84.86 406.796 84.86 408.26C84.86 409.58 85.82 410.132 86.96 410.132ZM87.476 408.92C86.84 408.92 86.564 408.62 86.564 408.164C86.564 407.492 87.152 407.276 88.16 407.276H88.832V407.804C88.832 408.5 88.244 408.92 87.476 408.92ZM92.3294 410H94.0574V404.96H95.4254V403.724H94.0574V402.956C94.0574 402.476 94.2854 402.128 94.8374 402.128C95.0894 402.128 95.3054 402.176 95.4734 402.236V400.928C95.1974 400.844 94.9454 400.808 94.5734 400.808C93.1814 400.808 92.3294 401.54 92.3294 403.004V403.724H91.5014V404.96H92.3294V410ZM98.8452 410.12C99.3132 410.12 99.6612 410.036 99.9012 409.952V408.608C99.6972 408.692 99.5052 408.728 99.2412 408.728C98.7972 408.728 98.5452 408.488 98.5452 407.984V404.96H99.8652V403.724H98.5452V402.368H96.8172V403.724H96.0132V404.96H96.8172V408.14C96.8172 409.448 97.5252 410.12 98.8452 410.12Z" fill="#9FA2B1"/>
</g>
<rect x="21.5" y="130.5" width="751" height="323" rx="1.5" stroke="#DAE0F4"/>
<defs>
<clipPath id="clip0">
<rect width="703" height="244" fill="white" transform="translate(45 186)"/>
</clipPath>
</defs>
</svg>
