<svg width="794" height="585" viewBox="0 0 794 585" fill="none" xmlns="http://www.w3.org/2000/svg">
<g clip-path="url(#clip0)">
<rect width="794" height="585" fill="white"/>
<path fill-rule="evenodd" clip-rule="evenodd" d="M88 215L88.0009 255H128V235.525H119.55V246.533H96.4504L96.4519 223.467H107.439V215H88Z" fill="#1F2E77"/>
<path fill-rule="evenodd" clip-rule="evenodd" d="M111.333 215V223.563H119.477V231.667H128V215H111.333Z" fill="#F9C8CA"/>
<path d="M226.302 239.732V231.398H227.454C230.172 231.398 231.306 232.82 231.306 235.466V235.61C231.306 238.274 230.082 239.732 227.49 239.732H226.302ZM223.386 242H227.58C232.098 242 234.348 239.426 234.348 235.574V235.43C234.348 231.578 232.116 229.13 227.598 229.13H223.386V242ZM238.751 242.198C240.227 242.198 241.055 241.622 241.595 240.866V242H244.133V235.862C244.133 233.306 242.495 232.37 240.191 232.37C237.887 232.37 236.123 233.36 235.961 235.592H238.427C238.535 234.782 239.003 234.26 240.029 234.26C241.217 234.26 241.559 234.872 241.559 235.988V236.366H240.497C237.617 236.366 235.601 237.194 235.601 239.39C235.601 241.37 237.041 242.198 238.751 242.198ZM239.525 240.38C238.571 240.38 238.157 239.93 238.157 239.246C238.157 238.238 239.039 237.914 240.551 237.914H241.559V238.706C241.559 239.75 240.677 240.38 239.525 240.38ZM249.793 242.198C252.277 242.198 253.753 241.136 253.753 239.102C253.753 237.086 252.457 236.492 250.099 236.15C248.731 235.952 248.281 235.718 248.281 235.124C248.281 234.548 248.767 234.152 249.613 234.152C250.513 234.152 250.945 234.512 251.089 235.286H253.483C253.249 233.126 251.683 232.37 249.595 232.37C247.669 232.37 245.869 233.342 245.869 235.304C245.869 237.14 246.841 237.86 249.343 238.238C250.693 238.436 251.251 238.706 251.251 239.354C251.251 240.002 250.783 240.38 249.775 240.38C248.641 240.38 248.227 239.894 248.119 239.048H245.689C245.779 241.082 247.255 242.198 249.793 242.198ZM255.408 242H258.018V236.564C258.018 235.178 258.864 234.494 259.98 234.494C261.132 234.494 261.636 235.106 261.636 236.384V242H264.246V236.006C264.246 233.486 262.932 232.37 261.078 232.37C259.512 232.37 258.486 233.144 258.018 234.08V228.32H255.408V242ZM272.098 242.198C274.438 242.198 276.202 240.452 276.202 237.338V237.194C276.202 234.08 274.402 232.37 272.098 232.37C270.712 232.37 269.614 233.162 269.092 234.062V228.32H266.482V242H269.092V240.506C269.578 241.478 270.64 242.198 272.098 242.198ZM271.324 240.164C269.902 240.164 269.002 239.246 269.002 237.356V237.212C269.002 235.322 269.938 234.368 271.306 234.368C272.62 234.368 273.556 235.304 273.556 237.212V237.356C273.556 239.192 272.764 240.164 271.324 240.164ZM282.335 240.218C280.859 240.218 280.031 239.138 280.031 237.338V237.194C280.031 235.394 280.895 234.35 282.335 234.35C283.793 234.35 284.639 235.43 284.639 237.23V237.356C284.639 239.138 283.793 240.218 282.335 240.218ZM282.317 242.198C285.143 242.198 287.285 240.308 287.285 237.338V237.194C287.285 234.26 285.161 232.37 282.335 232.37C279.509 232.37 277.367 234.296 277.367 237.248V237.392C277.367 240.326 279.509 242.198 282.317 242.198ZM291.573 242.198C293.049 242.198 293.877 241.622 294.417 240.866V242H296.955V235.862C296.955 233.306 295.317 232.37 293.013 232.37C290.709 232.37 288.945 233.36 288.783 235.592H291.249C291.357 234.782 291.825 234.26 292.851 234.26C294.039 234.26 294.381 234.872 294.381 235.988V236.366H293.319C290.439 236.366 288.423 237.194 288.423 239.39C288.423 241.37 289.863 242.198 291.573 242.198ZM292.347 240.38C291.393 240.38 290.979 239.93 290.979 239.246C290.979 238.238 291.861 237.914 293.373 237.914H294.381V238.706C294.381 239.75 293.499 240.38 292.347 240.38ZM299.195 242H301.805V237.284C301.805 235.484 302.921 234.854 304.847 234.872V232.442C303.317 232.46 302.399 233.126 301.805 234.386V232.586H299.195V242ZM309.912 242.198C311.298 242.198 312.45 241.388 312.936 240.434V242H315.528V228.32H312.936V233.99C312.414 233.036 311.478 232.37 309.966 232.37C307.608 232.37 305.826 234.188 305.826 237.284V237.428C305.826 240.56 307.626 242.198 309.912 242.198ZM310.686 240.164C309.39 240.164 308.49 239.246 308.49 237.374V237.23C308.49 235.358 309.3 234.368 310.758 234.368C312.18 234.368 313.008 235.322 313.008 237.194V237.338C313.008 239.246 312.054 240.164 310.686 240.164Z" fill="#A5ABC9"/>
<path d="M355.772 242.162C358.418 242.162 360.002 240.758 360.002 237.842V229.13H357.068V237.806C357.068 239.282 356.348 239.84 355.25 239.84C354.494 239.84 354.062 239.696 353.63 239.534V241.766C354.08 242 354.656 242.162 355.772 242.162ZM366.683 240.218C365.207 240.218 364.379 239.138 364.379 237.338V237.194C364.379 235.394 365.243 234.35 366.683 234.35C368.141 234.35 368.987 235.43 368.987 237.23V237.356C368.987 239.138 368.141 240.218 366.683 240.218ZM366.665 242.198C369.491 242.198 371.633 240.308 371.633 237.338V237.194C371.633 234.26 369.509 232.37 366.683 232.37C363.857 232.37 361.715 234.296 361.715 237.248V237.392C361.715 240.326 363.857 242.198 366.665 242.198ZM378.998 242.198C381.338 242.198 383.102 240.452 383.102 237.338V237.194C383.102 234.08 381.302 232.37 378.998 232.37C377.612 232.37 376.514 233.162 375.992 234.062V228.32H373.382V242H375.992V240.506C376.478 241.478 377.54 242.198 378.998 242.198ZM378.224 240.164C376.802 240.164 375.902 239.246 375.902 237.356V237.212C375.902 235.322 376.838 234.368 378.206 234.368C379.52 234.368 380.456 235.304 380.456 237.212V237.356C380.456 239.192 379.664 240.164 378.224 240.164ZM388.263 242.198C390.747 242.198 392.223 241.136 392.223 239.102C392.223 237.086 390.927 236.492 388.569 236.15C387.201 235.952 386.751 235.718 386.751 235.124C386.751 234.548 387.237 234.152 388.083 234.152C388.983 234.152 389.415 234.512 389.559 235.286H391.953C391.719 233.126 390.153 232.37 388.065 232.37C386.139 232.37 384.339 233.342 384.339 235.304C384.339 237.14 385.311 237.86 387.813 238.238C389.163 238.436 389.721 238.706 389.721 239.354C389.721 240.002 389.253 240.38 388.245 240.38C387.111 240.38 386.697 239.894 386.589 239.048H384.159C384.249 241.082 385.725 242.198 388.263 242.198Z" fill="#A5ABC9"/>
<path d="M433.302 239.732V231.398H434.454C437.172 231.398 438.306 232.82 438.306 235.466V235.61C438.306 238.274 437.082 239.732 434.49 239.732H433.302ZM430.386 242H434.58C439.098 242 441.348 239.426 441.348 235.574V235.43C441.348 231.578 439.116 229.13 434.598 229.13H430.386V242ZM443.285 242H445.877V232.586H443.285V242ZM444.563 231.308C445.409 231.308 446.057 230.696 446.057 229.886C446.057 229.076 445.409 228.464 444.563 228.464C443.735 228.464 443.087 229.076 443.087 229.886C443.087 230.696 443.735 231.308 444.563 231.308ZM451.695 242.198C454.179 242.198 455.655 241.136 455.655 239.102C455.655 237.086 454.359 236.492 452.001 236.15C450.633 235.952 450.183 235.718 450.183 235.124C450.183 234.548 450.669 234.152 451.515 234.152C452.415 234.152 452.847 234.512 452.991 235.286H455.385C455.151 233.126 453.585 232.37 451.497 232.37C449.571 232.37 447.771 233.342 447.771 235.304C447.771 237.14 448.743 237.86 451.245 238.238C452.595 238.436 453.153 238.706 453.153 239.354C453.153 240.002 452.685 240.38 451.677 240.38C450.543 240.38 450.129 239.894 450.021 239.048H447.591C447.681 241.082 449.157 242.198 451.695 242.198ZM461.576 242.198C464.312 242.198 465.932 240.65 466.076 238.418H463.718C463.592 239.624 462.746 240.236 461.702 240.236C460.244 240.236 459.398 239.264 459.398 237.374V237.23C459.398 235.43 460.298 234.422 461.648 234.422C462.71 234.422 463.376 234.926 463.556 236.024H466.022C465.788 233.324 463.772 232.37 461.594 232.37C458.912 232.37 456.734 234.224 456.734 237.266V237.41C456.734 240.488 458.822 242.198 461.576 242.198ZM472.108 240.218C470.632 240.218 469.804 239.138 469.804 237.338V237.194C469.804 235.394 470.668 234.35 472.108 234.35C473.566 234.35 474.412 235.43 474.412 237.23V237.356C474.412 239.138 473.566 240.218 472.108 240.218ZM472.09 242.198C474.916 242.198 477.058 240.308 477.058 237.338V237.194C477.058 234.26 474.934 232.37 472.108 232.37C469.282 232.37 467.14 234.296 467.14 237.248V237.392C467.14 240.326 469.282 242.198 472.09 242.198ZM480.995 242H483.929L487.349 232.586H484.829L482.597 239.318L480.347 232.586H477.557L480.995 242ZM492.638 242.198C495.212 242.198 496.832 241.064 497.138 239.03H494.672C494.51 239.822 493.916 240.344 492.71 240.344C491.288 240.344 490.442 239.444 490.37 237.878H497.156V237.158C497.156 233.792 494.996 232.37 492.566 232.37C489.83 232.37 487.724 234.296 487.724 237.266V237.41C487.724 240.416 489.794 242.198 492.638 242.198ZM490.406 236.276C490.604 234.944 491.396 234.17 492.566 234.17C493.808 234.17 494.528 234.854 494.618 236.276H490.406ZM498.865 242H501.475V237.284C501.475 235.484 502.591 234.854 504.517 234.872V232.442C502.987 232.46 502.069 233.126 501.475 234.386V232.586H498.865V242Z" fill="#1F2E77"/>
<path d="M545.906 242H548.84V231.398H552.314V229.13H542.432V231.398H545.906V242ZM556.877 242.198C559.451 242.198 561.071 241.064 561.377 239.03H558.911C558.749 239.822 558.155 240.344 556.949 240.344C555.527 240.344 554.681 239.444 554.609 237.878H561.395V237.158C561.395 233.792 559.235 232.37 556.805 232.37C554.069 232.37 551.963 234.296 551.963 237.266V237.41C551.963 240.416 554.033 242.198 556.877 242.198ZM554.645 236.276C554.843 234.944 555.635 234.17 556.805 234.17C558.047 234.17 558.767 234.854 558.857 236.276H554.645ZM563.103 242H565.713V236.438C565.713 235.16 566.523 234.512 567.531 234.512C568.449 234.512 569.007 235.052 569.007 236.258V242H571.599V236.438C571.599 235.16 572.409 234.512 573.417 234.512C574.353 234.512 574.893 235.052 574.893 236.258V242H577.485V235.97C577.485 233.468 576.135 232.37 574.389 232.37C573.201 232.37 571.977 232.874 571.221 234.008C570.771 232.892 569.835 232.37 568.593 232.37C567.189 232.37 566.181 233.144 565.713 234.026V232.586H563.103V242ZM579.715 245.204H582.325V240.56C582.811 241.478 583.873 242.198 585.331 242.198C587.671 242.198 589.435 240.452 589.435 237.338V237.194C589.435 234.08 587.635 232.37 585.331 232.37C583.945 232.37 582.847 233.162 582.325 234.062V232.586H579.715V245.204ZM584.557 240.164C583.135 240.164 582.235 239.246 582.235 237.356V237.212C582.235 235.322 583.171 234.368 584.539 234.368C585.853 234.368 586.789 235.304 586.789 237.212V237.356C586.789 239.192 585.997 240.164 584.557 240.164ZM591.247 242H593.839V228.32H591.247V242ZM598.758 242.198C600.234 242.198 601.062 241.622 601.602 240.866V242H604.14V235.862C604.14 233.306 602.502 232.37 600.198 232.37C597.894 232.37 596.13 233.36 595.968 235.592H598.434C598.542 234.782 599.01 234.26 600.036 234.26C601.224 234.26 601.566 234.872 601.566 235.988V236.366H600.504C597.624 236.366 595.608 237.194 595.608 239.39C595.608 241.37 597.048 242.198 598.758 242.198ZM599.532 240.38C598.578 240.38 598.164 239.93 598.164 239.246C598.164 238.238 599.046 237.914 600.558 237.914H601.566V238.706C601.566 239.75 600.684 240.38 599.532 240.38ZM609.819 242.18C610.521 242.18 611.043 242.054 611.403 241.928V239.912C611.097 240.038 610.809 240.092 610.413 240.092C609.747 240.092 609.369 239.732 609.369 238.976V234.44H611.349V232.586H609.369V230.552H606.777V232.586H605.571V234.44H606.777V239.21C606.777 241.172 607.839 242.18 609.819 242.18ZM617.504 242.198C620.078 242.198 621.698 241.064 622.004 239.03H619.538C619.376 239.822 618.782 240.344 617.576 240.344C616.154 240.344 615.308 239.444 615.236 237.878H622.022V237.158C622.022 233.792 619.862 232.37 617.432 232.37C614.696 232.37 612.59 234.296 612.59 237.266V237.41C612.59 240.416 614.66 242.198 617.504 242.198ZM615.272 236.276C615.47 234.944 616.262 234.17 617.432 234.17C618.674 234.17 619.394 234.854 619.484 236.276H615.272ZM627.238 242.198C629.722 242.198 631.198 241.136 631.198 239.102C631.198 237.086 629.902 236.492 627.544 236.15C626.176 235.952 625.726 235.718 625.726 235.124C625.726 234.548 626.212 234.152 627.058 234.152C627.958 234.152 628.39 234.512 628.534 235.286H630.928C630.694 233.126 629.128 232.37 627.04 232.37C625.114 232.37 623.314 233.342 623.314 235.304C623.314 237.14 624.286 237.86 626.788 238.238C628.138 238.436 628.696 238.706 628.696 239.354C628.696 240.002 628.228 240.38 627.22 240.38C626.086 240.38 625.672 239.894 625.564 239.048H623.134C623.224 241.082 624.7 242.198 627.238 242.198Z" fill="#A5ABC9"/>
<path d="M668.378 242H671.114L671.996 239.138H676.658L677.54 242H680.582L676.406 229.13H672.608L668.378 242ZM674.336 231.506L676.028 237.068H672.626L674.336 231.506ZM682.107 242H684.717V236.564C684.717 235.178 685.563 234.494 686.679 234.494C687.831 234.494 688.335 235.106 688.335 236.384V242H690.945V236.006C690.945 233.486 689.631 232.37 687.777 232.37C686.211 232.37 685.185 233.144 684.717 234.08V232.586H682.107V242ZM695.719 242.198C697.195 242.198 698.023 241.622 698.563 240.866V242H701.101V235.862C701.101 233.306 699.463 232.37 697.159 232.37C694.855 232.37 693.091 233.36 692.929 235.592H695.395C695.503 234.782 695.971 234.26 696.997 234.26C698.185 234.26 698.527 234.872 698.527 235.988V236.366H697.465C694.585 236.366 692.569 237.194 692.569 239.39C692.569 241.37 694.009 242.198 695.719 242.198ZM696.493 240.38C695.539 240.38 695.125 239.93 695.125 239.246C695.125 238.238 696.007 237.914 697.519 237.914H698.527V238.706C698.527 239.75 697.645 240.38 696.493 240.38ZM703.413 242H706.005V228.32H703.413V242ZM709.574 245.204H712.094L717.188 232.586H714.686L712.58 238.238L710.294 232.586H707.486L711.23 241.046L709.574 245.204ZM722.213 242.18C722.915 242.18 723.437 242.054 723.797 241.928V239.912C723.491 240.038 723.203 240.092 722.807 240.092C722.141 240.092 721.763 239.732 721.763 238.976V234.44H723.743V232.586H721.763V230.552H719.171V232.586H717.965V234.44H719.171V239.21C719.171 241.172 720.233 242.18 722.213 242.18ZM725.632 242H728.224V232.586H725.632V242ZM726.91 231.308C727.756 231.308 728.404 230.696 728.404 229.886C728.404 229.076 727.756 228.464 726.91 228.464C726.082 228.464 725.434 229.076 725.434 229.886C725.434 230.696 726.082 231.308 726.91 231.308ZM734.889 242.198C737.625 242.198 739.245 240.65 739.389 238.418H737.031C736.905 239.624 736.059 240.236 735.015 240.236C733.557 240.236 732.711 239.264 732.711 237.374V237.23C732.711 235.43 733.611 234.422 734.961 234.422C736.023 234.422 736.689 234.926 736.869 236.024H739.335C739.101 233.324 737.085 232.37 734.907 232.37C732.225 232.37 730.047 234.224 730.047 237.266V237.41C730.047 240.488 732.135 242.198 734.889 242.198ZM744.537 242.198C747.021 242.198 748.497 241.136 748.497 239.102C748.497 237.086 747.201 236.492 744.843 236.15C743.475 235.952 743.025 235.718 743.025 235.124C743.025 234.548 743.511 234.152 744.357 234.152C745.257 234.152 745.689 234.512 745.833 235.286H748.227C747.993 233.126 746.427 232.37 744.339 232.37C742.413 232.37 740.613 233.342 740.613 235.304C740.613 237.14 741.585 237.86 744.087 238.238C745.437 238.436 745.995 238.706 745.995 239.354C745.995 240.002 745.527 240.38 744.519 240.38C743.385 240.38 742.971 239.894 742.863 239.048H740.433C740.523 241.082 741.999 242.198 744.537 242.198Z" fill="#A5ABC9"/>
<rect x="20" y="270" width="750" height="1" fill="#D2D5E4"/>
<rect x="21" y="201" width="750" height="1" fill="#D2D5E4"/>
<rect x="21" y="293" width="752" height="61" rx="2" fill="#FFF1F3"/>
<circle cx="49" cy="323.5" r="12" fill="#F66F81"/>
<path d="M51.1493 325.839L49.674 328.939C49.6461 328.997 49.6043 329.048 49.5523 329.087C49.5003 329.126 49.4397 329.152 49.3755 329.162C49.3114 329.172 49.2458 329.166 49.1843 329.145C49.1228 329.125 49.0674 329.089 49.0227 329.042L46.6613 326.549C46.5983 326.483 46.5142 326.44 46.4233 326.428L43.0187 325.983C42.9544 325.974 42.8931 325.95 42.8401 325.913C42.7871 325.875 42.744 325.826 42.7145 325.768C42.6851 325.71 42.6701 325.646 42.671 325.581C42.6718 325.516 42.6884 325.452 42.7193 325.395L44.3607 322.379C44.4043 322.299 44.4189 322.205 44.402 322.115L43.7733 318.74C43.7614 318.676 43.7652 318.61 43.7844 318.548C43.8037 318.486 43.8377 318.43 43.8837 318.384C43.9297 318.338 43.9861 318.304 44.0482 318.284C44.1103 318.265 44.1761 318.261 44.24 318.273L47.6153 318.902C47.7055 318.919 47.7987 318.904 47.8793 318.861L50.8953 317.219C50.9524 317.188 51.0162 317.172 51.0811 317.171C51.146 317.17 51.2102 317.185 51.268 317.215C51.3258 317.244 51.3756 317.287 51.413 317.341C51.4504 317.394 51.4743 317.455 51.4827 317.519L51.928 320.923C51.94 321.014 51.9828 321.098 52.0493 321.161L54.542 323.523C54.5891 323.567 54.6246 323.623 54.6455 323.684C54.6664 323.746 54.6719 323.811 54.6618 323.876C54.6516 323.94 54.626 324 54.5871 324.052C54.5482 324.104 54.4973 324.146 54.4387 324.174L51.3387 325.649C51.2557 325.689 51.1888 325.756 51.1493 325.839V325.839ZM51.6807 327.123L52.6233 326.181L55.452 329.009L54.5087 329.952L51.6807 327.123V327.123Z" fill="white"/>
<path d="M73.168 320H80.728V318.278H76.836L78.726 316.43C79.888 315.31 80.658 314.218 80.658 312.888C80.658 311.082 79.398 309.85 77.186 309.85C74.946 309.85 73.546 311.11 73.434 313.42H75.492C75.646 312.104 76.206 311.586 77.088 311.586C77.956 311.586 78.418 312.118 78.418 312.944C78.418 313.854 77.802 314.736 76.836 315.758L73.168 319.636V320ZM85.6808 320.154C88.1168 320.154 89.5588 318.964 89.5588 317.088C89.5588 315.814 88.7748 314.988 87.6128 314.736C88.6068 314.386 89.2648 313.686 89.2648 312.566C89.2648 310.998 87.9768 309.85 85.7788 309.85C83.4968 309.85 82.1948 311.194 82.0828 313.028H84.0848C84.1968 312.09 84.7848 311.516 85.7368 311.516C86.6608 311.516 87.1228 312.048 87.1228 312.762C87.1228 313.616 86.6468 314.092 85.5968 314.092H84.8688V315.604H85.6528C86.7308 315.604 87.2628 316.094 87.2628 317.046C87.2628 317.942 86.7308 318.488 85.5968 318.488C84.3928 318.488 83.8748 317.788 83.7908 316.822H81.7468C81.8308 318.852 83.1328 320.154 85.6808 320.154ZM94.9315 320.154C97.3115 320.154 98.7815 318.768 98.7815 316.71C98.7815 314.694 97.3675 313.462 95.4775 313.462C94.2735 313.462 93.5175 313.966 93.0555 314.708C93.1115 312.65 93.8815 311.558 95.1275 311.558C95.9955 311.558 96.3315 311.964 96.4715 312.622H98.5715C98.3475 310.788 97.0875 309.85 95.0995 309.85C92.6495 309.85 90.8155 311.74 90.8155 315.128V315.38C90.8155 318.11 91.9075 320.154 94.9315 320.154ZM94.9035 318.516C93.8955 318.516 93.1955 317.816 93.1955 316.668C93.1955 315.674 93.8955 314.96 94.9035 314.96C95.9255 314.96 96.5555 315.688 96.5555 316.738C96.5555 317.788 95.8975 318.516 94.9035 318.516ZM103.345 320H105.375V315.772C105.375 314.694 106.033 314.162 106.901 314.162C107.797 314.162 108.189 314.638 108.189 315.632V320H110.219V315.338C110.219 313.378 109.197 312.51 107.755 312.51C106.537 312.51 105.739 313.112 105.375 313.84V312.678H103.345V320ZM115.375 318.614C114.227 318.614 113.583 317.774 113.583 316.374V316.262C113.583 314.862 114.255 314.05 115.375 314.05C116.509 314.05 117.167 314.89 117.167 316.29V316.388C117.167 317.774 116.509 318.614 115.375 318.614ZM115.361 320.154C117.559 320.154 119.225 318.684 119.225 316.374V316.262C119.225 313.98 117.573 312.51 115.375 312.51C113.177 312.51 111.511 314.008 111.511 316.304V316.416C111.511 318.698 113.177 320.154 115.361 320.154ZM123.021 320.154C124.225 320.154 124.967 319.594 125.345 318.852V320H127.361V312.678H125.345V316.976C125.345 318.054 124.673 318.586 123.819 318.586C122.951 318.586 122.545 318.11 122.545 317.116V312.678H120.529V317.396C120.529 319.314 121.593 320.154 123.021 320.154ZM131.132 320H133.414L136.074 312.678H134.114L132.378 317.914L130.628 312.678H128.458L131.132 320ZM140.188 320.154C142.19 320.154 143.45 319.272 143.688 317.69H141.77C141.644 318.306 141.182 318.712 140.244 318.712C139.138 318.712 138.48 318.012 138.424 316.794H143.702V316.234C143.702 313.616 142.022 312.51 140.132 312.51C138.004 312.51 136.366 314.008 136.366 316.318V316.43C136.366 318.768 137.976 320.154 140.188 320.154ZM138.452 315.548C138.606 314.512 139.222 313.91 140.132 313.91C141.098 313.91 141.658 314.442 141.728 315.548H138.452ZM147.073 320.154C148.221 320.154 148.865 319.706 149.285 319.118V320H151.259V315.226C151.259 313.238 149.985 312.51 148.193 312.51C146.401 312.51 145.029 313.28 144.903 315.016H146.821C146.905 314.386 147.269 313.98 148.067 313.98C148.991 313.98 149.257 314.456 149.257 315.324V315.618H148.431C146.191 315.618 144.623 316.262 144.623 317.97C144.623 319.51 145.743 320.154 147.073 320.154ZM147.675 318.74C146.933 318.74 146.611 318.39 146.611 317.858C146.611 317.074 147.297 316.822 148.473 316.822H149.257V317.438C149.257 318.25 148.571 318.74 147.675 318.74ZM155.437 320.154C156.641 320.154 157.383 319.594 157.761 318.852V320H159.777V312.678H157.761V316.976C157.761 318.054 157.089 318.586 156.235 318.586C155.367 318.586 154.961 318.11 154.961 317.116V312.678H152.945V317.396C152.945 319.314 154.009 320.154 155.437 320.154ZM160.916 320H163.002L164.584 317.536L166.124 320H168.462L165.886 316.108L168.224 312.678H166.124L164.78 314.876L163.408 312.678H161.084L163.422 316.262L160.916 320ZM176.034 320.154C178.162 320.154 179.422 318.95 179.534 317.214H177.7C177.602 318.152 176.944 318.628 176.132 318.628C174.998 318.628 174.34 317.872 174.34 316.402V316.29C174.34 314.89 175.04 314.106 176.09 314.106C176.916 314.106 177.434 314.498 177.574 315.352H179.492C179.31 313.252 177.742 312.51 176.048 312.51C173.962 312.51 172.268 313.952 172.268 316.318V316.43C172.268 318.824 173.892 320.154 176.034 320.154ZM182.784 320.154C183.932 320.154 184.576 319.706 184.996 319.118V320H186.97V315.226C186.97 313.238 185.696 312.51 183.904 312.51C182.112 312.51 180.74 313.28 180.614 315.016H182.532C182.616 314.386 182.98 313.98 183.778 313.98C184.702 313.98 184.968 314.456 184.968 315.324V315.618H184.142C181.902 315.618 180.334 316.262 180.334 317.97C180.334 319.51 181.454 320.154 182.784 320.154ZM183.386 318.74C182.644 318.74 182.322 318.39 182.322 317.858C182.322 317.074 183.008 316.822 184.184 316.822H184.968V317.438C184.968 318.25 184.282 318.74 183.386 318.74ZM188.712 320H190.742V315.772C190.742 314.694 191.4 314.162 192.268 314.162C193.164 314.162 193.556 314.638 193.556 315.632V320H195.586V315.338C195.586 313.378 194.564 312.51 193.122 312.51C191.904 312.51 191.106 313.112 190.742 313.84V312.678H188.712V320ZM200.07 320.154C201.148 320.154 202.044 319.524 202.422 318.782V320H204.438V309.36H202.422V313.77C202.016 313.028 201.288 312.51 200.112 312.51C198.278 312.51 196.892 313.924 196.892 316.332V316.444C196.892 318.88 198.292 320.154 200.07 320.154ZM200.672 318.572C199.664 318.572 198.964 317.858 198.964 316.402V316.29C198.964 314.834 199.594 314.064 200.728 314.064C201.834 314.064 202.478 314.806 202.478 316.262V316.374C202.478 317.858 201.736 318.572 200.672 318.572ZM206.296 320H208.312V312.678H206.296V320ZM207.29 311.684C207.948 311.684 208.452 311.208 208.452 310.578C208.452 309.948 207.948 309.472 207.29 309.472C206.646 309.472 206.142 309.948 206.142 310.578C206.142 311.208 206.646 311.684 207.29 311.684ZM212.921 320.154C213.999 320.154 214.895 319.524 215.273 318.782V320H217.289V309.36H215.273V313.77C214.867 313.028 214.139 312.51 212.963 312.51C211.129 312.51 209.743 313.924 209.743 316.332V316.444C209.743 318.88 211.143 320.154 212.921 320.154ZM213.523 318.572C212.515 318.572 211.815 317.858 211.815 316.402V316.29C211.815 314.834 212.445 314.064 213.579 314.064C214.685 314.064 215.329 314.806 215.329 316.262V316.374C215.329 317.858 214.587 318.572 213.523 318.572ZM221.065 320.154C222.213 320.154 222.857 319.706 223.277 319.118V320H225.251V315.226C225.251 313.238 223.977 312.51 222.185 312.51C220.393 312.51 219.021 313.28 218.895 315.016H220.813C220.897 314.386 221.261 313.98 222.059 313.98C222.983 313.98 223.249 314.456 223.249 315.324V315.618H222.423C220.183 315.618 218.615 316.262 218.615 317.97C218.615 319.51 219.735 320.154 221.065 320.154ZM221.667 318.74C220.925 318.74 220.603 318.39 220.603 317.858C220.603 317.074 221.289 316.822 222.465 316.822H223.249V317.438C223.249 318.25 222.563 318.74 221.667 318.74ZM229.668 320.14C230.214 320.14 230.62 320.042 230.9 319.944V318.376C230.662 318.474 230.438 318.516 230.13 318.516C229.612 318.516 229.318 318.236 229.318 317.648V314.12H230.858V312.678H229.318V311.096H227.302V312.678H226.364V314.12H227.302V317.83C227.302 319.356 228.128 320.14 229.668 320.14ZM234.999 320.154C236.931 320.154 238.079 319.328 238.079 317.746C238.079 316.178 237.071 315.716 235.237 315.45C234.173 315.296 233.823 315.114 233.823 314.652C233.823 314.204 234.201 313.896 234.859 313.896C235.559 313.896 235.895 314.176 236.007 314.778H237.869C237.687 313.098 236.469 312.51 234.845 312.51C233.347 312.51 231.947 313.266 231.947 314.792C231.947 316.22 232.703 316.78 234.649 317.074C235.699 317.228 236.133 317.438 236.133 317.942C236.133 318.446 235.769 318.74 234.985 318.74C234.103 318.74 233.781 318.362 233.697 317.704H231.807C231.877 319.286 233.025 320.154 234.999 320.154ZM245.214 320.154C246.292 320.154 247.188 319.524 247.566 318.782V320H249.582V309.36H247.566V313.77C247.16 313.028 246.432 312.51 245.256 312.51C243.422 312.51 242.036 313.924 242.036 316.332V316.444C242.036 318.88 243.436 320.154 245.214 320.154ZM245.816 318.572C244.808 318.572 244.108 317.858 244.108 316.402V316.29C244.108 314.834 244.738 314.064 245.872 314.064C246.978 314.064 247.622 314.806 247.622 316.262V316.374C247.622 317.858 246.88 318.572 245.816 318.572ZM253.358 320.154C254.506 320.154 255.15 319.706 255.57 319.118V320H257.544V315.226C257.544 313.238 256.27 312.51 254.478 312.51C252.686 312.51 251.314 313.28 251.188 315.016H253.106C253.19 314.386 253.554 313.98 254.352 313.98C255.276 313.98 255.542 314.456 255.542 315.324V315.618H254.716C252.476 315.618 250.908 316.262 250.908 317.97C250.908 319.51 252.028 320.154 253.358 320.154ZM253.96 318.74C253.218 318.74 252.896 318.39 252.896 317.858C252.896 317.074 253.582 316.822 254.758 316.822H255.542V317.438C255.542 318.25 254.856 318.74 253.96 318.74ZM259.287 320H261.317V315.772C261.317 314.694 261.975 314.162 262.843 314.162C263.739 314.162 264.131 314.638 264.131 315.632V320H266.161V315.338C266.161 313.378 265.139 312.51 263.697 312.51C262.479 312.51 261.681 313.112 261.317 313.84V312.678H259.287V320ZM270.56 320.154C272.492 320.154 273.64 319.328 273.64 317.746C273.64 316.178 272.632 315.716 270.798 315.45C269.734 315.296 269.384 315.114 269.384 314.652C269.384 314.204 269.762 313.896 270.42 313.896C271.12 313.896 271.456 314.176 271.568 314.778H273.43C273.248 313.098 272.03 312.51 270.406 312.51C268.908 312.51 267.508 313.266 267.508 314.792C267.508 316.22 268.264 316.78 270.21 317.074C271.26 317.228 271.694 317.438 271.694 317.942C271.694 318.446 271.33 318.74 270.546 318.74C269.664 318.74 269.342 318.362 269.258 317.704H267.368C267.438 319.286 268.586 320.154 270.56 320.154ZM278.087 320H280.103V309.36H278.087V320ZM283.929 320.154C285.077 320.154 285.721 319.706 286.141 319.118V320H288.115V315.226C288.115 313.238 286.841 312.51 285.049 312.51C283.257 312.51 281.885 313.28 281.759 315.016H283.677C283.761 314.386 284.125 313.98 284.923 313.98C285.847 313.98 286.113 314.456 286.113 315.324V315.618H285.287C283.047 315.618 281.479 316.262 281.479 317.97C281.479 319.51 282.599 320.154 283.929 320.154ZM284.531 318.74C283.789 318.74 283.467 318.39 283.467 317.858C283.467 317.074 284.153 316.822 285.329 316.822H286.113V317.438C286.113 318.25 285.427 318.74 284.531 318.74ZM295.62 320.154C297.552 320.154 298.7 319.328 298.7 317.746C298.7 316.178 297.692 315.716 295.858 315.45C294.794 315.296 294.444 315.114 294.444 314.652C294.444 314.204 294.822 313.896 295.48 313.896C296.18 313.896 296.516 314.176 296.628 314.778H298.49C298.308 313.098 297.09 312.51 295.466 312.51C293.968 312.51 292.568 313.266 292.568 314.792C292.568 316.22 293.324 316.78 295.27 317.074C296.32 317.228 296.754 317.438 296.754 317.942C296.754 318.446 296.39 318.74 295.606 318.74C294.724 318.74 294.402 318.362 294.318 317.704H292.428C292.498 319.286 293.646 320.154 295.62 320.154ZM303.362 320.154C305.364 320.154 306.624 319.272 306.862 317.69H304.944C304.818 318.306 304.356 318.712 303.418 318.712C302.312 318.712 301.654 318.012 301.598 316.794H306.876V316.234C306.876 313.616 305.196 312.51 303.306 312.51C301.178 312.51 299.54 314.008 299.54 316.318V316.43C299.54 318.768 301.15 320.154 303.362 320.154ZM301.626 315.548C301.78 314.512 302.396 313.91 303.306 313.91C304.272 313.91 304.832 314.442 304.902 315.548H301.626ZM311.523 320.154C313.651 320.154 314.911 318.95 315.023 317.214H313.189C313.091 318.152 312.433 318.628 311.621 318.628C310.487 318.628 309.829 317.872 309.829 316.402V316.29C309.829 314.89 310.529 314.106 311.579 314.106C312.405 314.106 312.923 314.498 313.063 315.352H314.981C314.799 313.252 313.231 312.51 311.537 312.51C309.451 312.51 307.757 313.952 307.757 316.318V316.43C307.757 318.824 309.381 320.154 311.523 320.154ZM318.972 320.14C319.518 320.14 319.924 320.042 320.204 319.944V318.376C319.966 318.474 319.742 318.516 319.434 318.516C318.916 318.516 318.622 318.236 318.622 317.648V314.12H320.162V312.678H318.622V311.096H316.606V312.678H315.668V314.12H316.606V317.83C316.606 319.356 317.432 320.14 318.972 320.14ZM321.632 320H323.648V312.678H321.632V320ZM322.626 311.684C323.284 311.684 323.788 311.208 323.788 310.578C323.788 309.948 323.284 309.472 322.626 309.472C321.982 309.472 321.478 309.948 321.478 310.578C321.478 311.208 321.982 311.684 322.626 311.684ZM328.929 318.614C327.781 318.614 327.137 317.774 327.137 316.374V316.262C327.137 314.862 327.809 314.05 328.929 314.05C330.063 314.05 330.721 314.89 330.721 316.29V316.388C330.721 317.774 330.063 318.614 328.929 318.614ZM328.915 320.154C331.113 320.154 332.779 318.684 332.779 316.374V316.262C332.779 313.98 331.127 312.51 328.929 312.51C326.731 312.51 325.065 314.008 325.065 316.304V316.416C325.065 318.698 326.731 320.154 328.915 320.154ZM334.14 320H336.17V315.772C336.17 314.694 336.828 314.162 337.696 314.162C338.592 314.162 338.984 314.638 338.984 315.632V320H341.014V315.338C341.014 313.378 339.992 312.51 338.55 312.51C337.332 312.51 336.534 313.112 336.17 313.84V312.678H334.14V320ZM348.307 318.236V311.754H349.203C351.317 311.754 352.199 312.86 352.199 314.918V315.03C352.199 317.102 351.247 318.236 349.231 318.236H348.307ZM346.039 320H349.301C352.815 320 354.565 317.998 354.565 315.002V314.89C354.565 311.894 352.829 309.99 349.315 309.99H346.039V320ZM356.071 320H358.087V312.678H356.071V320ZM357.065 311.684C357.723 311.684 358.227 311.208 358.227 310.578C358.227 309.948 357.723 309.472 357.065 309.472C356.421 309.472 355.917 309.948 355.917 310.578C355.917 311.208 356.421 311.684 357.065 311.684ZM362.613 320.154C364.545 320.154 365.693 319.328 365.693 317.746C365.693 316.178 364.685 315.716 362.851 315.45C361.787 315.296 361.437 315.114 361.437 314.652C361.437 314.204 361.815 313.896 362.473 313.896C363.173 313.896 363.509 314.176 363.621 314.778H365.483C365.301 313.098 364.083 312.51 362.459 312.51C360.961 312.51 359.561 313.266 359.561 314.792C359.561 316.22 360.317 316.78 362.263 317.074C363.313 317.228 363.747 317.438 363.747 317.942C363.747 318.446 363.383 318.74 362.599 318.74C361.717 318.74 361.395 318.362 361.311 317.704H359.421C359.491 319.286 360.639 320.154 362.613 320.154ZM370.298 320.154C372.426 320.154 373.686 318.95 373.798 317.214H371.964C371.866 318.152 371.208 318.628 370.396 318.628C369.262 318.628 368.604 317.872 368.604 316.402V316.29C368.604 314.89 369.304 314.106 370.354 314.106C371.18 314.106 371.698 314.498 371.838 315.352H373.756C373.574 313.252 372.006 312.51 370.312 312.51C368.226 312.51 366.532 313.952 366.532 316.318V316.43C366.532 318.824 368.156 320.154 370.298 320.154ZM378.49 318.614C377.342 318.614 376.698 317.774 376.698 316.374V316.262C376.698 314.862 377.37 314.05 378.49 314.05C379.624 314.05 380.282 314.89 380.282 316.29V316.388C380.282 317.774 379.624 318.614 378.49 318.614ZM378.476 320.154C380.674 320.154 382.34 318.684 382.34 316.374V316.262C382.34 313.98 380.688 312.51 378.49 312.51C376.292 312.51 374.626 314.008 374.626 316.304V316.416C374.626 318.698 376.292 320.154 378.476 320.154ZM385.401 320H387.683L390.343 312.678H388.383L386.647 317.914L384.897 312.678H382.727L385.401 320ZM394.458 320.154C396.46 320.154 397.72 319.272 397.958 317.69H396.04C395.914 318.306 395.452 318.712 394.514 318.712C393.408 318.712 392.75 318.012 392.694 316.794H397.972V316.234C397.972 313.616 396.292 312.51 394.402 312.51C392.274 312.51 390.636 314.008 390.636 316.318V316.43C390.636 318.768 392.245 320.154 394.458 320.154ZM392.722 315.548C392.876 314.512 393.492 313.91 394.402 313.91C395.368 313.91 395.928 314.442 395.998 315.548H392.722ZM399.3 320H401.33V316.332C401.33 314.932 402.198 314.442 403.696 314.456V312.566C402.506 312.58 401.792 313.098 401.33 314.078V312.678H399.3V320ZM411.45 320.154C413.578 320.154 414.838 318.95 414.95 317.214H413.116C413.018 318.152 412.36 318.628 411.548 318.628C410.414 318.628 409.756 317.872 409.756 316.402V316.29C409.756 314.89 410.456 314.106 411.506 314.106C412.332 314.106 412.85 314.498 412.99 315.352H414.908C414.726 313.252 413.158 312.51 411.464 312.51C409.378 312.51 407.684 313.952 407.684 316.318V316.43C407.684 318.824 409.308 320.154 411.45 320.154ZM419.6 320.154C421.602 320.154 422.862 319.272 423.1 317.69H421.182C421.056 318.306 420.594 318.712 419.656 318.712C418.55 318.712 417.892 318.012 417.836 316.794H423.114V316.234C423.114 313.616 421.434 312.51 419.544 312.51C417.416 312.51 415.778 314.008 415.778 316.318V316.43C415.778 318.768 417.388 320.154 419.6 320.154ZM417.864 315.548C418.018 314.512 418.634 313.91 419.544 313.91C420.51 313.91 421.07 314.442 421.14 315.548H417.864ZM427.117 320.14C427.663 320.14 428.069 320.042 428.349 319.944V318.376C428.111 318.474 427.887 318.516 427.579 318.516C427.061 318.516 426.767 318.236 426.767 317.648V314.12H428.307V312.678H426.767V311.096H424.751V312.678H423.813V314.12H424.751V317.83C424.751 319.356 425.577 320.14 427.117 320.14ZM432.394 320.14C432.94 320.14 433.346 320.042 433.626 319.944V318.376C433.388 318.474 433.164 318.516 432.856 318.516C432.338 318.516 432.044 318.236 432.044 317.648V314.12H433.584V312.678H432.044V311.096H430.028V312.678H429.09V314.12H430.028V317.83C430.028 319.356 430.854 320.14 432.394 320.14ZM438.372 320.154C440.374 320.154 441.634 319.272 441.872 317.69H439.954C439.828 318.306 439.366 318.712 438.428 318.712C437.322 318.712 436.664 318.012 436.608 316.794H441.886V316.234C441.886 313.616 440.206 312.51 438.316 312.51C436.188 312.51 434.55 314.008 434.55 316.318V316.43C434.55 318.768 436.16 320.154 438.372 320.154ZM436.636 315.548C436.79 314.512 437.406 313.91 438.316 313.91C439.282 313.91 439.842 314.442 439.912 315.548H436.636ZM448.978 320.154C450.91 320.154 452.058 319.328 452.058 317.746C452.058 316.178 451.05 315.716 449.216 315.45C448.152 315.296 447.802 315.114 447.802 314.652C447.802 314.204 448.18 313.896 448.838 313.896C449.538 313.896 449.874 314.176 449.986 314.778H451.848C451.666 313.098 450.448 312.51 448.824 312.51C447.326 312.51 445.926 313.266 445.926 314.792C445.926 316.22 446.682 316.78 448.628 317.074C449.678 317.228 450.112 317.438 450.112 317.942C450.112 318.446 449.748 318.74 448.964 318.74C448.082 318.74 447.76 318.362 447.676 317.704H445.786C445.856 319.286 447.004 320.154 448.978 320.154ZM456.719 320.154C458.721 320.154 459.981 319.272 460.219 317.69H458.301C458.175 318.306 457.713 318.712 456.775 318.712C455.669 318.712 455.011 318.012 454.955 316.794H460.233V316.234C460.233 313.616 458.553 312.51 456.663 312.51C454.535 312.51 452.897 314.008 452.897 316.318V316.43C452.897 318.768 454.507 320.154 456.719 320.154ZM454.983 315.548C455.137 314.512 455.753 313.91 456.663 313.91C457.629 313.91 458.189 314.442 458.259 315.548H454.983ZM461.562 320H463.592V315.674C463.592 314.68 464.222 314.176 465.006 314.176C465.72 314.176 466.154 314.596 466.154 315.534V320H468.17V315.674C468.17 314.68 468.8 314.176 469.584 314.176C470.312 314.176 470.732 314.596 470.732 315.534V320H472.748V315.31C472.748 313.364 471.698 312.51 470.34 312.51C469.416 312.51 468.464 312.902 467.876 313.784C467.526 312.916 466.798 312.51 465.832 312.51C464.74 312.51 463.956 313.112 463.592 313.798V312.678H461.562V320ZM476.456 320.154C477.604 320.154 478.248 319.706 478.668 319.118V320H480.642V315.226C480.642 313.238 479.368 312.51 477.576 312.51C475.784 312.51 474.412 313.28 474.286 315.016H476.204C476.288 314.386 476.652 313.98 477.45 313.98C478.374 313.98 478.64 314.456 478.64 315.324V315.618H477.814C475.574 315.618 474.006 316.262 474.006 317.97C474.006 319.51 475.126 320.154 476.456 320.154ZM477.058 318.74C476.316 318.74 475.994 318.39 475.994 317.858C475.994 317.074 476.68 316.822 477.856 316.822H478.64V317.438C478.64 318.25 477.954 318.74 477.058 318.74ZM482.44 320H484.456V312.678H482.44V320ZM483.434 311.684C484.092 311.684 484.596 311.208 484.596 310.578C484.596 309.948 484.092 309.472 483.434 309.472C482.79 309.472 482.286 309.948 482.286 310.578C482.286 311.208 482.79 311.684 483.434 311.684ZM486.322 320H488.352V315.772C488.352 314.694 489.01 314.162 489.878 314.162C490.774 314.162 491.166 314.638 491.166 315.632V320H493.196V315.338C493.196 313.378 492.174 312.51 490.732 312.51C489.514 312.51 488.716 313.112 488.352 313.84V312.678H486.322V320ZM498.309 320.154C500.311 320.154 501.571 319.272 501.809 317.69H499.891C499.765 318.306 499.303 318.712 498.365 318.712C497.259 318.712 496.601 318.012 496.545 316.794H501.823V316.234C501.823 313.616 500.143 312.51 498.253 312.51C496.125 312.51 494.487 314.008 494.487 316.318V316.43C494.487 318.768 496.097 320.154 498.309 320.154ZM496.573 315.548C496.727 314.512 497.343 313.91 498.253 313.91C499.219 313.91 499.779 314.442 499.849 315.548H496.573Z" fill="#F66F81"/>
<path d="M77.668 339.108C79.588 339.108 80.956 338.136 81.256 336.156H80.284C80.068 337.548 79.096 338.256 77.692 338.256C75.844 338.256 74.74 336.936 74.74 334.752V334.656C74.74 332.496 75.928 331.116 77.704 331.116C79.168 331.116 79.924 331.788 80.14 333.096H81.172C80.992 331.236 79.48 330.288 77.692 330.288C75.364 330.288 73.66 332.124 73.66 334.668V334.764C73.66 337.404 75.184 339.108 77.668 339.108ZM85.3416 339.108C86.7576 339.108 87.8016 338.448 88.0176 337.188H87.0216C86.8896 337.92 86.3256 338.28 85.3536 338.28C84.0696 338.28 83.3856 337.488 83.3376 336.06H88.0656V335.736C88.0656 333.492 86.6976 332.616 85.2456 332.616C83.5176 332.616 82.3056 333.936 82.3056 335.832V335.928C82.3056 337.86 83.5656 339.108 85.3416 339.108ZM83.3736 335.256C83.5416 334.14 84.2256 333.444 85.2456 333.444C86.2776 333.444 86.9496 333.96 87.0456 335.256H83.3736ZM91.5965 339.108C93.1205 339.108 93.9005 338.34 93.9005 337.2C93.9005 335.868 92.9885 335.58 91.6925 335.34C90.5405 335.136 90.2285 334.908 90.2285 334.344C90.2285 333.804 90.6965 333.444 91.4165 333.444C92.2085 333.444 92.5925 333.744 92.7365 334.428H93.6965C93.5285 333.072 92.5565 332.616 91.4285 332.616C90.4445 332.616 89.3045 333.216 89.3045 334.38C89.3045 335.472 89.8565 335.928 91.4885 336.228C92.4605 336.408 92.9525 336.624 92.9525 337.284C92.9525 337.956 92.5325 338.28 91.5845 338.28C90.5765 338.28 90.1805 337.812 90.1085 337.068H89.1365C89.1965 338.352 90.0965 339.108 91.5965 339.108ZM101.198 339.108C102.71 339.108 103.802 338.1 103.934 336.744H103.01C102.902 337.764 102.098 338.28 101.21 338.28C99.9979 338.28 99.1579 337.464 99.1579 335.928V335.832C99.1579 334.356 100.034 333.444 101.174 333.444C102.038 333.444 102.758 333.816 102.914 334.812H103.898C103.706 333.216 102.482 332.616 101.174 332.616C99.4939 332.616 98.1259 333.912 98.1259 335.832V335.928C98.1259 337.872 99.4459 339.108 101.198 339.108ZM107.01 339.108C107.934 339.108 108.498 338.796 108.966 338.208V339H109.962V334.86C109.962 333.108 108.87 332.616 107.67 332.616C106.458 332.616 105.318 333.144 105.186 334.572H106.182C106.278 333.804 106.758 333.444 107.622 333.444C108.582 333.444 108.966 333.864 108.966 334.86V335.316H108.066C106.458 335.316 104.922 335.808 104.922 337.26C104.922 338.544 105.846 339.108 107.01 339.108ZM107.106 338.316C106.23 338.316 105.918 337.908 105.918 337.26C105.918 336.336 106.842 336.024 108.102 336.024H108.966V336.804C108.966 337.776 108.162 338.316 107.106 338.316ZM111.918 339H112.914V335.196C112.914 334.068 113.742 333.48 114.666 333.48C115.674 333.48 116.142 333.972 116.142 335.076V339H117.138V335.148C117.138 333.324 116.226 332.616 114.93 332.616C113.898 332.616 113.202 333.132 112.914 333.72V332.724H111.918V339ZM121.454 339.108C122.366 339.108 123.242 338.532 123.602 337.92V339H124.598V329.724H123.602V333.732C123.242 333.12 122.594 332.616 121.55 332.616C119.822 332.616 118.622 333.972 118.622 335.892V335.988C118.622 337.944 119.81 339.108 121.454 339.108ZM121.562 338.28C120.506 338.28 119.654 337.524 119.654 335.94V335.844C119.654 334.32 120.398 333.444 121.646 333.444C122.87 333.444 123.638 334.2 123.638 335.808V335.904C123.638 337.512 122.726 338.28 121.562 338.28ZM126.637 339H127.633V332.724H126.637V339ZM127.117 331.416C127.477 331.416 127.777 331.116 127.777 330.756C127.777 330.396 127.477 330.096 127.117 330.096C126.757 330.096 126.457 330.396 126.457 330.756C126.457 331.116 126.757 331.416 127.117 331.416ZM132.036 339.108C132.948 339.108 133.824 338.532 134.184 337.92V339H135.18V329.724H134.184V333.732C133.824 333.12 133.176 332.616 132.132 332.616C130.404 332.616 129.204 333.972 129.204 335.892V335.988C129.204 337.944 130.392 339.108 132.036 339.108ZM132.144 338.28C131.088 338.28 130.236 337.524 130.236 335.94V335.844C130.236 334.32 130.98 333.444 132.228 333.444C133.452 333.444 134.22 334.2 134.22 335.808V335.904C134.22 337.512 133.308 338.28 132.144 338.28ZM138.768 339.108C139.692 339.108 140.256 338.796 140.724 338.208V339H141.72V334.86C141.72 333.108 140.628 332.616 139.428 332.616C138.216 332.616 137.076 333.144 136.944 334.572H137.94C138.036 333.804 138.516 333.444 139.38 333.444C140.34 333.444 140.724 333.864 140.724 334.86V335.316H139.824C138.216 335.316 136.68 335.808 136.68 337.26C136.68 338.544 137.604 339.108 138.768 339.108ZM138.864 338.316C137.988 338.316 137.676 337.908 137.676 337.26C137.676 336.336 138.6 336.024 139.86 336.024H140.724V336.804C140.724 337.776 139.92 338.316 138.864 338.316ZM145.584 339.084C145.992 339.084 146.232 339.024 146.436 338.952V338.112C146.22 338.196 145.98 338.244 145.668 338.244C145.164 338.244 144.888 337.944 144.888 337.332V333.564H146.352V332.724H144.888V331.296H143.892V332.724H142.992V333.564H143.892V337.428C143.892 338.412 144.444 339.084 145.584 339.084ZM149.886 339.108C151.41 339.108 152.19 338.34 152.19 337.2C152.19 335.868 151.278 335.58 149.982 335.34C148.83 335.136 148.518 334.908 148.518 334.344C148.518 333.804 148.986 333.444 149.706 333.444C150.498 333.444 150.882 333.744 151.026 334.428H151.986C151.818 333.072 150.846 332.616 149.718 332.616C148.734 332.616 147.594 333.216 147.594 334.38C147.594 335.472 148.146 335.928 149.778 336.228C150.75 336.408 151.242 336.624 151.242 337.284C151.242 337.956 150.822 338.28 149.874 338.28C148.866 338.28 148.47 337.812 148.398 337.068H147.426C147.486 338.352 148.386 339.108 149.886 339.108ZM158.827 339.108C160.351 339.108 161.131 338.34 161.131 337.2C161.131 335.868 160.219 335.58 158.923 335.34C157.771 335.136 157.459 334.908 157.459 334.344C157.459 333.804 157.927 333.444 158.647 333.444C159.439 333.444 159.823 333.744 159.967 334.428H160.927C160.759 333.072 159.787 332.616 158.659 332.616C157.675 332.616 156.535 333.216 156.535 334.38C156.535 335.472 157.087 335.928 158.719 336.228C159.691 336.408 160.183 336.624 160.183 337.284C160.183 337.956 159.763 338.28 158.815 338.28C157.807 338.28 157.411 337.812 157.339 337.068H156.367C156.427 338.352 157.327 339.108 158.827 339.108ZM165.265 338.28C163.993 338.28 163.213 337.344 163.213 335.916V335.82C163.213 334.38 164.005 333.444 165.265 333.444C166.513 333.444 167.317 334.38 167.317 335.832V335.916C167.317 337.332 166.525 338.28 165.265 338.28ZM165.253 339.108C167.041 339.108 168.349 337.8 168.349 335.904V335.808C168.349 333.924 167.041 332.616 165.265 332.616C163.489 332.616 162.181 333.936 162.181 335.82V335.916C162.181 337.752 163.465 339.108 165.253 339.108ZM169.891 339H170.887V335.196C170.887 334.068 171.715 333.48 172.639 333.48C173.647 333.48 174.115 333.972 174.115 335.076V339H175.111V335.148C175.111 333.324 174.199 332.616 172.903 332.616C171.871 332.616 171.175 333.132 170.887 333.72V332.724H169.891V339ZM178.971 339.084C179.379 339.084 179.619 339.024 179.823 338.952V338.112C179.607 338.196 179.367 338.244 179.055 338.244C178.551 338.244 178.275 337.944 178.275 337.332V333.564H179.739V332.724H178.275V331.296H177.279V332.724H176.379V333.564H177.279V337.428C177.279 338.412 177.831 339.084 178.971 339.084ZM186.412 339.084C186.82 339.084 187.06 339.024 187.264 338.952V338.112C187.048 338.196 186.808 338.244 186.496 338.244C185.992 338.244 185.716 337.944 185.716 337.332V333.564H187.18V332.724H185.716V331.296H184.72V332.724H183.82V333.564H184.72V337.428C184.72 338.412 185.272 339.084 186.412 339.084ZM191.386 338.28C190.114 338.28 189.334 337.344 189.334 335.916V335.82C189.334 334.38 190.126 333.444 191.386 333.444C192.634 333.444 193.438 334.38 193.438 335.832V335.916C193.438 337.332 192.646 338.28 191.386 338.28ZM191.374 339.108C193.162 339.108 194.47 337.8 194.47 335.904V335.808C194.47 333.924 193.162 332.616 191.386 332.616C189.61 332.616 188.302 333.936 188.302 335.82V335.916C188.302 337.752 189.586 339.108 191.374 339.108ZM198.136 339.108C199.144 339.108 199.84 338.592 200.128 338.004V339H201.124V332.724H200.128V336.528C200.128 337.656 199.288 338.244 198.4 338.244C197.416 338.244 196.948 337.752 196.948 336.648V332.724H195.952V336.696C195.952 338.424 196.888 339.108 198.136 339.108ZM205.081 339.108C206.605 339.108 207.385 338.34 207.385 337.2C207.385 335.868 206.473 335.58 205.177 335.34C204.025 335.136 203.713 334.908 203.713 334.344C203.713 333.804 204.181 333.444 204.901 333.444C205.693 333.444 206.077 333.744 206.221 334.428H207.181C207.013 333.072 206.041 332.616 204.913 332.616C203.929 332.616 202.789 333.216 202.789 334.38C202.789 335.472 203.341 335.928 204.973 336.228C205.945 336.408 206.437 336.624 206.437 337.284C206.437 337.956 206.017 338.28 205.069 338.28C204.061 338.28 203.665 337.812 203.593 337.068H202.621C202.681 338.352 203.581 339.108 205.081 339.108ZM214.694 338.28C213.422 338.28 212.642 337.344 212.642 335.916V335.82C212.642 334.38 213.434 333.444 214.694 333.444C215.942 333.444 216.746 334.38 216.746 335.832V335.916C216.746 337.332 215.954 338.28 214.694 338.28ZM214.682 339.108C216.47 339.108 217.778 337.8 217.778 335.904V335.808C217.778 333.924 216.47 332.616 214.694 332.616C212.918 332.616 211.61 333.936 211.61 335.82V335.916C211.61 337.752 212.894 339.108 214.682 339.108ZM221.445 339.108C222.453 339.108 223.149 338.592 223.437 338.004V339H224.433V332.724H223.437V336.528C223.437 337.656 222.597 338.244 221.709 338.244C220.725 338.244 220.257 337.752 220.257 336.648V332.724H219.261V336.696C219.261 338.424 220.197 339.108 221.445 339.108ZM228.018 339H229.29L231.546 332.724H230.514L228.678 337.992L226.818 332.724H225.738L228.018 339ZM235.248 339.108C236.664 339.108 237.708 338.448 237.924 337.188H236.928C236.796 337.92 236.232 338.28 235.26 338.28C233.976 338.28 233.292 337.488 233.244 336.06H237.972V335.736C237.972 333.492 236.604 332.616 235.152 332.616C233.424 332.616 232.212 333.936 232.212 335.832V335.928C232.212 337.86 233.472 339.108 235.248 339.108ZM233.28 335.256C233.448 334.14 234.132 333.444 235.152 333.444C236.184 333.444 236.856 333.96 236.952 335.256H233.28ZM239.5 339H240.496V335.556C240.496 334.008 241.3 333.612 242.56 333.552V332.616C241.432 332.652 240.892 333.144 240.496 333.852V332.724H239.5V339ZM245.979 339.084C246.387 339.084 246.627 339.024 246.831 338.952V338.112C246.615 338.196 246.375 338.244 246.062 338.244C245.559 338.244 245.283 337.944 245.283 337.332V333.564H246.747V332.724H245.283V331.296H244.287V332.724H243.387V333.564H244.287V337.428C244.287 338.412 244.839 339.084 245.979 339.084ZM250.28 339.108C251.804 339.108 252.584 338.34 252.584 337.2C252.584 335.868 251.672 335.58 250.376 335.34C249.224 335.136 248.912 334.908 248.912 334.344C248.912 333.804 249.38 333.444 250.1 333.444C250.892 333.444 251.276 333.744 251.42 334.428H252.38C252.212 333.072 251.24 332.616 250.112 332.616C249.128 332.616 247.988 333.216 247.988 334.38C247.988 335.472 248.54 335.928 250.172 336.228C251.144 336.408 251.636 336.624 251.636 337.284C251.636 337.956 251.216 338.28 250.268 338.28C249.26 338.28 248.864 337.812 248.792 337.068H247.82C247.88 338.352 248.78 339.108 250.28 339.108ZM258.85 339.108C259.774 339.108 260.338 338.796 260.806 338.208V339H261.802V334.86C261.802 333.108 260.71 332.616 259.51 332.616C258.298 332.616 257.158 333.144 257.026 334.572H258.022C258.118 333.804 258.598 333.444 259.462 333.444C260.422 333.444 260.806 333.864 260.806 334.86V335.316H259.906C258.298 335.316 256.762 335.808 256.762 337.26C256.762 338.544 257.686 339.108 258.85 339.108ZM258.946 338.316C258.07 338.316 257.758 337.908 257.758 337.26C257.758 336.336 258.682 336.024 259.942 336.024H260.806V336.804C260.806 337.776 260.002 338.316 258.946 338.316ZM265.882 339.108C266.89 339.108 267.586 338.592 267.874 338.004V339H268.87V332.724H267.874V336.528C267.874 337.656 267.034 338.244 266.146 338.244C265.162 338.244 264.694 337.752 264.694 336.648V332.724H263.698V336.696C263.698 338.424 264.634 339.108 265.882 339.108ZM270.211 339H271.279L273.007 336.468L274.699 339H275.875L273.583 335.7L275.659 332.724H274.579L273.055 335.004L271.519 332.724H270.355L272.455 335.772L270.211 339ZM283.015 338.28C281.743 338.28 280.963 337.344 280.963 335.916V335.82C280.963 334.38 281.755 333.444 283.015 333.444C284.263 333.444 285.067 334.38 285.067 335.832V335.916C285.067 337.332 284.275 338.28 283.015 338.28ZM283.003 339.108C284.791 339.108 286.099 337.8 286.099 335.904V335.808C286.099 333.924 284.791 332.616 283.015 332.616C281.239 332.616 279.931 333.936 279.931 335.82V335.916C279.931 337.752 281.215 339.108 283.003 339.108ZM287.641 341.184H288.637V337.968C288.997 338.592 289.729 339.108 290.761 339.108C292.489 339.108 293.617 337.788 293.617 335.868V335.772C293.617 333.816 292.405 332.616 290.761 332.616C289.849 332.616 288.997 333.168 288.637 333.78V332.724H287.641V341.184ZM290.665 338.28C289.441 338.28 288.601 337.524 288.601 335.916V335.82C288.601 334.212 289.489 333.444 290.653 333.444C291.709 333.444 292.585 334.236 292.585 335.82V335.916C292.585 337.44 291.913 338.28 290.665 338.28ZM295.164 341.184H296.16V337.968C296.52 338.592 297.252 339.108 298.284 339.108C300.012 339.108 301.14 337.788 301.14 335.868V335.772C301.14 333.816 299.928 332.616 298.284 332.616C297.372 332.616 296.52 333.168 296.16 333.78V332.724H295.164V341.184ZM298.188 338.28C296.964 338.28 296.124 337.524 296.124 335.916V335.82C296.124 334.212 297.012 333.444 298.176 333.444C299.232 333.444 300.108 334.236 300.108 335.82V335.916C300.108 337.44 299.436 338.28 298.188 338.28ZM305.304 338.28C304.032 338.28 303.252 337.344 303.252 335.916V335.82C303.252 334.38 304.044 333.444 305.304 333.444C306.552 333.444 307.356 334.38 307.356 335.832V335.916C307.356 337.332 306.564 338.28 305.304 338.28ZM305.292 339.108C307.08 339.108 308.388 337.8 308.388 335.904V335.808C308.388 333.924 307.08 332.616 305.304 332.616C303.528 332.616 302.22 333.936 302.22 335.82V335.916C302.22 337.752 303.504 339.108 305.292 339.108ZM309.93 339H310.926V335.556C310.926 334.008 311.73 333.612 312.99 333.552V332.616C311.862 332.652 311.322 333.144 310.926 333.852V332.724H309.93V339ZM316.408 339.084C316.816 339.084 317.056 339.024 317.26 338.952V338.112C317.044 338.196 316.804 338.244 316.492 338.244C315.988 338.244 315.712 337.944 315.712 337.332V333.564H317.176V332.724H315.712V331.296H314.716V332.724H313.816V333.564H314.716V337.428C314.716 338.412 315.268 339.084 316.408 339.084ZM320.89 339.108C321.898 339.108 322.594 338.592 322.882 338.004V339H323.878V332.724H322.882V336.528C322.882 337.656 322.042 338.244 321.154 338.244C320.17 338.244 319.702 337.752 319.702 336.648V332.724H318.706V336.696C318.706 338.424 319.642 339.108 320.89 339.108ZM325.891 339H326.887V335.196C326.887 334.068 327.715 333.48 328.639 333.48C329.647 333.48 330.115 333.972 330.115 335.076V339H331.111V335.148C331.111 333.324 330.199 332.616 328.903 332.616C327.871 332.616 327.175 333.132 326.887 333.72V332.724H325.891V339ZM333.087 339H334.083V332.724H333.087V339ZM333.567 331.416C333.927 331.416 334.227 331.116 334.227 330.756C334.227 330.396 333.927 330.096 333.567 330.096C333.207 330.096 332.907 330.396 332.907 330.756C332.907 331.116 333.207 331.416 333.567 331.416ZM338.029 339.084C338.437 339.084 338.677 339.024 338.881 338.952V338.112C338.665 338.196 338.425 338.244 338.113 338.244C337.609 338.244 337.333 337.944 337.333 337.332V333.564H338.797V332.724H337.333V331.296H336.337V332.724H335.437V333.564H336.337V337.428C336.337 338.412 336.889 339.084 338.029 339.084ZM342.955 339.108C344.371 339.108 345.415 338.448 345.631 337.188H344.635C344.503 337.92 343.939 338.28 342.967 338.28C341.683 338.28 340.999 337.488 340.951 336.06H345.679V335.736C345.679 333.492 344.311 332.616 342.859 332.616C341.131 332.616 339.919 333.936 339.919 335.832V335.928C339.919 337.86 341.179 339.108 342.955 339.108ZM340.987 335.256C341.155 334.14 341.839 333.444 342.859 333.444C343.891 333.444 344.563 333.96 344.659 335.256H340.987ZM342.415 331.644H343.159L344.407 329.88H343.159L342.415 331.644ZM349.21 339.108C350.734 339.108 351.514 338.34 351.514 337.2C351.514 335.868 350.602 335.58 349.306 335.34C348.154 335.136 347.842 334.908 347.842 334.344C347.842 333.804 348.31 333.444 349.03 333.444C349.822 333.444 350.206 333.744 350.35 334.428H351.31C351.142 333.072 350.17 332.616 349.042 332.616C348.058 332.616 346.918 333.216 346.918 334.38C346.918 335.472 347.47 335.928 349.102 336.228C350.074 336.408 350.566 336.624 350.566 337.284C350.566 337.956 350.146 338.28 349.198 338.28C348.19 338.28 347.794 337.812 347.722 337.068H346.75C346.81 338.352 347.71 339.108 349.21 339.108ZM353.103 340.476L354.579 337.968L353.607 337.512L352.455 340.14L353.103 340.476ZM362.198 339.108C363.71 339.108 364.802 338.1 364.934 336.744H364.01C363.902 337.764 363.098 338.28 362.21 338.28C360.998 338.28 360.158 337.464 360.158 335.928V335.832C360.158 334.356 361.034 333.444 362.174 333.444C363.038 333.444 363.758 333.816 363.914 334.812H364.898C364.706 333.216 363.482 332.616 362.174 332.616C360.494 332.616 359.126 333.912 359.126 335.832V335.928C359.126 337.872 360.446 339.108 362.198 339.108ZM369.054 338.28C367.782 338.28 367.002 337.344 367.002 335.916V335.82C367.002 334.38 367.794 333.444 369.054 333.444C370.302 333.444 371.106 334.38 371.106 335.832V335.916C371.106 337.332 370.314 338.28 369.054 338.28ZM369.042 339.108C370.83 339.108 372.138 337.8 372.138 335.904V335.808C372.138 333.924 370.83 332.616 369.054 332.616C367.278 332.616 365.97 333.936 365.97 335.82V335.916C365.97 337.752 367.254 339.108 369.042 339.108ZM373.68 339H374.676V335.196C374.676 334.068 375.504 333.48 376.428 333.48C377.436 333.48 377.904 333.972 377.904 335.076V339H378.9V335.148C378.9 333.324 377.988 332.616 376.692 332.616C375.66 332.616 374.964 333.132 374.676 333.72V332.724H373.68V339ZM382.76 339.084C383.168 339.084 383.408 339.024 383.612 338.952V338.112C383.396 338.196 383.156 338.244 382.844 338.244C382.34 338.244 382.064 337.944 382.064 337.332V333.564H383.528V332.724H382.064V331.296H381.068V332.724H380.168V333.564H381.068V337.428C381.068 338.412 381.62 339.084 382.76 339.084ZM386.748 339.108C387.672 339.108 388.236 338.796 388.704 338.208V339H389.7V334.86C389.7 333.108 388.608 332.616 387.408 332.616C386.196 332.616 385.056 333.144 384.924 334.572H385.92C386.016 333.804 386.496 333.444 387.36 333.444C388.32 333.444 388.704 333.864 388.704 334.86V335.316H387.804C386.196 335.316 384.66 335.808 384.66 337.26C384.66 338.544 385.584 339.108 386.748 339.108ZM386.844 338.316C385.968 338.316 385.656 337.908 385.656 337.26C385.656 336.336 386.58 336.024 387.84 336.024H388.704V336.804C388.704 337.776 387.9 338.316 386.844 338.316ZM394.26 339.108C395.772 339.108 396.864 338.1 396.996 336.744H396.072C395.964 337.764 395.16 338.28 394.272 338.28C393.06 338.28 392.22 337.464 392.22 335.928V335.832C392.22 334.356 393.096 333.444 394.236 333.444C395.1 333.444 395.82 333.816 395.976 334.812H396.96C396.768 333.216 395.544 332.616 394.236 332.616C392.556 332.616 391.188 333.912 391.188 335.832V335.928C391.188 337.872 392.508 339.108 394.26 339.108ZM400.408 339.084C400.816 339.084 401.056 339.024 401.26 338.952V338.112C401.044 338.196 400.804 338.244 400.492 338.244C399.988 338.244 399.712 337.944 399.712 337.332V333.564H401.176V332.724H399.712V331.296H398.716V332.724H397.816V333.564H398.716V337.428C398.716 338.412 399.268 339.084 400.408 339.084ZM405.334 339.108C406.75 339.108 407.794 338.448 408.01 337.188H407.014C406.882 337.92 406.318 338.28 405.346 338.28C404.062 338.28 403.378 337.488 403.33 336.06H408.058V335.736C408.058 333.492 406.69 332.616 405.238 332.616C403.51 332.616 402.298 333.936 402.298 335.832V335.928C402.298 337.86 403.558 339.108 405.334 339.108ZM403.366 335.256C403.534 334.14 404.218 333.444 405.238 333.444C406.27 333.444 406.942 333.96 407.038 335.256H403.366ZM408.772 339H413.968V338.124H410.392L414.016 332.904V332.724H409.132V333.564H412.48L408.772 338.856V339ZM414.982 336.168H417.55V335.232H414.982V336.168ZM419.302 339H420.31V329.724H419.302V339ZM424.916 339.108C426.332 339.108 427.376 338.448 427.592 337.188H426.596C426.464 337.92 425.9 338.28 424.928 338.28C423.644 338.28 422.96 337.488 422.912 336.06H427.64V335.736C427.64 333.492 426.272 332.616 424.82 332.616C423.092 332.616 421.88 333.936 421.88 335.832V335.928C421.88 337.86 423.14 339.108 424.916 339.108ZM422.948 335.256C423.116 334.14 423.8 333.444 424.82 333.444C425.852 333.444 426.524 333.96 426.62 335.256H422.948ZM431.171 339.108C432.695 339.108 433.475 338.34 433.475 337.2C433.475 335.868 432.563 335.58 431.267 335.34C430.115 335.136 429.803 334.908 429.803 334.344C429.803 333.804 430.271 333.444 430.991 333.444C431.783 333.444 432.167 333.744 432.311 334.428H433.271C433.103 333.072 432.131 332.616 431.003 332.616C430.019 332.616 428.879 333.216 428.879 334.38C428.879 335.472 429.431 335.928 431.063 336.228C432.035 336.408 432.527 336.624 432.527 337.284C432.527 337.956 432.107 338.28 431.159 338.28C430.151 338.28 429.755 337.812 429.683 337.068H428.711C428.771 338.352 429.671 339.108 431.171 339.108ZM438.876 339.06C439.296 339.06 439.644 338.724 439.644 338.292C439.644 337.86 439.296 337.524 438.876 337.524C438.456 337.524 438.108 337.86 438.108 338.292C438.108 338.724 438.456 339.06 438.876 339.06ZM438.504 336.576H439.272L439.44 330.42H438.336L438.504 336.576Z" fill="#10173D"/>
<g clip-path="url(#clip1)">
<path d="M598 311C598 309.895 598.895 309 600 309H755C756.105 309 757 309.895 757 311V336C757 337.105 756.105 338 755 338H600C598.895 338 598 337.105 598 336V311Z" fill="#4864C9"/>
<path d="M615 317.2V327H618.892C620.236 327 621.356 326.524 622.252 325.586C623.162 324.648 623.61 323.486 623.61 322.1C623.61 320.714 623.162 319.552 622.252 318.614C621.356 317.676 620.236 317.2 618.892 317.2H615ZM616.932 325.152V319.048H618.892C619.746 319.048 620.432 319.328 620.964 319.902C621.496 320.462 621.762 321.19 621.762 322.1C621.762 323.01 621.496 323.738 620.964 324.312C620.432 324.872 619.746 325.152 618.892 325.152H616.932ZM628.144 317.144L627.024 319.062H628.76L630.314 317.144H628.144ZM631.7 324.242C631.742 323.976 631.77 323.738 631.77 323.5C631.77 322.45 631.434 321.582 630.762 320.868C630.104 320.154 629.25 319.804 628.228 319.804C627.15 319.804 626.254 320.154 625.568 320.868C624.882 321.568 624.532 322.45 624.532 323.5C624.532 324.564 624.882 325.446 625.582 326.146C626.282 326.846 627.206 327.196 628.368 327.196C629.712 327.196 630.734 326.692 631.42 325.698L629.964 324.858C629.614 325.32 629.082 325.558 628.396 325.558C627.318 325.558 626.66 325.124 626.422 324.242H631.7ZM626.394 322.842C626.604 321.946 627.262 321.428 628.228 321.428C629.054 321.428 629.754 321.89 629.964 322.842H626.394ZM636.308 327.196C637.666 327.196 638.856 326.482 639.472 325.376L637.904 324.48C637.624 325.054 637.022 325.404 636.294 325.404C635.748 325.404 635.3 325.222 634.95 324.872C634.6 324.508 634.418 324.046 634.418 323.5C634.418 322.38 635.216 321.582 636.294 321.582C637.008 321.582 637.61 321.946 637.89 322.52L639.444 321.61C638.87 320.504 637.666 319.804 636.308 319.804C635.258 319.804 634.376 320.154 633.662 320.868C632.962 321.582 632.612 322.45 632.612 323.5C632.612 324.55 632.962 325.418 633.662 326.132C634.376 326.846 635.258 327.196 636.308 327.196ZM646.282 326.132C646.996 325.418 647.36 324.536 647.36 323.5C647.36 322.464 646.996 321.596 646.282 320.882C645.568 320.168 644.686 319.804 643.65 319.804C642.614 319.804 641.732 320.168 641.018 320.882C640.304 321.596 639.954 322.464 639.954 323.5C639.954 324.536 640.304 325.418 641.018 326.132C641.732 326.846 642.614 327.196 643.65 327.196C644.686 327.196 645.568 326.846 646.282 326.132ZM642.292 324.886C641.942 324.522 641.76 324.06 641.76 323.5C641.76 322.94 641.942 322.478 642.292 322.114C642.656 321.75 643.104 321.568 643.65 321.568C644.196 321.568 644.644 321.75 645.008 322.114C645.372 322.478 645.554 322.94 645.554 323.5C645.554 324.06 645.372 324.522 645.008 324.886C644.644 325.25 644.196 325.432 643.65 325.432C643.104 325.432 642.656 325.25 642.292 324.886ZM653.251 323.78C653.251 324.942 652.649 325.516 651.711 325.516C650.871 325.516 650.325 325.012 650.325 324.074V320H648.519V324.298C648.519 325.208 648.771 325.908 649.261 326.426C649.765 326.944 650.395 327.196 651.165 327.196C652.117 327.196 652.817 326.874 653.251 326.216V327H655.057V320H653.251V323.78ZM659.609 324.9L657.915 320H655.927L658.587 327H660.645L663.305 320H661.317L659.609 324.9ZM665.982 320H664.176V327H665.982V323.654C665.982 322.982 666.192 322.506 666.626 322.212C667.06 321.918 667.564 321.806 668.11 321.876V319.86C667.158 319.86 666.318 320.308 665.982 321.204V320ZM670.062 319.16C670.678 319.16 671.182 318.656 671.182 318.054C671.182 317.452 670.678 316.934 670.062 316.934C669.46 316.934 668.956 317.452 668.956 318.054C668.956 318.656 669.46 319.16 670.062 319.16ZM670.972 327V320H669.166V327H670.972ZM674.431 320H672.625V327H674.431V323.654C674.431 322.982 674.641 322.506 675.075 322.212C675.509 321.918 676.013 321.806 676.559 321.876V319.86C675.607 319.86 674.767 320.308 674.431 321.204V320ZM682.921 327V316.78H681.115V327H682.921ZM691.378 324.242C691.42 323.976 691.448 323.738 691.448 323.5C691.448 322.45 691.112 321.582 690.44 320.868C689.782 320.154 688.928 319.804 687.906 319.804C686.828 319.804 685.932 320.154 685.246 320.868C684.56 321.568 684.21 322.45 684.21 323.5C684.21 324.564 684.56 325.446 685.26 326.146C685.96 326.846 686.884 327.196 688.046 327.196C689.39 327.196 690.412 326.692 691.098 325.698L689.642 324.858C689.292 325.32 688.76 325.558 688.074 325.558C686.996 325.558 686.338 325.124 686.1 324.242H691.378ZM686.072 322.842C686.282 321.946 686.94 321.428 687.906 321.428C688.732 321.428 689.432 321.89 689.642 322.842H686.072ZM694.101 321.988C694.101 321.638 694.451 321.414 694.913 321.414C695.431 321.414 695.809 321.652 696.033 322.128L697.573 321.288C697.027 320.336 696.047 319.804 694.913 319.804C694.157 319.804 693.527 320 693.009 320.406C692.505 320.798 692.253 321.344 692.253 322.03C692.253 323.486 693.555 323.92 694.591 324.186C695.305 324.368 695.865 324.578 695.865 324.956C695.865 325.362 695.543 325.558 694.899 325.558C694.185 325.558 693.737 325.25 693.527 324.648L691.959 325.53C692.477 326.636 693.457 327.196 694.899 327.196C695.697 327.196 696.369 327 696.901 326.622C697.447 326.23 697.713 325.67 697.713 324.956C697.727 323.458 696.397 322.968 695.375 322.758C694.661 322.576 694.101 322.366 694.101 321.988ZM706.517 319.804C705.537 319.804 704.781 320.14 704.249 320.826V320H702.443V329.8H704.249V326.174C704.781 326.86 705.537 327.196 706.517 327.196C707.455 327.196 708.267 326.846 708.925 326.132C709.597 325.418 709.933 324.536 709.933 323.5C709.933 322.464 709.597 321.596 708.925 320.882C708.267 320.168 707.455 319.804 706.517 319.804ZM704.795 324.928C704.431 324.55 704.249 324.074 704.249 323.5C704.249 322.926 704.431 322.45 704.795 322.086C705.159 321.708 705.621 321.526 706.181 321.526C706.741 321.526 707.203 321.708 707.567 322.086C707.945 322.45 708.127 322.926 708.127 323.5C708.127 324.074 707.945 324.55 707.567 324.928C707.203 325.292 706.741 325.474 706.181 325.474C705.621 325.474 705.159 325.292 704.795 324.928ZM713.013 320H711.207V327H713.013V323.654C713.013 322.982 713.223 322.506 713.657 322.212C714.091 321.918 714.595 321.806 715.141 321.876V319.86C714.189 319.86 713.349 320.308 713.013 321.204V320ZM721.901 326.132C722.615 325.418 722.979 324.536 722.979 323.5C722.979 322.464 722.615 321.596 721.901 320.882C721.187 320.168 720.305 319.804 719.269 319.804C718.233 319.804 717.351 320.168 716.637 320.882C715.923 321.596 715.573 322.464 715.573 323.5C715.573 324.536 715.923 325.418 716.637 326.132C717.351 326.846 718.233 327.196 719.269 327.196C720.305 327.196 721.187 326.846 721.901 326.132ZM717.911 324.886C717.561 324.522 717.379 324.06 717.379 323.5C717.379 322.94 717.561 322.478 717.911 322.114C718.275 321.75 718.723 321.568 719.269 321.568C719.815 321.568 720.263 321.75 720.627 322.114C720.991 322.478 721.173 322.94 721.173 323.5C721.173 324.06 720.991 324.522 720.627 324.886C720.263 325.25 719.815 325.432 719.269 325.432C718.723 325.432 718.275 325.25 717.911 324.886ZM726.313 320V319.93C726.313 319.034 726.789 318.74 727.797 318.74C728.259 318.74 728.805 318.782 729.435 318.852V317.2C728.833 317.074 728.287 317.004 727.797 317.004C725.599 317.004 724.507 317.984 724.507 319.93V320H723.499V321.736H724.507V327H726.313V321.736H728.371V327H730.177V320H726.313ZM733.63 327V316.78H731.824V327H733.63ZM736.894 321.988C736.894 321.638 737.244 321.414 737.706 321.414C738.224 321.414 738.602 321.652 738.826 322.128L740.366 321.288C739.82 320.336 738.84 319.804 737.706 319.804C736.95 319.804 736.32 320 735.802 320.406C735.298 320.798 735.046 321.344 735.046 322.03C735.046 323.486 736.348 323.92 737.384 324.186C738.098 324.368 738.658 324.578 738.658 324.956C738.658 325.362 738.336 325.558 737.692 325.558C736.978 325.558 736.53 325.25 736.32 324.648L734.752 325.53C735.27 326.636 736.25 327.196 737.692 327.196C738.49 327.196 739.162 327 739.694 326.622C740.24 326.23 740.506 325.67 740.506 324.956C740.52 323.458 739.19 322.968 738.168 322.758C737.454 322.576 736.894 322.366 736.894 321.988Z" fill="white"/>
</g>
</g>
<defs>
<clipPath id="clip0">
<rect width="794" height="585" fill="white"/>
</clipPath>
<clipPath id="clip1">
<path d="M598 311C598 309.895 598.895 309 600 309H755C756.105 309 757 309.895 757 311V336C757 337.105 756.105 338 755 338H600C598.895 338 598 337.105 598 336V311Z" fill="white"/>
</clipPath>
</defs>
</svg>
